<svg version="1.1" xmlns="http://www.w3.org/2000/svg" xmlns:xlink="http://www.w3.org/1999/xlink" viewBox="0 0 30 25.4" xml:space="preserve">
  <path style="fill: #66AF68;" d="M25.4,14.5v5.7c0,2.9-2.3,5.2-5.2,5.2l0,0h-15c-1.4,0-2.7-0.5-3.7-1.5c-1-1-1.6-2.3-1.5-3.7v-15 c0-1.4,0.5-2.7,1.5-3.7c1-1,2.3-1.5,3.7-1.5h15c0.7,0,1.4,0.1,2.1,0.5c0.2,0.1,0.3,0.2,0.3,0.4c0,0.2,0,0.4-0.2,0.5l-0.9,0.9 c-0.1,0.2-0.4,0.2-0.6,0.1c-0.3-0.1-0.5-0.1-0.8-0.1h-15c-0.8,0-1.5,0.3-2,0.8c-0.6,0.5-0.9,1.3-0.8,2v15c0,0.8,0.3,1.5,0.8,2 c0.5,0.6,1.3,0.9,2,0.8h15c1.6,0,2.9-1.3,2.9-2.9v-4.6c0-0.2,0.1-0.3,0.2-0.4l1.2-1.2c0.1-0.1,0.3-0.2,0.4-0.2c0.1,0,0.1,0,0.2,0.1 C25.3,14,25.4,14.2,25.4,14.5z M29.6,5.6L14.9,20.3c-0.6,0.6-1.5,0.6-2,0c0,0,0,0,0,0l-7.8-7.8c-0.6-0.6-0.6-1.5,0-2c0,0,0,0,0,0 l2-2c0.6-0.6,1.5-0.6,2,0c0,0,0,0,0,0l4.7,4.7L25.5,1.6c0.6-0.6,1.5-0.6,2,0c0,0,0,0,0,0l2,2C30.1,4.1,30.1,5.1,29.6,5.6 C29.6,5.6,29.6,5.6,29.6,5.6L29.6,5.6z"/>
</svg>
