<svg xmlns="http://www.w3.org/2000/svg" viewBox="0 0 15.6 16.9"><defs><style>.cls-1{fill:#808184;stroke:#f7f7f7;stroke-miterlimit:10;stroke-width:0.5px;}</style></defs><title>graphic-checkbox</title><g id="Layer_2" data-name="Layer 2"><g id="Layer_1-2" data-name="Layer 1"><path class="cls-1" d="M13.29,2.32C11.13,2,3.57,2.23,2.08,2.72c.06,3.91.12,7.78.18,11.73.2,0,.38,0,.56,0,1-.08,2-.18,3-.26a44.89,44.89,0,0,1,5.88,0,7.44,7.44,0,0,0,1.56,0A57.52,57.52,0,0,0,13.29,2.32Zm2.05,12.41c-.12.76-.22.86-1,.91-1.79.12-3.58.22-5.37.33-2.37.15-4.75.26-7.1.65-.76.12-1.17-.22-1.17-1,0-.45,0-.91,0-1.36,0-.29.09-.59-.16-.85-.07-.07,0-.25,0-.38,0-1.89,0-3.77,0-5.66C.49,6.31.45,5.26.4,4.2.38,3.62.33,3,.27,2.45c0-.24-.06-.45.19-.6,0,0,.11-.07.11-.11.05-.62.48-.61,1-.65C3.13.94,4.72.71,6.31.55,7.16.46,8,.42,8.85.38,10,.32,11.19.28,12.36.25h.29c.56,0,1.12.07,1.68.07a.6.6,0,0,1,.27.07l.42,0c.08.12.16.23.23.36l0,.49h.07c0,.36,0,.71,0,1.07-.18,0-.23.16-.24.46C15,4,15,5.16,15,6.35c0,1.62.08,3.25.12,4.87,0,.81,0,1.62.06,2.43a4.52,4.52,0,0,0,.14.65A1.35,1.35,0,0,1,15.34,14.73Zm-8.23-5,.67-1.48a11.83,11.83,0,0,1,2.54-3.79,6.85,6.85,0,0,1,1-.75.66.66,0,0,1,.93.07,1.12,1.12,0,0,1,.14.91.3.3,0,0,1-.15.15c-.57.15-.84.63-1.12,1.06a18.41,18.41,0,0,0-1.92,4c-.3.83-.57,1.68-.84,2.52-.07.22-.16.38-.41.39S7,12.13,6.83,12A12.09,12.09,0,0,1,4.24,9.25.9.9,0,0,1,4.35,8c.13-.16.17-.49.46-.41A1.45,1.45,0,0,1,5.5,8c.45.48.86,1,1.27,1.51C6.85,9.58,7.06,9.76,7.12,9.73Z"/></g></g></svg>