<svg xmlns="http://www.w3.org/2000/svg" viewBox="0 0 199.05 221.93"><defs><style>.cls-1{fill:#fff4c5;}.cls-2{fill:#f3d668;}.cls-3{fill:#f8f1d4;}.cls-4{fill:#f6e8af;}.cls-5{fill:#d3d3d3;}.cls-6{fill:#863d58;}.cls-7{fill:#491d34;}</style></defs><title>graphic-donut</title><g id="Layer_2" data-name="Layer 2"><g id="Layer_1-2" data-name="Layer 1"><path class="cls-1" d="M11.75,62.13c37.91-45-31.95-72.68,47.92-58.3s154.95,6.39,136.58,67.09,4,177.65-51.92,145.54S90,183.79,53.28,155.71-1,77.3,11.75,62.13"/><path class="cls-2" d="M75.26,42.55l3.8.1,1.78.25,1.14,0,4.85-.11c21.2-.51,39.6,5.81,55.15,20.83,17.26,16.67,27.51,37,25.44,60.45-3.23,36.56-14.86,64.58-56.78,79.12-13.31,4.62-26.73,2.32-40.22.46-6.57-.91-13.13-1.53-19.44-3.7-3.4-4.59-9.6-4.77-13.52-8.68-2.41-2.4-4.65-5.64-8.92-4.8L27,186.18a1.06,1.06,0,0,0-.58-.35l-1.63-.34c-.13-1.06-.41-2-1.78-1.83h0c.09-1.68-1.35-3.23,1.15-5,2-1.38-.4-4.08-1.28-6a2.65,2.65,0,0,0-2.43-.37c-3.65,4-5.63,1.51-7.49-1.76,3.72.73,5.36-8.69,10.33-2.09C26,172,29,175.36,29.17,180.2c4.87-.59,7.91,4.45,12.84,4,4.26-.37,9.9,1.3,12.57.2,10.43-4.28,16.83,2.29,24.87,5.9,6.06,2.72,14.09,10.26,19.48-1.81.37-.82,1.85-1.58,3.56-.25s6.07,2.32,6.21,2c3.54-7.45,7-7.85,11.54-.73,2.38,3.72,4.08-2.33,6.79-1,3.73,1.85,6.31.81,8.49-3.14,2-3.7,4.67-7.78,8.14-9.81a37.91,37.91,0,0,0,11.56-10.52c3.43-4.61,2-10.65,4-15,3.85-8.72,5.08-17.53,5.22-26.65,0-2.91,3.07-8.5-4.15-8.16.77-1.11,1.45-2.28,2.32-3.31,1.07-1.28,1.46,3.19,2.16.55a5,5,0,0,0-3.31-6.1c-2.84-.81-1.79-2.14-1.14-3.66-1.09-16-7.76-28.91-21.82-36.85-3.67-2.07-4.34-6.33-8.12-7.62-1.17-1.67-2.28-3.41-4.74-3.12-4.17-5.87-10.51-6.61-16.93-7.19a4.29,4.29,0,0,0-.11-.76c-.16-1.49-1.17-1.54-2.31-1.37l-12.47-1c-4.62.23-9.24.63-13.86.63-2.67,0-2.1,1.47-1.88,3-1.79-.5-3.74-.92-4.55,1.3-.62,1.7-.5,4.07,1.14,4.83,3.56,1.67,5.71,4.6,8.07,7.43-2.13,2.74-1.73,5.23.73,7.52l-2.92.2c-1.79-.38-3.52-3.8-5.4-.12-2.8-3.21,6.79-4.52,1.17-8.41s-5.89-14.3-1.06-18.65"/><path class="cls-3" d="M75.26,42.55C70.43,46.9,70.84,57.4,76.32,61.2s-4,5.2-1.17,8.41l-.78,1.53.75,3.14-.18,10c-1.5-.44-3.08-.8-3-1.12.15,1.3-5.07,1.28-3.84,4.95l-.49,2.34c-.6,9.81-8,13.84-15.31,17.87-4.81-.74-6.16,3.61-8.84,6L39.68,113c-.14-1.47,2.72-2.17,1.09-4-2.32-2.58-5.44-2.92-8.5-2.23-4.52,1-8.94,2.44-13.4,3.7C18,108.88,16.54,108.8,15,109c-1.11-2.41-3.83-1-5.4-2.27,8.65-1.32,17-5.27,26-3.16,6.73,1.58,10.55-3.27,15.56-6,6.55-3.52,9.73-8.67,10.73-15.65,1,0,2.21.14,2-1.52l.18-2.4c4.84-1.82,1.52-8.68,6.44-10.44.93-.33,2.49.28,2.21-1.71-.32-2.18-2-1-3-1.19a21.61,21.61,0,0,0-4.59.23c-.56-2.64-5.52-5.62,1.08-7.79,1.35-.44-.58-4.16-2.27-6-.71-.75-1.7-2.18-1.42-2.75.89-1.8,2-4.24,3.59-4.79,2.86-1,6.12-.77,9.22-1.06"/><path class="cls-4" d="M63.36,76.62c-.64,0-1.27,0-1.91,0-1.86.1-4.31,2.81-5.35.37-1-2.26,1.53-4.16,4-4.62,3.49-.67-.07-6.81,4.92-6.09C66,68,66.5,69.4,65.36,71.48c-.83,1.53-4,2.48-2,5.14"/><path class="cls-4" d="M28.56,186.5c4.27-.84,6.51,2.4,8.92,4.8C41.39,195.2,47.6,195.39,51,200c-9.36-1.36-15.37-8.31-22.44-13.48"/><path class="cls-5" d="M63.36,76.62c-2-2.66,1.17-3.61,2-5.14C66.5,69.4,66,68,65,66.3c0-.47.05-.94.08-1.4a21.73,21.73,0,0,1,4.59-.23c1,.15,2.72-1,3,1.19.29,2-1.27,1.37-2.21,1.71-4.92,1.76-1.6,8.62-6.44,10.44l-.69-1.39"/><path class="cls-4" d="M86.83,42.82,82,42.93l4.86-.11"/><path class="cls-5" d="M63.87,80.41c.21,1.66-1,1.51-2,1.52l2-1.52"/><path class="cls-4" d="M80.84,42.91l-1.78-.25,1.78.25"/><path class="cls-6" d="M5.29,156.38C1.09,148-1.25,139.32.7,129.88c1.65-3.54,3.86-5.78,7.74-2.75,4.17,3.27,2.71-2.71,4.78-2.8.14,10.24,7,1.1,9.87,3.42-.36-1.14,2.72-2,.31-3.28-2.86-1.51-5.6-3.67-9.19-2.29.16-2.73-4.82-6.26,1.72-8.13,1.89-.54-1.63-3.12-1-5.09,1.57-.17,3-.09,3.9,1.53,5.68,2.79,11.46,5,17.87,2.46-3.51.25-3.93,6.26-8,4.67-1.59-.63-3-2.2-4.32-.66a5.38,5.38,0,0,0-1,4.47c.53,1.61,2.59,4.2,3.29,4,2.65-.79-.53-2.38,0-3.65.18-.44,1.1-1.06,1.31-.94,1.71,1,4.74-1.77,5,.6.23,2-2.11,4.32-3.25,6.53-1,1.9-6.15,2.79-1.89,5.92a6.06,6.06,0,0,1,2.6,5.94c-.2,2.26-.07,3.48,2.56,3.43.75,0,1.52.68,2.28,1.06-.84.23-1.7.39-2.51.7-2.13.81-5.64,1.26-6,2.62-.7,2.35,3.28,3.83,4.35,3.67,5.08-.77,5.86,3.71,8.43,5.95-4,2.07-8.51,3.44-11.75,6.88l-.16.34.19-.3c5.65,3.33,9.64-1.42,14.13-3.17,1.56-.61.15-2.68-.91-3.84.61-1.17-1.27-3.1.69-3.64s1.27,1.85,2.07,2.59a7.33,7.33,0,0,0,3.74,2.17A3.53,3.53,0,0,0,50.21,156c.33-2.84-1.76-.17-2.59-.89-1.65-1.44-2.77-3.09-2.24-5.36.41-1.77,2.08-2,2.92-1,3.72,4.71,13.16,7.11,7.63,15.8-2.17,3.41,1.87,9-4.2,10.57a10.54,10.54,0,0,0,1.63,2.22c6.08,4.9,10.53-.25,15.41-2.6,3.92-1.89,7.58-3,11.82-.22,2.67,1.75,7.31,4.18,9,3.1a27.21,27.21,0,0,0,12.12-16.12c4.26-2.05,5,2.51,7.43,4,1.88,1.13,1.34,3.1.79,4.53-1.43,3.77-1.34,8.41,1.18,10.27s3.87-5.24,8.08-4.1c.13,0,.53-.87.8-1.34a2.79,2.79,0,0,0-.65-.27c-9.27-1.28-2.24-7.56-3.15-11.36-.12-.5,3.61-2.82,6.27-2.09,2.33.64,2.37-1.67,3.06-2.69.82-1.21.09-2.79-1.27-3.63s-2.34-1-3,1c-.26.85-1,.19-1.89-.42-4.2-3-3.79-7.08-2.18-10.73,2.82-6.42-1.77-9.21-5.26-12.71.09-2.56,1.5-4.13,3.72-5.21.48-.23.71-1,1-1.54-.63-.2-1.62-.76-1.84-.55-3.58,3.51-2.26-.81-2.8-1.79-1.48-2.74,1.83-6.77.73-7.46-7-4.46-10.68-11.6-15.6-17.74a2.79,2.79,0,0,0-2.61,0c-3.08,5-7.92,2.7-12.17,3.63.88-3.13,6.34-2.45,5-5.17-1-2-5.08.21-7.78.55-.77.1-2-.09-2.24.33-1.3,2-5.75,1.72-4.32,5.6.25.67,1.69.91,2.57,1.34a6.21,6.21,0,0,1-4,1.94c-2.13.41-4.69.26-6.18,2.47l-2.34.77-4.7-1.64A15.64,15.64,0,0,1,61,106c9-3.13,11.07-8,6.58-15.56l.49-2.34c1.53-.75,3.05-1.46,3.89.88.44,1-1.24,3.89,2.07,2.28,6.08-4.16,6.08-4.16.92-7q.09-5,.18-10c2.43-1.69.66-2.37-.75-3.14l.78-1.53c1.89-3.68,3.61-.25,5.4.12,2.09,1.44-.63,5.88,3.58,5.88,1.4,0,3.19-1.34,4.15-.84,7.71,4,12.94,5,9.33-6.65l1.29-1.41c-2.11-.86-3.69.17-5.2,1.45-3,3.67-6.69,1.87-10.23,1.37C81,67.24,80.61,64.75,82.74,62c4-.31,6.17-8.75,12.27-1.53,2.69,3.19,7.69,4,5.9,9.81-.07.23.55,1,.83,1,7.44-.18,13.49,3.7,19.82,6.77.82.4,2.37,1.12.18,1.9s-5.22,1.79-3.83,4.48c1.16,2.24,3.37,5.18,7.17,3.61a2.72,2.72,0,0,1,3.64,1.34,2,2,0,0,1-.5,1.88c-2,1.39-4.17,2.54-6.2,3.88a27.69,27.69,0,0,0-2.73,2.34c1.4.87,3.5,2.8,4.06,2.42,1.89-1.28,5.89-.1,5.51-4.45a3.52,3.52,0,0,1,3-3.59c1.92-.31,3.94-.12,5.1,1.82,1.44,2.41,3.72,1,5.6,1.27.54.06,1.23-1.19,1.86-1.84.54,1.41,1.87,3.74,1.49,4.07-1.75,1.49-.56,2.39.28,3.29,2.25,2.42-2,3.33-1.2,5.42,0,.06-.52.35-.79.54a25.39,25.39,0,0,1-.68-3.84c-.12-4.49-5.05-.93-6.13-3.73-.33.19-1,.42-.95.55,1.09,6.13,1.78,11.91,10.83,11.58,2.34-.08,5.12,6.11,7.19,9.71.43.75-1.18,2.59-3.29,1.13-2.48-1.72-3.58.94-5,2.24-.43.4-.54,1.16-.79,1.75,5.26,1.81,2.42,6.25,3.1,9.54-6.47-2.16-5.89,5.06-9.3,7-5.63-2.49-10.88.48-16.17,1.51-1.19.23-1.64,3.2,0,5.35,3.08,4.14,5.19.09,7.65-.56a18.62,18.62,0,0,0,3.48-1.74c.5,1.73,1.41,3.47,1.33,5.17,0,.82-1.87,2.07-3,2.21-1.44.17-1.37-.22-1,1.5,1,5.33,5.87.91,8.14,3.64,1.51,1.81,2.77.14,3.47-2.08,1.46-4.62-5.65-2.6-4.7-6.52,4.49,1.54,8.85.46,13.12-.85,2.68-.82,3.8-3.48,4.56-5.78.32-1-1.46-3.78-2.3-3.79-3.64,0-4-2.88-5.21-5.06,2.64-.4,2.5-2.06,1.93-4-.42-1.49-.8-2.85,1.23-3.87s3.14.31,4.48,1.1c.58.34.92,1.08,1.36,1.65.35-1,1-1.94,1-2.88-.18-3.53-.62-7-.92-10.57a23.35,23.35,0,0,1,.05-2.56l2.67,1.09c7.22-.34,4.19,5.25,4.15,8.16-.13,9.12-1.37,17.93-5.22,26.65-1.94,4.4-.56,10.44-4,15a37.91,37.91,0,0,1-11.56,10.52c-3.47,2-6.1,6.11-8.14,9.81-2.18,3.94-4.76,5-8.49,3.14-2.71-1.35-4.41,4.7-6.79,1-4.54-7.12-8-6.71-11.54.73-.14.31-4.52-.71-6.21-2s-3.2-.57-3.57.25c-5.4,12.08-13.43,4.53-19.48,1.81-8-3.61-14.44-10.18-24.87-5.9-2.68,1.1-8.32-.57-12.57-.2-4.93.42-8-4.61-12.84-4C29,175.36,26,172,23.27,168.44c-5-6.61-6.61,2.82-10.33,2.09-1.39-1.55-4.22-2-3.84-4.91a17.72,17.72,0,0,0-3.81-9.23M85,88.3l-.31-.15.29.17c1.16,1,2.31,1.17,4.1-.37L85,88.3M2.9,146.54c.9,2.2.52,5,2.79,5.51,2.08.43,3.29-1.41,3-3.72,2.5,1.19-1-6.1,3-2.21,1.58,1.54,2.55,3,4.49,1.12,1.26-1.23,3.19-2.41,1.7-4.83-1.7-2.78-3-1.08-4.62.07a2.88,2.88,0,0,1-2,.09c-.84-3.79-4-2.36-5.26-1.48-1.6,1.15-2.2,3.69-3.14,5.46M96.36,87.72c-2.4.65-6.28,1.18-5.78,2.59,1.68,4.76,7.36,3.57,11,5.66,1.85,1,2.4-1.85,2.24-2.9-.67-4.4-5.44-3.13-7.52-5.36M19.7,129.11c-3,.88-3.31,4.08-4.47,6.44-.17.33,2,2.58,3.14,2.66,4.79.33,2.6-4.48,4.25-6.62.69-.9-1.15-2.22-2.92-2.47m113.22,6.17c.66,1,.22,3.72,2.33,3.67,3.93-.1,3.15-4.21,4.43-6.54.73-1.33-.58-1.41-1.48-1.07-2,.74-5.23-.29-5.28,3.94m-20.47-48c1.25.45,1.73.81,2.11.72a21.49,21.49,0,0,0,2.69-1c-.52-.46-1.09-1.35-1.54-1.3-.87.11-1.68.75-3.27,1.56M38.81,166.54a8.15,8.15,0,0,0,.86-1.39c0-.14-.31-.42-.48-.64a5.48,5.48,0,0,0-.92,1c-.08.14.25.5.53,1m49-80.44-.57.31c.09.08.18.23.26.22a4.32,4.32,0,0,0,.69-.11c-.12-.14-.24-.28-.38-.42m28,2.79.53,0c-.08-.07-.16-.19-.25-.19s-.19.09-.29.17M36.18,169.34l.29.11c0-.08.11-.22.08-.24a.88.88,0,0,0-.28-.12l-.09.25"/><path class="cls-7" d="M148.51,135.33c-.68-3.3,2.15-7.73-3.1-9.54.25-.59.36-1.35.79-1.75,1.4-1.3,2.51-4,5-2.24,2.1,1.46,3.72-.37,3.29-1.13-2.07-3.6-4.85-9.79-7.19-9.71-9.05.33-9.75-5.45-10.83-11.58,0-.12.62-.36.95-.55,1.08,2.81,6-.75,6.13,3.73a25.4,25.4,0,0,0,.68,3.84c.28-.19.82-.48.79-.54-.84-2.08,3.45-3,1.2-5.41-.84-.9-2-1.8-.28-3.29.38-.33-1-2.66-1.49-4.07-.62.65-1.32,1.9-1.86,1.84-1.88-.22-4.16,1.15-5.6-1.27-1.16-1.93-3.18-2.13-5.1-1.82a3.52,3.52,0,0,0-3,3.59c.39,4.36-3.61,3.18-5.51,4.45-.55.37-2.66-1.55-4.06-2.42A27.45,27.45,0,0,1,122,95.12c2-1.35,4.2-2.5,6.2-3.88a2,2,0,0,0,.5-1.87A2.72,2.72,0,0,0,125.08,88c-3.8,1.57-6-1.37-7.17-3.62-1.39-2.69,1.6-3.68,3.83-4.48s.64-1.5-.18-1.9c-6.32-3.06-12.37-6.94-19.82-6.77-.29,0-.91-.75-.83-1,1.79-5.77-3.21-6.62-5.9-9.81-6.1-7.21-8.3,1.23-12.27,1.53-2.36-2.82-4.51-5.76-8.07-7.43-1.63-.77-1.76-3.13-1.14-4.83.81-2.22,2.76-1.79,4.55-1.29,5.7.76,10.87-.78,15.74-3.62l12.47,1c.15,1.5,1.21,1.48,2.31,1.38a4.19,4.19,0,0,1,.1.76c3.69,3.24,7.58,6.29,9.89,10.81a2.28,2.28,0,0,0,1.36-.23c.47-3.57,3.91-2.08,5.68-3.39,2.46-.3,3.58,1.45,4.74,3.12-.84,8.21,9.64,9.44,10.53,17,.24,2,3.2,4.57,4.41,7.29,3.48,7.81,6.29,16.19,15,20.13-.65,1.53-1.7,2.85,1.14,3.66a5,5,0,0,1,3.31,6.1c-.7,2.64-1.09-1.83-2.16-.55-.86,1-1.55,2.2-2.32,3.31l-2.67-1.09a23.36,23.36,0,0,0-.05,2.56c.3,3.52.74,7,.92,10.57,0,.94-.64,1.92-1,2.88-.45-.56-.79-1.31-1.36-1.65-1.34-.79-2.44-2.13-4.48-1.1s-1.65,2.38-1.23,3.87c.57,2,.71,3.65-1.93,4Z"/><path class="cls-6" d="M160.31,102.71c-8.7-3.94-11.51-12.32-15-20.13-1.21-2.72-4.17-5.25-4.41-7.29-.9-7.61-11.37-8.83-10.53-17,3.79,1.29,4.46,5.54,8.13,7.62,14.05,7.94,20.73,20.89,21.81,36.85"/><path class="cls-7" d="M97.61,68.13c3.61,11.68-1.61,10.67-9.33,6.65-1-.5-2.75.84-4.15.84-4.21,0-1.49-4.45-3.58-5.89l2.92-.2c3.54.51,7.25,2.3,10.23-1.37l3.91,0"/><path class="cls-6" d="M125.63,55.13c-1.77,1.31-5.21-.18-5.68,3.39a2.28,2.28,0,0,1-1.36.23c-2.31-4.52-6.21-7.57-9.89-10.81,6.42.58,12.76,1.33,16.93,7.19"/><path class="cls-6" d="M93.82,44.83c-4.87,2.84-10,4.39-15.74,3.62-.22-1.52-.79-3,1.88-3,4.62,0,9.24-.4,13.86-.64"/><path class="cls-6" d="M108.6,47.18c-1.1.1-2.16.12-2.31-1.37,1.14-.16,2.15-.11,2.31,1.38"/><path class="cls-7" d="M65.48,108.36c1.48-2.21,4-2.06,6.18-2.47a6.21,6.21,0,0,0,4-1.94c-.89-.44-2.33-.67-2.57-1.34-1.43-3.88,3-3.58,4.32-5.6.27-.42,1.47-.23,2.24-.33,2.71-.35,6.77-2.56,7.78-.55,1.38,2.71-4.08,2-5,5.17,4.25-.93,9.09,1.33,12.17-3.63a2.79,2.79,0,0,1,2.61,0c4.92,6.13,8.57,13.28,15.6,17.74,1.1.7-2.22,4.73-.73,7.46.53,1-.78,5.3,2.8,1.79.22-.22,1.21.35,1.84.55-.34.53-.56,1.3-1,1.54-2.22,1.08-3.62,2.65-3.72,5.21-5.16,4.54-1.88,11.08-3.89,16.37-6.68-2.5-7.28,3.82-10.08,6.95,1.51,1.91-2.23,7,3.72,6.22a27.22,27.22,0,0,1-12.12,16.12c-1.69,1.09-6.32-1.34-9-3.1-4.24-2.78-7.91-1.67-11.82.22-4.88,2.36-9.33,7.5-15.41,2.6a10.55,10.55,0,0,1-1.62-2.22c6.07-1.57,2-7.16,4.2-10.57,5.54-8.69-3.9-11.09-7.63-15.8-.83-1.05-2.51-.78-2.92,1-.53,2.27.59,3.92,2.24,5.36.82.72,2.92-2,2.59.89a3.53,3.53,0,0,1-2.63,2.29,7.33,7.33,0,0,1-3.74-2.17c-.8-.74-.16-3.11-2.07-2.59s-.08,2.46-.69,3.64l-1.5.09c-2.56-2.24-3.34-6.72-8.43-5.95-1.07.16-5.05-1.32-4.35-3.67.41-1.36,3.91-1.81,6-2.62.81-.31,1.67-.47,2.51-.7-.76-.37-1.53-1.07-2.28-1.06-2.64,0-2.76-1.17-2.56-3.43a6.06,6.06,0,0,0-2.6-5.94c-4.26-3.13.92-4,1.89-5.92,1.13-2.21,3.47-4.5,3.25-6.53-.26-2.37-3.29.36-5-.6-.21-.12-1.13.5-1.31.94-.51,1.27,2.67,2.86,0,3.65-.7.21-2.76-2.39-3.29-4a5.39,5.39,0,0,1,1-4.47c1.36-1.53,2.73,0,4.32.66,4,1.59,4.45-4.42,8-4.67l2.94.06,3.75,1.32c4.84,1.3,8.33-.77,11.19-4.46l.83-.69c1.13,0,2.16-.2,2.34-1.61a6.47,6.47,0,0,0,.66-.09l4.7,1.64c-6.9,8.39-8,23.31-.77,30.64,4.67,4.72,7.39,13.77,17.08,11.41,2.6-.63,5.33-2.35,7.71-1.94,9.34,1.61,13.49-3.54,16.14-11.2a5.18,5.18,0,0,1,.7-1.72c5.4-6.21,4.92-13.7,1.21-19.52C100.84,110,95,103.52,84.77,105.17c-6.43,1-12.52,4.26-19.29,3.2M92,172l.88-.3-1-3.06L91,169,92,172M43,147.17l.88-.72c-.23-.23-.44-.63-.68-.65s-.55.32-.83.5l.63.88m.94,4.85.11-.3c-.09,0-.23-.11-.26-.09a.89.89,0,0,0-.12.29l.27.09"/><path class="cls-2" d="M39.68,113,36.74,113c-6.41,2.5-12.19.33-17.87-2.46,4.46-1.25,8.88-2.69,13.4-3.7,3.07-.68,6.18-.34,8.5,2.23,1.63,1.81-1.23,2.51-1.09,4"/><path class="cls-2" d="M55.45,109.19l-.83.7-2.35-1.55c7.35-4,14.71-8.05,15.31-17.87C72.06,98,70,102.9,61,106a15.73,15.73,0,0,0-2.55,1.46,6.58,6.58,0,0,1-.66.09c-2.07-1.33-2.11.27-2.34,1.61"/><path class="cls-2" d="M74.95,84.31c5.16,2.82,5.16,2.82-.92,7C74,90,73.46,89,72,89c-.84-2.34-2.36-1.63-3.89-.88-1.22-3.66,4-3.65,3.84-4.95,0,.32,1.53.68,3,1.12"/><path class="cls-6" d="M52.27,108.34l2.35,1.55c-2.85,3.68-6.35,5.76-11.18,4.46,2.68-2.39,4-6.74,8.84-6"/><path class="cls-2" d="M74.37,71.14c1.41.77,3.18,1.46.75,3.14Z"/><path class="cls-2" d="M108.07,148.35c2-5.29-1.26-11.83,3.89-16.37,3.49,3.5,8.08,6.29,5.26,12.71-1.6,3.65-2,7.72,2.18,10.74.85.61,1.64,1.27,1.89.42.61-2,1.64-1.85,3-1s2.09,2.42,1.27,3.63c-.69,1-.73,3.33-3.06,2.69-2.66-.73-6.39,1.59-6.27,2.09.91,3.8-6.12,10.08,3.15,11.36a2.81,2.81,0,0,1,.65.27c-.27.47-.66,1.38-.8,1.34-4.21-1.15-5.56,6-8.08,4.1s-2.61-6.5-1.18-10.27c.54-1.43,1.08-3.4-.79-4.54-2.4-1.45-3.17-6-7.43-4-6,.74-2.21-4.31-3.72-6.22l6.1-2.34.32.15-.3-.18c-.62-3.21,4.26-1.65,4-4.58"/><path class="cls-7" d="M148.5,135.32c1.22,2.18,1.57,5,5.21,5.06.84,0,2.62,2.83,2.3,3.79-.77,2.3-1.89,5-4.57,5.78-4.27,1.31-8.63,2.39-13.12.85h0c0-.27,0-.53,0-.79l.93-7.69c3.41-1.92,2.83-9.14,9.3-7Z"/><path class="cls-2" d="M139.21,142.31l-.93,7.69,0,.79h0c-.94,3.92,6.16,1.9,4.7,6.52-.7,2.22-2,3.9-3.47,2.08-2.27-2.73-7.12,1.69-8.14-3.64-.33-1.72-.4-1.33,1-1.5,1.13-.13,3-1.38,3-2.21.08-1.7-.83-3.44-1.33-5.17a18.65,18.65,0,0,1-3.48,1.73c-2.47.66-4.57,4.7-7.65.56-1.6-2.15-1.15-5.12,0-5.35,5.29-1,10.54-4,16.17-1.51"/><path class="cls-2" d="M96.36,87.72c2.08,2.22,6.85,1,7.52,5.36.16,1-.4,3.95-2.25,2.9-3.68-2.09-9.37-.91-11-5.66-.5-1.41,3.38-1.95,5.78-2.6"/><path class="cls-2" d="M39.58,157.27l1.5-.09c1.06,1.16,2.48,3.23.91,3.84-4.49,1.74-8.49,6.5-14.13,3.17l0,0c3.24-3.45,7.7-4.81,11.75-6.88"/><path class="cls-2" d="M132.92,135.28c0-4.23,3.27-3.2,5.28-3.94.9-.33,2.22-.25,1.48,1.07-1.29,2.32-.5,6.43-4.44,6.53-2.1.06-1.66-2.62-2.32-3.67"/><path class="cls-2" d="M97.61,68.13l-3.91,0c1.51-1.28,3.09-2.3,5.2-1.45l-1.29,1.41"/><path class="cls-7" d="M112.45,87.31c1.59-.8,2.39-1.45,3.27-1.56.45-.06,1,.84,1.54,1.3a21.48,21.48,0,0,1-2.69,1c-.38.09-.86-.27-2.11-.72"/><path class="cls-7" d="M72,89c1.5,0,2,.95,2.07,2.28C70.72,92.9,72.39,90,72,89"/><path class="cls-7" d="M85,88.3,89.12,88c-1.8,1.54-3,1.37-4.1.37Z"/><path class="cls-7" d="M38.81,166.54c-.28-.52-.61-.88-.53-1a5.52,5.52,0,0,1,.91-1c.17.22.53.5.48.64a8.14,8.14,0,0,1-.86,1.39"/><path class="cls-7" d="M87.82,86.09l.37.42a4.31,4.31,0,0,1-.69.11c-.09,0-.18-.15-.27-.22l.58-.31"/><path class="cls-7" d="M115.85,88.87c.1-.06.2-.16.29-.15s.16.13.25.19l-.53,0"/><path class="cls-7" d="M36.18,169.34l.09-.25a.88.88,0,0,1,.28.12s-.05.16-.08.24l-.29-.11"/><path class="cls-7" d="M85,88.33l-.29-.17.31.15Z"/><path class="cls-6" d="M108.07,148.35c.3,2.93-4.58,1.37-4,4.58l0,0L98,155.3c2.8-3.13,3.4-9.45,10.08-6.95"/><path class="cls-6" d="M92,172,91,169l.86-.29,1,3.06L92,172"/><path class="cls-6" d="M55.45,109.19c.23-1.34.27-2.94,2.34-1.61-.17,1.42-1.21,1.59-2.34,1.61"/><path class="cls-6" d="M43,147.17l-.63-.88c.28-.18.57-.52.83-.5s.46.42.68.65l-.88.72"/><path class="cls-6" d="M43.94,152l-.27-.09a.89.89,0,0,1,.12-.29s.17.05.26.09l-.11.3"/><path class="cls-6" d="M104.11,152.93l.3.18-.32-.15Z"/><path class="cls-6" d="M138.32,150.8l0-.79Z"/></g></g></svg>