<?xml version="1.0" encoding="UTF-8"?>
<svg width="886px" height="395px" viewBox="0 0 886 395" version="1.1" xmlns="http://www.w3.org/2000/svg" xmlns:xlink="http://www.w3.org/1999/xlink">
    <!-- Generator: Sketch 44.1 (41455) - http://www.bohemiancoding.com/sketch -->
    <title>intro-window</title>
    <desc>Created with Sketch.</desc>
    <defs>
        <filter x="-3.4%" y="-7.1%" width="106.7%" height="115.8%" filterUnits="objectBoundingBox" id="filter-1">
            <feOffset dx="0" dy="3" in="SourceAlpha" result="shadowOffsetOuter1"></feOffset>
            <feGaussianBlur stdDeviation="9" in="shadowOffsetOuter1" result="shadowBlurOuter1"></feGaussianBlur>
            <feColorMatrix values="0 0 0 0 0   0 0 0 0 0   0 0 0 0 0  0 0 0 0.244876585 0" type="matrix" in="shadowBlurOuter1" result="shadowMatrixOuter1"></feColorMatrix>
            <feMerge>
                <feMergeNode in="shadowMatrixOuter1"></feMergeNode>
                <feMergeNode in="SourceGraphic"></feMergeNode>
            </feMerge>
        </filter>
    </defs>
    <g id="Page-1" stroke="none" stroke-width="1" fill="none" fill-rule="evenodd">
        <g id="intro-window" filter="url(#filter-1)" transform="translate(18.000000, 15.000000)" fill-rule="nonzero">
            <path d="M2.3,0 L847.6,0 C848.7,0 849.6,0.9 849.6,2 L849.6,357.3 C849.6,358.4 848.7,359.3 847.6,359.3 L2.3,359.3 C1.2,359.3 0.3,358.4 0.3,357.3 L0.3,2 C0.3,0.8 1.2,0 2.3,0 Z" id="Shape" fill="#FFFFFF"></path>
            <path d="M2.3,0 L847.6,0 C848.7,0 849.6,0.9 849.6,2 L849.6,38.4 C849.6,39.5 848.7,40.4 847.6,40.4 L2.3,40.4 C1.2,40.4 0.3,39.5 0.3,38.4 L0.3,2 C0.3,0.8 1.2,0 2.3,0 Z" id="Shape" fill="#F3F3F3"></path>
            <circle id="Oval" fill="#FFFFFF" cx="25.9" cy="21" r="6.8"></circle>
            <circle id="Oval" fill="#FFFFFF" cx="44.8" cy="21" r="6.8"></circle>
            <circle id="Oval" fill="#FFFFFF" cx="63.8" cy="21" r="6.8"></circle>
            <g id="Group" transform="translate(87.000000, 153.000000)" fill="#000000">
                <polygon id="Shape" points="9.9 8.5 11.4 0.8 13.6 0.8 11.2 11.6 9 11.6 7.2 4.3 5.4 11.6 3.1 11.6 0.7 0.8 2.9 0.8 4.4 8.5 6.2 0.8 8.1 0.8"></polygon>
                <path d="M16.7,4.5 C17.3,3.8 18,3.5 18.9,3.5 C20.6,3.5 21.5,4.5 21.6,6.5 L21.6,11.7 L19.4,11.7 L19.4,6.6 C19.4,6.1 19.3,5.8 19.1,5.6 C18.9,5.4 18.6,5.3 18.1,5.3 C17.5,5.3 17,5.5 16.7,6 L16.7,11.7 L14.5,11.7 L14.5,0.3 L16.7,0.3 L16.7,4.5 L16.7,4.5 Z" id="Shape"></path>
                <path d="M27.8,11.7 C27.7,11.5 27.6,11.3 27.6,11 C27.1,11.6 26.4,11.9 25.6,11.9 C24.8,11.9 24.2,11.7 23.6,11.2 C23,10.7 22.8,10.2 22.8,9.5 C22.8,8.6 23.1,8 23.7,7.5 C24.3,7 25.2,6.8 26.4,6.8 L27.4,6.8 L27.4,6.3 C27.4,5.9 27.3,5.6 27.1,5.4 C26.9,5.2 26.6,5.1 26.2,5.1 C25.8,5.1 25.6,5.2 25.3,5.4 C25,5.6 25,5.8 25,6.1 L23,6.1 C23,5.6 23.1,5.2 23.4,4.8 C23.7,4.4 24.1,4.1 24.6,3.9 C25.1,3.7 25.7,3.6 26.4,3.6 C27.4,3.6 28.2,3.8 28.8,4.3 C29.4,4.8 29.7,5.5 29.7,6.4 L29.7,9.9 C29.7,10.7 29.8,11.2 30,11.6 L30,11.7 L27.8,11.7 L27.8,11.7 Z M26,10.2 C26.3,10.2 26.6,10.1 26.9,10 C27.2,9.9 27.4,9.7 27.5,9.4 L27.5,8 L26.7,8 C25.6,8 25,8.4 25,9.1 L25,9.2 C25,9.5 25.1,9.7 25.3,9.9 C25.5,10.1 25.7,10.2 26,10.2 Z" id="Shape"></path>
                <path d="M33.9,1.6 L33.9,3.6 L35.3,3.6 L35.3,5.2 L33.9,5.2 L33.9,9.2 C33.9,9.5 34,9.7 34.1,9.8 C34.2,9.9 34.4,10 34.8,10 C35,10 35.2,10 35.4,9.9 L35.4,11.5 C35,11.6 34.5,11.7 34.1,11.7 C32.6,11.7 31.8,10.9 31.8,9.4 L31.8,5.1 L30.6,5.1 L30.6,3.5 L31.8,3.5 L31.8,1.5 L33.9,1.5 L33.9,1.6 Z" id="Shape"></path>
                <path d="M45,11.7 C44.9,11.5 44.8,11.3 44.8,11 C44.3,11.6 43.6,11.9 42.8,11.9 C42,11.9 41.4,11.7 40.8,11.2 C40.2,10.7 40,10.2 40,9.5 C40,8.6 40.3,8 40.9,7.5 C41.5,7 42.4,6.8 43.6,6.8 L44.6,6.8 L44.6,6.3 C44.6,5.9 44.5,5.6 44.3,5.4 C44.1,5.2 43.8,5.1 43.4,5.1 C43,5.1 42.8,5.2 42.5,5.4 C42.2,5.6 42.2,5.8 42.2,6.1 L40,6.1 C40,5.6 40.1,5.2 40.4,4.8 C40.7,4.4 41.1,4.1 41.6,3.9 C42.1,3.7 42.7,3.6 43.4,3.6 C44.4,3.6 45.2,3.8 45.8,4.3 C46.4,4.8 46.7,5.5 46.7,6.4 L46.7,9.9 C46.7,10.7 46.8,11.2 47,11.6 L47,11.7 L45,11.7 L45,11.7 Z M43.2,10.2 C43.5,10.2 43.8,10.1 44.1,10 C44.4,9.9 44.6,9.7 44.7,9.4 L44.7,8 L43.9,8 C42.8,8 42.2,8.4 42.2,9.1 L42.2,9.2 C42.2,9.5 42.3,9.7 42.5,9.9 C42.6,10.1 42.9,10.2 43.2,10.2 Z" id="Shape"></path>
            </g>
            <path d="M140,158.6 C139.7,158.6 139.4,158.5 139.2,158.5 C138.4,158.5 137.9,158.8 137.6,159.3 L137.6,164.6 L135.4,164.6 L135.4,156.5 L137.4,156.5 L137.5,157.5 C137.9,156.8 138.5,156.4 139.3,156.4 C139.5,156.4 139.8,156.4 140,156.5 L140,158.6 Z" id="Shape" fill="#000000"></path>
            <g id="Group" transform="translate(140.000000, 153.000000)" fill="#000000">
                <path d="M4.6,11.8 C3.4,11.8 2.5,11.4 1.7,10.7 C1,10 0.6,9 0.6,7.8 L0.6,7.6 C0.6,6.8 0.8,6.1 1.1,5.4 C1.4,4.8 1.9,4.3 2.4,3.9 C3,3.6 3.6,3.4 4.4,3.4 C5.5,3.4 6.4,3.7 7,4.4 C7.6,5.1 8,6.1 8,7.4 L8,8.3 L2.9,8.3 C3,8.8 3.2,9.2 3.5,9.6 C3.9,9.9 4.3,10.1 4.8,10.1 C5.6,10.1 6.3,9.8 6.7,9.2 L7.8,10.4 C7.5,10.9 7,11.2 6.5,11.5 C5.9,11.7 5.3,11.8 4.6,11.8 Z M4.4,5.2 C4,5.2 3.6,5.3 3.4,5.6 C3.2,5.9 3,6.3 2.9,6.8 L5.9,6.8 L5.9,6.6 C5.9,6.1 5.8,5.8 5.5,5.5 C5.2,5.3 4.8,5.2 4.4,5.2 Z" id="Shape"></path>
                <path d="M15.5,1.6 L15.5,3.6 L16.9,3.6 L16.9,5.2 L15.5,5.2 L15.5,9.2 C15.5,9.5 15.6,9.7 15.7,9.8 C15.8,9.9 16,10 16.4,10 C16.6,10 16.8,10 17,9.9 L17,11.5 C16.6,11.6 16.1,11.7 15.7,11.7 C14.2,11.7 13.4,10.9 13.4,9.4 L13.4,5.1 L12.2,5.1 L12.2,3.5 L13.4,3.5 L13.4,1.5 L15.5,1.5 L15.5,1.6 Z" id="Shape"></path>
                <path d="M20.2,4.5 C20.8,3.8 21.5,3.5 22.4,3.5 C24.1,3.5 25,4.5 25.1,6.5 L25.1,11.7 L22.9,11.7 L22.9,6.6 C22.9,6.1 22.8,5.8 22.6,5.6 C22.4,5.4 22.1,5.3 21.6,5.3 C21,5.3 20.5,5.5 20.2,6 L20.2,11.7 L18,11.7 L18,0.3 L20.2,0.3 L20.2,4.5 Z" id="Shape"></path>
                <path d="M30.3,11.8 C29.1,11.8 28.2,11.4 27.4,10.7 C26.7,10 26.3,9 26.3,7.8 L26.3,7.6 C26.3,6.8 26.5,6.1 26.8,5.4 C27.1,4.8 27.6,4.3 28.1,3.9 C28.7,3.6 29.3,3.4 30.1,3.4 C31.2,3.4 32.1,3.7 32.7,4.4 C33.3,5.1 33.7,6.1 33.7,7.4 L33.7,8.3 L28.6,8.3 C28.7,8.8 28.9,9.2 29.2,9.6 C29.6,9.9 30,10.1 30.5,10.1 C31.3,10.1 32,9.8 32.4,9.2 L33.5,10.4 C33.2,10.9 32.7,11.2 32.2,11.5 C31.6,11.7 31,11.8 30.3,11.8 Z M30.1,5.2 C29.7,5.2 29.3,5.3 29.1,5.6 C28.9,5.9 28.7,6.3 28.6,6.8 L31.6,6.8 L31.6,6.6 C31.6,6.1 31.5,5.8 31.2,5.5 C30.9,5.3 30.6,5.2 30.1,5.2 Z" id="Shape"></path>
                <path d="M42,10.1 C42.4,10.1 42.7,10 43,9.8 C43.2,9.6 43.4,9.3 43.4,8.9 L45.4,8.9 C45.4,9.4 45.2,9.9 45,10.4 C44.7,10.9 44.3,11.2 43.8,11.5 C43.3,11.8 42.7,11.9 42.1,11.9 C40.9,11.9 40,11.5 39.4,10.8 C38.7,10.1 38.4,9.1 38.4,7.8 L38.4,7.7 C38.4,6.5 38.7,5.5 39.4,4.7 C40.1,3.9 41,3.6 42.1,3.6 C43.1,3.6 43.9,3.9 44.5,4.5 C45.1,5.1 45.4,5.8 45.4,6.8 L43.4,6.8 C43.4,6.4 43.3,6 43,5.8 C42.8,5.5 42.4,5.4 42,5.4 C41.5,5.4 41.1,5.6 40.9,5.9 C40.6,6.3 40.5,6.9 40.5,7.7 L40.5,7.9 C40.5,8.7 40.6,9.3 40.9,9.7 C41.1,9.9 41.5,10.1 42,10.1 Z" id="Shape"></path>
                <path d="M46.3,7.6 C46.3,6.8 46.5,6.1 46.8,5.5 C47.1,4.9 47.6,4.4 48.1,4 C48.6,3.6 49.4,3.5 50.1,3.5 C51.2,3.5 52.1,3.8 52.8,4.5 C53.5,5.2 53.9,6.1 54,7.2 L54,7.8 C54,9 53.7,10 53,10.8 C52.3,11.5 51.4,11.9 50.2,11.9 C49,11.9 48.1,11.5 47.4,10.8 C46.7,10.1 46.3,8.9 46.3,7.6 L46.3,7.6 Z M48.5,7.7 C48.5,8.5 48.6,9.1 48.9,9.5 C49.2,9.9 49.6,10.1 50.1,10.1 C50.6,10.1 51,9.9 51.3,9.5 C51.6,9.1 51.7,8.5 51.7,7.6 C51.7,6.8 51.6,6.3 51.3,5.9 C51,5.5 50.6,5.3 50.1,5.3 C49.6,5.3 49.2,5.5 48.9,5.9 C48.6,6.3 48.5,6.9 48.5,7.7 Z" id="Shape"></path>
                <path d="M57.2,3.6 L57.3,4.5 C57.9,3.8 58.6,3.4 59.6,3.4 C60.5,3.4 61.1,3.7 61.5,4.2 C61.9,4.7 62.1,5.5 62.1,6.5 L62.1,11.7 L60,11.7 L60,6.5 C60,6 59.9,5.7 59.7,5.5 C59.5,5.3 59.2,5.2 58.7,5.2 C58.1,5.2 57.6,5.5 57.3,6 L57.3,11.7 L55.1,11.7 L55.1,3.6 L57.2,3.6 L57.2,3.6 Z" id="Shape"></path>
                <path d="M68.2,9.4 C68.2,9.1 68.1,8.9 67.8,8.8 C67.5,8.6 67.1,8.5 66.5,8.4 C64.6,8 63.6,7.2 63.6,6 C63.6,5.3 63.9,4.7 64.5,4.2 C65.1,3.7 65.9,3.5 66.8,3.5 C67.8,3.5 68.6,3.7 69.3,4.2 C69.9,4.7 70.2,5.3 70.2,6.1 L68,6.1 C68,5.8 67.9,5.5 67.7,5.3 C67.5,5.1 67.2,5 66.8,5 C66.4,5 66.2,5.1 66,5.2 C65.8,5.3 65.7,5.6 65.7,5.8 C65.7,6 65.8,6.2 66,6.4 C66.2,6.6 66.6,6.7 67.1,6.8 C67.6,6.9 68.1,7 68.5,7.2 C69.6,7.6 70.2,8.3 70.2,9.4 C70.2,10.1 69.9,10.7 69.3,11.2 C68.7,11.7 67.9,11.9 66.9,11.9 C66.2,11.9 65.6,11.8 65.1,11.5 C64.6,11.3 64.2,10.9 63.9,10.5 C63.6,10.1 63.5,9.6 63.5,9.1 L65.5,9.1 C65.5,9.5 65.7,9.8 65.9,10 C66.2,10.2 66.5,10.3 67,10.3 C67.4,10.3 67.7,10.2 67.9,10.1 C68.1,9.9 68.2,9.7 68.2,9.4 Z" id="Shape"></path>
                <path d="M71.6,1.5 C71.6,1.2 71.7,0.9 71.9,0.7 C72.1,0.5 72.4,0.4 72.8,0.4 C73.2,0.4 73.5,0.5 73.7,0.7 C73.9,0.9 74,1.2 74,1.5 C74,1.8 73.9,2.1 73.7,2.3 C73.5,2.5 73.2,2.6 72.8,2.6 C72.4,2.6 72.1,2.5 71.9,2.3 C71.8,2.1 71.6,1.8 71.6,1.5 Z M73.9,11.7 L71.7,11.7 L71.7,3.6 L73.9,3.6 L73.9,11.7 Z" id="Shape"></path>
                <path d="M80.1,9.4 C80.1,9.1 80,8.9 79.7,8.8 C79.4,8.6 79,8.5 78.4,8.4 C76.5,8 75.5,7.2 75.5,6 C75.5,5.3 75.8,4.7 76.4,4.2 C77,3.7 77.8,3.5 78.7,3.5 C79.7,3.5 80.5,3.7 81.2,4.2 C81.8,4.7 82.1,5.3 82.1,6.1 L80,6.1 C80,5.8 79.9,5.5 79.7,5.3 C79.5,5.1 79.2,5 78.8,5 C78.4,5 78.2,5.1 78,5.2 C77.8,5.3 77.7,5.6 77.7,5.8 C77.7,6 77.8,6.2 78,6.4 C78.2,6.6 78.6,6.7 79.1,6.8 C79.6,6.9 80.1,7 80.5,7.2 C81.6,7.6 82.2,8.3 82.2,9.4 C82.2,10.1 81.9,10.7 81.3,11.2 C80.7,11.7 79.9,11.9 78.9,11.9 C78.2,11.9 77.6,11.8 77.1,11.5 C76.6,11.3 76.2,10.9 75.9,10.5 C75.6,10.1 75.5,9.6 75.5,9.1 L77.5,9.1 C77.5,9.5 77.7,9.8 77.9,10 C78.2,10.2 78.5,10.3 79,10.3 C79.4,10.3 79.7,10.2 79.9,10.1 C80,9.9 80.1,9.7 80.1,9.4 Z" id="Shape"></path>
                <path d="M86.1,1.6 L86.1,3.6 L87.5,3.6 L87.5,5.2 L86.1,5.2 L86.1,9.2 C86.1,9.5 86.2,9.7 86.3,9.8 C86.4,9.9 86.6,10 87,10 C87.2,10 87.4,10 87.6,9.9 L87.6,11.5 C87.2,11.6 86.7,11.7 86.3,11.7 C84.8,11.7 84,10.9 84,9.4 L84,5.1 L82.8,5.1 L82.8,3.5 L84,3.5 L84,1.5 L86.1,1.5 L86.1,1.6 Z" id="Shape"></path>
                <path d="M92.4,11.8 C91.2,11.8 90.3,11.4 89.5,10.7 C88.8,10 88.4,9 88.4,7.8 L88.4,7.6 C88.4,6.8 88.6,6.1 88.9,5.4 C89.2,4.8 89.7,4.3 90.2,3.9 C90.8,3.6 91.4,3.4 92.2,3.4 C93.3,3.4 94.2,3.7 94.8,4.4 C95.4,5.1 95.8,6.1 95.8,7.4 L95.8,8.3 L90.7,8.3 C90.8,8.8 91,9.2 91.3,9.6 C91.7,9.9 92.1,10.1 92.6,10.1 C93.4,10.1 94.1,9.8 94.5,9.2 L95.6,10.4 C95.3,10.9 94.8,11.2 94.3,11.5 C93.7,11.7 93.1,11.8 92.4,11.8 Z M92.2,5.2 C91.8,5.2 91.4,5.3 91.2,5.6 C91,5.9 90.8,6.3 90.7,6.8 L93.7,6.8 L93.7,6.6 C93.7,6.1 93.6,5.8 93.3,5.5 C93,5.3 92.6,5.2 92.2,5.2 Z" id="Shape"></path>
                <path d="M98.9,3.6 L99,4.5 C99.6,3.8 100.3,3.4 101.3,3.4 C102.2,3.4 102.8,3.7 103.2,4.2 C103.6,4.7 103.8,5.5 103.8,6.5 L103.8,11.7 L101.6,11.7 L101.6,6.5 C101.6,6 101.5,5.7 101.3,5.5 C101.1,5.3 100.8,5.2 100.3,5.2 C99.7,5.2 99.2,5.5 98.9,6 L98.9,11.7 L96.7,11.7 L96.7,3.6 L98.9,3.6 L98.9,3.6 Z" id="Shape"></path>
                <path d="M108.1,1.6 L108.1,3.6 L109.5,3.6 L109.5,5.2 L108.1,5.2 L108.1,9.2 C108.1,9.5 108.2,9.7 108.3,9.8 C108.4,9.9 108.6,10 109,10 C109.2,10 109.4,10 109.6,9.9 L109.6,11.5 C109.2,11.6 108.7,11.7 108.3,11.7 C106.8,11.7 106,10.9 106,9.4 L106,5.1 L104.8,5.1 L104.8,3.5 L106,3.5 L106,1.5 L108.1,1.5 L108.1,1.6 Z" id="Shape"></path>
                <path d="M121.7,7.7 C121.7,9 121.4,10 120.9,10.7 C120.3,11.4 119.6,11.8 118.6,11.8 C117.7,11.8 117,11.5 116.5,10.8 L116.4,11.7 L114.5,11.7 L114.5,0.3 L116.7,0.3 L116.7,4.4 C117.2,3.8 117.8,3.5 118.7,3.5 C119.7,3.5 120.5,3.9 121,4.6 C121.6,5.3 121.8,6.3 121.8,7.7 L121.8,7.7 L121.7,7.7 Z M119.6,7.5 C119.6,6.7 119.5,6.1 119.2,5.7 C118.9,5.3 118.6,5.1 118,5.1 C117.3,5.1 116.8,5.4 116.6,5.9 L116.6,9.1 C116.9,9.7 117.3,10 118,10 C118.7,10 119.2,9.7 119.4,9 C119.5,8.7 119.6,8.2 119.6,7.5 Z" id="Shape"></path>
                <path d="M126.8,11.8 C125.6,11.8 124.7,11.4 123.9,10.7 C123.2,10 122.8,9 122.8,7.8 L122.8,7.6 C122.8,6.8 123,6.1 123.3,5.4 C123.6,4.8 124.1,4.3 124.6,3.9 C125.2,3.6 125.8,3.4 126.6,3.4 C127.7,3.4 128.6,3.7 129.2,4.4 C129.8,5.1 130.2,6.1 130.2,7.4 L130.2,8.3 L125.1,8.3 C125.2,8.8 125.4,9.2 125.7,9.6 C126.1,9.9 126.5,10.1 127,10.1 C127.8,10.1 128.5,9.8 128.9,9.2 L130,10.4 C129.7,10.9 129.2,11.2 128.7,11.5 C128,11.7 127.4,11.8 126.8,11.8 Z M126.5,5.2 C126.1,5.2 125.7,5.3 125.5,5.6 C125.3,5.9 125.1,6.3 125,6.8 L128,6.8 L128,6.6 C128,6.1 127.9,5.8 127.6,5.5 C127.3,5.3 127,5.2 126.5,5.2 Z" id="Shape"></path>
                <path d="M133.4,4.5 C134,3.8 134.7,3.5 135.6,3.5 C137.3,3.5 138.2,4.5 138.3,6.5 L138.3,11.7 L136.1,11.7 L136.1,6.6 C136.1,6.1 136,5.8 135.8,5.6 C135.6,5.4 135.3,5.3 134.8,5.3 C134.2,5.3 133.7,5.5 133.4,6 L133.4,11.7 L131.2,11.7 L131.2,0.3 L133.4,0.3 L133.4,4.5 Z" id="Shape"></path>
            </g>
            <path d="M284.5,164.7 C284.4,164.5 284.3,164.3 284.3,164 C283.8,164.6 283.1,164.9 282.3,164.9 C281.5,164.9 280.9,164.7 280.3,164.2 C279.8,163.7 279.5,163.2 279.5,162.5 C279.5,161.6 279.8,161 280.4,160.5 C281,160 281.9,159.8 283.1,159.8 L284.1,159.8 L284.1,159.3 C284.1,158.9 284,158.6 283.8,158.4 C283.6,158.2 283.3,158.1 282.9,158.1 C282.5,158.1 282.3,158.2 282,158.4 C281.7,158.6 281.7,158.8 281.7,159.1 L279.5,159.1 C279.5,158.6 279.6,158.2 279.9,157.8 C280.2,157.4 280.6,157.1 281.1,156.9 C281.6,156.7 282.2,156.6 282.9,156.6 C283.9,156.6 284.7,156.8 285.3,157.3 C285.9,157.8 286.2,158.5 286.2,159.4 L286.2,162.9 C286.2,163.7 286.3,164.2 286.5,164.6 L286.5,164.7 L284.5,164.7 L284.5,164.7 Z M282.7,163.2 C283,163.2 283.3,163.1 283.6,163 C283.9,162.9 284.1,162.7 284.2,162.4 L284.2,161 L283.4,161 C282.3,161 281.7,161.4 281.7,162.1 L281.7,162.2 C281.7,162.5 281.8,162.7 282,162.9 C282.1,163.1 282.4,163.2 282.7,163.2 Z" id="Shape" fill="#000000"></path>
            <g id="Group" transform="translate(287.000000, 153.000000)" fill="#000000">
                <polygon id="Shape" points="3.9 9 5.4 3.6 7.7 3.6 5 11.7 2.9 11.7 0.2 3.6 2.5 3.6"></polygon>
                <path d="M8.6,1.5 C8.6,1.2 8.7,0.9 8.9,0.7 C9.1,0.5 9.4,0.4 9.8,0.4 C10.2,0.4 10.5,0.5 10.7,0.7 C10.9,0.9 11,1.2 11,1.5 C11,1.8 10.9,2.1 10.7,2.3 C10.5,2.5 10.2,2.6 9.8,2.6 C9.4,2.6 9.1,2.5 8.9,2.3 C8.7,2.1 8.6,1.8 8.6,1.5 Z M10.9,11.7 L8.7,11.7 L8.7,3.6 L10.9,3.6 L10.9,11.7 Z" id="Shape"></path>
                <path d="M12.3,7.6 C12.3,6.8 12.5,6.1 12.8,5.5 C13.1,4.9 13.6,4.4 14.1,4 C14.6,3.6 15.4,3.5 16.1,3.5 C17.2,3.5 18.1,3.8 18.8,4.5 C19.5,5.2 19.9,6.1 20,7.2 L20,7.8 C20,9 19.7,10 19,10.8 C18.3,11.5 17.4,11.9 16.2,11.9 C15,11.9 14.1,11.5 13.4,10.8 C12.7,10.1 12.3,8.9 12.3,7.6 L12.3,7.6 Z M14.5,7.7 C14.5,8.5 14.6,9.1 14.9,9.5 C15.2,9.9 15.6,10.1 16.1,10.1 C16.6,10.1 17,9.9 17.3,9.5 C17.6,9.1 17.7,8.5 17.7,7.6 C17.7,6.8 17.6,6.3 17.3,5.9 C17,5.5 16.6,5.3 16.1,5.3 C15.6,5.3 15.2,5.5 14.9,5.9 C14.6,6.3 14.5,6.9 14.5,7.7 Z" id="Shape"></path>
                <path d="M25.8,5.6 C25.5,5.6 25.2,5.5 25,5.5 C24.2,5.5 23.7,5.8 23.4,6.3 L23.4,11.6 L21.2,11.6 L21.2,3.5 L23.2,3.5 L23.3,4.5 C23.7,3.8 24.3,3.4 25.1,3.4 C25.3,3.4 25.6,3.4 25.8,3.5 L25.8,5.6 Z" id="Shape"></path>
                <path d="M31.2,9.4 C31.2,9.1 31.1,8.9 30.8,8.8 C30.5,8.6 30.1,8.5 29.5,8.4 C27.6,8 26.6,7.2 26.6,6 C26.6,5.3 26.9,4.7 27.5,4.2 C28.1,3.7 28.9,3.5 29.8,3.5 C30.8,3.5 31.6,3.7 32.3,4.2 C32.9,4.7 33.2,5.3 33.2,6.1 L31,6.1 C31,5.8 30.9,5.5 30.7,5.3 C30.5,5.1 30.2,5 29.8,5 C29.4,5 29.2,5.1 29,5.2 C28.8,5.3 28.7,5.6 28.7,5.8 C28.7,6 28.8,6.2 29,6.4 C29.2,6.6 29.6,6.7 30.1,6.8 C30.6,6.9 31.1,7 31.5,7.2 C32.6,7.6 33.2,8.3 33.2,9.4 C33.2,10.1 32.9,10.7 32.3,11.2 C31.7,11.7 30.9,11.9 29.9,11.9 C29.2,11.9 28.6,11.8 28.1,11.5 C27.6,11.3 27.2,10.9 26.9,10.5 C26.6,10.1 26.5,9.6 26.5,9.1 L28.5,9.1 C28.5,9.5 28.7,9.8 28.9,10 C29.2,10.2 29.5,10.3 30,10.3 C30.4,10.3 30.7,10.2 30.9,10.1 C31.1,9.9 31.2,9.7 31.2,9.4 Z" id="Shape"></path>
                <path d="M41.1,1.6 L41.1,3.6 L42.5,3.6 L42.5,5.2 L41.1,5.2 L41.1,9.2 C41.1,9.5 41.2,9.7 41.3,9.8 C41.4,9.9 41.6,10 42,10 C42.2,10 42.4,10 42.6,9.9 L42.6,11.5 C42.2,11.6 41.7,11.7 41.3,11.7 C39.8,11.7 39,10.9 39,9.4 L39,5.1 L37.8,5.1 L37.8,3.5 L39,3.5 L39,1.5 L41.1,1.5 L41.1,1.6 Z" id="Shape"></path>
                <path d="M45.7,4.5 C46.3,3.8 47,3.5 47.9,3.5 C49.6,3.5 50.5,4.5 50.6,6.5 L50.6,11.7 L48.4,11.7 L48.4,6.6 C48.4,6.1 48.3,5.8 48.1,5.6 C47.9,5.4 47.6,5.3 47.1,5.3 C46.5,5.3 46,5.5 45.7,6 L45.7,11.7 L43.5,11.7 L43.5,0.3 L45.7,0.3 L45.7,4.5 Z" id="Shape"></path>
                <path d="M56.9,11.7 C56.8,11.5 56.7,11.3 56.7,11 C56.2,11.6 55.5,11.9 54.7,11.9 C53.9,11.9 53.3,11.7 52.7,11.2 C52.1,10.7 51.9,10.2 51.9,9.5 C51.9,8.6 52.2,8 52.8,7.5 C53.4,7 54.3,6.8 55.5,6.8 L56.5,6.8 L56.5,6.3 C56.5,5.9 56.4,5.6 56.2,5.4 C56,5.2 55.7,5.1 55.3,5.1 C54.9,5.1 54.7,5.2 54.4,5.4 C54.1,5.6 54.1,5.8 54.1,6.1 L52,6.1 C52,5.6 52.1,5.2 52.4,4.8 C52.7,4.4 53.1,4.1 53.6,3.9 C54.1,3.7 54.7,3.6 55.4,3.6 C56.4,3.6 57.2,3.8 57.8,4.3 C58.4,4.8 58.7,5.5 58.7,6.4 L58.7,9.9 C58.7,10.7 58.8,11.2 59,11.6 L59,11.7 L56.9,11.7 L56.9,11.7 Z M55.1,10.2 C55.4,10.2 55.7,10.1 56,10 C56.3,9.9 56.5,9.7 56.6,9.4 L56.6,8 L55.8,8 C54.7,8 54.1,8.4 54.1,9.1 L54.1,9.2 C54.1,9.5 54.2,9.7 54.4,9.9 C54.5,10.1 54.7,10.2 55.1,10.2 Z" id="Shape"></path>
                <path d="M62.9,1.6 L62.9,3.6 L64.3,3.6 L64.3,5.2 L62.9,5.2 L62.9,9.2 C62.9,9.5 63,9.7 63.1,9.8 C63.2,9.9 63.4,10 63.8,10 C64,10 64.2,10 64.4,9.9 L64.4,11.5 C64,11.6 63.5,11.7 63.1,11.7 C61.6,11.7 60.8,10.9 60.8,9.4 L60.8,5.1 L59.6,5.1 L59.6,3.5 L60.8,3.5 L60.8,1.5 L62.9,1.5 L62.9,1.6 Z" id="Shape"></path>
                <path d="M71.3,3.6 L71.4,4.5 C72,3.8 72.7,3.4 73.7,3.4 C74.7,3.4 75.5,3.8 75.8,4.6 C76.4,3.8 77.2,3.4 78.2,3.4 C79.1,3.4 79.7,3.7 80.2,4.2 C80.6,4.7 80.8,5.5 80.8,6.5 L80.8,11.6 L78.6,11.6 L78.6,6.4 C78.6,5.9 78.5,5.6 78.3,5.4 C78.1,5.2 77.8,5.1 77.4,5.1 C76.8,5.1 76.3,5.4 76.1,6 L76.1,11.5 L74,11.5 L74,6.4 C74,5.9 73.9,5.6 73.7,5.4 C73.5,5.2 73.2,5.1 72.8,5.1 C72.2,5.1 71.7,5.4 71.5,5.9 L71.5,11.6 L69.3,11.6 L69.3,3.5 L71.3,3.5 L71.3,3.6 Z" id="Shape"></path>
                <path d="M82.2,7.6 C82.2,6.8 82.4,6.1 82.7,5.5 C83,4.9 83.5,4.4 84,4 C84.5,3.6 85.3,3.5 86,3.5 C87.1,3.5 88,3.8 88.7,4.5 C89.4,5.2 89.8,6.1 89.9,7.2 L89.9,7.8 C89.9,9 89.6,10 88.9,10.8 C88.2,11.5 87.3,11.9 86.1,11.9 C84.9,11.9 84,11.5 83.3,10.8 C82.6,10.1 82.2,8.9 82.2,7.6 L82.2,7.6 Z M84.3,7.7 C84.3,8.5 84.4,9.1 84.7,9.5 C85,9.9 85.4,10.1 85.9,10.1 C86.4,10.1 86.8,9.9 87.1,9.5 C87.4,9.1 87.5,8.5 87.5,7.6 C87.5,6.8 87.4,6.3 87.1,5.9 C86.8,5.5 86.4,5.3 85.9,5.3 C85.4,5.3 85,5.5 84.7,5.9 C84.4,6.3 84.3,6.9 84.3,7.7 Z" id="Shape"></path>
                <path d="M95.5,9.4 C95.5,9.1 95.4,8.9 95.1,8.8 C94.8,8.6 94.4,8.5 93.8,8.4 C91.9,8 90.9,7.2 90.9,6 C90.9,5.3 91.2,4.7 91.8,4.2 C92.4,3.7 93.2,3.5 94.1,3.5 C95.1,3.5 95.9,3.7 96.6,4.2 C97.2,4.7 97.5,5.3 97.5,6.1 L95.3,6.1 C95.3,5.8 95.2,5.5 95,5.3 C94.8,5.1 94.5,5 94.1,5 C93.7,5 93.5,5.1 93.3,5.2 C93.1,5.3 93,5.6 93,5.8 C93,6 93.1,6.2 93.3,6.4 C93.5,6.6 93.9,6.7 94.4,6.8 C94.9,6.9 95.4,7 95.8,7.2 C96.9,7.6 97.5,8.3 97.5,9.4 C97.5,10.1 97.2,10.7 96.6,11.2 C96,11.7 95.2,11.9 94.2,11.9 C93.5,11.9 92.9,11.8 92.4,11.5 C91.9,11.3 91.5,10.9 91.2,10.5 C90.9,10.1 90.8,9.6 90.8,9.1 L92.8,9.1 C92.8,9.5 93,9.8 93.2,10 C93.5,10.2 93.8,10.3 94.3,10.3 C94.7,10.3 95,10.2 95.2,10.1 C95.4,9.9 95.5,9.7 95.5,9.4 Z" id="Shape"></path>
                <path d="M101.6,1.6 L101.6,3.6 L103,3.6 L103,5.2 L101.6,5.2 L101.6,9.2 C101.6,9.5 101.7,9.7 101.8,9.8 C101.9,9.9 102.1,10 102.5,10 C102.7,10 102.9,10 103.1,9.9 L103.1,11.5 C102.7,11.6 102.2,11.7 101.8,11.7 C100.3,11.7 99.5,10.9 99.5,9.4 L99.5,5.1 L98.3,5.1 L98.3,3.5 L99.5,3.5 L99.5,1.5 L101.6,1.5 L101.6,1.6 Z" id="Shape"></path>
            </g>
            <path d="M399.5,158.6 C399.2,158.6 398.9,158.5 398.7,158.5 C397.9,158.5 397.4,158.8 397.1,159.3 L397.1,164.6 L394.9,164.6 L394.9,156.5 L396.9,156.5 L397,157.5 C397.4,156.8 398,156.4 398.8,156.4 C399,156.4 399.3,156.4 399.5,156.5 L399.5,158.6 Z" id="Shape" fill="#000000"></path>
            <g id="Group" transform="translate(400.000000, 153.000000)" fill="#000000">
                <path d="M4.1,11.8 C2.9,11.8 2,11.4 1.2,10.7 C0.5,10 0.1,9 0.1,7.8 L0.1,7.6 C0.1,6.8 0.3,6.1 0.6,5.4 C0.9,4.8 1.4,4.3 1.9,3.9 C2.5,3.6 3.1,3.4 3.9,3.4 C5,3.4 5.9,3.7 6.5,4.4 C7.1,5.1 7.5,6.1 7.5,7.4 L7.5,8.3 L2.4,8.3 C2.5,8.8 2.7,9.2 3,9.6 C3.4,9.9 3.8,10.1 4.3,10.1 C5.1,10.1 5.8,9.8 6.2,9.2 L7.3,10.4 C7,10.9 6.5,11.2 6,11.5 C5.4,11.7 4.7,11.8 4.1,11.8 Z M3.8,5.2 C3.4,5.2 3,5.3 2.8,5.6 C2.6,5.9 2.4,6.3 2.3,6.8 L5.3,6.8 L5.3,6.6 C5.3,6.1 5.2,5.8 4.9,5.5 C4.6,5.3 4.3,5.2 3.8,5.2 Z" id="Shape"></path>
                <path d="M15.9,7.7 C15.9,8.9 15.6,9.9 15.1,10.7 C14.5,11.4 13.8,11.8 12.8,11.8 C12,11.8 11.3,11.5 10.8,11 L10.8,14.8 L8.6,14.8 L8.6,3.6 L10.6,3.6 L10.7,4.4 C11.2,3.8 11.9,3.5 12.7,3.5 C13.7,3.5 14.5,3.9 15,4.6 C15.5,5.3 15.8,6.3 15.8,7.6 L15.8,7.7 L15.9,7.7 Z M13.7,7.5 C13.7,6.7 13.6,6.2 13.3,5.8 C13,5.4 12.6,5.2 12.1,5.2 C11.4,5.2 11,5.5 10.7,6 L10.7,9.3 C11,9.8 11.4,10.1 12.1,10.1 C13.2,10.1 13.7,9.2 13.7,7.5 Z" id="Shape"></path>
                <path d="M21.6,9.4 C21.6,9.1 21.5,8.9 21.2,8.8 C20.9,8.6 20.5,8.5 19.9,8.4 C18,8 17,7.2 17,6 C17,5.3 17.3,4.7 17.9,4.2 C18.5,3.7 19.3,3.5 20.2,3.5 C21.2,3.5 22,3.7 22.7,4.2 C23.3,4.7 23.6,5.3 23.6,6.1 L21.4,6.1 C21.4,5.8 21.3,5.5 21.1,5.3 C20.9,5.1 20.6,5 20.2,5 C19.8,5 19.6,5.1 19.4,5.2 C19.2,5.3 19.1,5.6 19.1,5.8 C19.1,6 19.2,6.2 19.4,6.4 C19.6,6.6 20,6.7 20.5,6.8 C21,6.9 21.5,7 21.9,7.2 C23,7.6 23.6,8.3 23.6,9.4 C23.6,10.1 23.3,10.7 22.7,11.2 C22.1,11.7 21.3,11.9 20.3,11.9 C19.6,11.9 19,11.8 18.5,11.5 C18,11.3 17.6,10.9 17.3,10.5 C17,10.1 16.9,9.6 16.9,9.1 L18.9,9.1 C18.9,9.5 19.1,9.8 19.3,10 C19.6,10.2 19.9,10.3 20.4,10.3 C20.8,10.3 21.1,10.2 21.3,10.1 C21.5,9.9 21.6,9.7 21.6,9.4 Z" id="Shape"></path>
                <path d="M33.2,9.4 C33.2,9.1 33.1,8.9 32.8,8.8 C32.5,8.6 32.1,8.5 31.5,8.4 C29.6,8 28.6,7.2 28.6,6 C28.6,5.3 28.9,4.7 29.5,4.2 C30.1,3.7 30.9,3.5 31.8,3.5 C32.8,3.5 33.6,3.7 34.3,4.2 C35,4.7 35.2,5.3 35.2,6.1 L33,6.1 C33,5.8 32.9,5.5 32.7,5.3 C32.5,5.1 32.2,5 31.8,5 C31.4,5 31.2,5.1 31,5.2 C30.8,5.4 30.7,5.6 30.7,5.8 C30.7,6 30.8,6.2 31,6.4 C31.2,6.5 31.6,6.7 32.1,6.8 C32.6,6.9 33.1,7 33.5,7.2 C34.6,7.6 35.2,8.3 35.2,9.4 C35.2,10.1 34.9,10.7 34.3,11.2 C33.7,11.7 32.9,11.9 31.9,11.9 C31.2,11.9 30.6,11.8 30.1,11.5 C29.6,11.3 29.2,10.9 28.9,10.5 C28.6,10.1 28.5,9.6 28.5,9.1 L30.5,9.1 C30.5,9.5 30.7,9.8 30.9,10 C31.2,10.2 31.5,10.3 32,10.3 C32.4,10.3 32.7,10.2 32.9,10.1 C33.1,10 33.2,9.7 33.2,9.4 Z" id="Shape"></path>
                <path d="M39.3,1.6 L39.3,3.6 L40.7,3.6 L40.7,5.2 L39.3,5.2 L39.3,9.2 C39.3,9.5 39.4,9.7 39.5,9.8 C39.6,9.9 39.8,10 40.2,10 C40.4,10 40.6,10 40.8,9.9 L40.8,11.5 C40.4,11.6 39.9,11.7 39.5,11.7 C38,11.7 37.2,10.9 37.2,9.4 L37.2,5.1 L36,5.1 L36,3.5 L37.2,3.5 L37.2,1.5 L39.3,1.5 L39.3,1.6 Z" id="Shape"></path>
                <path d="M46.4,5.6 C46.1,5.6 45.8,5.5 45.6,5.5 C44.8,5.5 44.3,5.8 44,6.3 L44,11.6 L41.8,11.6 L41.8,3.5 L43.8,3.5 L43.9,4.5 C44.3,3.8 44.9,3.4 45.7,3.4 C45.9,3.4 46.2,3.4 46.4,3.5 L46.4,5.6 Z" id="Shape"></path>
                <path d="M52.2,10.9 C51.7,11.5 50.9,11.9 50,11.9 C49.1,11.9 48.5,11.7 48,11.2 C47.5,10.7 47.3,10 47.3,9 L47.3,3.7 L49.5,3.7 L49.5,8.9 C49.5,9.7 49.9,10.2 50.6,10.2 C51.3,10.2 51.8,9.9 52.1,9.4 L52.1,3.7 L54.3,3.7 L54.3,11.8 L52.3,11.8 L52.2,10.9 Z" id="Shape"></path>
                <path d="M55.6,7.6 C55.6,6.4 55.9,5.4 56.5,4.6 C57.1,3.8 57.9,3.5 58.9,3.5 C59.8,3.5 60.5,3.8 61,4.4 L61.1,3.6 L63.1,3.6 L63.1,11.4 C63.1,12.1 62.9,12.7 62.6,13.2 C62.3,13.7 61.8,14.1 61.2,14.4 C60.6,14.7 59.9,14.8 59.2,14.8 C58.6,14.8 58,14.7 57.5,14.4 C56.9,14.2 56.5,13.9 56.2,13.5 L57.2,12.2 C57.7,12.8 58.4,13.1 59.2,13.1 C59.8,13.1 60.2,12.9 60.5,12.6 C60.8,12.3 61,11.9 61,11.3 L61,11 C60.5,11.6 59.8,11.8 59,11.8 C58,11.8 57.2,11.4 56.6,10.7 C56,10 55.6,8.9 55.6,7.6 L55.6,7.6 Z M57.8,7.7 C57.8,8.4 57.9,9 58.2,9.4 C58.5,9.8 58.9,10 59.4,10 C60.1,10 60.5,9.8 60.8,9.3 L60.8,5.9 C60.5,5.4 60,5.2 59.4,5.2 C58.9,5.2 58.5,5.4 58.2,5.8 C57.9,6.3 57.8,6.9 57.8,7.7 Z" id="Shape"></path>
                <path d="M64.4,7.6 C64.4,6.4 64.7,5.4 65.3,4.6 C65.9,3.8 66.7,3.5 67.7,3.5 C68.6,3.5 69.3,3.8 69.8,4.4 L69.9,3.6 L71.9,3.6 L71.9,11.4 C71.9,12.1 71.7,12.7 71.4,13.2 C71.1,13.7 70.6,14.1 70,14.4 C69.4,14.7 68.7,14.8 68,14.8 C67.4,14.8 66.8,14.7 66.3,14.4 C65.7,14.2 65.3,13.9 65,13.5 L66,12.2 C66.5,12.8 67.2,13.1 68,13.1 C68.6,13.1 69,12.9 69.3,12.6 C69.6,12.3 69.8,11.9 69.8,11.3 L69.8,11 C69.3,11.6 68.6,11.8 67.8,11.8 C66.8,11.8 66,11.4 65.4,10.7 C64.8,10 64.4,8.9 64.4,7.6 L64.4,7.6 Z M66.5,7.7 C66.5,8.4 66.6,9 66.9,9.4 C67.2,9.8 67.6,10 68.1,10 C68.8,10 69.2,9.8 69.5,9.3 L69.5,5.9 C69.2,5.4 68.7,5.2 68.1,5.2 C67.6,5.2 67.2,5.4 66.9,5.8 C66.7,6.3 66.5,6.9 66.5,7.7 Z" id="Shape"></path>
                <polygon id="Shape" points="75.7 11.7 73.5 11.7 73.5 0.3 75.7 0.3"></polygon>
                <path d="M81.1,11.8 C79.9,11.8 79,11.4 78.2,10.7 C77.5,10 77.1,9 77.1,7.8 L77.1,7.6 C77.1,6.8 77.3,6.1 77.6,5.4 C77.9,4.8 78.4,4.3 78.9,3.9 C79.5,3.6 80.1,3.4 80.9,3.4 C82,3.4 82.9,3.7 83.5,4.4 C84.1,5.1 84.5,6.1 84.5,7.4 L84.5,8.3 L79.4,8.3 C79.5,8.8 79.7,9.2 80,9.6 C80.4,9.9 80.8,10.1 81.3,10.1 C82.1,10.1 82.8,9.8 83.2,9.2 L84.3,10.4 C84,10.9 83.5,11.2 83,11.5 C82.5,11.8 81.8,11.8 81.1,11.8 Z M80.9,5.2 C80.5,5.2 80.1,5.3 79.9,5.6 C79.7,5.9 79.5,6.3 79.4,6.8 L82.4,6.8 L82.4,6.6 C82.4,6.1 82.3,5.8 82,5.5 C81.7,5.3 81.3,5.2 80.9,5.2 Z" id="Shape"></path>
                <polygon id="Shape" points="96.5 8.7 97.6 3.6 99.7 3.6 97.6 11.7 95.8 11.7 94.3 6.6 92.8 11.7 91 11.7 88.9 3.6 91 3.6 92.1 8.7 93.6 3.6 95.2 3.6"></polygon>
                <path d="M100.7,1.5 C100.7,1.2 100.8,0.9 101,0.7 C101.2,0.5 101.5,0.4 101.9,0.4 C102.3,0.4 102.6,0.5 102.8,0.7 C103,0.9 103.1,1.2 103.1,1.5 C103.1,1.8 103,2.1 102.8,2.3 C102.6,2.5 102.3,2.6 101.9,2.6 C101.5,2.6 101.2,2.5 101,2.3 C100.8,2.1 100.7,1.8 100.7,1.5 Z M103,11.7 L100.8,11.7 L100.8,3.6 L103,3.6 L103,11.7 Z" id="Shape"></path>
                <path d="M107.3,1.6 L107.3,3.6 L108.7,3.6 L108.7,5.2 L107.3,5.2 L107.3,9.2 C107.3,9.5 107.4,9.7 107.5,9.8 C107.6,9.9 107.8,10 108.2,10 C108.4,10 108.6,10 108.8,9.9 L108.8,11.5 C108.4,11.6 107.9,11.7 107.5,11.7 C106,11.7 105.2,10.9 105.2,9.4 L105.2,5.1 L104,5.1 L104,3.5 L105.2,3.5 L105.2,1.5 L107.3,1.5 L107.3,1.6 Z" id="Shape"></path>
                <path d="M112,4.5 C112.6,3.8 113.3,3.5 114.2,3.5 C115.9,3.5 116.8,4.5 116.9,6.5 L116.9,11.7 L114.7,11.7 L114.7,6.6 C114.7,6.1 114.6,5.8 114.4,5.6 C114.2,5.4 113.9,5.3 113.4,5.3 C112.8,5.3 112.3,5.5 112,6 L112,11.7 L109.8,11.7 L109.8,0.3 L112,0.3 L112,4.5 L112,4.5 Z" id="Shape"></path>
                <path d="M120.2,8.3 C120.2,7.6 120.3,7 120.5,6.6 C120.7,6.2 121,5.8 121.4,5.4 C121.8,5 122.1,4.7 122.3,4.4 C122.4,4.1 122.5,3.9 122.5,3.6 C122.5,2.8 122.1,2.3 121.3,2.3 C120.9,2.3 120.6,2.4 120.4,2.6 C120.2,2.8 120.1,3.1 120.1,3.5 L117.9,3.5 C117.9,2.5 118.2,1.8 118.8,1.3 C119.4,0.8 120.2,0.5 121.3,0.5 C122.4,0.5 123.2,0.8 123.8,1.3 C124.4,1.8 124.7,2.5 124.7,3.5 C124.7,3.9 124.6,4.3 124.4,4.7 C124.2,5.1 123.9,5.5 123.4,5.9 L122.8,6.5 C122.4,6.9 122.2,7.3 122.2,7.8 L122.2,8.3 L120.2,8.3 Z M120,10.6 C120,10.3 120.1,10 120.3,9.8 C120.5,9.6 120.8,9.5 121.2,9.5 C121.6,9.5 121.8,9.6 122.1,9.8 C122.3,10 122.4,10.3 122.4,10.6 C122.4,10.9 122.3,11.2 122.1,11.4 C121.9,11.6 121.6,11.7 121.2,11.7 C120.8,11.7 120.5,11.6 120.3,11.4 C120.1,11.2 120,11 120,10.6 Z" id="Shape"></path>
            </g>
            <path d="M89.4,194.1 L172.8,194.1 C173.9,194.1 174.8,195 174.8,196.1 L174.8,215.8 C174.8,216.9 173.9,217.8 172.8,217.8 L89.4,217.8 C88.3,217.8 87.4,216.9 87.4,215.8 L87.4,196.1 C87.4,195 88.3,194.1 89.4,194.1 Z" id="Shape" fill="#000000"></path>
            <g id="Group" transform="translate(95.000000, 200.000000)" fill="#FFFFFF">
                <polygon id="Shape" points="7.4 10.5 6.2 10.5 1.6 3.4 1.6 10.5 0.4 10.5 0.4 1.3 1.6 1.3 6.3 8.4 6.3 1.3 7.5 1.3 7.5 10.5"></polygon>
                <path d="M9.1,7 C9.1,6.3 9.2,5.7 9.5,5.2 C9.8,4.7 10.1,4.2 10.6,4 C11.1,3.7 11.6,3.6 12.2,3.6 C13.1,3.6 13.9,3.9 14.5,4.6 C15.1,5.2 15.4,6.1 15.4,7.2 L15.4,7.3 C15.4,8 15.3,8.6 15,9.1 C14.7,9.6 14.4,10 13.9,10.3 C13.4,10.6 12.9,10.7 12.3,10.7 C11.4,10.7 10.6,10.4 10,9.7 C9.4,9 9.1,8.1 9.1,7 L9.1,7 Z M10.3,7.1 C10.3,7.9 10.5,8.5 10.8,8.9 C11.2,9.4 11.6,9.6 12.2,9.6 C12.8,9.6 13.3,9.4 13.6,8.9 C14,8.4 14.1,7.8 14.1,6.9 C14.1,6.1 13.9,5.5 13.6,5.1 C13.2,4.6 12.8,4.4 12.2,4.4 C11.6,4.4 11.2,4.6 10.8,5.1 C10.4,5.6 10.3,6.3 10.3,7.1 Z" id="Shape"></path>
                <path d="M27,7.6 C26.9,8.6 26.5,9.3 25.9,9.9 C25.3,10.4 24.5,10.7 23.5,10.7 C22.4,10.7 21.5,10.3 20.9,9.5 C20.2,8.7 19.9,7.7 19.9,6.4 L19.9,5.5 C19.9,4.6 20.1,3.9 20.4,3.2 C20.7,2.5 21.1,2.1 21.7,1.7 C22.3,1.3 22.9,1.2 23.7,1.2 C24.7,1.2 25.5,1.5 26.1,2 C26.7,2.5 27,3.3 27.1,4.3 L25.9,4.3 C25.8,3.6 25.6,3 25.2,2.7 C24.8,2.4 24.4,2.2 23.7,2.2 C22.9,2.2 22.3,2.5 21.9,3.1 C21.5,3.7 21.2,4.5 21.2,5.6 L21.2,6.5 C21.2,7.5 21.4,8.3 21.8,8.9 C22.2,9.5 22.8,9.8 23.6,9.8 C24.3,9.8 24.8,9.6 25.2,9.3 C25.6,9 25.8,8.5 25.9,7.7 L27,7.7 L27,7.6 Z" id="Shape"></path>
                <path d="M32.7,10.5 C32.6,10.4 32.6,10.1 32.5,9.8 C32,10.4 31.3,10.6 30.5,10.6 C29.8,10.6 29.3,10.4 28.8,10 C28.3,9.6 28.2,9.1 28.2,8.5 C28.2,7.8 28.5,7.2 29,6.8 C29.5,6.4 30.3,6.2 31.3,6.2 L32.4,6.2 L32.4,5.7 C32.4,5.3 32.3,5 32,4.7 C31.8,4.5 31.4,4.3 30.9,4.3 C30.5,4.3 30.1,4.4 29.8,4.6 C29.5,4.8 29.4,5.1 29.4,5.4 L28.2,5.4 C28.2,5.1 28.3,4.7 28.6,4.4 C28.8,4.1 29.2,3.8 29.6,3.6 C30,3.4 30.5,3.3 31,3.3 C31.8,3.3 32.4,3.5 32.9,3.9 C33.3,4.3 33.6,4.8 33.6,5.5 L33.6,8.7 C33.6,9.3 33.7,9.8 33.8,10.2 L33.8,10.3 L32.7,10.3 L32.7,10.5 Z M30.7,9.6 C31.1,9.6 31.4,9.5 31.7,9.3 C32,9.1 32.3,8.9 32.4,8.6 L32.4,7.2 L31.5,7.2 C30.1,7.2 29.3,7.6 29.3,8.5 C29.3,8.9 29.4,9.2 29.7,9.4 C30,9.5 30.3,9.6 30.7,9.6 Z" id="Shape"></path>
                <polygon id="Shape" points="36.8 10.5 35.6 10.5 35.6 0.8 36.8 0.8"></polygon>
                <polygon id="Shape" points="39.9 10.5 38.7 10.5 38.7 0.8 39.9 0.8"></polygon>
                <path d="M46.4,6.9 L46.4,10.5 L45.2,10.5 L45.2,1.3 L48.6,1.3 C49.6,1.3 50.4,1.6 51,2.1 C51.6,2.6 51.9,3.3 51.9,4.1 C51.9,5 51.6,5.7 51.1,6.2 C50.6,6.7 49.7,6.9 48.7,6.9 L46.4,6.9 L46.4,6.9 Z M46.4,5.9 L48.6,5.9 C49.2,5.9 49.7,5.7 50.1,5.4 C50.4,5.1 50.6,4.7 50.6,4.1 C50.6,3.6 50.4,3.1 50.1,2.8 C49.8,2.5 49.3,2.3 48.7,2.3 L46.4,2.3 L46.4,5.9 L46.4,5.9 Z" id="Shape"></path>
                <polygon id="Shape" points="54.4 10.5 53.2 10.5 53.2 0.8 54.4 0.8"></polygon>
                <path d="M60.6,10.5 C60.5,10.4 60.5,10.1 60.4,9.8 C59.9,10.4 59.2,10.6 58.4,10.6 C57.7,10.6 57.2,10.4 56.7,10 C56.2,9.6 56.1,9.1 56.1,8.5 C56.1,7.8 56.4,7.2 56.9,6.8 C57.4,6.4 58.2,6.2 59.2,6.2 L60.3,6.2 L60.3,5.7 C60.3,5.3 60.2,5 59.9,4.7 C59.7,4.5 59.3,4.3 58.8,4.3 C58.4,4.3 58,4.4 57.7,4.6 C57.4,4.8 57.3,5.1 57.3,5.4 L56.1,5.4 C56.1,5.1 56.2,4.7 56.5,4.4 C56.7,4.1 57.1,3.8 57.5,3.6 C57.9,3.4 58.4,3.3 58.9,3.3 C59.7,3.3 60.3,3.5 60.8,3.9 C61.2,4.3 61.5,4.8 61.5,5.5 L61.5,8.7 C61.5,9.3 61.6,9.8 61.7,10.2 L61.7,10.3 L60.6,10.3 L60.6,10.5 Z M58.6,9.6 C59,9.6 59.3,9.5 59.6,9.3 C59.9,9.1 60.2,8.9 60.3,8.6 L60.3,7.2 L59.4,7.2 C58,7.2 57.2,7.6 57.2,8.5 C57.2,8.9 57.3,9.2 57.6,9.4 C57.9,9.5 58.2,9.6 58.6,9.6 Z" id="Shape"></path>
                <path d="M64.5,3.6 L64.5,4.5 C65,3.8 65.7,3.5 66.6,3.5 C68,3.5 68.8,4.3 68.8,6 L68.8,10.5 L67.6,10.5 L67.6,6 C67.6,5.5 67.5,5.1 67.3,4.9 C67.1,4.7 66.7,4.5 66.3,4.5 C65.9,4.5 65.6,4.6 65.3,4.8 C65,5 64.8,5.3 64.6,5.6 L64.6,10.5 L63.4,10.5 L63.4,3.6 L64.5,3.6 Z" id="Shape"></path>
            </g>
            <path d="M187.5,194.1 L319,194.1 C320.1,194.1 321,195 321,196.1 L321,215.8 C321,216.9 320.1,217.8 319,217.8 L187.5,217.8 C186.4,217.8 185.5,216.9 185.5,215.8 L185.5,196.1 C185.5,195 186.4,194.1 187.5,194.1 Z" id="Shape" fill="#F9F9FA"></path>
            <polygon id="Shape" fill="#727478" points="201.5 206.4 197.6 206.4 197.6 210.5 196.4 210.5 196.4 201.3 202.1 201.3 202.1 202.3 197.6 202.3 197.6 205.5 201.5 205.5"></polygon>
            <path d="M203,207 C203,206.3 203.1,205.7 203.4,205.2 C203.7,204.7 204,204.2 204.5,204 C205,203.7 205.5,203.6 206.1,203.6 C207,203.6 207.8,203.9 208.4,204.6 C209,205.2 209.3,206.1 209.3,207.2 L209.3,207.3 C209.3,208 209.2,208.6 208.9,209.1 C208.6,209.6 208.3,210 207.8,210.3 C207.3,210.6 206.8,210.7 206.2,210.7 C205.3,210.7 204.5,210.4 203.9,209.7 C203.3,209 203,208.1 203,207 L203,207 Z M204.1,207.1 C204.1,207.9 204.3,208.5 204.6,208.9 C205,209.4 205.4,209.6 206,209.6 C206.6,209.6 207.1,209.4 207.4,208.9 C207.8,208.4 207.9,207.8 207.9,206.9 C207.9,206.1 207.7,205.5 207.4,205.1 C207,204.6 206.6,204.4 206,204.4 C205.4,204.4 205,204.6 204.6,205.1 C204.2,205.6 204.1,206.3 204.1,207.1 Z" id="Shape" fill="#727478"></path>
            <path d="M214,204.7 C213.8,204.7 213.6,204.7 213.4,204.7 C212.6,204.7 212.1,205 211.8,205.7 L211.8,210.6 L210.6,210.6 L210.6,203.7 L211.7,203.7 L211.7,204.5 C212.1,203.9 212.6,203.6 213.3,203.6 C213.5,203.6 213.7,203.6 213.8,203.7 L213.8,204.7 L214,204.7 Z" id="Shape" fill="#727478"></path>
            <g id="Group" transform="translate(214.000000, 202.000000)" fill="#727478">
                <path d="M0.7,5 C0.7,3.9 0.9,3.1 1.4,2.5 C1.9,1.9 2.5,1.6 3.4,1.6 C4.2,1.6 4.9,1.9 5.4,2.5 L5.5,1.7 L6.6,1.7 L6.6,8.4 C6.6,9.3 6.3,10 5.8,10.5 C5.3,11 4.6,11.3 3.7,11.3 C3.2,11.3 2.7,11.2 2.2,11 C1.7,10.8 1.4,10.5 1.1,10.1 L1.7,9.4 C2.2,10 2.8,10.3 3.5,10.3 C4.1,10.3 4.5,10.1 4.8,9.8 C5.1,9.5 5.3,9 5.3,8.4 L5.3,7.8 C4.8,8.3 4.2,8.6 3.4,8.6 C2.6,8.6 1.9,8.3 1.5,7.6 C0.9,7 0.7,6.1 0.7,5 Z M1.8,5.1 C1.8,5.9 2,6.5 2.3,6.9 C2.6,7.3 3.1,7.6 3.6,7.6 C4.3,7.6 4.9,7.3 5.2,6.6 L5.2,3.5 C4.8,2.8 4.3,2.5 3.6,2.5 C3,2.5 2.6,2.7 2.3,3.2 C2,3.7 1.8,4.3 1.8,5.1 Z" id="Shape"></path>
                <path d="M7.9,5 C7.9,4.3 8,3.7 8.3,3.2 C8.6,2.7 8.9,2.2 9.4,2 C9.9,1.7 10.4,1.6 11,1.6 C11.9,1.6 12.7,1.9 13.3,2.6 C13.9,3.2 14.2,4.1 14.2,5.2 L14.2,5.3 C14.2,6 14.1,6.6 13.8,7.1 C13.5,7.6 13.2,8 12.7,8.3 C12.2,8.6 11.7,8.7 11.1,8.7 C10.2,8.7 9.4,8.4 8.8,7.7 C8.2,7 7.9,6.1 7.9,5 L7.9,5 Z M9.1,5.1 C9.1,5.9 9.3,6.5 9.6,6.9 C10,7.4 10.4,7.6 11,7.6 C11.6,7.6 12.1,7.4 12.4,6.9 C12.8,6.4 12.9,5.8 12.9,4.9 C12.9,4.1 12.7,3.5 12.4,3.1 C12,2.6 11.6,2.4 11,2.4 C10.4,2.4 10,2.6 9.6,3.1 C9.2,3.6 9.1,4.3 9.1,5.1 Z" id="Shape"></path>
                <path d="M17.2,0 L17.2,1.7 L18.5,1.7 L18.5,2.6 L17.2,2.6 L17.2,6.9 C17.2,7.2 17.3,7.4 17.4,7.5 C17.5,7.6 17.7,7.7 18,7.7 C18.1,7.7 18.3,7.7 18.6,7.6 L18.6,8.5 C18.3,8.6 18,8.6 17.7,8.6 C17.2,8.6 16.8,8.4 16.5,8.1 C16.2,7.8 16.1,7.3 16.1,6.8 L16.1,2.6 L14.9,2.6 L14.9,1.7 L16.1,1.7 L16.1,0 L17.2,0 Z" id="Shape"></path>
            </g>
            <polygon id="Shape" fill="#727478" points="239 207.3 238.3 208.1 238.3 210.5 237.1 210.5 237.1 200.8 238.3 200.8 238.3 206.7 238.9 205.9 241 203.6 242.4 203.6 239.7 206.5 242.7 210.5 241.3 210.5"></polygon>
            <path d="M246.4,210.6 C245.5,210.6 244.7,210.3 244.1,209.7 C243.5,209.1 243.2,208.3 243.2,207.3 L243.2,207 C243.2,206.3 243.3,205.7 243.6,205.2 C243.9,204.7 244.2,204.2 244.7,203.9 C245.2,203.6 245.7,203.4 246.2,203.4 C247.1,203.4 247.8,203.7 248.3,204.3 C248.8,204.9 249,205.7 249,206.8 L249,207.3 L244.4,207.3 C244.4,208 244.6,208.5 245,208.9 C245.4,209.3 245.9,209.5 246.4,209.5 C246.8,209.5 247.2,209.4 247.5,209.2 C247.8,209 248,208.8 248.3,208.5 L249,209.1 C248.4,210.2 247.5,210.6 246.4,210.6 Z M246.2,204.5 C245.7,204.5 245.3,204.7 245,205 C244.7,205.3 244.5,205.8 244.4,206.4 L247.8,206.4 L247.8,206.3 C247.8,205.7 247.6,205.2 247.3,204.9 C247.1,204.6 246.7,204.5 246.2,204.5 Z" id="Shape" fill="#727478"></path>
            <g id="Group" transform="translate(249.000000, 201.000000)" fill="#727478">
                <path d="M3.5,7.8 L5.1,2.7 L6.4,2.7 L3.6,10.6 C3.2,11.7 2.5,12.3 1.6,12.3 L1.4,12.3 L1,12.2 L1,11.2 L1.3,11.2 C1.7,11.2 2,11.1 2.2,11 C2.4,10.9 2.6,10.5 2.7,10.1 L3,9.4 L0.6,2.6 L1.9,2.6 L3.5,7.8 Z" id="Shape"></path>
                <path d="M10.4,6 C10.4,4.9 10.6,4.1 11.1,3.4 C11.6,2.8 12.3,2.5 13.1,2.5 C13.9,2.5 14.6,2.8 15,3.3 L15.1,2.6 L16.2,2.6 L16.2,12.1 L15,12.1 L15,8.8 C14.5,9.3 13.9,9.6 13.1,9.6 C12.3,9.6 11.6,9.3 11.1,8.6 C10.6,8 10.4,7.2 10.4,6 L10.4,6 Z M11.5,6.1 C11.5,6.9 11.7,7.5 12,7.9 C12.3,8.3 12.8,8.6 13.3,8.6 C14,8.6 14.5,8.3 14.9,7.7 L14.9,4.3 C14.5,3.7 14,3.4 13.3,3.4 C12.7,3.4 12.3,3.6 12,4.1 C11.7,4.6 11.5,5.3 11.5,6.1 Z" id="Shape"></path>
                <path d="M22.3,8.8 C21.8,9.3 21.2,9.6 20.3,9.6 C19.6,9.6 19,9.4 18.6,9 C18.2,8.6 18,7.9 18,7.1 L18,2.6 L19.2,2.6 L19.2,7 C19.2,8 19.6,8.6 20.5,8.6 C21.4,8.6 22,8.3 22.3,7.6 L22.3,2.6 L23.5,2.6 L23.5,9.5 L22.4,9.5 L22.3,8.8 Z" id="Shape"></path>
                <path d="M28,9.6 C27.1,9.6 26.3,9.3 25.7,8.7 C25.1,8.1 24.8,7.3 24.8,6.3 L24.8,6 C24.8,5.3 24.9,4.7 25.2,4.2 C25.5,3.7 25.8,3.2 26.3,2.9 C26.8,2.6 27.3,2.4 27.8,2.4 C28.7,2.4 29.4,2.7 29.9,3.3 C30.4,3.9 30.6,4.7 30.6,5.8 L30.6,6.3 L26,6.3 C26,7 26.2,7.5 26.6,7.9 C27,8.3 27.5,8.5 28,8.5 C28.4,8.5 28.8,8.4 29.1,8.2 C29.4,8 29.6,7.8 29.9,7.5 L30.6,8.1 C30,9.2 29.2,9.6 28,9.6 Z M27.9,3.5 C27.4,3.5 27,3.7 26.7,4 C26.4,4.3 26.2,4.8 26.1,5.4 L29.5,5.4 L29.5,5.3 C29.5,4.7 29.3,4.2 29,3.9 C28.8,3.6 28.4,3.5 27.9,3.5 Z" id="Shape"></path>
                <path d="M36,7.7 C36,7.4 35.9,7.1 35.6,7 C35.4,6.8 34.9,6.7 34.4,6.5 C33.8,6.4 33.3,6.2 33,6 C32.7,5.8 32.4,5.6 32.2,5.4 C32,5.2 32,4.9 32,4.5 C32,3.9 32.2,3.5 32.7,3.1 C33.2,2.7 33.8,2.5 34.5,2.5 C35.3,2.5 35.9,2.7 36.4,3.1 C36.9,3.5 37.1,4 37.1,4.6 L36,4.6 C36,4.3 35.9,4 35.6,3.8 C35.3,3.6 35,3.5 34.6,3.5 C34.2,3.5 33.8,3.6 33.6,3.8 C33.4,4 33.2,4.2 33.2,4.5 C33.2,4.8 33.3,5 33.5,5.1 C33.7,5.2 34.1,5.4 34.7,5.5 C35.3,5.6 35.8,5.8 36.1,6 C36.5,6.2 36.7,6.4 36.9,6.7 C37.1,7 37.2,7.3 37.2,7.6 C37.2,8.2 37,8.7 36.5,9.1 C36,9.5 35.4,9.7 34.6,9.7 C34.1,9.7 33.6,9.6 33.1,9.4 C32.7,9.2 32.3,8.9 32.1,8.6 C31.9,8.3 31.7,7.9 31.7,7.5 L32.9,7.5 C32.9,7.9 33.1,8.2 33.4,8.4 C33.7,8.6 34.1,8.7 34.6,8.7 C35,8.7 35.4,8.6 35.7,8.4 C36,8.2 36,8 36,7.7 Z" id="Shape"></path>
                <path d="M40.3,1 L40.3,2.7 L41.6,2.7 L41.6,3.6 L40.3,3.6 L40.3,7.9 C40.3,8.2 40.4,8.4 40.5,8.5 C40.6,8.6 40.8,8.7 41.1,8.7 C41.2,8.7 41.4,8.7 41.7,8.6 L41.7,9.5 C41.4,9.6 41.1,9.6 40.8,9.6 C40.3,9.6 39.9,9.4 39.6,9.1 C39.3,8.8 39.2,8.3 39.2,7.8 L39.2,3.6 L38,3.6 L38,2.7 L39.2,2.7 L39.2,1 L40.3,1 Z" id="Shape"></path>
                <path d="M43,0.8 C43,0.6 43.1,0.4 43.2,0.3 C43.3,0.2 43.5,0.1 43.7,0.1 C43.9,0.1 44.1,0.2 44.2,0.3 C44.3,0.4 44.4,0.6 44.4,0.8 C44.4,1 44.3,1.1 44.2,1.3 C44.1,1.4 43.9,1.5 43.7,1.5 C43.5,1.5 43.3,1.4 43.2,1.3 C43,1.2 43,1 43,0.8 Z M44.2,9.5 L43,9.5 L43,2.6 L44.2,2.6 L44.2,9.5 Z" id="Shape"></path>
                <path d="M45.8,6 C45.8,5.3 45.9,4.7 46.2,4.2 C46.5,3.7 46.8,3.2 47.3,3 C47.8,2.7 48.3,2.6 48.9,2.6 C49.8,2.6 50.6,2.9 51.2,3.6 C51.8,4.2 52.1,5.1 52.1,6.2 L52.1,6.3 C52.1,7 52,7.6 51.7,8.1 C51.4,8.6 51.1,9 50.6,9.3 C50.1,9.6 49.6,9.7 49,9.7 C48.1,9.7 47.3,9.4 46.7,8.7 C46.1,8 45.8,7.1 45.8,6 L45.8,6 Z M47,6.1 C47,6.9 47.2,7.5 47.5,7.9 C47.9,8.4 48.3,8.6 48.9,8.6 C49.5,8.6 50,8.4 50.3,7.9 C50.7,7.4 50.8,6.8 50.8,5.9 C50.8,5.1 50.6,4.5 50.3,4.1 C49.9,3.6 49.5,3.4 48.9,3.4 C48.3,3.4 47.9,3.6 47.5,4.1 C47.1,4.6 47,5.3 47,6.1 Z" id="Shape"></path>
                <path d="M54.6,2.6 L54.6,3.5 C55.1,2.8 55.8,2.5 56.7,2.5 C58.1,2.5 58.9,3.3 58.9,5 L58.9,9.5 L57.7,9.5 L57.7,5 C57.7,4.5 57.6,4.1 57.4,3.9 C57.2,3.7 56.8,3.5 56.4,3.5 C56,3.5 55.7,3.6 55.4,3.8 C55.1,4 54.9,4.3 54.7,4.6 L54.7,9.5 L53.5,9.5 L53.5,2.6 L54.6,2.6 Z" id="Shape"></path>
                <path d="M64.7,7.7 C64.7,7.4 64.6,7.1 64.3,7 C64.1,6.8 63.6,6.7 63.1,6.5 C62.5,6.4 62,6.2 61.7,6 C61.4,5.8 61.1,5.6 60.9,5.4 C60.7,5.2 60.7,4.9 60.7,4.5 C60.7,3.9 60.9,3.5 61.4,3.1 C61.9,2.7 62.5,2.5 63.2,2.5 C64,2.5 64.6,2.7 65.1,3.1 C65.6,3.5 65.8,4 65.8,4.6 L64.6,4.6 C64.6,4.3 64.5,4 64.2,3.8 C63.9,3.6 63.6,3.5 63.2,3.5 C62.8,3.5 62.4,3.6 62.2,3.8 C62,4 61.8,4.2 61.8,4.5 C61.8,4.8 61.9,5 62.1,5.1 C62.3,5.2 62.7,5.4 63.3,5.5 C63.9,5.6 64.4,5.8 64.7,6 C65.1,6.2 65.3,6.4 65.5,6.7 C65.7,7 65.8,7.3 65.8,7.6 C65.8,8.2 65.6,8.7 65.1,9.1 C64.6,9.5 64,9.7 63.2,9.7 C62.7,9.7 62.2,9.6 61.7,9.4 C61.3,9.2 60.9,8.9 60.7,8.6 C60.5,8.3 60.3,7.9 60.3,7.5 L61.5,7.5 C61.5,7.9 61.7,8.2 62,8.4 C62.3,8.6 62.7,8.7 63.2,8.7 C63.6,8.7 64,8.6 64.3,8.4 C64.6,8.2 64.7,8 64.7,7.7 Z" id="Shape"></path>
            </g>
            <path d="M335.1,194.1 L466.6,194.1 C468.1,194.1 469.4,195.3 469.4,196.9 L469.4,215 C469.4,216.5 468.2,217.8 466.6,217.8 L335.1,217.8 C333.6,217.8 332.3,216.6 332.3,215 L332.3,196.9 C332.3,195.3 333.6,194.1 335.1,194.1 Z" id="Shape" fill="#F9F9FA"></path>
            <g id="Group" transform="translate(342.000000, 200.000000)" fill="#727478">
                <path d="M0.2,10.5 L0.2,1.3 L2.8,1.3 C3.6,1.3 4.3,1.5 4.9,1.8 C5.5,2.2 6,2.7 6.3,3.3 C6.6,4 6.8,4.7 6.8,5.6 L6.8,6.2 C6.8,7.1 6.6,7.8 6.3,8.5 C6,9.2 5.5,9.7 4.9,10 C4.3,10.3 3.6,10.5 2.7,10.5 L0.2,10.5 L0.2,10.5 Z M1.4,2.3 L1.4,9.5 L2.7,9.5 C3.6,9.5 4.4,9.2 4.9,8.6 C5.4,8 5.7,7.2 5.7,6.1 L5.7,5.6 C5.7,4.6 5.5,3.7 5,3.2 C4.5,2.7 3.8,2.3 2.9,2.3 L1.4,2.3 L1.4,2.3 Z" id="Shape"></path>
                <path d="M8.5,1.8 C8.5,1.6 8.6,1.4 8.7,1.3 C8.8,1.2 9,1.1 9.2,1.1 C9.4,1.1 9.6,1.2 9.7,1.3 C9.8,1.4 9.9,1.6 9.9,1.8 C9.9,2 9.8,2.1 9.7,2.3 C9.6,2.4 9.4,2.5 9.2,2.5 C9,2.5 8.8,2.4 8.7,2.3 C8.6,2.2 8.5,2 8.5,1.8 Z M9.8,10.5 L8.6,10.5 L8.6,3.6 L9.8,3.6 L9.8,10.5 Z" id="Shape"></path>
                <path d="M11.4,7 C11.4,5.9 11.6,5.1 12.1,4.5 C12.6,3.9 13.3,3.5 14.1,3.5 C14.9,3.5 15.5,3.8 16,4.3 L16,0.7 L17.2,0.7 L17.2,10.4 L16.1,10.4 L16,9.7 C15.5,10.3 14.9,10.6 14,10.6 C13.2,10.6 12.6,10.3 12.1,9.6 C11.6,8.9 11.4,8.1 11.4,7 L11.4,7 Z M12.6,7.1 C12.6,7.9 12.8,8.5 13.1,8.9 C13.4,9.3 13.9,9.6 14.4,9.6 C15.1,9.6 15.7,9.3 16,8.6 L16,5.5 C15.6,4.9 15.1,4.5 14.4,4.5 C13.8,4.5 13.4,4.7 13.1,5.2 C12.8,5.7 12.6,6.3 12.6,7.1 Z" id="Shape"></path>
            </g>
            <path d="M362.1,203.6 L362.1,204.5 C362.6,203.8 363.3,203.5 364.2,203.5 C365.6,203.5 366.4,204.3 366.4,206 L366.4,210.5 L365.2,210.5 L365.2,206 C365.2,205.5 365.1,205.1 364.9,204.9 C364.7,204.7 364.3,204.5 363.9,204.5 C363.5,204.5 363.2,204.6 362.9,204.8 C362.6,205 362.4,205.3 362.2,205.6 L362.2,210.5 L361,210.5 L361,203.6 L362.1,203.6 Z" id="Shape" fill="#727478"></path>
            <g id="Group" transform="translate(367.000000, 200.000000)" fill="#727478">
                <path d="M0.7,3.9 L0,3.4 C0.4,2.9 0.6,2.3 0.6,1.7 L0.6,0.8 L1.8,0.8 L1.8,1.6 C1.8,2 1.7,2.4 1.5,2.9 C1.3,3.4 1,3.6 0.7,3.9 Z" id="Shape"></path>
                <path d="M4.8,2 L4.8,3.7 L6.1,3.7 L6.1,4.6 L4.8,4.6 L4.8,8.9 C4.8,9.2 4.9,9.4 5,9.5 C5.1,9.6 5.3,9.7 5.6,9.7 C5.7,9.7 5.9,9.7 6.2,9.6 L6.2,10.5 C5.9,10.6 5.6,10.6 5.3,10.6 C4.8,10.6 4.4,10.4 4.1,10.1 C3.8,9.8 3.7,9.3 3.7,8.8 L3.7,4.6 L2.5,4.6 L2.5,3.7 L3.7,3.7 L3.7,2 L4.8,2 Z" id="Shape"></path>
                <path d="M13.5,10.6 C12.6,10.6 11.8,10.3 11.2,9.7 C10.6,9.1 10.3,8.3 10.3,7.3 L10.3,7 C10.3,6.3 10.4,5.7 10.7,5.2 C11,4.7 11.3,4.2 11.8,3.9 C12.3,3.6 12.8,3.4 13.3,3.4 C14.2,3.4 14.9,3.7 15.4,4.3 C15.9,4.9 16.1,5.7 16.1,6.8 L16.1,7.3 L11.5,7.3 C11.5,8 11.7,8.5 12.1,8.9 C12.5,9.3 13,9.5 13.5,9.5 C13.9,9.5 14.3,9.4 14.6,9.2 C14.9,9 15.1,8.8 15.4,8.5 L16.1,9.1 C15.5,10.2 14.7,10.6 13.5,10.6 Z M13.4,4.5 C12.9,4.5 12.5,4.7 12.2,5 C11.9,5.3 11.7,5.8 11.6,6.4 L15,6.4 L15,6.3 C15,5.7 14.8,5.2 14.5,4.9 C14.2,4.6 13.9,4.5 13.4,4.5 Z" id="Shape"></path>
                <path d="M21.5,8.7 C21.5,8.4 21.4,8.1 21.1,8 C20.9,7.8 20.4,7.7 19.9,7.5 C19.3,7.4 18.8,7.2 18.5,7 C18.2,6.8 17.9,6.6 17.7,6.4 C17.5,6.2 17.5,5.9 17.5,5.5 C17.5,4.9 17.7,4.5 18.2,4.1 C18.7,3.7 19.3,3.5 20,3.5 C20.8,3.5 21.4,3.7 21.9,4.1 C22.4,4.5 22.6,5 22.6,5.6 L21.4,5.6 C21.4,5.3 21.3,5 21,4.8 C20.7,4.6 20.4,4.5 20,4.5 C19.6,4.5 19.2,4.6 19,4.8 C18.8,5 18.6,5.2 18.6,5.5 C18.6,5.8 18.7,6 18.9,6.1 C19.1,6.2 19.5,6.4 20.1,6.5 C20.7,6.6 21.2,6.8 21.5,7 C21.9,7.2 22.1,7.4 22.3,7.7 C22.5,8 22.6,8.3 22.6,8.6 C22.6,9.2 22.4,9.7 21.9,10.1 C21.4,10.5 20.8,10.7 20,10.7 C19.5,10.7 19,10.6 18.5,10.4 C18.1,10.2 17.7,9.9 17.5,9.6 C17.3,9.3 17.1,8.9 17.1,8.5 L18.3,8.5 C18.3,8.9 18.5,9.2 18.8,9.4 C19.1,9.6 19.5,9.7 20,9.7 C20.4,9.7 20.8,9.6 21.1,9.4 C21.4,9.2 21.5,9 21.5,8.7 Z" id="Shape"></path>
                <path d="M25.8,2 L25.8,3.7 L27.1,3.7 L27.1,4.6 L25.8,4.6 L25.8,8.9 C25.8,9.2 25.9,9.4 26,9.5 C26.1,9.6 26.3,9.7 26.6,9.7 C26.7,9.7 26.9,9.7 27.2,9.6 L27.2,10.5 C26.9,10.6 26.6,10.6 26.3,10.6 C25.8,10.6 25.4,10.4 25.1,10.1 C24.8,9.8 24.7,9.3 24.7,8.8 L24.7,4.6 L23.5,4.6 L23.5,3.7 L24.7,3.7 L24.7,2 L25.8,2 Z" id="Shape"></path>
                <path d="M32.7,10.5 C32.6,10.4 32.6,10.1 32.5,9.8 C32,10.4 31.3,10.6 30.5,10.6 C29.8,10.6 29.3,10.4 28.8,10 C28.3,9.6 28.2,9.1 28.2,8.5 C28.2,7.8 28.5,7.2 29,6.8 C29.5,6.4 30.3,6.2 31.3,6.2 L32.4,6.2 L32.4,5.7 C32.4,5.3 32.3,5 32,4.7 C31.8,4.5 31.4,4.3 30.9,4.3 C30.5,4.3 30.1,4.4 29.8,4.6 C29.5,4.8 29.4,5.1 29.4,5.4 L28.2,5.4 C28.2,5.1 28.3,4.7 28.6,4.4 C28.8,4.1 29.2,3.8 29.6,3.6 C30,3.4 30.5,3.3 31,3.3 C31.8,3.3 32.4,3.5 32.9,3.9 C33.3,4.3 33.6,4.8 33.6,5.5 L33.6,8.7 C33.6,9.3 33.7,9.8 33.8,10.2 L33.8,10.3 L32.7,10.3 L32.7,10.5 Z M30.8,9.6 C31.2,9.6 31.5,9.5 31.8,9.3 C32.1,9.1 32.4,8.9 32.5,8.6 L32.5,7.2 L31.6,7.2 C30.2,7.2 29.4,7.6 29.4,8.5 C29.4,8.9 29.5,9.2 29.8,9.4 C30.1,9.5 30.4,9.6 30.8,9.6 Z" id="Shape"></path>
                <path d="M41.3,7.1 C41.3,8.1 41.1,9 40.6,9.6 C40.1,10.2 39.5,10.6 38.7,10.6 C37.8,10.6 37.2,10.3 36.7,9.7 L36.6,10.5 L35.5,10.5 L35.5,0.8 L36.7,0.8 L36.7,4.4 C37.2,3.8 37.8,3.5 38.7,3.5 C39.5,3.5 40.2,3.8 40.7,4.4 C41.2,5 41.4,5.9 41.4,7 L41.4,7.1 L41.3,7.1 Z M40.2,7 C40.2,6.2 40,5.6 39.7,5.2 C39.4,4.8 38.9,4.5 38.4,4.5 C37.6,4.5 37.1,4.9 36.7,5.6 L36.7,8.6 C37.1,9.3 37.6,9.7 38.4,9.7 C39,9.7 39.4,9.5 39.7,9 C40,8.5 40.2,7.9 40.2,7 Z" id="Shape"></path>
                <polygon id="Shape" points="44.1 10.5 42.9 10.5 42.9 0.8 44.1 0.8"></polygon>
                <path d="M46,1.8 C46,1.6 46.1,1.4 46.2,1.3 C46.3,1.2 46.5,1.1 46.7,1.1 C46.9,1.1 47.1,1.2 47.2,1.3 C47.3,1.4 47.4,1.6 47.4,1.8 C47.4,2 47.3,2.1 47.2,2.3 C47.1,2.4 46.9,2.5 46.7,2.5 C46.5,2.5 46.3,2.4 46.2,2.3 C46,2.2 46,2 46,1.8 Z M47.2,10.5 L46,10.5 L46,3.6 L47.2,3.6 L47.2,10.5 Z" id="Shape"></path>
                <path d="M53.1,8.7 C53.1,8.4 53,8.1 52.7,8 C52.5,7.8 52,7.7 51.5,7.5 C50.9,7.4 50.4,7.2 50.1,7 C49.8,6.8 49.5,6.6 49.3,6.4 C49.1,6.2 49.1,5.9 49.1,5.5 C49.1,4.9 49.3,4.5 49.8,4.1 C50.3,3.7 50.9,3.5 51.6,3.5 C52.4,3.5 53,3.7 53.5,4.1 C54,4.5 54.2,5 54.2,5.6 L53,5.6 C53,5.3 52.9,5 52.6,4.8 C52.3,4.6 52,4.5 51.6,4.5 C51.2,4.5 50.8,4.6 50.6,4.8 C50.4,5 50.2,5.2 50.2,5.5 C50.2,5.8 50.3,6 50.5,6.1 C50.7,6.2 51.1,6.4 51.7,6.5 C52.3,6.6 52.8,6.8 53.1,7 C53.5,7.2 53.7,7.4 53.9,7.7 C54.1,8 54.2,8.3 54.2,8.6 C54.2,9.2 54,9.7 53.5,10.1 C53,10.5 52.4,10.7 51.6,10.7 C51.1,10.7 50.6,10.6 50.1,10.4 C49.7,10.2 49.3,9.9 49.1,9.6 C48.9,9.3 48.7,8.9 48.7,8.5 L49.9,8.5 C49.9,8.9 50.1,9.2 50.4,9.4 C50.7,9.6 51.1,9.7 51.6,9.7 C52,9.7 52.4,9.6 52.7,9.4 C53,9.2 53.1,9 53.1,8.7 Z" id="Shape"></path>
                <path d="M57,4.5 C57.5,3.9 58.2,3.5 59,3.5 C60.4,3.5 61.2,4.3 61.2,6 L61.2,10.5 L60,10.5 L60,6 C60,5.5 59.9,5.1 59.7,4.9 C59.5,4.7 59.1,4.5 58.7,4.5 C58.3,4.5 58,4.6 57.7,4.8 C57.4,5 57.2,5.3 57,5.6 L57,10.5 L55.8,10.5 L55.8,0.8 L57,0.8 L57,4.5 Z" id="Shape"></path>
            </g>
            <polygon id="Shape" fill="#727478" points="435.4 208.9 437.1 203.6 438.3 203.6 435.8 210.5 435 210.5 432.5 203.6 433.7 203.6"></polygon>
            <g id="Group" transform="translate(439.000000, 200.000000)" fill="#727478">
                <path d="M4.6,10.5 C4.5,10.4 4.5,10.1 4.4,9.8 C3.9,10.4 3.2,10.6 2.4,10.6 C1.7,10.6 1.2,10.4 0.7,10 C0.2,9.6 0.1,9.1 0.1,8.5 C0.1,7.8 0.4,7.2 0.9,6.8 C1.4,6.4 2.2,6.2 3.2,6.2 L4.3,6.2 L4.3,5.7 C4.3,5.3 4.2,5 3.9,4.7 C3.7,4.5 3.3,4.3 2.8,4.3 C2.4,4.3 2,4.4 1.7,4.6 C1.4,4.8 1.3,5.1 1.3,5.4 L0.1,5.4 C0.1,5.1 0.2,4.7 0.5,4.4 C0.7,4.1 1.1,3.8 1.5,3.6 C1.9,3.4 2.4,3.3 2.9,3.3 C3.7,3.3 4.3,3.5 4.8,3.9 C5.3,4.3 5.5,4.8 5.5,5.5 L5.5,8.7 C5.5,9.3 5.6,9.8 5.7,10.2 L5.7,10.3 L4.6,10.3 L4.6,10.5 Z M2.6,9.6 C3,9.6 3.3,9.5 3.6,9.3 C3.9,9.1 4.2,8.9 4.3,8.6 L4.3,7.2 L3.4,7.2 C2,7.2 1.2,7.6 1.2,8.5 C1.2,8.9 1.3,9.2 1.6,9.4 C1.9,9.5 2.2,9.6 2.6,9.6 Z" id="Shape"></path>
                <polygon id="Shape" points="8.7 10.5 7.5 10.5 7.5 0.8 8.7 0.8"></polygon>
                <path d="M14.8,9.8 C14.3,10.3 13.7,10.6 12.8,10.6 C12.1,10.6 11.5,10.4 11.1,10 C10.7,9.6 10.5,8.9 10.5,8.1 L10.5,3.6 L11.7,3.6 L11.7,8 C11.7,9 12.1,9.6 13,9.6 C13.9,9.6 14.5,9.3 14.8,8.6 L14.8,3.6 L16,3.6 L16,10.5 L14.9,10.5 L14.8,9.8 Z" id="Shape"></path>
                <path d="M20.5,10.6 C19.6,10.6 18.8,10.3 18.2,9.7 C17.6,9.1 17.3,8.3 17.3,7.3 L17.3,7 C17.3,6.3 17.4,5.7 17.7,5.2 C18,4.7 18.3,4.2 18.8,3.9 C19.3,3.6 19.8,3.4 20.3,3.4 C21.2,3.4 21.9,3.7 22.4,4.3 C22.9,4.9 23.1,5.7 23.1,6.8 L23.1,7.3 L18.5,7.3 C18.5,8 18.7,8.5 19.1,8.9 C19.5,9.3 20,9.5 20.5,9.5 C20.9,9.5 21.3,9.4 21.6,9.2 C21.9,9 22.1,8.8 22.4,8.5 L23.1,9.1 C22.5,10.2 21.7,10.6 20.5,10.6 Z M20.4,4.5 C19.9,4.5 19.5,4.7 19.2,5 C18.9,5.3 18.7,5.8 18.6,6.4 L22,6.4 L22,6.3 C22,5.7 21.8,5.2 21.5,4.9 C21.3,4.6 20.9,4.5 20.4,4.5 Z" id="Shape"></path>
            </g>
            <path d="M487.9,193.9 L578,193.9 C579.1,193.9 580,194.8 580,195.9 L580,215.6 C580,216.7 579.1,217.6 578,217.6 L487.9,217.6 C486.8,217.6 485.9,216.7 485.9,215.6 L485.9,195.9 C485.9,194.8 486.8,193.9 487.9,193.9 Z" id="Shape" fill="#000000"></path>
            <path d="M493,206.7 L493,210.3 L491.8,210.3 L491.8,201.1 L495.2,201.1 C496.2,201.1 497,201.4 497.6,201.9 C498.2,202.4 498.5,203.1 498.5,203.9 C498.5,204.8 498.2,205.5 497.7,206 C497.2,206.5 496.3,206.7 495.3,206.7 L493,206.7 L493,206.7 Z M493,205.7 L495.2,205.7 C495.9,205.7 496.3,205.5 496.7,205.2 C497,204.9 497.2,204.5 497.2,203.9 C497.2,203.4 497,202.9 496.7,202.6 C496.4,202.3 495.9,202.1 495.3,202.1 L493,202.1 L493,205.7 Z" id="Shape" fill="#FFFFFF"></path>
            <g id="Group" transform="translate(499.000000, 200.000000)" fill="#FFFFFF">
                <path d="M0.4,6.8 C0.4,6.1 0.5,5.5 0.8,5 C1.1,4.5 1.4,4 1.9,3.8 C2.4,3.6 2.9,3.4 3.5,3.4 C4.4,3.4 5.2,3.7 5.8,4.4 C6.4,5 6.7,5.9 6.7,7 L6.7,7.1 C6.7,7.8 6.6,8.4 6.3,8.9 C6,9.4 5.7,9.8 5.2,10.1 C4.7,10.4 4.2,10.5 3.6,10.5 C2.7,10.5 1.9,10.2 1.3,9.5 C0.7,8.8 0.4,7.9 0.4,6.8 L0.4,6.8 Z M1.6,6.9 C1.6,7.7 1.8,8.3 2.1,8.7 C2.5,9.2 2.9,9.4 3.5,9.4 C4.1,9.4 4.6,9.2 4.9,8.7 C5.2,8.2 5.4,7.6 5.4,6.7 C5.4,5.9 5.2,5.3 4.9,4.9 C4.5,4.4 4.1,4.2 3.5,4.2 C2.9,4.2 2.5,4.4 2.1,4.9 C1.7,5.4 1.6,6.1 1.6,6.9 Z" id="Shape"></path>
                <path d="M7.8,6.8 C7.8,6.1 7.9,5.5 8.2,5 C8.5,4.5 8.8,4 9.3,3.8 C9.8,3.5 10.3,3.4 10.9,3.4 C11.8,3.4 12.6,3.7 13.2,4.4 C13.8,5 14.1,5.9 14.1,7 L14.1,7.1 C14.1,7.8 14,8.4 13.7,8.9 C13.4,9.4 13.1,9.8 12.6,10.1 C12.1,10.4 11.6,10.5 11,10.5 C10.1,10.5 9.3,10.2 8.7,9.5 C8.1,8.8 7.8,7.9 7.8,6.8 L7.8,6.8 Z M9,6.9 C9,7.7 9.2,8.3 9.5,8.7 C9.9,9.2 10.3,9.4 10.9,9.4 C11.5,9.4 12,9.2 12.3,8.7 C12.6,8.2 12.8,7.6 12.8,6.7 C12.8,5.9 12.6,5.3 12.3,4.9 C12,4.5 11.5,4.2 10.9,4.2 C10.3,4.2 9.9,4.4 9.5,4.9 C9.1,5.4 9,6.1 9,6.9 Z" id="Shape"></path>
                <path d="M18.8,4.5 C18.6,4.5 18.4,4.5 18.2,4.5 C17.4,4.5 16.9,4.8 16.6,5.5 L16.6,10.4 L15.4,10.4 L15.4,3.5 L16.5,3.5 L16.5,4.3 C16.9,3.7 17.4,3.4 18.1,3.4 C18.3,3.4 18.5,3.4 18.6,3.5 L18.6,4.5 L18.8,4.5 Z" id="Shape"></path>
                <path d="M23.7,10.3 L23.7,4.4 L22.6,4.4 L22.6,3.5 L23.7,3.5 L23.7,2.8 C23.7,2.1 23.9,1.5 24.3,1.1 C24.7,0.7 25.2,0.5 26,0.5 C26.3,0.5 26.5,0.5 26.8,0.6 L26.7,1.5 C26.5,1.5 26.3,1.4 26.1,1.4 C25.7,1.4 25.4,1.5 25.2,1.7 C25,1.9 24.9,2.2 24.9,2.7 L24.9,3.4 L26.4,3.4 L26.4,4.3 L24.9,4.3 L24.9,10.2 L23.7,10.2 L23.7,10.3 Z" id="Shape"></path>
                <path d="M27.3,6.8 C27.3,6.1 27.4,5.5 27.7,5 C28,4.5 28.3,4 28.8,3.8 C29.3,3.6 29.8,3.4 30.4,3.4 C31.3,3.4 32.1,3.7 32.7,4.4 C33.3,5 33.6,5.9 33.6,7 L33.6,7.1 C33.6,7.8 33.5,8.4 33.2,8.9 C32.9,9.4 32.6,9.8 32.1,10.1 C31.6,10.4 31.1,10.5 30.5,10.5 C29.6,10.5 28.8,10.2 28.2,9.5 C27.6,8.8 27.3,7.9 27.3,6.8 L27.3,6.8 Z M28.5,6.9 C28.5,7.7 28.7,8.3 29,8.7 C29.4,9.2 29.8,9.4 30.4,9.4 C31,9.4 31.5,9.2 31.8,8.7 C32.1,8.2 32.3,7.6 32.3,6.7 C32.3,5.9 32.1,5.3 31.8,4.9 C31.4,4.4 31,4.2 30.4,4.2 C29.8,4.2 29.4,4.4 29,4.9 C28.6,5.4 28.5,6.1 28.5,6.9 Z" id="Shape"></path>
                <polygon id="Shape" points="36.3 10.3 35.1 10.3 35.1 0.6 36.3 0.6"></polygon>
                <polygon id="Shape" points="39.4 10.3 38.2 10.3 38.2 0.6 39.4 0.6"></polygon>
                <path d="M41,6.8 C41,6.1 41.1,5.5 41.4,5 C41.7,4.5 42,4 42.5,3.8 C43,3.5 43.5,3.4 44.1,3.4 C45,3.4 45.8,3.7 46.4,4.4 C47,5 47.3,5.9 47.3,7 L47.3,7.1 C47.3,7.8 47.2,8.4 46.9,8.9 C46.6,9.4 46.3,9.8 45.8,10.1 C45.3,10.4 44.8,10.5 44.2,10.5 C43.3,10.5 42.5,10.2 41.9,9.5 C41.3,8.8 41,7.9 41,6.8 L41,6.8 Z M42.1,6.9 C42.1,7.7 42.3,8.3 42.6,8.7 C43,9.2 43.4,9.4 44,9.4 C44.6,9.4 45.1,9.2 45.4,8.7 C45.7,8.2 45.9,7.6 45.9,6.7 C45.9,5.9 45.7,5.3 45.4,4.9 C45.1,4.5 44.6,4.2 44,4.2 C43.4,4.2 43,4.4 42.6,4.9 C42.2,5.4 42.1,6.1 42.1,6.9 Z" id="Shape"></path>
                <polygon id="Shape" points="54.7 8.7 56 3.5 57.2 3.5 55.2 10.4 54.2 10.4 52.5 5.2 50.9 10.4 49.9 10.4 47.9 3.5 49.1 3.5 50.4 8.6 52 3.5 52.9 3.5"></polygon>
                <polygon id="Shape" points="60.9 6.9 57.8 6.9 57.8 5.9 60.9 5.9"></polygon>
                <path d="M66.2,9.6 C65.7,10.1 65.1,10.4 64.2,10.4 C63.5,10.4 62.9,10.2 62.5,9.8 C62.1,9.4 61.9,8.7 61.9,7.9 L61.9,3.4 L63.1,3.4 L63.1,7.8 C63.1,8.8 63.5,9.4 64.4,9.4 C65.3,9.4 65.9,9.1 66.2,8.4 L66.2,3.4 L67.4,3.4 L67.4,10.3 L66.3,10.3 L66.2,9.6 Z" id="Shape"></path>
                <path d="M74.9,6.9 C74.9,7.9 74.7,8.8 74.2,9.4 C73.7,10 73.1,10.4 72.3,10.4 C71.5,10.4 70.8,10.1 70.3,9.6 L70.3,12.9 L69.1,12.9 L69.1,3.4 L70.2,3.4 L70.3,4.2 C70.8,3.6 71.4,3.3 72.3,3.3 C73.1,3.3 73.8,3.6 74.3,4.2 C74.8,4.8 75,5.7 75,6.8 L75,6.9 L74.9,6.9 Z M73.8,6.8 C73.8,6 73.6,5.4 73.3,5 C73,4.6 72.5,4.3 71.9,4.3 C71.2,4.3 70.7,4.6 70.3,5.2 L70.3,8.5 C70.7,9.1 71.2,9.4 71.9,9.4 C72.5,9.4 72.9,9.2 73.2,8.7 C73.5,8.2 73.8,7.7 73.8,6.8 Z" id="Shape"></path>
            </g>
            <path d="M88.9,249.3 C88.9,248.7 89.1,248.2 89.5,247.8 C89.9,247.4 90.4,247.2 91,247.2 C91.6,247.2 92.1,247.4 92.5,247.8 C92.9,248.2 93.1,248.7 93.1,249.3 L93.1,249.7 C93.1,250.3 92.9,250.8 92.5,251.2 C92.1,251.6 91.6,251.8 91,251.8 C90.4,251.8 89.8,251.6 89.5,251.2 C89.2,250.8 88.9,250.3 88.9,249.7 L88.9,249.3 Z" id="Shape" fill="#000000"></path>
            <g id="Group" transform="translate(104.000000, 245.000000)" fill="#B7B7B7">
                <path d="M3.9,5.5 C2.9,5.2 2.1,4.8 1.6,4.4 C1.1,4 0.9,3.4 0.9,2.8 C0.9,2.1 1.2,1.5 1.8,1 C2.4,0.5 3.1,0.3 4.1,0.3 C4.7,0.3 5.3,0.4 5.8,0.7 C6.3,0.9 6.7,1.3 7,1.7 C7.3,2.1 7.4,2.6 7.4,3.1 L6,3.1 C6,2.5 5.8,2.1 5.5,1.8 C5.1,1.5 4.6,1.3 4,1.3 C3.4,1.3 2.9,1.4 2.6,1.7 C2.3,2 2.1,2.3 2.1,2.8 C2.1,3.2 2.3,3.5 2.6,3.8 C2.9,4.1 3.5,4.3 4.2,4.5 C4.9,4.7 5.6,5 6,5.2 C6.4,5.5 6.8,5.8 7,6.1 C7.2,6.4 7.3,6.9 7.3,7.3 C7.3,8 7,8.6 6.4,9.1 C5.8,9.6 5,9.8 4.1,9.8 C3.5,9.8 2.9,9.7 2.3,9.4 C1.8,9.2 1.3,8.8 1,8.4 C0.7,8 0.6,7.5 0.6,7 L1.8,7 C1.8,7.6 2,8 2.4,8.3 C2.8,8.6 3.4,8.8 4,8.8 C4.6,8.8 5.1,8.7 5.5,8.4 C5.8,8.1 6,7.8 6,7.3 C6,6.8 5.8,6.5 5.5,6.3 C5.3,6 4.7,5.8 3.9,5.5 Z" id="Shape"></path>
                <path d="M10.2,1.1 L10.2,2.8 L11.5,2.8 L11.5,3.7 L10.2,3.7 L10.2,8 C10.2,8.3 10.3,8.5 10.4,8.6 C10.5,8.7 10.7,8.8 11,8.8 C11.1,8.8 11.3,8.8 11.6,8.7 L11.6,9.6 C11.3,9.7 11,9.7 10.7,9.7 C10.2,9.7 9.8,9.5 9.5,9.2 C9.2,8.9 9.1,8.4 9.1,7.9 L9.1,3.7 L7.9,3.7 L7.9,2.8 L9.1,2.8 L9.1,1.1 L10.2,1.1 Z" id="Shape"></path>
                <path d="M17.1,9.6 C17,9.5 17,9.2 16.9,8.9 C16.4,9.5 15.7,9.7 14.9,9.7 C14.2,9.7 13.7,9.5 13.2,9.1 C12.7,8.7 12.6,8.2 12.6,7.6 C12.6,6.9 12.9,6.3 13.4,5.9 C13.9,5.5 14.7,5.3 15.7,5.3 L16.8,5.3 L16.8,4.8 C16.8,4.4 16.7,4.1 16.4,3.8 C16.2,3.6 15.8,3.4 15.3,3.4 C14.9,3.4 14.5,3.5 14.2,3.7 C13.9,3.9 13.8,4.2 13.8,4.5 L12.6,4.5 C12.6,4.2 12.7,3.8 13,3.5 C13.2,3.2 13.6,2.9 14,2.7 C14.4,2.5 14.9,2.4 15.4,2.4 C16.2,2.4 16.8,2.6 17.3,3 C17.7,3.4 18,3.9 18,4.6 L18,7.8 C18,8.4 18.1,8.9 18.2,9.3 L18.2,9.4 L17.1,9.4 L17.1,9.6 Z M15.2,8.7 C15.6,8.7 15.9,8.6 16.2,8.4 C16.5,8.2 16.8,8 16.9,7.7 L16.9,6.3 L16,6.3 C14.6,6.3 13.8,6.7 13.8,7.6 C13.8,8 13.9,8.3 14.2,8.5 C14.5,8.6 14.8,8.7 15.2,8.7 Z" id="Shape"></path>
            </g>
            <path d="M127.3,248.8 C127.1,248.8 126.9,248.8 126.7,248.8 C125.9,248.8 125.4,249.1 125.1,249.8 L125.1,254.7 L123.9,254.7 L123.9,247.8 L125,247.8 L125,248.6 C125.4,248 125.9,247.7 126.6,247.7 C126.8,247.7 127,247.7 127.1,247.8 L127.1,248.8 L127.3,248.8 Z" id="Shape" fill="#B7B7B7"></path>
            <g id="Group" transform="translate(127.000000, 245.000000)" fill="#B7B7B7">
                <path d="M3.2,1.1 L3.2,2.8 L4.5,2.8 L4.5,3.7 L3.2,3.7 L3.2,8 C3.2,8.3 3.3,8.5 3.4,8.6 C3.5,8.7 3.7,8.8 4,8.8 C4.1,8.8 4.3,8.8 4.6,8.7 L4.6,9.6 C4.3,9.7 4,9.7 3.7,9.7 C3.2,9.7 2.8,9.5 2.5,9.2 C2.2,8.9 2.1,8.4 2.1,7.9 L2.1,3.7 L0.9,3.7 L0.9,2.8 L2.1,2.8 L2.1,1.1 L3.2,1.1 Z" id="Shape"></path>
                <path d="M10.7,1.1 L10.7,2.8 L12,2.8 L12,3.7 L10.7,3.7 L10.7,8 C10.7,8.3 10.8,8.5 10.9,8.6 C11,8.7 11.2,8.8 11.5,8.8 C11.6,8.8 11.8,8.8 12.1,8.7 L12.1,9.6 C11.8,9.7 11.5,9.7 11.2,9.7 C10.7,9.7 10.3,9.5 10,9.2 C9.7,8.9 9.6,8.4 9.6,7.9 L9.6,3.7 L8.4,3.7 L8.4,2.8 L9.6,2.8 L9.6,1.1 L10.7,1.1 Z" id="Shape"></path>
                <path d="M15.6,7.9 L17.2,2.8 L18.5,2.8 L15.7,10.7 C15.3,11.8 14.6,12.4 13.7,12.4 L13.5,12.4 L13.1,12.3 L13.1,11.3 L13.4,11.3 C13.8,11.3 14.1,11.2 14.3,11.1 C14.5,11 14.7,10.6 14.8,10.2 L15.1,9.5 L12.7,2.7 L14,2.7 L15.6,7.9 Z" id="Shape"></path>
                <path d="M25.3,6.3 C25.3,7.3 25.1,8.2 24.6,8.8 C24.1,9.4 23.5,9.8 22.7,9.8 C21.9,9.8 21.2,9.5 20.7,9 L20.7,12.3 L19.5,12.3 L19.5,2.8 L20.6,2.8 L20.7,3.6 C21.2,3 21.8,2.7 22.7,2.7 C23.5,2.7 24.2,3 24.7,3.6 C25.2,4.2 25.4,5.1 25.4,6.2 L25.4,6.3 L25.3,6.3 Z M24.1,6.1 C24.1,5.3 23.9,4.7 23.6,4.3 C23.3,3.9 22.8,3.6 22.2,3.6 C21.5,3.6 21,3.9 20.6,4.5 L20.6,7.8 C21,8.4 21.5,8.7 22.2,8.7 C22.8,8.7 23.2,8.5 23.5,8 C23.9,7.7 24.1,7 24.1,6.1 Z" id="Shape"></path>
                <path d="M26.8,1 C26.8,0.8 26.9,0.6 27,0.5 C27.1,0.4 27.3,0.3 27.5,0.3 C27.7,0.3 27.9,0.4 28,0.5 C28.1,0.6 28.2,0.8 28.2,1 C28.2,1.2 28.1,1.3 28,1.5 C27.9,1.6 27.7,1.7 27.5,1.7 C27.3,1.7 27.1,1.6 27,1.5 C26.8,1.3 26.8,1.1 26.8,1 Z M28,9.6 L26.8,9.6 L26.8,2.7 L28,2.7 L28,9.6 Z" id="Shape"></path>
                <path d="M31,2.8 L31,3.7 C31.5,3 32.2,2.7 33.1,2.7 C34.5,2.7 35.3,3.5 35.3,5.2 L35.3,9.7 L34.1,9.7 L34.1,5.2 C34.1,4.7 34,4.3 33.8,4.1 C33.6,3.9 33.2,3.7 32.8,3.7 C32.4,3.7 32.1,3.8 31.8,4 C31.5,4.2 31.3,4.5 31.1,4.8 L31.1,9.7 L29.9,9.7 L29.9,2.8 L31,2.8 Z" id="Shape"></path>
                <path d="M36.8,6.1 C36.8,5 37,4.2 37.5,3.6 C38,3 38.6,2.7 39.5,2.7 C40.3,2.7 41,3 41.5,3.6 L41.6,2.8 L42.7,2.8 L42.7,9.5 C42.7,10.4 42.4,11.1 41.9,11.6 C41.4,12.1 40.7,12.4 39.8,12.4 C39.3,12.4 38.8,12.3 38.3,12.1 C37.8,11.9 37.5,11.6 37.2,11.2 L37.8,10.5 C38.3,11.1 38.9,11.4 39.6,11.4 C40.2,11.4 40.6,11.2 40.9,10.9 C41.2,10.6 41.4,10.1 41.4,9.5 L41.4,8.9 C40.9,9.4 40.3,9.7 39.5,9.7 C38.7,9.7 38,9.4 37.6,8.7 C37,8.1 36.8,7.3 36.8,6.1 Z M38,6.3 C38,7.1 38.2,7.7 38.5,8.1 C38.8,8.5 39.3,8.8 39.8,8.8 C40.5,8.8 41.1,8.5 41.4,7.8 L41.4,4.7 C41,4 40.5,3.7 39.8,3.7 C39.2,3.7 38.8,3.9 38.5,4.4 C38.2,4.9 38,5.4 38,6.3 Z" id="Shape"></path>
            </g>
            <path d="M176.1,246.1 L176.1,247.8 L177.4,247.8 L177.4,248.7 L176.1,248.7 L176.1,253 C176.1,253.3 176.2,253.5 176.3,253.6 C176.4,253.7 176.6,253.8 176.9,253.8 C177,253.8 177.2,253.8 177.5,253.7 L177.5,254.6 C177.2,254.7 176.9,254.7 176.6,254.7 C176.1,254.7 175.7,254.5 175.4,254.2 C175.1,253.9 175,253.4 175,252.9 L175,248.7 L173.8,248.7 L173.8,247.8 L175,247.8 L175,246.1 L176.1,246.1 Z" id="Shape" fill="#B7B7B7"></path>
            <g id="Group" transform="translate(178.000000, 244.000000)" fill="#B7B7B7">
                <path d="M0.3,7.1 C0.3,6.4 0.4,5.8 0.7,5.3 C1,4.8 1.3,4.3 1.8,4.1 C2.3,3.8 2.8,3.7 3.4,3.7 C4.3,3.7 5.1,4 5.7,4.7 C6.3,5.3 6.6,6.2 6.6,7.3 L6.6,7.4 C6.6,8.1 6.5,8.7 6.2,9.2 C5.9,9.7 5.6,10.1 5.1,10.4 C4.6,10.7 4.1,10.8 3.5,10.8 C2.6,10.8 1.8,10.5 1.2,9.8 C0.6,9.1 0.3,8.3 0.3,7.1 L0.3,7.1 Z M1.5,7.3 C1.5,8.1 1.7,8.7 2,9.1 C2.4,9.6 2.8,9.8 3.4,9.8 C4,9.8 4.5,9.6 4.8,9.1 C5.2,8.6 5.3,8 5.3,7.1 C5.3,6.3 5.1,5.7 4.8,5.3 C4.4,4.8 4,4.6 3.4,4.6 C2.8,4.6 2.4,4.8 2,5.3 C1.6,5.8 1.5,6.4 1.5,7.3 Z" id="Shape"></path>
                <path d="M15.5,10.6 C15.4,10.5 15.4,10.2 15.3,9.9 C14.8,10.5 14.1,10.7 13.3,10.7 C12.6,10.7 12.1,10.5 11.6,10.1 C11.1,9.7 11,9.2 11,8.6 C11,7.9 11.3,7.3 11.8,6.9 C12.3,6.5 13.1,6.3 14.1,6.3 L15.2,6.3 L15.2,5.8 C15.2,5.4 15.1,5.1 14.8,4.8 C14.6,4.6 14.2,4.4 13.7,4.4 C13.3,4.4 12.9,4.5 12.6,4.7 C12.3,4.9 12.2,5.2 12.2,5.5 L11,5.5 C11,5.2 11.1,4.8 11.4,4.5 C11.6,4.2 12,3.9 12.4,3.7 C12.8,3.5 13.3,3.4 13.8,3.4 C14.6,3.4 15.2,3.6 15.7,4 C16.1,4.4 16.4,4.9 16.4,5.6 L16.4,8.8 C16.4,9.4 16.5,9.9 16.6,10.3 L16.6,10.4 L15.5,10.4 L15.5,10.6 Z M13.6,9.7 C14,9.7 14.3,9.6 14.6,9.4 C14.9,9.2 15.2,9 15.3,8.7 L15.3,7.3 L14.4,7.3 C13,7.3 12.2,7.7 12.2,8.6 C12.2,9 12.3,9.3 12.6,9.5 C12.9,9.6 13.2,9.7 13.6,9.7 Z" id="Shape"></path>
                <path d="M18,7.1 C18,6 18.2,5.2 18.7,4.6 C19.2,4 19.9,3.6 20.7,3.6 C21.5,3.6 22.1,3.9 22.6,4.4 L22.6,0.8 L23.8,0.8 L23.8,10.5 L22.7,10.5 L22.6,9.8 C22.1,10.4 21.5,10.7 20.6,10.7 C19.8,10.7 19.2,10.4 18.7,9.7 C18.2,9 18,8.3 18,7.1 L18,7.1 Z M19.2,7.3 C19.2,8.1 19.4,8.7 19.7,9.1 C20,9.5 20.5,9.8 21,9.8 C21.7,9.8 22.3,9.5 22.6,8.8 L22.6,5.7 C22.2,5.1 21.7,4.7 21,4.7 C20.4,4.7 20,4.9 19.7,5.4 C19.4,5.9 19.2,6.4 19.2,7.3 Z" id="Shape"></path>
                <path d="M25.3,7.1 C25.3,6 25.5,5.2 26,4.6 C26.5,4 27.2,3.6 28,3.6 C28.8,3.6 29.4,3.9 29.9,4.4 L29.9,0.8 L31.1,0.8 L31.1,10.5 L30,10.5 L29.9,9.8 C29.4,10.4 28.8,10.7 27.9,10.7 C27.1,10.7 26.5,10.4 26,9.7 C25.5,9 25.3,8.3 25.3,7.1 L25.3,7.1 Z M26.5,7.3 C26.5,8.1 26.7,8.7 27,9.1 C27.3,9.5 27.8,9.8 28.3,9.8 C29,9.8 29.6,9.5 29.9,8.8 L29.9,5.7 C29.5,5.1 29,4.7 28.3,4.7 C27.7,4.7 27.3,4.9 27,5.4 C26.7,5.9 26.5,6.4 26.5,7.3 Z" id="Shape"></path>
                <path d="M40.4,10.6 C40.3,10.5 40.3,10.2 40.2,9.9 C39.7,10.5 39,10.7 38.2,10.7 C37.5,10.7 37,10.5 36.5,10.1 C36,9.7 35.9,9.2 35.9,8.6 C35.9,7.9 36.2,7.3 36.7,6.9 C37.2,6.5 38,6.3 39,6.3 L40.1,6.3 L40.1,5.8 C40.1,5.4 40,5.1 39.7,4.8 C39.5,4.6 39.1,4.4 38.6,4.4 C38.2,4.4 37.8,4.5 37.5,4.7 C37.2,4.9 37.1,5.2 37.1,5.5 L35.9,5.5 C35.9,5.2 36,4.8 36.3,4.5 C36.5,4.2 36.9,3.9 37.3,3.7 C37.7,3.5 38.2,3.4 38.7,3.4 C39.5,3.4 40.1,3.6 40.6,4 C41,4.4 41.3,4.9 41.3,5.6 L41.3,8.8 C41.3,9.4 41.4,9.9 41.5,10.3 L41.5,10.4 L40.4,10.4 L40.4,10.6 Z M38.4,9.7 C38.8,9.7 39.1,9.6 39.4,9.4 C39.7,9.2 40,9 40.1,8.7 L40.1,7.3 L39.2,7.3 C37.8,7.3 37,7.7 37,8.6 C37,9 37.1,9.3 37.4,9.5 C37.7,9.6 38.1,9.7 38.4,9.7 Z" id="Shape"></path>
                <path d="M47.5,3.8 L47.5,4.7 C48,4 48.7,3.7 49.6,3.7 C51,3.7 51.8,4.5 51.8,6.2 L51.8,10.7 L50.6,10.7 L50.6,6.2 C50.6,5.7 50.5,5.3 50.3,5.1 C50.1,4.9 49.7,4.7 49.3,4.7 C48.9,4.7 48.6,4.8 48.3,5 C48,5.2 47.8,5.5 47.6,5.8 L47.6,10.7 L46.4,10.7 L46.4,3.8 L47.5,3.8 Z" id="Shape"></path>
                <path d="M53.3,7.1 C53.3,6.4 53.4,5.8 53.7,5.3 C54,4.8 54.3,4.3 54.8,4.1 C55.3,3.8 55.8,3.7 56.4,3.7 C57.3,3.7 58.1,4 58.7,4.7 C59.3,5.3 59.6,6.2 59.6,7.3 L59.6,7.4 C59.6,8.1 59.5,8.7 59.2,9.2 C58.9,9.7 58.6,10.1 58.1,10.4 C57.6,10.7 57.1,10.8 56.5,10.8 C55.6,10.8 54.8,10.5 54.2,9.8 C53.6,9.1 53.3,8.3 53.3,7.1 L53.3,7.1 Z M54.4,7.3 C54.4,8.1 54.6,8.7 54.9,9.1 C55.3,9.6 55.7,9.8 56.3,9.8 C56.9,9.8 57.4,9.6 57.7,9.1 C58.1,8.6 58.2,8 58.2,7.1 C58.2,6.3 58,5.7 57.7,5.3 C57.3,4.8 56.9,4.6 56.3,4.6 C55.7,4.6 55.3,4.8 54.9,5.3 C54.5,5.8 54.4,6.4 54.4,7.3 Z" id="Shape"></path>
                <path d="M62.6,2.1 L62.6,3.8 L63.9,3.8 L63.9,4.7 L62.6,4.7 L62.6,9 C62.6,9.3 62.7,9.5 62.8,9.6 C62.9,9.7 63.1,9.8 63.4,9.8 C63.5,9.8 63.7,9.8 64,9.7 L64,10.6 C63.7,10.7 63.4,10.7 63.1,10.7 C62.6,10.7 62.2,10.5 61.9,10.2 C61.6,9.9 61.5,9.4 61.5,8.9 L61.5,4.7 L60.3,4.7 L60.3,3.8 L61.5,3.8 L61.5,2.1 L62.6,2.1 Z" id="Shape"></path>
                <path d="M68.1,10.7 C67.2,10.7 66.4,10.4 65.8,9.8 C65.2,9.2 64.9,8.4 64.9,7.4 L64.9,7.2 C64.9,6.5 65,5.9 65.3,5.4 C65.6,4.9 65.9,4.4 66.4,4.1 C66.9,3.8 67.4,3.6 67.9,3.6 C68.8,3.6 69.5,3.9 70,4.5 C70.5,5.1 70.7,5.9 70.7,7 L70.7,7.5 L66.1,7.5 C66.1,8.2 66.3,8.7 66.7,9.1 C67.1,9.5 67.6,9.7 68.1,9.7 C68.5,9.7 68.9,9.6 69.2,9.4 C69.5,9.2 69.7,9 70,8.7 L70.7,9.3 C70.1,10.3 69.2,10.7 68.1,10.7 Z M67.9,4.6 C67.4,4.6 67,4.8 66.7,5.1 C66.4,5.4 66.2,5.9 66.1,6.5 L69.5,6.5 L69.5,6.4 C69.5,5.8 69.3,5.3 69,5 C68.8,4.8 68.4,4.6 67.9,4.6 Z" id="Shape"></path>
                <path d="M72.1,10 C72.1,9.8 72.2,9.6 72.3,9.5 C72.4,9.4 72.6,9.3 72.8,9.3 C73,9.3 73.2,9.4 73.3,9.5 C73.4,9.6 73.5,9.8 73.5,10 C73.5,10.2 73.4,10.4 73.3,10.5 C73.2,10.6 73,10.7 72.8,10.7 C72.6,10.7 72.4,10.6 72.3,10.5 C72.2,10.4 72.1,10.2 72.1,10 Z" id="Shape"></path>
                <path d="M75.5,10 C75.5,9.8 75.6,9.6 75.7,9.5 C75.8,9.4 76,9.3 76.2,9.3 C76.4,9.3 76.6,9.4 76.7,9.5 C76.8,9.6 76.9,9.8 76.9,10 C76.9,10.2 76.8,10.4 76.7,10.5 C76.6,10.6 76.4,10.7 76.2,10.7 C76,10.7 75.8,10.6 75.7,10.5 C75.6,10.4 75.5,10.2 75.5,10 Z" id="Shape"></path>
                <path d="M78.9,10 C78.9,9.8 79,9.6 79.1,9.5 C79.2,9.4 79.4,9.3 79.6,9.3 C79.8,9.3 80,9.4 80.1,9.5 C80.2,9.6 80.3,9.8 80.3,10 C80.3,10.2 80.2,10.4 80.1,10.5 C80,10.6 79.8,10.7 79.6,10.7 C79.4,10.7 79.2,10.6 79.1,10.5 C79,10.4 78.9,10.2 78.9,10 Z" id="Shape"></path>
            </g>
            <rect id="Rectangle-path" fill="#007C04" x="87.6" y="95.4" width="18" height="1.9"></rect>
            <path d="M121.4,88.5 C116.5,88.5 112.5,92.1 112.5,97.7 C112.5,102.8 115.9,106 121.3,106 C123.3,106.1 125.4,105.5 127.1,104.5 L127.5,99.8 L126.4,99.8 C125.5,103.4 123.9,104.9 121.8,104.9 C118.7,104.9 117,101.5 117,97 C117,92.9 118.4,89.6 121.6,89.6 C123.9,89.6 125.3,91.1 125.9,94 L126.9,94 L126.9,89.9 C125.2,88.9 123.3,88.5 121.4,88.5" id="Shape" fill="#000000"></path>
        </g>
    </g>
</svg>