<svg xmlns="http://www.w3.org/2000/svg" xmlns:xlink="http://www.w3.org/1999/xlink" viewBox="0 0 419.34 387.5"><defs><style>.cls-1{fill:none;}.cls-2{clip-path:url(#clip-path);}.cls-3{fill:#fff4c5;}.cls-4{fill:#d3d3d3;}.cls-5{fill:#491d34;}.cls-6{fill:#863d58;}.cls-7{fill:#f3d668;}.cls-8{fill:#f8f1d4;}.cls-9{fill:#f5df89;}.cls-10{fill:#fafafa;}.cls-11{fill:#eee;}.cls-12{clip-path:url(#clip-path-2);}.cls-13{fill:#f9f9f9;}</style><clipPath id="clip-path" transform="translate(0 -48.68)"><rect class="cls-1" x="107.41" width="340.08" height="392.51"/></clipPath><clipPath id="clip-path-2" transform="translate(0 -48.68)"><rect class="cls-1" x="356.39" y="251.32" width="40.84" height="38.79"/></clipPath></defs><title>graphic-trash</title><g id="Layer_2" data-name="Layer 2"><g id="Layer_1-2" data-name="Layer 1"><g class="cls-2"><path class="cls-3" d="M136.4,200.65c34.39-40.83-22.66-131.51,50.93-133.11,90.84-2,198.33,92.21,181.66,147.28s-61.61,155-112.33,125.82S207.4,311,174.08,285.54s-49.27-71.12-37.67-84.89" transform="translate(0 -48.68)"/><path class="cls-4" d="M0,379.8c2.21-7.3,3.93-14.67,7.4-21.79,8.1-16.6,19.07-32.27,39.12-44.7,11.24-7,24.31-11.6,41-10.45,1.21.1,2.44.13,3.62.31,7.81,1.15,7.76,1.17,6.36-3.95-.54-2-1.34-4.13,1.06-5.7a3.62,3.62,0,0,0,1.74-4.59c-2.68-9.34-.22-7.32,10.9-6.4.27,0,.5.28.74.43.78,6.19,1.75,12.38,2.27,18.58.42,4.94,2.95,8.81,11,10.5.74,1.82,2.73,2.91,6.18,4.29-1.2-6.81-.94-13-2.59-19.14,5.37-.11,9.14,2.6,9.5,6.93.42,4.93.8,9.86,1.09,14.79a7.41,7.41,0,0,0,2.28,5c-2.87,2.36-1.54,4.95-.68,7.39,1.95,5.55,4,11.07,3.37,16.82-4.52-.83-9-1.72-13.56-2.47-4.71-.77-6.33-2.72-6.13-5.59.39-5.6-1.82-10.94-4.49-16.19a27.5,27.5,0,0,0-7.37-9.66c-.87,1-.16,1.43.22,1.88,7.13,8.35,9.71,17.46,10.33,26.73.86,12.85-2.29,25.41-8.35,37.73-2.11,4.29-5.66,8.33-6.21,12.92A42,42,0,0,1,96,408.3l0,0c-.36-2,1.75-3.49,3.15-5.1.85-1,2-2.39-.46-2.65-3.8-.4-4.79-1.65-4.44-3.94-7.12,6.46-12.52,13.44-22.09,18.43a38,38,0,0,0-3.32-4.78c-6.27-6.77-9.54-14.29-14.24-21.46C52,384.7,51,380.08,46.4,376.45c3-3,6.31-5.94,8.37-9.3,4.76.57,9.51-.08,14.12-.48,12.67-1.09,25.37-.89,38.07-.84,2.84,0,3.47-.67,4-2.19,2.65-7.49,5.36-15,4-22.73-1.25-7.26-3.52-14.36-9.41-20.81-9-9.84-24.55-13.25-40.37-8.8-3,.85-6.13,1.81-7.18,4-4.57,9.55-9.51,19-12,28.94-.28,1.12-1.86,2.4,1.19,2.93,2.53.44,4.36,0,5.44-1.64,1.45-2.24,3.24-4.39,4.73-6.63,1.59-2.39,4.12-1.29,6.56-.84,3.39.62,2,1.86,1.09,3.07-1.56,2.09-3.19,4.16-4.63,6.28-1.14,1.67-2.26,2.83-5.8,2a9.63,9.63,0,0,0-6.53.72c-4.26,2.55-8.94,2.22-13.88,1.27-2.22-4.28-3.43-8.63-2.82-13.16.13-.95-.71-2-2.22-2.47s-2.1.42-2.68,1.1a112.16,112.16,0,0,0-11.06,15.69c-.53.9-.91,2,.58,2.35,4.29,1,6.58,4.08,11.51,4.39.22,1.28,1.86,1.68,3.38,2.16,1.82.58,2.77,1.29,1,2.43-8.23-.8-10.42.34-10.91,5.73a7.09,7.09,0,0,0,.16,3c1,2.85-.87,4.47-4.57,6.23-4.43,2.1-10.11,4.12-11,7.94-.64,2.68-.44,5.26-4.45,7H0Zm107.65-69.62a1,1,0,0,0-.2-.27,1,1,0,0,0-.32,0l.58.27c.06.41.38.65,1.06.66-.17.6,0,1.08,1,1.35.09.52.25,1,1.3,1.08.1,0,.33-.14.33-.21,0-.63-.68-.86-1.57-.9.06-.57-.24-1-1.1-1.29l-1.06-.66m-4.83-15.63c-1.21,4,0,7.16.57,10.29.13.71.59,1.32,1.88,1.29s1.5-.77,1.51-1.44a13.1,13.1,0,0,0-4-10.15" transform="translate(0 -48.68)"/><path class="cls-5" d="M36.94,432.16a3.89,3.89,0,0,0-2.65-.69c-3.69-.13-2-1.46-1.49-2.55a14.76,14.76,0,0,1,5,.19c1.66.32,2.19,0,1.51-1,2.34-.76,3.82-3.34,7.56-1.33.48.26,2.16-.56.46-1.07-2.37-.71-1-1,.18-1.31s2.47,0,3.22-.81c8.89-1.14,15.38-4.68,21.57-8.52,9.58-5,15-12,22.09-18.43-.35,2.29.64,3.55,4.44,3.94,2.49.26,1.31,1.67.46,2.65-1.4,1.61-3.51,3.06-3.15,5.1-2.33.16-2.81,1-2.66,2.43A2.94,2.94,0,0,0,96,408.3a42,42,0,0,0,12.69-14.86c3.75-3.85,5.52-8.23,8.48-12.3a64.72,64.72,0,0,1,12.44,2.27c5.66,1.44,6.26,1.35,8.29-2.11.54-.92.55-2.08,2.27-2.73.41,5.19.24,10.3,1.39,15.29.91,4,0,8,1.43,11.84.58,1.58.73,2.88-3.06,3.69,6.52.61,8.16-1.16,7.89-4.13-1-10.25-1.73-20.51-3-30.74-.36-2.95.33-6-1.26-8.86.21-5.86,1.36-11.7.72-17.58.63-5.75-1.43-11.27-3.37-16.82-.85-2.44-2.19-5,.68-7.39l.83.58c2,1.89,4.05,3.78,6.05,5.67,1.79,1.7,3.68,2.3,5.85.24,1.28-1.21,3.29-1,5.17-1.07,2.24,2.29,4.07,4.71,3.52,7.46-1.06,5.28,1,10.45.93,15.69a189.66,189.66,0,0,0,1.6,24.26c.42,9.64.81,19.27,1.32,28.91.07,1.4-.9,3.14,2.09,4l-.66.68c-3.47,2-3.61,3.49.12,4.7,4.71,1.54,4.51,3.17,1.36,5.4-1.36,1-2.76,2-2.95,3.42l-16.11-1.36c-1.84-.58-3.68-.47-6.34.18,2.7.33,4.39,1.22,6.62.88,17.44,2.67,35.16,2.76,52.87,1.81,10-.54,20.22-1.25,29.25-4.57,3.34.26,6.32-.15,8.65-1.8.86,0,1.73-.05,2-.71l1.36-.24-1.45-.44v-.64c3.52-.62,7.48-1,7.55-4.05.28-13.75,1.71-27.46,3.18-41.17.77-7.12,1.4-14.25,2.26-21.37,1.29-10.61,2.69-21.21,4.11-31.82.94-7,1.68-14,2.4-21,.23-2.3-1.08-5.61,4.88-6.94,1.49-.33,3.09-3.7,2.15-4.49-3.05-2.54,1-2.94,2.33-4.16-1.27-.84-3.17.08-4.62-1-2.19-1.59-12-.93-14.63.71l-27.48,2.64c-8.63.24-17.25.58-25.88.7-12.92.17-25.85.19-38.78.27-16.49-.31-32.9-1.24-49.3-2.28-.25-.15-.47-.41-.74-.43-11.12-.92-13.57-2.93-10.9,6.4a3.62,3.62,0,0,1-1.74,4.59c-2.4,1.57-1.59,3.75-1.06,5.7,1.4,5.12,1.45,5.1-6.36,4-1.18-.17-2.41-.21-3.62-.31-1.7-8.84-3.41-17.68-5.07-26.52-.23-1.21-.26-2.39-1.9-3.29-3.22-1.76-3.79-4.09-3.34-6.6l1.73.06C83,270.58,90,270.12,96.21,271c-3-1.29-6.62-1.75-9.65-3-4.78-2-4.85-3.76.15-5.63A91.75,91.75,0,0,1,105.24,258a416.42,416.42,0,0,1,47.81-4.2c.59.55,1.7,1.11,1.67,1.64-.2,3.87,3.81,3.64,8.1,3.6q19-.15,38,0c5.14,0,10.16,1.18,15.48.14,2.28-.45,3.48-.78,3.21-2.28-.4-2.25,1.71-2.41,4.55-2.45,7-.09,13.9.89,20.85,1.25a198.22,198.22,0,0,1,31.35,4c3,.65,7.4,1.13,7.32,3.61-.08,2.29-4.18,3.07-7.21,3.87-4.13,1.1-8.42,2-12.64,3a51.33,51.33,0,0,0,19.62-3.15c2.6-.89,4.61-1.11,5.77,1-.66.89-1.27,1.79-2,2.66s-4.19,1-2.42,2.22,1.52,4.16,6.48,3.51c2.63-.34,4.6.71,4,2.83a20.73,20.73,0,0,0-.63,4.24c-.37,4.4-2.14,5.57-9.43,6.16a21.27,21.27,0,0,0-.13-3.84c-.25-1.21,1.49-2.9-1.82-3.49l-4.2-.33c-3-.57-5.15-.13-5.35,2.1-.11,1.18.13,2.38,0,3.56-.16,2,1.23,2.8,4.37,2.32l3.85.27.09.17c-1.54,10.77-3,21.54-4.64,32.3-2.27,15.16-4.64,30.31-7,45.47-1.63,10.65-3.24,21.31-4.9,32a7,7,0,0,0,.38,3.9c2,4.84-1.62,9.62-8,12.67C240.49,424.91,220,426.93,199.3,428A275.72,275.72,0,0,1,150,426.49c-12.31-2.08-25.05-3.56-35.26-8.83-2.8-1.45-4.25-1.18-6.26.39s-3.78,2.74-7.88,1.34c-3.16-1.08-7.27-1.44-11-2.05-2.81-.47-5,.66-5.86,2.1-1.13,1.87,1.79,2,3.69,2.43,3.58.77,7,2,11.73,1.85-8.56,6.91-19.32,10.28-31.92,11.67-10.51.46-20.07-2.62-30.29-3.23m20.9-3.83c.15.51.11,1.12,1.29,1.17a2.27,2.27,0,0,0,.94-.14c.13-.76-1.13-.89-1.64-1.38.14-1.56-2.82-.34-3.27-1.46-.61-1.48-2.64-.93-4.19-1.06.11,1.26-.91,2.28-1.74,3.35,1.74.48,3.57,1.29,5.3.2a5.51,5.51,0,0,1,3.31-.68M160.35,282.82c3.57,0,5.68,0,7.79,0,2.33,0,5,.5,5.05-2.08s-2.35-2.24-4.84-2.25c-15.44-.06-30.68-1.47-45.91-2.8-7.25-.64-14.39-1.78-21.61-2.54-1.64-.17-4.17-.66-4.59,1.23-.3,1.35-.25,2.71,2.31,3.31,1.8.42,3.6.87,5.45,1.19,18.93,3.29,38.4,3.42,56.35,4m81.22-2.12c3.92.11,6-1.05,8.63-1.25a132.33,132.33,0,0,0,13.21-2c3.93-.71,2.71-2.86,2.47-4.46-.34-2.17-2.87-.9-4.45-.71-3.08.37-6.14.85-9.17,1.37-11.52,2-23.42,2.53-35.12,3.79-2.47.27-4.11.71-4,2.68s2,2.87,4.23,2.59c4.61-.57,9.39-.55,13.8-1.21,3.93-.59,8.17,1,10.39-.82m-45.34-5.13,0-.39H157.45c0,.13,0,.26,0,.39Zm-89.93-3.17c4.22.57,8.37,1.5,12.82,1-4.22-.61-8.4-1.38-12.82-1m29.23,124.08c.8-2.74.07-5.37-1.23-8,0,2.68-.85,5.4,1.23,8" transform="translate(0 -48.68)"/><path class="cls-6" d="M67.23,435.39c12.6-1.4,23.36-4.77,31.92-11.67-4.78.12-8.15-1.08-11.73-1.85-1.9-.41-4.82-.56-3.69-2.43.87-1.44,3.05-2.56,5.86-2.1,3.71.62,7.83,1,11,2.05,4.1,1.41,5.88.23,7.88-1.34s3.46-1.84,6.26-.39c10.21,5.27,22.95,6.75,35.26,8.83-3,3.56-9,4.49-14.19,5.53-21.73,4.32-44.2,4.46-66.72,3.93a6.92,6.92,0,0,1-1.83-.57" transform="translate(0 -48.68)"/><path class="cls-4" d="M289.12,267.91c-1.16-2.1-3.17-1.88-5.77-1a51.34,51.34,0,0,1-19.62,3.15c4.22-1,8.5-1.85,12.64-3,3-.81,7.13-1.58,7.21-3.87.08-2.48-4.31-3-7.32-3.61a198.21,198.21,0,0,0-31.35-4c-6.94-.36-13.8-1.34-20.85-1.25-2.84,0-4.94.2-4.55,2.45.26,1.5-.93,1.83-3.21,2.28-5.32,1-10.34-.12-15.48-.14q-19-.1-38,0c-4.29,0-8.29.27-8.1-3.6,0-.54-1.09-1.1-1.67-1.64,5.38-1.62,11.25-.13,16.75-1.3H152.09c8,0,15.75-2.21,24-.74,3.71.66,7.93-.33,11.85-.48,10.3-.41,21.1-1.13,30.9.35,7.58,1.15,15,.49,22.39,1.25,11.13,1.13,22.37,1.93,33.35,3.61,4.24.65,8.48,1.72,11.56,3.74s5.53,4.59,3,7.7" transform="translate(0 -48.68)"/><path class="cls-6" d="M283.13,282.21c3.31.59,1.57,2.28,1.82,3.49a21.27,21.27,0,0,1,.13,3.84l-3.16.75-.09-.17c2.2-2.52.35-5.31,1.31-7.91" transform="translate(0 -48.68)"/><path class="cls-7" d="M34.22,351.4c4.94.95,9.63,1.28,13.88-1.27a9.63,9.63,0,0,1,6.53-.72c3.54.84,4.67-.31,5.8-2,1.44-2.12,3.06-4.19,4.63-6.28.91-1.21,2.3-2.45-1.09-3.07-2.44-.45-5-1.55-6.56.84-1.49,2.23-3.27,4.39-4.73,6.63-1.08,1.67-2.91,2.08-5.44,1.64-3-.53-1.47-1.81-1.19-2.93,2.48-9.89,7.43-19.39,12-28.94,1.05-2.2,4.15-3.16,7.18-4,15.83-4.45,31.37-1,40.37,8.8,5.89,6.44,8.16,13.55,9.41,20.81,1.33,7.75-1.38,15.24-4,22.73-.53,1.51-1.16,2.19-4,2.18-12.7,0-25.4-.25-38.07.84-4.61.4-9.36,1-14.12.48l.16-1.3a9.61,9.61,0,0,0,1.18-9.65c-.7-1.74-1.27-3.72-4.29-4.17-2.8-.43-4.65,1.19-6.5,2.36-1.43.91-2.53,1.95-1.62,3.24s.49,2.56-.84,3.39c-4.14,2.57-8.06,5.2-10.86,8.47-.7.82-2.57.36-3.92.15l3.79-5.74c1.82-1.14.87-1.86-1-2.43-1.52-.48-3.17-.88-3.39-2.16,2-2.71,3.72-5.51,6.69-7.89" transform="translate(0 -48.68)"/><path class="cls-8" d="M142.44,324.47l-.83-.58a7.41,7.41,0,0,1-2.28-5c-.29-4.93-.67-9.86-1.09-14.79-.37-4.33-4.14-7-9.51-6.93-3.57.07-4.77,1.38-4.67,3.44.08,1.63.06,3.27.08,4.9-1.08.85-.81,1.58.49,2.23l.5,4.27c-8-1.69-10.58-5.55-11-10.5-.52-6.2-1.5-12.38-2.27-18.58,16.4,1,32.82,2,49.3,2.28.11,3.82.3,7.64.29,11.47,0,1.86,1,2.94,4.18,2.9-3,1.6-3.35,3.72-3.22,6q1.41,23.45,2.74,46.89l-1.23,0c.09-5.24-2-10.42-.93-15.69.55-2.74-1.28-5.17-3.52-7.46-.6-2-3.06-3.41-4.69-5.07-4.47-4.57-5.07-4.59-10.75-1-.59.37-1.09.81-1.63,1.21" transform="translate(0 -48.68)"/><path class="cls-7" d="M117.2,381.14c-3,4.06-4.73,8.45-8.48,12.3.55-4.59,4.1-8.63,6.21-12.92,6.07-12.32,9.21-24.89,8.35-37.73-.62-9.26-3.2-18.38-10.33-26.73-.38-.45-1.09-.9-.22-1.88a27.5,27.5,0,0,1,7.37,9.66c2.67,5.25,4.89,10.6,4.49,16.19-.2,2.87,1.42,4.82,6.13,5.59,4.55.74,9,1.64,13.56,2.47.65,5.87-.51,11.72-.71,17.58-1.06,3-2.13,5.94-3.17,8.91-.42,1.18-1,2.25-3.45,1.57-5.11-1.41-11-1.17-16-3.37-1.54,2.92-3.58,5.46-3.79,8.36" transform="translate(0 -48.68)"/><path class="cls-5" d="M125.16,312q-.25-2.14-.5-4.27c.79-.83.93-1.6-.5-2.23,0-1.63,0-3.27-.08-4.9-.1-2.06,1.09-3.37,4.67-3.44,1.66,6.13,1.4,12.33,2.6,19.14-3.45-1.38-5.44-2.48-6.18-4.29" transform="translate(0 -48.68)"/><path class="cls-5" d="M102.82,294.55a13.1,13.1,0,0,1,4,10.15c0,.66-.09,1.4-1.51,1.44s-1.76-.57-1.88-1.29c-.55-3.13-1.78-6.25-.57-10.29" transform="translate(0 -48.68)"/><path class="cls-7" d="M109.81,312.13c.9,0,1.54.27,1.57.9,0,.07-.22.22-.33.21-1-.06-1.21-.56-1.3-1.08l0,0" transform="translate(0 -48.68)"/><path class="cls-7" d="M108.7,310.84c.87.26,1.16.72,1.11,1.29l0,0c-1-.27-1.17-.76-1-1.35Z" transform="translate(0 -48.68)"/><path class="cls-7" d="M108.76,310.8c-.68,0-1-.26-1.06-.66l-.05,0,1.06.66Z" transform="translate(0 -48.68)"/><path class="cls-7" d="M107.7,310.14l-.58-.27a1,1,0,0,1,.32,0,1,1,0,0,1,.2.27Z" transform="translate(0 -48.68)"/><path class="cls-4" d="M165.67,299.59c-3.17,0-4.19-1-4.18-2.9,0-3.82-.18-7.65-.29-11.47,12.92-.08,25.85-.09,38.78-.27,8.63-.11,17.25-.46,25.88-.7-.78,8.58.68,17.16-1.61,25.79-1.13,4.29-.27,9-.4,13.55-.21,7.61,0,15.23-.11,22.84-.09,4.47-.41,8.94-.54,13.4-.18,6.21-2,12.45-1.45,18.71.62,7.55-.8,15.09.8,22.66,1.41,6.66-.79,13.39-1,20.09a9.56,9.56,0,0,1-1.43.36,364.83,364.83,0,0,1-42.35,2c-2.18,0-4.57-.53-6.58.53-1.49.15-3,.36-4.31-.33.19-1.41,1.59-2.46,2.95-3.42,3.16-2.23,3.35-3.86-1.36-5.4-3.73-1.22-3.59-2.71-.12-4.71H170l-.1,0c.23.63.1,1.57,1.87.84,1.52.2,2.49.68,2.48-1.17-.19-35.56-.16-71.12-.17-106.68,0-4.61-1.3-5.16-8.46-3.66m46.08,110.72c2.76-.76,4.61-1.89,4.75-4,.64-9.9,1.51-19.8,2-29.71.56-11.25.82-22.5,1.21-33.75,0-.33,0-.66,0-1a389.19,389.19,0,0,0,2-39.32c0-1.6-.41-3-4.31-3.73,2.68,2.56,2.19,5,2.07,7.35-.59,11.46-1.35,22.92-1.88,34.38q-1.23,26.64-2.2,53.28c-.17,5.06-.13,10.1-2.61,15-3.12-.94-1.66-2.73-1.66-4.09q-.13-51.06-.06-102.12c0-.77,0-1.55,0-2.32s.28-1.66-1.33-1.92a3.66,3.66,0,0,0-3.08,1,7.54,7.54,0,0,0-3.1,5.83c-.29,10.26-.27,20.53-.65,30.79-.88,23.3-.3,46.61-1.32,69.91-.2,4.49,3.3,5.85,10.13,4.37" transform="translate(0 -48.68)"/><path class="cls-8" d="M166.84,423.82c1.32.69,2.82.48,4.31.33,19.22.45,38.38.5,58.33-3.09-3.54-.24-5.79-.29-8,.24.26-6.7,2.45-13.43,1-20.09-1.6-7.57-.17-15.11-.8-22.66-.52-6.26,1.26-12.5,1.45-18.71.13-4.45.45-8.93.54-13.4.15-7.61-.11-15.23.11-22.84.13-4.53-.74-9.25.4-13.55,2.28-8.63.82-17.21,1.61-25.79l27.48-2.64c1,.21,2,.41,2,1.26-.14,3.49-1.38,6.95-.36,10.47.26.9-1.6,1-2.46,1.45-5.23.16-8.29,2.43-8.69,6.65-1.1,11.57-2.12,23.14-3.16,34.7q-2.57,28.59-5.11,57.19a84.49,84.49,0,0,0-.44,10.92c.08,2,.92,4.1,5.44,2.25,1.65,1.6,2.26,3.16,1.43,5.17a3.84,3.84,0,0,0,1.74,5.24v.64l.08,0a10.21,10.21,0,0,0-5.83,1.36c-2.8-.62-3.86.58-4.84,1.85-9,3.32-19.22,4-29.25,4.57-17.7,1-35.43.87-52.87-1.81l-.28-1.06,16.11,1.36" transform="translate(0 -48.68)"/><path class="cls-8" d="M160.35,282.82c-17.94-.54-37.42-.67-56.35-4-1.85-.32-3.64-.77-5.44-1.19-2.56-.6-2.61-2-2.31-3.31.42-1.89,3-1.4,4.59-1.23,7.23.76,14.36,1.9,21.61,2.54,15.23,1.34,30.47,2.75,45.91,2.8,2.49,0,4.89-.23,4.84,2.25s-2.73,2-5.05,2.08c-2.11,0-4.22,0-7.79,0" transform="translate(0 -48.68)"/><path class="cls-6" d="M117.2,381.14c.21-2.89,2.24-5.44,3.79-8.36,4.94,2.2,10.86,2,16,3.37,2.43.67,3-.39,3.45-1.57,1-3,2.12-5.94,3.17-8.91,1.59,2.88.89,5.92,1.25,8.86,1.27,10.23,2,20.49,3,30.74.28,3-1.37,4.74-7.89,4.13,3.79-.81,3.64-2.11,3.06-3.69-1.43-3.88-.52-7.88-1.43-11.84-1.15-5-1-10.1-1.39-15.29-1.71.64-1.72,1.8-2.27,2.73-2,3.46-2.62,3.55-8.29,2.11a64.74,64.74,0,0,0-12.44-2.27" transform="translate(0 -48.68)"/><path class="cls-8" d="M241.57,280.7c-2.22,1.86-6.47.23-10.39.82-4.4.66-9.19.65-13.8,1.21-2.25.28-4.09-.67-4.23-2.59s1.5-2.41,4-2.68c11.71-1.26,23.61-1.82,35.12-3.79,3-.52,6.09-1,9.17-1.37,1.58-.19,4.12-1.45,4.45.71.25,1.59,1.46,3.75-2.47,4.46a132,132,0,0,1-13.21,2c-2.61.2-4.71,1.37-8.63,1.25" transform="translate(0 -48.68)"/><path class="cls-6" d="M142.44,324.47c.54-.41,1-.84,1.63-1.21,5.68-3.6,6.28-3.58,10.75,1,1.62,1.66,4.09,3,4.69,5.07-1.88.06-3.89-.14-5.16,1.07-2.17,2.06-4.05,1.46-5.85-.24-2-1.9-4-3.78-6.05-5.67" transform="translate(0 -48.68)"/><path class="cls-7" d="M169,409.62c-3-.85-2-2.59-2.09-4-.51-9.63-.89-19.27-1.32-28.9l1-.16c.31,11,.95,22.08,2.24,33.1Z" transform="translate(0 -48.68)"/><path class="cls-6" d="M166.61,376.56l-1,.16a189.93,189.93,0,0,1-1.6-24.26l1.23,0,1.42,24.07" transform="translate(0 -48.68)"/><path class="cls-8" d="M283.13,282.21c-1,2.6.89,5.39-1.31,7.91l-3.85-.27a8,8,0,0,1,1-8l4.2.33" transform="translate(0 -48.68)"/><path class="cls-6" d="M278.93,281.88a8,8,0,0,0-1,8c-3.14.48-4.53-.29-4.37-2.32.09-1.18-.14-2.38,0-3.56.2-2.23,2.3-2.67,5.35-2.09" transform="translate(0 -48.68)"/><path class="cls-6" d="M196.23,275.57H157.46c0-.13,0-.26,0-.39h38.73Z" transform="translate(0 -48.68)"/><path class="cls-6" d="M106.3,272.41c4.42-.34,8.61.42,12.82,1-4.45.46-8.6-.47-12.82-1" transform="translate(0 -48.68)"/><path class="cls-6" d="M135.53,396.49c-2.08-2.56-1.2-5.28-1.23-8,1.3,2.59,2,5.22,1.23,8" transform="translate(0 -48.68)"/><path class="cls-6" d="M233.12,420.76c1-1.26,2-2.46,4.84-1.85l3.73,0,.08.06c-2.33,1.66-5.32,2.06-8.65,1.8" transform="translate(0 -48.68)"/><path class="cls-6" d="M96,408.3a3,3,0,0,1-2.62,2.46c-.14-1.39.33-2.27,2.67-2.43Z" transform="translate(0 -48.68)"/><path class="cls-6" d="M150.73,422.46l.28,1.06c-2.23.34-3.92-.54-6.62-.88,2.67-.65,4.5-.76,6.34-.18" transform="translate(0 -48.68)"/><path class="cls-6" d="M243.81,418.24c-.3.66-1.17.68-2,.71l-.08-.06c.44-.6,1.3-.62,2.17-.62Z" transform="translate(0 -48.68)"/><path class="cls-6" d="M243.72,417.57l1.45.44-1.36.24.06,0-.07-.73Z" transform="translate(0 -48.68)"/><path class="cls-7" d="M170,410.3h-1.74l.66-.68-.12,0,1.2.63" transform="translate(0 -48.68)"/><path class="cls-5" d="M170,410.3l-1.2-.63c-1.3-11-1.94-22.06-2.25-33.1l-1.42-24.07q-1.36-23.45-2.74-46.89c-.14-2.29.22-4.41,3.22-6,7.16-1.5,8.46-.95,8.46,3.66,0,35.56,0,71.12.17,106.68,0,1.84-1,1.36-2.48,1.17l-1.87-.84Z" transform="translate(0 -48.68)"/><path class="cls-6" d="M124.16,305.53c1.42.63,1.28,1.4.5,2.23-1.3-.64-1.57-1.38-.5-2.23" transform="translate(0 -48.68)"/><path class="cls-5" d="M211.75,410.32c-6.83,1.48-10.32.13-10.13-4.37,1-23.3.45-46.62,1.32-69.91.39-10.27.37-20.53.65-30.79a7.54,7.54,0,0,1,3.1-5.83,3.66,3.66,0,0,1,3.08-1c1.61.26,1.29,1.17,1.33,1.92s0,1.55,0,2.32q0,51.06.06,102.12c0,1.37-1.45,3.15,1.66,4.09l-1.11,1.45" transform="translate(0 -48.68)"/><path class="cls-7" d="M211.75,410.32l1.11-1.45c2.48-4.89,2.44-9.93,2.61-15q.92-26.64,2.2-53.28c.53-11.46,1.3-22.92,1.88-34.38.12-2.37.62-4.79-2.07-7.35,3.91.71,4.31,2.13,4.31,3.73a389.19,389.19,0,0,1-2,39.32c0,.33,0,.66,0,1-.39,11.25-.65,22.5-1.21,33.75-.5,9.91-1.36,19.81-2,29.71-.13,2.07-2,3.19-4.75,4" transform="translate(0 -48.68)"/><path class="cls-5" d="M221.5,421.31c2.19-.53,4.43-.48,8-.24-19.95,3.59-39.11,3.53-58.33,3.09,2-1.06,4.4-.56,6.58-.53a364.83,364.83,0,0,0,42.35-2,9.49,9.49,0,0,0,1.43-.37" transform="translate(0 -48.68)"/><path class="cls-7" d="M170,410.26l1.87.84c-1.77.73-1.64-.21-1.87-.84" transform="translate(0 -48.68)"/><path class="cls-5" d="M252.5,294.8c-.08,1-.18,2-.22,3-.38,10-.18,20-1.29,30-1.07,9.65-1,19.31-2.06,28.95-1.55,13.57-2.79,27.16-4.33,40.73-.36,3.15-.56,6.42-4.05,9.05-4.52,1.85-5.35-.28-5.44-2.24a84.35,84.35,0,0,1,.44-10.92q2.5-28.6,5.11-57.19c1-11.57,2.06-23.14,3.16-34.71.4-4.23,3.46-6.49,8.69-6.65" transform="translate(0 -48.68)"/><path class="cls-5" d="M243.8,417.55l.07.73c-.87,0-1.73,0-2.17.62l-3.73,0a10.21,10.21,0,0,1,5.83-1.36" transform="translate(0 -48.68)"/><path class="cls-4" d="M261.69,286.41l-1,4.63c-.16.78-.92,1.11-2.13,1.09s-2.05-.36-2.07-1.13a47.57,47.57,0,0,1,.07-5.54c.11-1.19,1.65-1.23,3.1-1.14,2.31.14,1.92,1.27,2,2.08" transform="translate(0 -48.68)"/><path class="cls-6" d="M257.62,201.24l-.11.07a31.61,31.61,0,0,1-3.81,2c-8.44,3.1-14.53,1.92-17.8-7.9-.64-1.93-2.35-8.83-8.46-6,2.16-1.73,4.42-3.36,6.44-5.24.61-.57.62-1.8.84-2.75,0-.12-.45-.53-.57-.48-3.25,1.28-5.88,1.26-6.55-3l.08-.79.28-1.1c.89-1.95,1.73-3.92,2.69-5.83.4-.8-2.39-1.5-.06-2.13,2-.55,3.74-.08,4.35,2.27a27,27,0,0,0,2.52,5.54c2.23,4.24,3.53-1,5.47-1.4l.3-.33a69.61,69.61,0,0,0-1.64-7.11,49.67,49.67,0,0,0-2.78-5.82c2.66-1,2.92,3,5.31,2.53l5.69,4.19c2.11,1.38,3.09,4.45,6.3,4.18l3.62,2.75.69.25h0l3.27,1.5h0l.78.31-.44-1.15.31-.2,1.28,1.55.19.8,3.88,1.68c-4.43-1.71-4.5,4.86-8.29,4.36v0l1.35-1.06a12.07,12.07,0,0,0-1.84-1c-7.21-2.48-5.24,2.58-5,6.15.13,1.82.72,3.64,2.56,4.25,2,.67,2.88-1.09,3.59-2.56,1.45-3,4.21-3.38,7-4.08,1.52-.38,2.76-1.88,4.13-2.88-.52-.32-1.13-1-1.56-.89-2.18.48-2.72-.28-2-2.26l3.43,0c-.54-1.82-2.33-1.66-3.6-2.34a.73.73,0,0,1-.16-.67c2.41-2.48.19-4.18-.83-6.27s-1.68-4.45-4.84-3.58c2.4-2.06,4.77-4.15,7.23-6.14.22-.17,1,.35,1.52.56l.56.06h0l6.83-1.6c2.7.95,4.59,4,8,3.11l-.13.93-.43.59a16.74,16.74,0,0,1,1.75,2.66c.33.78,2.59,1.76.85,2.26-3.46,1-6.14-.65-7.46-4.23a12.7,12.7,0,0,0-1.8-2.7,2.4,2.4,0,0,0-.56-.43c-.1.18-.33.4-.29.54,1.15,3.89,1,8.94,7.22,8.47,1.89-.14,3.77-.47,5.65-.71a35.15,35.15,0,0,0,2.94,2.94,11.24,11.24,0,0,0,2.48,1.16l-.84-1.25.36-.78.74-.21.27-.23.34-.76h0l1.81-1a3.86,3.86,0,0,1,2.89,2.78c-2.21,2.77-4.42,5.54-6.61,8.33-.11.14,0,.47.07.72a8.61,8.61,0,0,1,4.54-2.76c1.6-.4,2.45-3.8,3.64-5.87l.55.09.77,3.1q0,.6,0,1.2c2,4.44-3.08,6.23-3.6,9.72h0l-2.73-2v0l0-2.61-1.39,0c-.75,1.09-3.09,1-2.17,3.38,1.09,2.82,1.83,5.78,2.73,8.68l-2,2.14c-1.78-.45-1.17-4.62-4.4-2.84a14,14,0,0,1-2-8.43c.17-1.39,1.32-3.38-.47-4.27s-2.37,1.56-3.71,2.17c-2.74,1.25-5,2.71-4.25,6.39,1.39,6.77,7.07,2.44,10.41,4.14l3.28,3.68c-5.14,3.7-10.94-.27-16.26,1.4l-.26-.26h0c-.7,1-2.28-5.41-2.44.28l0-.08c-1.67-.82-3.41-2.75-4.81.33l-1.5,0-1.11.32h0L269,200l-3.5-.29-.79-.33h0l-.53,0h0l-.54,0h0l-.54,0h0c.18-.43.24-1.12.54-1.26,3.87-1.77,7.72-3.6,11.69-5.1,1.77-.67,1.67-2.08,1.88-3.28.11-.61-.8-2-1.34-2a17.26,17.26,0,0,0-18.31,13.64m36.63-24.33-.63,1,1.33-.62.09-.1c.05,0,.13,0,.15,0a1.08,1.08,0,0,0,.16-.2l.7-1.1-1.8,1m-51.87,9.59a25.48,25.48,0,0,0-2.38-1.27c-.13-.06-.78.52-.74.71a29.76,29.76,0,0,0,1.28,4.7,15.4,15.4,0,0,0,1.91,2.81l.79-1.43c.67,0,.14-1.85,1.79-.84,1.2.74,3.2.3,4.82.15.38,0,1.95-.19,1.2-1.42-1.5-2.46-.77-4.06,1.66-5.23.41-.2.69-.69,1-1a4.09,4.09,0,0,0-1.52-.06c-5.11,1.93-7.17.35-6.45-5.17.2-1.54-.63-3.22-1-4.83a42.45,42.45,0,0,0-1.69,4.68c-.65,2.7,1.78,5.68-.7,8.25m1.77,13.69c3,3.41,12.36,1,13.84-3.29,0-.08-.61-.5-1-.59-3.31-.85-6,2.43-9.43,1.45-1-.28-2.44,1-3.64,1.6-.07,0,.18.72.21.83m48-26.52c-2.92.11-6.42.23-9.92.4-.07,0-.26.6-.16.72a1.76,1.76,0,0,0,1,.69c3,.37,6,.68,8.94,1a4.15,4.15,0,0,0,1-.15l-.84-2.65m-15.83,22.77c2-2.15,2.48-2.63,2.89-3.18a6.45,6.45,0,0,0,.58-1.22c-.23.09-.56.12-.68.29-.58.78-1.09,1.59-2.78,4.11M298,173.33l.31.1c0-.11,0-.24-.05-.31s-.19-.08-.3-.12,0,.21,0,.33" transform="translate(0 -48.68)"/><path class="cls-7" d="M244.1,163.69c-2.39.46-2.65-3.55-5.31-2.53a49.53,49.53,0,0,1,2.78,5.82,69.42,69.42,0,0,1,1.64,7.11l-.3.33c-1.94.44-3.23,5.64-5.47,1.4a27,27,0,0,1-2.52-5.54c-.61-2.35-2.32-2.82-4.35-2.27-2.33.63.46,1.34.06,2.13-1,1.91-1.8,3.88-2.69,5.83h-.26l-.21-.65-.76-6.16.45-1.3c1.53-5.75,3.06-11.5,4.56-17.26a8.42,8.42,0,0,0,.06-1.86c-.56.41-1.47.72-1.63,1.25-1.84,6.26-6.09,6.26-11.1,4.4.71-2.54,1.35-5.11,2.17-7.61a26.59,26.59,0,0,1,1.74-3.53c.29,1.1.55,2.21.88,3.3a2.33,2.33,0,0,0,.53.81c5.66-3,12.44-3.89,16.72-9.29.1-.12-.06-.44-.1-.67l.54-.48.43-.18-.43.18-.54.48-.53.47-4.24,3.22c-1.72,1.12-1.09-1.07-1.84-1.31v0l-.21-.81v0l-.21-.81v0l0-.54v0a1.19,1.19,0,0,1,.23-.22c1.81-1.8,6.63-3,4.86-5.29s-3.64,2-5.26,3.67c2.44-4.65.45-7.22-4-8.69-.08,0,0-1.23.21-1.36,2.39-1.25,4.57-5.47,7.38-2.69,4.63,4.59,7.67,2,11.22-1,1-.87,3-2.11,3.69-1.71,3,1.68,7.07,1.4,9.16,4.7.09.14-.93,1.21-1.58,1.57-3.32,1.84-6.68,3.59-10,5.37l-.56.44c-2.48,1.36-.53,3.39-.77,5.08l6.16.38-2.16-2.55c3.8.2,7.36,4,11.37.73a3.35,3.35,0,0,0,.55-.84,2.08,2.08,0,0,0-.46-.09c-2.17.07-4.4.48-6.5.14a44.27,44.27,0,0,1-6.81-2.19l2.81-1.42.9.07,0-.44-.88.35-1.76-.25c5.54-.59,10.86-8.11,16.66-.52a9.09,9.09,0,0,0,5.25,3.89c-.68,1.82-1.75,2.18-3.66,1.51-1.09-.38-2.52.19-3.79.39-.14,0-.36.63-.28.7.36.36.85.93,1.23.89,3.73-.4,2.92,1.16,1.33,3-1.28,1.5.75,1.66,1,2.54-1.74,1.11-2.81,2.54-2.14,4.74l-.08,1.54.19.79-.05.51.23.79.15.78.48,1.06-.16.63.29,0-.11-.65-.39-1.06-.27-.78-.17-.79c0-.17,0-.34,0-.51l-.22-.79.31-.74,1.24.88,1.19,5.45-1.12.23-1.74,1.15-4.68,4.19c-.34.3-.7.59-1,.88h1l-3.71,2q0-1.32.09-2.64l.57-1.64.23-.26-.17-.07,0,.34-.38.21-.39-.52c-.26-2.3,3.48-3,2.31-5.63-.09-.28-.18-.55-.29-.82,0,0-.11,0-.17,0l.25.81c-3.11,0-6.16-.18-8.25-3,.69-1.46,8.25-.71,1.47-4.52-.85-.48-2.13-.2-3.22-.28l-3-3.83c.88,1.49,1.75,3,2.66,4.47a10.07,10.07,0,0,0,1.06,1.23v0l.26.3L252,150l-.49,0-2-.6c-.07-.33,0-.88-.21-1-3.56-1.55-6.35-3.53-4.94-8.13.08-.26-.59-.74-.9-1.12-.25.33-.73.67-.72,1,0,1.25.47,3.55.32,3.59-4.77,1.12-1.51,5.29-3,7.58-3.92,3.42-3.92,3.42-.59,4.71l.27.35h0l.25.31h0l-.82.75c-.72,1.45,1.09,1.33,1.35,2.17.24,2.37,2.71,2.49,3.91,3.89l-.3.21m13.78-13.42.28.66-.26.22-.65,1.25,2.09.47-.38-1-.82-1a.51.51,0,0,1,.21-.19l-.46-.47m-19.33,9.14-2.11-3.14,1.22,2.81,1,1.07-.07-.74m11.27-16.59a10.93,10.93,0,0,0,7.12.76c.14,0,.23-.81.21-.82-2.53-.78-5.07-1.53-7.61-2.28l.29,2.33m15.1-3.18c-.72.17-.72-1.87-1.71-.34a6.67,6.67,0,0,0-.35.69l2.7,1.2-.64-1.55m-20.48-5.37c-.4.14-.65.15-.73.27a5.26,5.26,0,0,0-.39.89c.23,0,.6.15.66.06a5.92,5.92,0,0,0,.45-1.22" transform="translate(0 -48.68)"/><path class="cls-6" d="M226.72,169.17l.76,6.16q0,.71.07,1.41v0c-2.91,3.08-5.8,4.18-8.79,0a18.42,18.42,0,0,0-2.4-2.33l-2.76-4.29c.62.69,1.2,1.4,1.88,2,.11.1.87-.32.87-.32-1.33-3.54-.79-7.68-3.45-10.79l.47-.52c1,1.6,4.59.55,3.88,3.85l.1.7.21.54-.3,4,2.21.07c.58-.79,1.81-2.07,1.64-2.3-2.63-3.53-3-7.5-2.59-11.65l.54-1.4c5,1.86,9.26,1.87,11.1-4.4.16-.53,1.07-.84,1.63-1.25a8.46,8.46,0,0,1-.06,1.86c-1.5,5.76-3,11.51-4.56,17.26l-.67,1.07-.52,0-1.11-.25,0,.32,1.15-.08.52,0,.11.12Z" transform="translate(0 -48.68)"/><path class="cls-7" d="M297.08,123.6c2.37,4.42-.1,8.93.25,13.38l-4.76,4.12-1,.07-.75,0-3.69-1.47-.7,2.47c-1.36-.74-2.7-1.49-2.26-3.42l1.83,1.34v.14l0-.14c.53-1.74-.38-2.89-1.61-3.91l-1,1.82-.89-.2-.18-.78-.63-.7-3.26-3.16c.82-1.24,1.35-3,3.45-2.07l.24.34c.24.58.27,1.55,1.3.72l10.21-6.56,3.45-2m-12.18,9.25a22.91,22.91,0,0,0-2.18,1.94c-.22.27-.2.73-.28,1.1.5-.43,1-.84,1.49-1.31a12,12,0,0,0,1-1.74m-3.33-1.11a3.42,3.42,0,0,0-.89.24c-.14.1-.19.33-.28.5a1.72,1.72,0,0,0,.58-.09c.17-.09.28-.29.59-.65m3.4,3.15s.06-.1,0-.13-.07-.07-.12-.1l-.08.2.15,0" transform="translate(0 -48.68)"/><path class="cls-5" d="M232.28,202l-.56-.43-1.65-1.83-.6-.94-4.67-10.34c.76.67,1.39,1.69,2.64.93,6.12-2.79,7.82,4.11,8.46,6,3.27,9.83,9.36,11,17.8,7.9a31.56,31.56,0,0,0,3.81-2c-2.09,5.63-12.26,8.22-18.53,4.7-1.83-1-3.64-2.1-5.46-3.16l-.58-.43-.67-.43" transform="translate(0 -48.68)"/><path class="cls-6" d="M281.87,131.13c-2.1-.9-2.63.83-3.45,2.07-2-.49-3.3.82-4.78,1.69a9.09,9.09,0,0,1-5.25-3.89l9.62-3.38.44.77c1.05-1.47,3.75-.74,4.15-3.09,1.63,0,.11-3.55,2.73-2.43l2.61-.95c2.64-.68,5.25-1.77,8-.36-.07.6.43,1.26-.72,1.65-.82.28-3.81-.14-1.59,2.4l-10.21,6.57-.24-.28-.28-.19h0Z" transform="translate(0 -48.68)"/><path class="cls-5" d="M257.62,201.24a17.26,17.26,0,0,1,18.31-13.64c.54,0,1.45,1.43,1.34,2-.21,1.2-.11,2.61-1.88,3.28-4,1.5-7.82,3.33-11.69,5.1-.31.14-.37.83-.54,1.26-2.14-.17-4.14.05-5.55,2" transform="translate(0 -48.68)"/><path class="cls-7" d="M303.54,172.66a3.86,3.86,0,0,0-2.89-2.78l-.16-.34c1.17-1.84.17-3.58-.67-5-.3-.52-2.23-.17-3.4-.08-3,.23-6.24,3.65-8.79-.82l.13-.93,0,0,.38-.75.34-.5c2.69-3.75,7.37-.83,10.52-3.1.23-.16,1,0,1.1.17,1.91,4.87,3.76,9.76,5.63,14.64l-.55-.09-1.65-.42" transform="translate(0 -48.68)"/><path class="cls-9" d="M300.1,139.73c2.13.11,1.29,1.76,1.28,2.77a46.5,46.5,0,0,1-.54,5l-5.4,1.82-3.21-1.84a13,13,0,0,1-.44,2.75c-1,2.67-2.18,5.28-3.29,7.92l-.52-1.35a8.4,8.4,0,0,1,2.53-7.88c.64-.62,3-3.46-.36-4.66-.56-.2-1.37.28-2.07.45l2.34-2.25,1.1-.48,2.21,3.32,1.42.26c.31.51.71,1.5.9,1.46,4.12-.84,3.84-4.19,4-7.26" transform="translate(0 -48.68)"/><path class="cls-9" d="M227.43,189.36c-1.26.76-1.89-.26-2.64-.93l1.26-5.15c1.92-1.41,1.11-3.59,1.54-5.42.68,4.28,3.3,4.3,6.55,3,.12,0,.6.36.57.48-.22.95-.23,2.18-.84,2.75-2,1.88-4.28,3.51-6.44,5.24" transform="translate(0 -48.68)"/><path class="cls-6" d="M300.1,139.73c-.19,3.07.09,6.42-4,7.26-.19,0-.6-1-.9-1.46-.25-1.32-.94-.19-1.42-.26L291.53,142l.55-.41.48-.45,4.76-4.12c0,.24.1.56,0,.7-.94,1.12-1.92,2.2-2.88,3.29l5.68-1.24" transform="translate(0 -48.68)"/><path class="cls-9" d="M234.38,139.78c.21,2.82-1.89,3.34-3.91,3.94,0-3.32-5.85-.8-4.46-3.59,1-2.08,5-2.71,7.61-4v0l.21.82v0l.19.82v0l0,.54v0l.21.81v0l.21.81Z" transform="translate(0 -48.68)"/><path class="cls-9" d="M217.25,164.39c.71-3.3-2.9-2.25-3.88-3.85l5.15-4.74c-.38,4.16,0,8.12,2.59,11.65.17.23-1.06,1.51-1.64,2.3l-1.91-4.12-.21-.54-.1-.7m-.48-6.32.08-.29c-.1,0-.23,0-.29.07s-.06.19-.09.28l.31-.06" transform="translate(0 -48.68)"/><path class="cls-5" d="M227.59,177.87c-.43,1.83.38,4-1.54,5.42-5.54-.42-7.45-4.82-9.68-8.85a18.42,18.42,0,0,1,2.4,2.33c3,4.14,5.87,3,8.78,0l.11.37-.08.79" transform="translate(0 -48.68)"/><path class="cls-5" d="M299.33,194.72c-.89-2.9-1.63-5.85-2.73-8.68-.92-2.38,1.42-2.29,2.17-3.38l1.43,2.56v0c-.43,1.25-.54,2.5.61,3.4.33.26,1,.08,1.51.11h0c-.68,2.16-1,4.48-3,6" transform="translate(0 -48.68)"/><path class="cls-6" d="M295.43,149.29l5.4-1.82.32.66-.28.76v0l-.07,1v0l-.32.78v0l.07.66c-.5,1.56.25,3.55-1.58,4.66l-3.55-6.67" transform="translate(0 -48.68)"/><path class="cls-9" d="M212.9,161.05c2.67,3.11,2.12,7.25,3.45,10.79,0,0-.76.42-.87.32-.67-.62-1.26-1.34-1.88-2-2.16-2.88-1.61-6-.71-9.09" transform="translate(0 -48.68)"/><path class="cls-9" d="M231.24,134.4l-6.15,3.84c.66-2.31,1.27-4.63,2.08-6.88a4,4,0,0,1,2.5.47c1,.78,3.6,1.85,1.57,2.56" transform="translate(0 -48.68)"/><path class="cls-6" d="M251.74,131.52l1.76.25v0l-2.82,1.42a44.3,44.3,0,0,0,6.81,2.19c2.11.34,4.33-.07,6.5-.14a2,2,0,0,1,.46.09,3.33,3.33,0,0,1-.55.84c-4,3.25-7.57-.53-11.37-.73l-3.23-2.92.56-.44,1.88-.59" transform="translate(0 -48.68)"/><path class="cls-6" d="M233.83,135.88c1.62-1.68,3.49-5.92,5.26-3.67s-3,3.49-4.86,5.29l-.42-.6v0l-.21-.82v0a.49.49,0,0,0,.21-.26" transform="translate(0 -48.68)"/><path class="cls-5" d="M292.92,194c3.23-1.78,2.61,2.39,4.4,2.84l-1.12.82L292.93,194Z" transform="translate(0 -48.68)"/><path class="cls-5" d="M288,156.77l.52,1.35v3.35l-.34.5-.62.51c.19-1.38.1-2.6-1.61-2.94Z" transform="translate(0 -48.68)"/><path class="cls-5" d="M293.62,125.62c-2.22-2.55.77-2.13,1.59-2.4,1.15-.39.64-1,.72-1.65l1.15,2-3.45,2" transform="translate(0 -48.68)"/><path class="cls-5" d="M272.45,199.37c1.4-3.08,3.14-1.15,4.81-.33l-4.81.33" transform="translate(0 -48.68)"/><path class="cls-5" d="M282.6,125.3c-.4,2.35-3.09,1.62-4.15,3.09l-.44-.77,4.59-2.33" transform="translate(0 -48.68)"/><path class="cls-9" d="M297.28,153.89l1,2.84c-.34-.13-.87-.17-1-.4-.5-1-.87-2.13-1.29-3.21l1.31.77" transform="translate(0 -48.68)"/><path class="cls-5" d="M277.28,199.11c.16-5.69,1.74.76,2.44-.28l-2.44.28" transform="translate(0 -48.68)"/><path class="cls-6" d="M236.23,141.09l4.24-3.22c-1.55.9-2,3.3-4.24,3.22" transform="translate(0 -48.68)"/><path class="cls-9" d="M229.14,127.41c-.32,1.18-.53,2-.79,2.85,0,.08-.35.06-.53.09.14-.81.24-1.63.43-2.43,0-.16.4-.24.9-.52" transform="translate(0 -48.68)"/><path class="cls-9" d="M287.95,121.92l-2.61.95c.25-2,1.47-1.39,2.61-.95" transform="translate(0 -48.68)"/><path class="cls-5" d="M269.84,199.72l1.11-.32-1.11.32" transform="translate(0 -48.68)"/><path class="cls-9" d="M224.58,139.65l-.24.93-.17-.05.43-.88Z" transform="translate(0 -48.68)"/><path class="cls-6" d="M302.93,187.2l-.41,1.23-.22-.31.63-.92Z" transform="translate(0 -48.68)"/><path class="cls-5" d="M300.81,149.93l.07-1Z" transform="translate(0 -48.68)"/><path class="cls-5" d="M306.53,177.47q0-.6,0-1.2,0,.6,0,1.2" transform="translate(0 -48.68)"/><path class="cls-5" d="M300.87,148.89l.28-.76-.28.76" transform="translate(0 -48.68)"/><path class="cls-5" d="M300.49,150.68l.32-.78-.32.78" transform="translate(0 -48.68)"/><path class="cls-9" d="M224.6,139.65l.1-.43-.12.43h0" transform="translate(0 -48.68)"/><path class="cls-9" d="M223.62,142.19c0,.06,0,.13-.05.16s-.1,0-.16,0a1.94,1.94,0,0,1,.21-.17" transform="translate(0 -48.68)"/><path class="cls-5" d="M269,200l.87-.27L269,200" transform="translate(0 -48.68)"/><path class="cls-5" d="M264.69,199.36l.79.33-.79-.33" transform="translate(0 -48.68)"/><path class="cls-5" d="M302.3,188.12l.22.31a.57.57,0,0,1-.22.27h0l0-.59" transform="translate(0 -48.68)"/><path class="cls-5" d="M300.56,151.3l-.07-.66.07.66" transform="translate(0 -48.68)"/><path class="cls-5" d="M263.15,199.26l.54,0-.54,0" transform="translate(0 -48.68)"/><path class="cls-5" d="M263.67,199.3l.54,0-.54,0" transform="translate(0 -48.68)"/><path class="cls-5" d="M264.18,199.33l.53,0Z" transform="translate(0 -48.68)"/><path class="cls-5" d="M279.68,198.82l.26.26Z" transform="translate(0 -48.68)"/><path class="cls-5" d="M267.09,157.21l1.74-1.15q0,1-.05,2l.89-.24c2.32-.11,4.74-.63,6.53,1.54l-3.26,1.81h0l-.56-.06c-.52-.2-1.3-.73-1.52-.56-2.46,2-4.83,4.07-7.23,6.14,3.16-.86,3.78,1.4,4.84,3.58s3.23,3.79.83,6.27a.73.73,0,0,0,.16.67c1.27.68,3.07.52,3.6,2.34l-3.43,0h0l-3.88-1.68-.19-.8-1.28-1.55-2.07-2,1.76,2.15.44,1.15-.78-.32h0l-3.27-1.5h0l-.69-.25-3.62-2.75L254,170.5c.88-1.82,2.71-1.81,4.31-2.23,0,1.3.89,1.59,1.78,1a11.62,11.62,0,0,0,2.05-2.18l-2.05-1.46-1.12-.49h0l-.53-.59a.76.76,0,0,0,.19-.26l3.71-2,.1-.14,1.2-.49c1.87-.92,6.21.06,3.41-4.44" transform="translate(0 -48.68)"/><path class="cls-5" d="M261.36,183.91c3.79.5,3.86-6.07,8.29-4.36-.73,2-.19,2.73,2,2.26.43-.1,1,.58,1.56.89-1.37,1-2.61,2.5-4.13,2.88-2.82.7-5.58,1.1-7,4.08-.71,1.47-1.56,3.23-3.59,2.56-1.84-.61-2.43-2.43-2.56-4.25-.25-3.57-2.23-8.63,5-6.15a12.07,12.07,0,0,1,1.84,1l-1.35,1.06-1.16.25.09.26,1.07-.49m-4.09,1.49.08-.13s-.09-.07-.11-.06a.47.47,0,0,0-.09.12l.11.07" transform="translate(0 -48.68)"/><path class="cls-5" d="M292.93,194c-3.33-1.7-9,2.63-10.41-4.14-.75-3.68,1.52-5.14,4.25-6.39,1.34-.61,1.91-3.06,3.71-2.17s.63,2.89.47,4.27a14,14,0,0,0,2,8.43Z" transform="translate(0 -48.68)"/><path class="cls-5" d="M242.38,186.49c2.48-2.57.05-5.55.7-8.25a42.65,42.65,0,0,1,1.69-4.68c.36,1.61,1.2,3.29,1,4.83-.72,5.52,1.34,7.1,6.45,5.17a4.11,4.11,0,0,1,1.52.06c-.34.35-.61.84-1,1-2.43,1.17-3.16,2.77-1.66,5.23.75,1.23-.82,1.38-1.2,1.42-1.62.16-3.61.59-4.82-.15-1.65-1-1.12.86-1.79.84-1.48-1.65-2.21-3.42-.86-5.51" transform="translate(0 -48.68)"/><path class="cls-10" d="M287.62,163.62c2.55,4.46,5.81,1,8.79.82,1.17-.09,3.1-.44,3.4.08.84,1.44,1.84,3.18.67,5l-1.79.11-5.33-.18,3.76,3.46.84,1.25a11.19,11.19,0,0,1-2.48-1.16,35.15,35.15,0,0,1-2.94-2.94l-5.36-5.86.43-.59" transform="translate(0 -48.68)"/><path class="cls-5" d="M244.15,200.18c0-.11-.29-.79-.21-.83,1.2-.62,2.64-1.88,3.64-1.6,3.48,1,6.12-2.31,9.43-1.45.37.1,1,.51,1,.59-1.48,4.31-10.79,6.69-13.84,3.29" transform="translate(0 -48.68)"/><path class="cls-5" d="M287.19,164.21l5.36,5.86c-1.89.24-3.76.57-5.65.71-6.22.47-6.07-4.58-7.22-8.47,0-.14.18-.36.29-.54a2.41,2.41,0,0,1,.56.43,12.7,12.7,0,0,1,1.8,2.7c1.32,3.58,4,5.22,7.46,4.23,1.74-.5-.52-1.48-.85-2.26a16.8,16.8,0,0,0-1.75-2.66" transform="translate(0 -48.68)"/><path class="cls-9" d="M292.12,173.66l.84,2.65a4.13,4.13,0,0,1-1,.15c-3-.3-6-.62-8.94-1a1.77,1.77,0,0,1-1-.69c-.1-.13.09-.72.16-.73,3.5-.17,7-.29,9.92-.4" transform="translate(0 -48.68)"/><path class="cls-5" d="M303.54,172.66l1.65.42c-1.19,2.07-2,5.46-3.64,5.86a8.61,8.61,0,0,0-4.54,2.76c0-.24-.18-.58-.07-.72,2.18-2.79,4.4-5.56,6.61-8.33" transform="translate(0 -48.68)"/><path class="cls-10" d="M285.92,159.54c1.7.34,1.8,1.57,1.61,2.94l.24.24,0,0c-3.41.87-5.3-2.16-8-3.11l.72-1.13,2.38.86h0l2.07.13h0l.53,0h0l.54,0Z" transform="translate(0 -48.68)"/><path class="cls-9" d="M242.38,186.49c-1.35,2.09-.62,3.86.86,5.51l-.79,1.43a15.3,15.3,0,0,1-1.91-2.81,29.68,29.68,0,0,1-1.28-4.7c0-.19.61-.77.74-.71a25.74,25.74,0,0,1,2.38,1.27" transform="translate(0 -48.68)"/><path class="cls-9" d="M280.48,158.46l-.72,1.13-6.83,1.6,3.26-1.81c2.37-.22,3.1-2.27,4.26-3.84l3.3,1.34-3.27,1.58" transform="translate(0 -48.68)"/><path class="cls-9" d="M297.13,172.92l-3.76-3.46,5.33.18.14,1.28h0l-.34.77-.27.23-.83-.26.09.47-.36.78" transform="translate(0 -48.68)"/><path class="cls-9" d="M302.3,188.12l0,.59c-.51,0-1.18.15-1.51-.11-1.15-.9-1-2.15-.62-3.4l2.73,2-.63.92" transform="translate(0 -48.68)"/><path class="cls-9" d="M254,170.5l2.07,1.56c-3.21.27-4.19-2.81-6.3-4.18l.49-.35,1.07.9L254,170.5" transform="translate(0 -48.68)"/><path class="cls-10" d="M250.28,167.53l-.49.35-5.69-4.19.3-.21,1.36.7,1.15.47h0l3.38,2.87" transform="translate(0 -48.68)"/><path class="cls-9" d="M300.2,185.22l-1.43-2.56,1.39,0,0,2.61" transform="translate(0 -48.68)"/><path class="cls-5" d="M276.29,196.43c1.69-2.51,2.21-3.33,2.78-4.11.13-.17.45-.2.69-.29a6.48,6.48,0,0,1-.58,1.22c-.41.55-.92,1-2.89,3.18" transform="translate(0 -48.68)"/><path class="cls-5" d="M298.84,170.93l-.14-1.28,1.79-.11.16.34-1.81,1.05" transform="translate(0 -48.68)"/><path class="cls-9" d="M260.4,175.06l3.27,1.5-3.27-1.5" transform="translate(0 -48.68)"/><path class="cls-5" d="M295,177.14l-.09.1-.7-.34,1.8-1-.7,1.1-.31.18" transform="translate(0 -48.68)"/><path class="cls-9" d="M264,175.72l-1.76-2.15,2.07,2-.31.19" transform="translate(0 -48.68)"/><path class="cls-9" d="M294.25,176.91l.7.34-1.33.62.63-1" transform="translate(0 -48.68)"/><path class="cls-5" d="M298.5,171.69l.34-.76Z" transform="translate(0 -48.68)"/><path class="cls-10" d="M297.49,172.13l-.09-.47.83.26-.74.21" transform="translate(0 -48.68)"/><path class="cls-9" d="M227.67,177.08l-.11-.37v0l.14-.76h.26l-.28,1.1" transform="translate(0 -48.68)"/><path class="cls-5" d="M298,173.33c0-.11,0-.22,0-.32s.24,0,.3.12,0,.2.05.31l-.31-.11" transform="translate(0 -48.68)"/><path class="cls-9" d="M259.71,174.82l.69.25-.69-.25" transform="translate(0 -48.68)"/><path class="cls-9" d="M263.64,176.55l.78.32-.78-.32" transform="translate(0 -48.68)"/><path class="cls-9" d="M295,177.14l.31-.18a1.07,1.07,0,0,1-.16.2s-.1,0-.15,0" transform="translate(0 -48.68)"/><path class="cls-9" d="M272.39,161.13l.56.06-.56-.06" transform="translate(0 -48.68)"/><path class="cls-5" d="M242.91,174.41l.3-.33-.3.33" transform="translate(0 -48.68)"/><path class="cls-9" d="M265.58,177.07l.19.8-.19-.8" transform="translate(0 -48.68)"/><path class="cls-6" d="M245.76,164.17l-1.36-.7c-1.21-1.39-3.67-1.52-3.91-3.89.86-1.54-1.11-1.32-1.35-2.17l.82-.75.17,0-.17,0-.25-.31,2.78-1.65,3.64-1.61.54-.39,1.07-.53,3.76-2.23.49,0,.45,1.09c2.09,2.81,5.14,3,8.25,3l.21,0c1.17,2.67-2.57,3.33-2.31,5.63l-1,1.35-.45.9h0c-3.65.1-7.49-.55-10.31,2.7h0l-1.15-.47" transform="translate(0 -48.68)"/><path class="cls-5" d="M268.76,150.38l-1.24-.88-.22-.8c-.66-2.2.4-3.63,2.14-4.74l2.44-1.66.79-.8,2-1.58,0,.1.1,0c-2.1,2.32-3.31,4.56.58,6.34,0,0-.13.73-.21.74-3.79.11.31,2.58-1,3.39,1.32.78,2.63,1.59,4,2.32.24.13.66-.09,1-.15a6.74,6.74,0,0,1-.36-.92c-.12-.5-1.9-.08-.74-1.12.5-.44,2.09-.58,2.32-.25,1.08,1.56,2.2.92,3.4.42l-1.18,1.94-1.77,1.86c-4.47,3.18-6.64,1.47-7.92-3.35-.37-1.4-2.29-2.39-3.49-3.57l-.54,2.68m8.07,3.76.48-.07a3,3,0,0,0-.13-.64c0-.05-.26,0-.4,0l.05.74" transform="translate(0 -48.68)"/><path class="cls-10" d="M271.89,142.3,269.45,144c-.23-.88-2.26-1-1-2.54,1.59-1.87,2.4-3.42-1.33-3-.39,0-.87-.53-1.23-.89-.08-.08.14-.68.28-.7,1.27-.21,2.7-.77,3.79-.39,1.91.66,3,.31,3.66-1.51,1.49-.87,2.82-2.18,4.78-1.69l3.26,3.16-1.27.64-1.49.42-2,.63-1.8,1.15c-2.49-1.49-4.3.42-5.36,1.86-.8,1.1,1.57.43,2.12,1.24m6.67-8c0-.09,0-.23-.1-.26s-.18,0-.27.08,0,.23.1.27.18,0,.28-.08" transform="translate(0 -48.68)"/><path class="cls-6" d="M268.76,150.38l.54-2.68c1.21,1.18,3.12,2.17,3.49,3.57,1.29,4.82,3.45,6.53,7.92,3.35l-.27.92c-1.16,1.57-1.89,3.62-4.26,3.84-1.79-2.17-4.21-1.64-6.53-1.54l-.88.24q0-1,.05-2l1.12-.23-1.19-5.45" transform="translate(0 -48.68)"/><path class="cls-6" d="M240.06,151.32c1.45-2.29-1.8-6.46,3-7.58.15,0-.28-2.34-.32-3.59,0-.33.47-.67.72-1,.32.38,1,.86.9,1.12-1.41,4.6,1.38,6.57,4.94,8.13.17.08.14.63.21,1l-1.59.25c-3.08-1.6-5.12,1.56-7.82,1.71Z" transform="translate(0 -48.68)"/><path class="cls-10" d="M247.9,149.61l1.59-.25,2,.6-3.76,2.23-1.07.53-.54.39c-1.95-1.12-2.42,1.08-3.64,1.61l-2.78,1.64,0,0-.27-.35c-3.33-1.3-3.33-1.3.6-4.71h0c3.4,3.06,5.27-.88,7.82-1.71" transform="translate(0 -48.68)"/><path class="cls-10" d="M249.3,132.54l3.23,2.92,2.16,2.55-6.16-.38c.24-1.7-1.71-3.72.77-5.08" transform="translate(0 -48.68)"/><path class="cls-10" d="M252.43,151.09,252,150l-.34-1.57-.26-.3v0l-.7-1.86c1.08.07,2.36-.2,3.22.28,6.77,3.8-.78,3.06-1.48,4.52" transform="translate(0 -48.68)"/><path class="cls-6" d="M249.82,142.82l-.29-2.33c2.54.75,5.08,1.49,7.61,2.28,0,0-.07.78-.2.82a10.92,10.92,0,0,1-7.12-.76" transform="translate(0 -48.68)"/><path class="cls-6" d="M262.47,162.13l-.1.14h-1c.35-.29.71-.57,1-.88l4.68-4.19c2.8,4.5-1.54,3.52-3.41,4.44l-1.2.48" transform="translate(0 -48.68)"/><path class="cls-6" d="M250.69,146.29l.7,1.87a10,10,0,0,1-1.06-1.23c-.91-1.47-1.78-3-2.66-4.47l3,3.83" transform="translate(0 -48.68)"/><path class="cls-10" d="M257.62,161.07l1-1.35.39.52-.21,1.43q0,1.32-.09,2.64a.76.76,0,0,1-.19.26.56.56,0,0,0-.16-.23l-.75-.82-.22-.29v0l-.14-1.29h0l.45-.9" transform="translate(0 -48.68)"/><path class="cls-10" d="M264.92,139.64l.64,1.55-2.7-1.2a6.58,6.58,0,0,1,.35-.69c1-1.52,1,.51,1.71.34" transform="translate(0 -48.68)"/><path class="cls-6" d="M237.66,159.07l-1.22-2.81,2.11,3.14Z" transform="translate(0 -48.68)"/><path class="cls-10" d="M258.95,151.89l.38,1-2.09-.47.65-1.25,1.05.75" transform="translate(0 -48.68)"/><path class="cls-5" d="M239.14,157.42c.24.85,2.21.63,1.35,2.17-.27-.84-2.07-.72-1.35-2.17" transform="translate(0 -48.68)"/><path class="cls-6" d="M244.44,134.27a5.92,5.92,0,0,1-.45,1.22c-.06.09-.43,0-.66-.06a5.26,5.26,0,0,1,.39-.89c.08-.12.33-.13.73-.27" transform="translate(0 -48.68)"/><path class="cls-6" d="M258.76,161.67l.21-1.43.38-.21h0l-.57,1.64" transform="translate(0 -48.68)"/><path class="cls-5" d="M237.66,159.07l.89.33.07.74-1-1.07" transform="translate(0 -48.68)"/><path class="cls-6" d="M253.5,131.77l.88-.35,0,.44-.9-.07v0" transform="translate(0 -48.68)"/><path class="cls-6" d="M267.31,148.7l.22.8-.31.74h0l.08-1.54" transform="translate(0 -48.68)"/><path class="cls-5" d="M226.5,168.93l.67-1.07-.45,1.3-.1-.13-.11-.12Z" transform="translate(0 -48.68)"/><path class="cls-6" d="M268.26,154.18l.11.65-.29,0,.16-.63Z" transform="translate(0 -48.68)"/><path class="cls-5" d="M258.95,151.89l-1.05-.75.26-.22h0l.82,1" transform="translate(0 -48.68)"/><path class="cls-5" d="M227.69,176l-.14.76q0-.71-.07-1.41l.21.65" transform="translate(0 -48.68)"/><path class="cls-10" d="M260.68,154.07l-.25-.81c.06,0,.17,0,.17,0,.1.27.19.55.29.82l-.21,0" transform="translate(0 -48.68)"/><path class="cls-6" d="M268.23,154.18l-.48-1.06h.12l.39,1.06h0" transform="translate(0 -48.68)"/><path class="cls-6" d="M267.43,151.54l.17.79h0l-.23-.79h.06" transform="translate(0 -48.68)"/><path class="cls-6" d="M267.75,153.11l-.16-.78h0l.27.78h-.12" transform="translate(0 -48.68)"/><path class="cls-10" d="M234.39,139.8l-.21-.81.21.81" transform="translate(0 -48.68)"/><path class="cls-10" d="M234.18,139l-.21-.81Z" transform="translate(0 -48.68)"/><path class="cls-10" d="M233.82,136.89l.42.6a1.22,1.22,0,0,0-.23.22l-.19-.82" transform="translate(0 -48.68)"/><path class="cls-10" d="M257.88,150.26l.46.47-.46-.47" transform="translate(0 -48.68)"/><path class="cls-5" d="M257.88,150.26l.46.47a.5.5,0,0,0-.21.19h0l-.28-.66" transform="translate(0 -48.68)"/><path class="cls-10" d="M241.53,136.91l.43-.18-.43.18Z" transform="translate(0 -48.68)"/><path class="cls-6" d="M259.35,160l0-.34.17.07-.23.26h0" transform="translate(0 -48.68)"/><path class="cls-6" d="M241.53,136.91l-.54.48h0l.54-.48Z" transform="translate(0 -48.68)"/><path class="cls-6" d="M267.21,150.24l.22.79h0l-.19-.79Z" transform="translate(0 -48.68)"/><path class="cls-6" d="M267.44,151v.51h-.06l.05-.51Z" transform="translate(0 -48.68)"/><path class="cls-6" d="M239.46,156l.27.35-.27-.35" transform="translate(0 -48.68)"/><path class="cls-10" d="M234,138.22l0-.54,0,.54" transform="translate(0 -48.68)"/><path class="cls-6" d="M251.38,148.13l.26.3-.26-.3" transform="translate(0 -48.68)"/><path class="cls-10" d="M232.28,202l.67.43-.67-.43" transform="translate(0 -48.68)"/><path class="cls-5" d="M217.56,165.63l1.91,4.12-2.21-.07Z" transform="translate(0 -48.68)"/><path class="cls-5" d="M226,168.88l-1.15.08,0-.32,1.11.25Z" transform="translate(0 -48.68)"/><path class="cls-5" d="M226.5,168.92l-.52,0v0l.52,0Z" transform="translate(0 -48.68)"/><path class="cls-5" d="M217.25,164.39l.1.7-.1-.7" transform="translate(0 -48.68)"/><path class="cls-6" d="M288,156.77l-2.06,2.77,0,0-.54,0h0l-.53,0h0l-2.07-.13h0c-1.29-2,1.63-1.29,1.56-2.49v0l.43-.31c1.52-.47,1.46-1.85,1.75-3l0-.07c.21-1.24,1.16-2.47,0-3.72h0l-.46-2,.11-.16-.25-.77.38-4.58.7-2.47,3.69,1.47-1.17.32.82.89-2.34,2.25c.7-.17,1.5-.65,2.07-.45,3.36,1.2,1,4,.36,4.66a8.4,8.4,0,0,0-2.53,7.88" transform="translate(0 -48.68)"/><path class="cls-10" d="M286.39,142.22,286,146.8l-.24.29-.84,1.12-2-2.51-2.35-1.41-2.58-2.38.45-.53.53-.39c2.76.73,2.84-1.57,3.56-3.15l.89.2.76.75c-.44,1.93.89,2.68,2.26,3.42" transform="translate(0 -48.68)"/><path class="cls-5" d="M278.93,141l-.53.39-.33-.42,0-.71.58-.43,1.72-2.46V137l1.28-.64.63.7L278.93,141" transform="translate(0 -48.68)"/><path class="cls-6" d="M284.14,138.8l-.76-.75,1-1.82c1.23,1,2.14,2.17,1.61,3.91h0l-1.83-1.34" transform="translate(0 -48.68)"/><path class="cls-6" d="M278.93,141l3.38-3.93.18.78c-.72,1.58-.79,3.88-3.56,3.15" transform="translate(0 -48.68)"/><path class="cls-6" d="M284.9,132.84a12,12,0,0,1-1,1.73c-.47.47-1,.88-1.49,1.31.09-.37.06-.84.28-1.1a22.72,22.72,0,0,1,2.18-1.94" transform="translate(0 -48.68)"/><path class="cls-5" d="M290.43,142.43l-.82-.89,1.17-.32.75,0,.55.38-.55.41-1.1.48" transform="translate(0 -48.68)"/><path class="cls-10" d="M283.17,131.9l.24.28c-1,.83-1.05-.14-1.3-.72l.81.25h0a.69.69,0,0,0,.28.19" transform="translate(0 -48.68)"/><path class="cls-5" d="M281.57,131.73c-.32.36-.42.56-.59.65a1.73,1.73,0,0,1-.58.09c.09-.17.14-.4.28-.5a3.41,3.41,0,0,1,.89-.24" transform="translate(0 -48.68)"/><path class="cls-10" d="M292.08,141.55l-.55-.38,1-.07-.48.45" transform="translate(0 -48.68)"/><path class="cls-5" d="M282.92,131.72l-.81-.25-.24-.34,1,.59" transform="translate(0 -48.68)"/><path class="cls-6" d="M285,134.88l-.15,0,.08-.2s.1.06.12.1,0,.09,0,.13" transform="translate(0 -48.68)"/><path class="cls-6" d="M285.95,140.14l0,.14v-.14Z" transform="translate(0 -48.68)"/><path class="cls-5" d="M283.17,131.9a.69.69,0,0,1-.28-.19l.28.19" transform="translate(0 -48.68)"/><path class="cls-6" d="M287.78,162.72l-.24-.24.62-.51-.38.75" transform="translate(0 -48.68)"/><path class="cls-5" d="M293.74,145.27c.48.06,1.17-1.06,1.42.26l-1.42-.26" transform="translate(0 -48.68)"/><path class="cls-10" d="M233.61,136.11l.21.82-.21-.82" transform="translate(0 -48.68)"/><path class="cls-10" d="M216.77,158.06l-.3.05c0-.1,0-.23.09-.28s.19,0,.29-.07l-.08.3" transform="translate(0 -48.68)"/><path class="cls-6" d="M257.57,163.52l.75.82.69.82h0l1.12.49,2.05,1.46a11.63,11.63,0,0,1-2.05,2.18c-.89.57-1.73.27-1.78-1-1.6.43-3.43.41-4.31,2.23l-2.67-2.07,6-5.18v0Z" transform="translate(0 -48.68)"/><path class="cls-9" d="M268.77,158.08l.88-.24-.88.24" transform="translate(0 -48.68)"/><path class="cls-9" d="M259,165.16l-.69-.82a.56.56,0,0,1,.16.23l.53.59" transform="translate(0 -48.68)"/><path class="cls-9" d="M260.11,165.65l-1.12-.49,1.12.49" transform="translate(0 -48.68)"/><path class="cls-9" d="M262.47,162.13l1.2-.48-1.2.48" transform="translate(0 -48.68)"/><path class="cls-6" d="M261.36,183.91l-1.07.49-.09-.26,1.16-.25Z" transform="translate(0 -48.68)"/><path class="cls-6" d="M257.27,185.4l-.11-.07a.47.47,0,0,1,.09-.12s.07,0,.11.06l-.08.13" transform="translate(0 -48.68)"/><path class="cls-5" d="M284.42,156.83c.07,1.2-2.85.52-1.56,2.49l-2.38-.86,3.26-1.57.68-.06" transform="translate(0 -48.68)"/><path class="cls-5" d="M282.86,159.31l2.07.13-2.07-.13" transform="translate(0 -48.68)"/><path class="cls-5" d="M285.42,159.48l.54,0-.54,0" transform="translate(0 -48.68)"/><path class="cls-5" d="M284.91,159.44l.53,0-.53,0" transform="translate(0 -48.68)"/><path class="cls-10" d="M284.42,156.83l-.68.06-3.3-1.34.27-.92,1.77-1.86a8,8,0,0,0,.4,1.17c.52,1,1.2,1.7,2.42.92-2.22-2.39,2.66-3,1.31-5.14,1.12,1.25.18,2.48,0,3.72l-1,.1-.14,0,.14,0h1c-.29,1.18-.23,2.56-1.75,3l-.43.31Z" transform="translate(0 -48.68)"/><path class="cls-5" d="M257.35,163.25l-6,5.18-1.07-.9-3.38-2.87c2.83-3.24,6.67-2.59,10.31-2.7l.14,1.29" transform="translate(0 -48.68)"/><path class="cls-5" d="M245.76,164.17l1.15.47-1.15-.47" transform="translate(0 -48.68)"/><path class="cls-9" d="M242.49,154.72c1.21-.53,1.69-2.74,3.64-1.61l-3.64,1.61" transform="translate(0 -48.68)"/><path class="cls-9" d="M246.66,152.71l1.07-.53-1.07.53" transform="translate(0 -48.68)"/><path class="cls-5" d="M257.62,161.07l-.45.9.45-.9" transform="translate(0 -48.68)"/><path class="cls-9" d="M240,156.67l.17,0-.17,0Z" transform="translate(0 -48.68)"/><path class="cls-6" d="M277.95,141.91l2.58,2.38c-1,1.12,0,1.54.73,2.07.91.69,1.26,0,1.62-.66l2,2.51-1.26,2.61c-1.2.5-2.32,1.14-3.4-.42-.22-.33-1.82-.19-2.32.25-1.16,1,.62.62.74,1.12a6.74,6.74,0,0,0,.36.92c-.34.06-.76.27-1,.15-1.35-.73-2.66-1.54-4-2.32,1.34-.82-2.76-3.29,1-3.39.08,0,.25-.72.21-.74-3.89-1.78-2.68-4-.59-6.34l.4-.85,1.8-1.15.37.46c-1.17,1.4-.4,2.43.66,3.41" transform="translate(0 -48.68)"/><path class="cls-9" d="M283.67,150.82l1.26-2.61.85-1.12.49.48-.11.16.46,2h0c1.35,2.17-3.53,2.75-1.31,5.14-1.22.78-1.9.09-2.42-.92a8,8,0,0,1-.4-1.17l1.18-1.94" transform="translate(0 -48.68)"/><path class="cls-9" d="M275.13,139.2l-.4.85-.1,0,0-.1c-.87.26-2.2-.06-2,1.58l-.79.8c-.55-.81-2.92-.14-2.12-1.24,1.06-1.44,2.86-3.35,5.36-1.86" transform="translate(0 -48.68)"/><path class="cls-10" d="M272.68,141.5c-.24-1.64,1.1-1.32,2-1.58l-2,1.58" transform="translate(0 -48.68)"/><path class="cls-6" d="M276.83,154.15l-.05-.74c.14,0,.38,0,.4,0a3,3,0,0,1,.13.64l-.48.07" transform="translate(0 -48.68)"/><path class="cls-5" d="M277.29,138.51l-.37-.46,2-.63.17.45-1,.48-.84.16" transform="translate(0 -48.68)"/><path class="cls-6" d="M278.92,137.42l1.49-.42c0,.12,0,.23,0,.35l-1.31.51-.17-.45" transform="translate(0 -48.68)"/><path class="cls-9" d="M278.55,134.33c-.1,0-.22.11-.28.07s-.07-.17-.1-.27.21-.11.27-.08.07.17.1.27" transform="translate(0 -48.68)"/><path class="cls-9" d="M247.9,149.61c-2.55.83-4.42,4.77-7.82,1.71,2.7-.15,4.74-3.31,7.82-1.71" transform="translate(0 -48.68)"/><path class="cls-5" d="M257.57,163.52l-.22-.29Z" transform="translate(0 -48.68)"/><path class="cls-10" d="M286.62,149.74l-.46-2Z" transform="translate(0 -48.68)"/><path class="cls-9" d="M285.58,153.54l1-.1,0,.07h-1Z" transform="translate(0 -48.68)"/><path class="cls-5" d="M286.26,147.57l-.49-.48.24-.29.25.77" transform="translate(0 -48.68)"/><path class="cls-5" d="M284.43,156.85l.43-.31-.43.31" transform="translate(0 -48.68)"/><path class="cls-9" d="M277.29,138.51l.84-.16.55,1.47-.58.43,0,.71.33.42-.45.53c-1.06-1-1.83-2-.66-3.41" transform="translate(0 -48.68)"/><path class="cls-5" d="M282.88,145.7c-.36.65-.71,1.35-1.62.66-.69-.53-1.7-.95-.73-2.07l2.35,1.41" transform="translate(0 -48.68)"/><path class="cls-10" d="M278.68,139.82l-.55-1.47,1-.48,1.31-.51-1.72,2.46" transform="translate(0 -48.68)"/><path class="cls-10" d="M278.06,141l0-.71,0,.71" transform="translate(0 -48.68)"/><path class="cls-9" d="M285.58,153.52l-.14,0,.14,0Z" transform="translate(0 -48.68)"/><path class="cls-9" d="M384.89,52.64l5.9-2.9.63-.24a3.28,3.28,0,0,1,.37-.08c0,.14.06.32,0,.43a15.08,15.08,0,0,0-1.85,5.07c-.09.56-.74.06-1,.35.4.06,1,0,1.16.2A15.13,15.13,0,0,1,392,58.61c.7,1.74,3.12,2.52,2.68,4.86-2,2-3.51,4.18-3.67,7.1-.7,1.27-.19,3.33-2.38,3.64-2.56.32-4,1.94-4.74,4.9-.25,1.05-.17,2.35-1.38,3a2.26,2.26,0,0,0,.07-1.82c-.14-.36-.37-.71-.12-1.11.12-.19.28-.35,0-.57s-.74-.11-1.08,0c-.12,0-.21.35-.2.53a7.47,7.47,0,0,1-.25,3.18c-.3.85-.75,1.64-1.14,2.46l-.08.22a3.38,3.38,0,0,0-2,1.71l-.14.16-.22.3a3.28,3.28,0,0,0-1.72,1.33l-.06.1-.46.29-.74.29a26.91,26.91,0,0,0-2.7-.34c-.72,0-1.2-.94-2.08-.43-.34.2,0,.83-.52.67s-1,.17-1.52.18-1,.82-1.23.4c-.34-.65-.83,0-1.09-.36-.47,1.08-1.25.48-1.8.22a3.61,3.61,0,0,1-2.33-2.49l.21,0,.46-.21h.15a3.4,3.4,0,0,0,2.32-.82h.07c.48-.12,1-.18,1.27-.67l.07-.08.15-.15.08-.14.14-.15.15-.15.07-.07c1.39-.16,2.79-2.34,4.18,0,.14,1.51,1.63,1.61,2.47,2.39.56.47,1.12.94,1.67,1.43a1.24,1.24,0,0,1,.19.32c.1-.08.27-.15.27-.24a.71.71,0,0,0-.14-.42c-.6-.89-1.83-1.23-2.07-2.44s-.82-2.34.63-3.27c1.28-.82,2.56-1.76,2.74-3.47.09-.85,0-1.72.16-2.56.3-1.88,1.82-3,2.91-4.35.11-.14.44-.24.13-.49s-.4-.08-.56.16a.74.74,0,0,1-.9.38c-.38-.13-.37-.43-.31-.73a3.26,3.26,0,0,1,2.47-2.86c2-.48,3.07-2,3.85-3.84.6-1.4.26-2.83.29-4.25,0-.68-.68-1.44,0-2s2-.68.53-1.8c-.17-.12-.22-.4-.33-.61.06,0,.14,0,.19,0a27.45,27.45,0,0,0,2.57,1c.71.19,1.32-.34,2-.59.07,0,.1-.12.15-.19a12.8,12.8,0,0,0-1.28-.52,5.3,5.3,0,0,0-.8,0c-.77-.09-1.54-.23-2.32-.3-.12,0-.24.44-.42.21s0-.52,0-.76.39-.17.52-.1a6.7,6.7,0,0,0,3,.71,1,1,0,0,0,.23,0,.91.91,0,0,0-.22-.1c-1.57-.21-2.32-1.4-3.12-2.55" transform="translate(0 -48.68)"/><path class="cls-9" d="M362.66,65.42l.08-.16.34,0a4.25,4.25,0,0,0,2.56,3c.49.26,1.06.67,1.47.25s-.37-.58-.6-.86c-.55-.67-1.16-1.29-1.72-1.95a1.41,1.41,0,0,1-.17-.47c.16,0,.34-.17.47-.13,1,.3,1.91-.13,2.87-.1.16,0,.32-.15.47-.23-.06-.06-.1-.15-.17-.18-1.31-.66-2.63-1.32-3.95-2-.78-.38-1.64-1.59-1.36-1.94L366.48,63l1.46,1,.09,0,.13.06c2,1.45,2.65,3.62,3.3,5.81-.3.5-.41,1.32-1.32.78l-.06.17c.86.2,1.18,1,1.8,1.53.64,2.29,0,4.57,0,6.86-.52-.16-.73-.37-1.42.28A7.17,7.17,0,0,0,368,83.07a5.52,5.52,0,0,0-3.13,1.11,10.42,10.42,0,0,1-5.44,2.88C359,86,358.48,85,358,83.88c-.22-.52-.66-1-.46-1.65A22.54,22.54,0,0,1,360.36,76c1.16-1.76.93-4.06,1.56-6.07a11.2,11.2,0,0,0,.74-4.54" transform="translate(0 -48.68)"/><path class="cls-6" d="M368.16,64.07,368,64l-.09,0-1.46-1a7.81,7.81,0,0,0-3.23-2.37c.23,0,.47.08.7.15a9.28,9.28,0,0,0,2.94.8c2.13-.16,4,.62,5.94,1.17.48.14,1.91,1,1.62-.82a1.6,1.6,0,0,1,.11-.53c.1.12.19.25.29.36s.12.09.15.07.16-.11.17-.18c0-.46,0-.91.06-1.37s-.08-.84.52-.77,1.45.25,2.16.39a7.3,7.3,0,0,0,1.9.4,2.33,2.33,0,0,0,2.22-1.5l.07.08c.17-.89,1.08-1.61.61-2.65l.14,0s0,0,0-.06l-.42-.32,1.12-1,.1.66c0,.09,0,.17,0,.26a.52.52,0,0,0,0-.1q.08-.86.15-1.73c.27-.49.38-1.11,1-1.29.79,1.15,1.55,2.35,3.11,2.55a.91.91,0,0,1,.22.1.94.94,0,0,1-.23,0,6.7,6.7,0,0,1-3-.71c-.13-.07-.49,0-.52.1s-.16.6,0,.76.3-.22.42-.21c.77.07,1.54.21,2.32.3a5.24,5.24,0,0,1,.8,0,12.91,12.91,0,0,1,1.28.52c0,.06-.09.16-.15.19-.64.26-1.24.79-2,.59-.88-.24-1.71-.65-2.57-1-.05,0-.13,0-.19,0,.11.21.16.48.33.61,1.51,1.13.1,1.28-.53,1.8s0,1.34,0,2c0,1.43.31,2.85-.29,4.25-.77,1.8-1.82,3.35-3.85,3.84a3.26,3.26,0,0,0-2.47,2.86c-.07.3-.07.6.3.73a.74.74,0,0,0,.9-.38c.16-.23.31-.37.56-.16s0,.35-.13.49c-1.09,1.37-2.61,2.47-2.91,4.35-.14.84-.07,1.71-.16,2.56-.18,1.72-1.46,2.65-2.74,3.47-1.45.93-.87,2.08-.63,3.27s1.47,1.56,2.07,2.44a.71.71,0,0,1,.14.42c0,.09-.18.16-.27.24a1.19,1.19,0,0,0-.19-.32c-.55-.48-1.11-1-1.67-1.43a8.34,8.34,0,0,1-.44-1.43,27.41,27.41,0,0,1,.47-7,20.34,20.34,0,0,1,3-9A14.63,14.63,0,0,0,377,68.22a2.23,2.23,0,0,1,1.71-1.37c1.57-.17,1.93-.39,1.36-1.19-.23-.32-.53-1-1-.7C377,66.5,375,68.14,373,69.74a3.82,3.82,0,0,1-.49.28,2.48,2.48,0,0,0,.11-.38,5.85,5.85,0,0,1,4.79-4.36c-.89.78-2.19,1.08-2.65,2.34a2,2,0,0,0-.06.29c.1,0,.23,0,.3-.07a15.12,15.12,0,0,0,2.83-2.48c0-.06.08-.13.12-.19l-.25,0A18,18,0,0,0,379.14,64a5.84,5.84,0,0,0,.73-1s0-.06,0-.09c-.18.23-.34.47-.53.68a.8.8,0,0,1-.36.17c-1.41.41-2.8.9-4.24,1.21s-3,1.19-4.57-.05a2.85,2.85,0,0,0-2-.86m15.55-6.21-.12-.13c-.21.25-.41.5-.61.75,0,0,.11.14.15.13a.61.61,0,0,0,.57-.75m-.52-1.76h0v0h0v0" transform="translate(0 -48.68)"/><path class="cls-6" d="M415.71,65.48l-.29.3c-.3.18-.62.34-.9.55-.92.69-1.75,1.69-2.78,2-.77.24-1.86-.29-2.72-.68-2.52-1.14-3.4-3.8-5.11-5.69-1-1.1-1.52-3.05-3.73-2.28-1.2.42-1.55-.3-1.65-1.37,0-.3.25-1-.5-1,.31-.74-.48-.47-.68-.74.21-.16.77.2.66-.12A5.6,5.6,0,0,0,397,55c0-.05-.14-.05-.22-.07s0,.22,0,.34q0,.42,0,.83c-.13,0-.31,0-.37-.07-.52-.7-1-1.43-1.53-2.14a16.56,16.56,0,0,1,3.17-2.52c1.18-.55,2.33.57,3.52.87a15.61,15.61,0,0,1,1.81.69,13.13,13.13,0,0,1-1.83,1.53c-1,.57-1.48,1.22-.93,2.35-.3-.06-.38-.26-.38-.54,0-.7.34-1.38,0-2.1-.4-.87-.43-2-1.19-2.61s-1.36.12-1.7.71a1.65,1.65,0,0,0,.41,1.89c1.74,1.68,2.89,3.91,5.13,5.15A37.39,37.39,0,0,0,407,61.78c1.88.75,3.67,1.72,5.52,2.52,1,.44,1.81,1.68,3.2,1.11v.07" transform="translate(0 -48.68)"/><path class="cls-6" d="M361.09,87.05a3.61,3.61,0,0,0,2.33,2.49c.55.26,1.33.86,1.8-.22.27.34.75-.29,1.09.36.22.43.73-.39,1.23-.4s.94-.39,1.52-.18.18-.47.52-.67c.88-.51,1.36.41,2.08.43a26.81,26.81,0,0,1,2.7.34l-4.2,2.33c-.12.07-.28.22-.26.31s0,.51.35.5a6.32,6.32,0,0,1,.07.9c0,.64,1.05,1.36,0,1.91-2.11,1.08-.43,1.23.36,1.62a.83.83,0,0,1,.34.28.47.47,0,0,1,0,.37.46.46,0,0,1-.27.26c-.65.1-1.32.12-2,.27a3.78,3.78,0,0,0-1,.54,6.14,6.14,0,0,0,.93.09c.73,0,1.45-.12,2.18-.19a2.51,2.51,0,0,1-3,.46,2.35,2.35,0,0,0-2.53.46,2.56,2.56,0,0,0-.45,2.2l-.5.21c.08-.85.1-1.7.25-2.54s.82-.71,1.39-.8,1.19-.19,1.78-.31a.42.42,0,0,0,.25-.18s-.07-.17-.14-.22A2.76,2.76,0,0,1,367,96c-.24-.24.43-.68-.4-.93a5,5,0,0,1-3.35-3.85c0-.09-.17-.28.1-.23a1.88,1.88,0,0,1,.4.17,3.42,3.42,0,0,0-.46-.39c-.35-.21-.71-.39-1.07-.58l-.16-.08h0a12.62,12.62,0,0,0-3.58-1.42c.95-.42,2-.66,2.61-1.63m8.28,5.82c0-.66-.08-.85-.25-.79-1,.35-2.18.54-2.11,2,0,.17.42.51.51.47a3.06,3.06,0,0,0,1.85-1.67m-.52,4.92c.35,0,.43-.16.26-.35-.34-.37-.68-.9-1.11-1s.5-.71-.21-.45a.48.48,0,0,0-.33.65,2.71,2.71,0,0,0,1.38,1.15m-4.55-6.18a.6.6,0,0,0-.11-.12s-.06,0-.09,0a.46.46,0,0,0,.07.11s.06,0,.12,0m4.08,3.94a.72.72,0,0,0-.1.12s0,0,.06.07a.57.57,0,0,0,.1-.09s0-.05-.06-.1" transform="translate(0 -48.68)"/><path class="cls-6" d="M381.31,50.49l.16,2.68.06.16.52,2.09v.3c0,.13-.16.31-.11.39a2.48,2.48,0,0,1,.12,2.07c-.16-2.13-1.45-.87-2.34-.77-.24,0-.51.38-.71,0s.17-.52.4-.66a5.83,5.83,0,0,1,.92-.39c.21-.08.5,0,.53-.35a.56.56,0,0,0-.45-.64c-1.32-.33-2.64-.64-4-1-.07,0-.16,0-.24.05a.71.71,0,0,0,.19.14l3.21.92.16.07c0,.05-.09.15-.13.15-2.06-.11-3,2-4.72,2.46a.55.55,0,0,0-.34.36c0,.1.2.24.33.35a1.18,1.18,0,0,0,.22.13c-.14.21-.29.61-.41.6a4,4,0,0,0-2.32.37c-.61.32-1.22.67-1.82,1l1.86.67a.71.71,0,0,1,.16.12s-.09,0-.13,0l-5.64-1.33c1.39-.42,2.8-.83,4.18-1.28a.88.88,0,0,0,.73-1c2.16-.41,2.71-2.48,3.95-3.84.32-.36-.18-.82-.33-1.22-.37-1-.59-2,.88-2.28.91-.21.91-1.23,1.47-1.75.61.1,1.24.46,1.8-.14h1.71a3.06,3.06,0,0,1-.52.61c-.59.41-1,1.1-1.75,1.23-.1,0-.25-.23-.37-.36a3.2,3.2,0,0,0,0,.77c0,.06.35.08.53.07a2.75,2.75,0,0,0,2.2-.9" transform="translate(0 -48.68)"/><path class="cls-11" d="M415.7,65.41c-1.39.57-2.17-.66-3.2-1.11-1.86-.8-3.65-1.77-5.52-2.52a37.38,37.38,0,0,1-4.05-2.46c-2.25-1.24-3.39-3.47-5.13-5.15a1.65,1.65,0,0,1-.42-1.89c.34-.59.88-1.41,1.7-.71s.78,1.74,1.19,2.61c.33.72,0,1.4,0,2.1,0,.28.08.49.39.54h.06l.15.14.15.08.15.14c.49.51.79.37,1-.26.11-.34.26-.66.4-1,2.23-.65,4.42-1,6.58.36,1.92,1.18,2.12,3,2.11,5,0,.42.25,1.06-.63.77,0,0-.07,0-.1,0l.13.05a10.18,10.18,0,0,0,1.92.41c1.91.05,2.79,1.16,3.16,2.86M408,61.47c.52.09,1.35.57,1.5.14a3.74,3.74,0,0,0-2.31-4.37c-1.49-.54-2.87,0-4.28.33a6.69,6.69,0,0,1-.87.12c.29.51,1,.66,1.11,1.33,0,0,.29,0,.44.05,1.3,1.1,2.48,2.44,4.4,2.4" transform="translate(0 -48.68)"/><path class="cls-6" d="M394.67,63.47c.43-2.34-2-3.12-2.68-4.86a15.18,15.18,0,0,0-1.92-3.13c-.17-.23-.76-.14-1.16-.2.29-.29.93.2,1-.35a15.08,15.08,0,0,1,1.85-5.07c.06-.11,0-.28,0-.43a3.21,3.21,0,0,0-.37.08l-.63.24c.68-.54,1.28-1,1.47.42.22,1.64,1.91,2.47,2.35,4l.73,2.3-1.26.15h-.26a4.4,4.4,0,0,1,.78.61c2.06,2.53,2.06,2.54,3.36.72a6.72,6.72,0,0,1,.27.87c.2,1.17.33,2.34-.84,3.12-.61.4-1.47.33-1.95,1-.15.23-.5.33-.76.48m-1-9c-.73.32-1.61.7-2.47,1.11,0,0-.38-.07-.19.24.44.7.83,1.43,1.28,2.13.14.22,0,.64.47.65-.1-.3-.19-.61-.3-.91-.2-.5-.87-1-.56-1.45s1,0,1.49.17c.26.07.7,0,.82-.12s.8-.51.51-1a1.23,1.23,0,0,0-1-.78" transform="translate(0 -48.68)"/><path class="cls-11" d="M366.83,60.55l5.64,1.33s.09,0,.13,0a.74.74,0,0,0-.16-.12l-1.86-.67c.61-.34,1.21-.69,1.82-1a4,4,0,0,1,2.32-.37c.12,0,.27-.39.41-.6a1.25,1.25,0,0,1-.22-.13c-.12-.11-.34-.25-.33-.35a.55.55,0,0,1,.35-.36c1.75-.48,2.66-2.57,4.72-2.46,0,0,.09-.1.13-.15l-.16-.07-3.21-.92a.71.71,0,0,1-.19-.14c.08,0,.16-.07.23-.05,1.32.31,2.65.62,4,1a.56.56,0,0,1,.45.64c0,.34-.32.27-.53.35a5.82,5.82,0,0,0-.92.39c-.24.14-.63.29-.4.66s.47,0,.71,0c.89-.11,2.18-1.36,2.34.77l0,.29-.17.08.17.08v.21a2.33,2.33,0,0,1-2.22,1.5,7.28,7.28,0,0,1-1.9-.4c-.72-.15-1.44-.3-2.16-.39s-.51.4-.52.77,0,.91-.06,1.37c0,.07-.1.14-.17.18s-.11,0-.15-.07-.19-.24-.29-.36a1.6,1.6,0,0,0-.11.53c.28,1.86-1.14,1-1.62.82-2-.55-3.8-1.33-5.94-1.17a9.28,9.28,0,0,1-2.94-.8c-.23-.07-.46-.1-.7-.15l-.22,0c0-.09,0-.19,0-.28l2.42.08,1.39.14" transform="translate(0 -48.68)"/><path class="cls-11" d="M362.66,65.42a11.2,11.2,0,0,1-.74,4.54c-.63,2-.4,4.31-1.56,6.07a22.54,22.54,0,0,0-2.78,6.21c-.2.7.24,1.13.46,1.65.44,1.07.94,2.12,1.42,3.18l-1.9,1.34c-.06-2.89-1.75-5.55-.19-8.71,2.07-4.2,3.44-8.75,5.09-13.16a6.19,6.19,0,0,0,.2-1.12" transform="translate(0 -48.68)"/><path class="cls-6" d="M363,60.33v.28l-.07,0c-.28.35.58,1.56,1.36,1.94,1.32.64,2.63,1.31,3.95,2,.07,0,.11.12.17.18-.16.08-.32.23-.47.23-1,0-1.9.4-2.87.1-.13,0-.31.09-.47.13a1.4,1.4,0,0,0,.17.47c.56.66,1.17,1.28,1.72,1.95.23.28.89.57.6.86s-1,0-1.48-.25a4.25,4.25,0,0,1-2.56-3l-.33,0c1.54-1.46.47-2.89,0-4.33-.1-.26-.06-.55.33-.6" transform="translate(0 -48.68)"/><path class="cls-9" d="M362.21,90.18c.36.19.72.37,1.07.58a3.46,3.46,0,0,1,.46.39,1.86,1.86,0,0,0-.4-.17c-.27-.05-.12.14-.1.23a5,5,0,0,0,3.35,3.86c.82.25.16.69.4.93-.25.71-.25.71-1.6.06-2.41-1.15-3.28-3.32-3.76-5.73-.07-.35.27-.16.43-.22h0l.16.08" transform="translate(0 -48.68)"/><path class="cls-6" d="M357.56,88.41l1.9-1.34a10.4,10.4,0,0,0,5.44-2.88A5.51,5.51,0,0,1,368,83.07c.09.22,0,.35-.19.48-.55.32-1.07.68-1.61,1l-.07.07-.15.15h0l-.14.15-.08.14-.15.15-.07.08-1.27.67h-.07l-2.32.82h-.15l-.46.21-.21,0c-.61,1-1.67,1.21-2.61,1.63-.31-.06-.7.12-.91-.28" transform="translate(0 -48.68)"/><path class="cls-5" d="M400.7,56.84h-.06c-.56-1.13-.06-1.77.93-2.34A13.25,13.25,0,0,0,403.39,53c.48,1-.45,1.65-.65,2.48a4.29,4.29,0,0,1-.2.52c-.13.33-.29.65-.4,1-.2.63-.5.77-1,.26l-.15-.14-.15-.08Z" transform="translate(0 -48.68)"/><path class="cls-11" d="M366.83,60.55l-1.39-.14c-.19-.4-.11-.62.37-.68a33.13,33.13,0,0,0,5.93-1.42.88.88,0,0,1-.73,1c-1.39.45-2.79.86-4.18,1.28" transform="translate(0 -48.68)"/><path class="cls-9" d="M364.46,101.74l.5-.21h.59a5.38,5.38,0,0,1,3.43.74l.26.17c-.18.1-.35.2-.54.29-1.42.63-2.69-.3-4-.37l-.2-.61" transform="translate(0 -48.68)"/><path class="cls-5" d="M395.33,56.46l-.73-2.3.29-.26c.5.72,1,1.44,1.52,2.14.05.07.24,0,.37.07,0-.28,0-.55,0-.83,0-.11,0-.22,0-.34s.18,0,.22.07a5.61,5.61,0,0,1,1,1.47c.11.33-.45,0-.66.12l-.43.06q-.16-.3-.32,0c-.42-.09-.9.22-1.27-.21" transform="translate(0 -48.68)"/><path class="cls-11" d="M381.31,50.49a2.75,2.75,0,0,1-2.2.9c-.18,0-.52,0-.53-.07a3.2,3.2,0,0,1,0-.77c.13.13.27.38.37.36.77-.13,1.16-.82,1.75-1.23a3.06,3.06,0,0,0,.52-.61c.75.42,0,.94.08,1.4" transform="translate(0 -48.68)"/><path class="cls-11" d="M382.05,55.71c0-.1,0-.2,0-.3-.12-.86.48-1.25,1.09-1.61.22-.13.64-.78.71.13-.05.58-.1,1.15-.15,1.73a.5.5,0,0,1,0,.1c0-.09,0-.17,0-.26s-.07-.44-.1-.66l-1.12,1,.42.32s0,0,0,.06l-.14,0a.72.72,0,0,1-.65-.55" transform="translate(0 -48.68)"/><path class="cls-11" d="M379.52,49.07c-.56.6-1.19.24-1.8.14a1.11,1.11,0,0,1,1.8-.14" transform="translate(0 -48.68)"/><path class="cls-9" d="M381.53,53.32l-.06-.16.06.16" transform="translate(0 -48.68)"/><path class="cls-5" d="M402.4,109.45c-3.51-.65-3.46.77-7.06,1.07-1,.08-2.65,3.61-3.37,3a7.77,7.77,0,0,0-3.33-1.81,1,1,0,0,1-.25-.16,1,1,0,0,1,.28,0c1.56.15,2.14-1.06,2.88-2.06,0,0-.05-.13-.07-.13-.46.09-.94-.19-1.4.15s-.28,1.26-.94,1.6a1.82,1.82,0,0,1-1.84.07,1.4,1.4,0,0,0-1.1-.17,6.06,6.06,0,0,1-4.1-.89c-2.28-1.25-4.83-1.48-7.24-2.24a1.76,1.76,0,0,1-1.24-2c0-.73.55-.53,1-.54,0,0,0,.09,0,.13a1.35,1.35,0,0,0-.14,1.2,2.1,2.1,0,0,0,.16.47s.11,0,.16,0a2,2,0,0,1-.11-.41c0-.14-.28-.33.16-.39,2.43-.31,5.26.78,7.09-1.68.55-.73.67.93,1.32-.1.78-1.25,2.1-2.42,2.33-3.76a4.1,4.1,0,0,1,2.3-3c1.23-.7,1.86-1.6,1-2.69-1.4-1.86-3.09-3.5-4.66-5.24l-.26-.17c-1.48-1-2.49-.07-3.5.87l-.3.23c-.31-.14-.11-.3,0-.42l2.83-3a.24.24,0,0,0,0-.06c.84-.6,1.64-1.25,2.52-1.77a1.64,1.64,0,0,0,.24-2.74c0-.09,0-.18,0-.27s.17-.16.25-.25c.82-.91.85-2.19,1.46-3.2.17-.28.39-.77-.07-.95-.29-.12-.66.14-.89.46s-.28.82-.67,1.24c-1.81,2-3.43,4.1-5.13,6.17-1,1.21-2,2.46-3.07,3.56a7.29,7.29,0,0,1-2,1h-.07c-.4.12-.81.23-1.21.37l-4,1.41-.15.08c-.36,0-.32-.3-.35-.5s.15-.25.26-.31l4.2-2.33.74-.29c.21,0,.48.08.46-.29l.06-.1a3.83,3.83,0,0,0,1.72-1.33l.22-.3.14-.16,2-1.71.08-.22a8,8,0,0,1,.9-1.09c.61-.53.87-1.44,1.79-1.61,1.2-.65,1.13-1.95,1.38-3,.7-3,2.18-4.58,4.74-4.9-.54.33-1.1.64-1.62,1a3,3,0,0,0-.52.58s0,.06,0,.1a5.79,5.79,0,0,0,.55-.26c.31-.19.6-.39.89-.59.13-.09.23-.22.37-.31.42-.29.59,0,.58.33s-.32.57-.67.75a3.94,3.94,0,0,0-.87.74s.08.24.15.26c1.43.29,2.87.57,4.31.85.38,0,.83.46,1-.23l1-.75.29.24.3.29.37.3a2.36,2.36,0,0,1-2,1c-.83.1-1.81-.14-2.32.86-.07.13-.13.31-.24.36s-.23-.15-.36-.18c-.61-.14-.63-1.83-1.48-.86-1,1.21-1.09,3-1.24,4.51-.13,1.36.9,2.78-.17,4.16-.48.63-.86,1.34-1.28,2l-.35.14c0-.14.06-.28.1-.42l.77-2.63v-.21c.12-.31.24-.62.35-.93,0,0,0-.07-.08-.11l-.43.36-.15.15a22.34,22.34,0,0,0-1.64,1.71c-.17.22-1,.34-.35.9a8,8,0,0,0,3,2.52c2.63,1.26,5,3.46,8.29,2.37.39-.08.13-.38.2-.57l.92-6.27.54.09c-.45.56,0,1,.2,1.46,1,1.32,2,2.63,2.94,4,.34.47.76.35,1.15.19a.83.83,0,0,0,.45-.86c.1-.36.13-.77.53-1a2.63,2.63,0,0,1,.7-.12,13.05,13.05,0,0,0,3.4-.47l.67-.53a14.7,14.7,0,0,0,2.74-3.3l.09-.23c.46.11.91.22,1.37.31.09,0,.2-.06.3-.09s0-.1-.06-.11l-1.52-.55-.23-.14c-.07-.14-.24-.38-.2-.42A4.69,4.69,0,0,0,411,82.39c.29-1.29,1.16-2.46.87-3.88-.12-.58-.68-.73-1.17-.92,0,.24.09.47.13.71a.87.87,0,0,1,0,.25c0-.06-.12-.11-.14-.17-.75-2.38-2-4.6-2.19-7.15l-.23-.38-1.15-2.39-.2-.37-.67-.68h-.07l-2.89-2.22c-.74-.58-1.37-1.43-2.51-1.09l-2.37.3c-.79.16-1.84-.13-2.23.83-.47,1.17-1.2,2.22-1.1,3.69,0,.75-1,1.68-1.71,2.31-.25.21-1.09-.29-1.66-.45l-.7-.19c.15-2.92,1.7-5.11,3.67-7.1.26-.16.61-.25.76-.48.48-.71,1.34-.64,1.95-1,1.17-.78,1-2,.84-3.12a6.74,6.74,0,0,0-.27-.87l.08-.59c.74,0,.47.67.5,1,.1,1.07.45,1.79,1.65,1.37,2.21-.77,2.74,1.18,3.73,2.28,1.71,1.89,2.6,4.55,5.11,5.69.86.39,1.95.91,2.72.68,1-.32,1.85-1.32,2.78-2,.28-.21.6-.37.9-.56l-.43.81h0l-.19.16-1.24,1.53c.34.11.68.21,1,.34,1.28.47,2.78.31,3.91,1.19,1.74,1.36.45,2.58-.32,3.77a8,8,0,0,0-1.29,2.32c0,.08-.12.15-.17.22a4.55,4.55,0,0,1-.34-.32c-1.4-1.57-2.83-3.08-5.2-2.86a3,3,0,0,0-.31.06c.09,0,.25,0,.27,0,.2.38.36.77.57,1.15,1.41,2.49,2.13,5.37,4.32,7.4.09.08.1.25.15.37l-.3-.23c-2.81-1.95-3.75-5.1-5.14-8-.17-.36-.48-.23-.72-.34l.18.37A36.39,36.39,0,0,0,416.1,83a3.33,3.33,0,0,1,.41.81c-.17-.07-.37-.22-.51-.18a1.17,1.17,0,0,0-.59.4c-.08.11,0,.35,0,.52.21,0,.42,0,.62,0s.42-.07.63-.11c0,.28.05.56.09.85s0,.46.1.51c.31.15.25-.21.28-.33a2,2,0,0,0,0-1.52,1.09,1.09,0,0,1,0-.4s.11,0,.12,0c.21.49.93.85.66,1.44-1,2.18.68,3.73,1.24,5.52-.1,3.43-14.32,18.93-16.76,18.93m-8.18,1.62h0l.38.21h.14l1.19.23h.14l.17.12h.14c1.24.27,2.48.55,3.72.81,1.07.22,2.21.59,2.55-1a13,13,0,0,0,1.1-1.83c.36-.91,1.76-2-.35-2.64l-.31-.13-.21,0c.11-.77.6-.18.91-.25a4.63,4.63,0,0,1,.63-.06,3.13,3.13,0,0,0-.31-.46,2.82,2.82,0,0,1-.94-2.26c0-.34,0-.68,0-1l-1,.77c-1.46,1.14-2.1,3-3.81,4-1.95,1.1-4.32,1.25-6,2.83a2.79,2.79,0,0,1-.41.26c.44.15.89.31,1.34.44.05,0,.15-.12.22-.19h.14l.16.07h.21l.16.14m3-11.93s0-.12-.05-.13a25.78,25.78,0,0,1-5.59-3.07s-.16.08-.16.11a6.3,6.3,0,0,1-.31,2.5A4.38,4.38,0,0,0,391,99a1.81,1.81,0,0,0,.63,0,10.32,10.32,0,0,1,3-.19c.9,0,1.61,1.1,2.54.29a4,4,0,0,1-.52.48c-.83.54-1.91.7-2.33,1.85a15.21,15.21,0,0,1-3.57,5.78,5.31,5.31,0,0,0-.47.61c.28,0,.56-.06.84-.13a5.56,5.56,0,0,0,.86-.29,21,21,0,0,0,5.9-4.35c.42-.39.8-.82,1.2-1.23-.54-.09-1.09-.14-1.62-.27a7.62,7.62,0,0,1-1.05-.42s0-.07.06-.08a1.9,1.9,0,0,1,2.4.36c.1.1.37,0,.56,0,0,0,.07-.25,0-.29-.75-.69-1.51-1.37-2.27-2m11.72-6.49c.3,0,.56-.09.67-.41.21-.63.44-1.25.67-1.87.05-.15.12-.29.17-.44-.17.05-.36.18-.51.15-.82-.17-1.25.57-1.91.77a2.19,2.19,0,0,0-1.55,1,1.35,1.35,0,0,0,0,1.35c.22.39.49,0,.72,0,.69,0,1.06-.9,1.79-.55m-2.28,3.93c.93.06,1.61-.64,2.35-1.23a.28.28,0,0,0,0-.26.3.3,0,0,0-.24-.11c-.65,0-1.42,1-1.93-.27a1.57,1.57,0,0,0-1.09.23c-.18.25,0,.78.09,1.17a.63.63,0,0,0,.78.47m-3.69-.08c.05.7.15,1.26.45,1.16a2,2,0,0,0,1.26-1.76c.06-.42-.21-1.08-.49-1-.76.31-1.31.94-1.21,1.56m14.29-6.6-.7.39c.27.2.56.58.82.56a1.17,1.17,0,0,0,.83-.62c.12-.29-.21-.47-.95-.33m-9,8.07c.38-.26,1-.14,1.16-.71,0,0-.12-.19-.14-.18-.55.2-1.21.14-1.6.69l.58.2m-8,2.95a1.11,1.11,0,0,0-.69-1.09.74.74,0,0,0-.15.17c.36.39.77.76.73,1.36l.11-.45" transform="translate(0 -48.68)"/><path class="cls-6" d="M377.36,65.28a5.85,5.85,0,0,0-4.79,4.36,2.52,2.52,0,0,1-.11.38,3.77,3.77,0,0,0,.49-.28c2-1.6,4-3.24,6.07-4.78.47-.35.77.38,1,.7.57.79.21,1-1.36,1.19A2.24,2.24,0,0,0,377,68.22a14.51,14.51,0,0,1-1.05,1.36,20.34,20.34,0,0,0-3,9,27.44,27.44,0,0,0-.47,7,8.23,8.23,0,0,0,.44,1.43c-.84-.78-2.34-.88-2.47-2.39-.08-.39-.13-.78-.25-1.15-.22-.73-.83-1.56-.64-2.14a3.49,3.49,0,0,1,2.39-2.08c0-2.29.62-4.58,0-6.86l-.42-2.47c-.66-2.19-1.34-4.37-3.3-5.81a2.85,2.85,0,0,1,2,.86c1.54,1.24,3.07.39,4.57.05s2.83-.8,4.24-1.21a.8.8,0,0,0,.36-.17c.19-.21.36-.45.53-.68,0,0,0,.08,0,.09a5.78,5.78,0,0,1-.73,1,18.34,18.34,0,0,1-1.48,1.14l-.29.1" transform="translate(0 -48.68)"/><path class="cls-6" d="M391,70.57l.7.19c.57.17,1.41.66,1.66.45.73-.62,1.76-1.56,1.71-2.31-.1-1.46.63-2.51,1.1-3.69.39-1,1.44-.66,2.23-.83a3.61,3.61,0,0,0-1.46,1.42c-.14.23-.62.5-.16.62,1.8.48,1.2,1.62.85,2.71a1.1,1.1,0,0,1-.39.72c-.83.64-1.79,1.32-1.37,2.64a4.13,4.13,0,0,0,.45.79,5.15,5.15,0,0,1-1.14-.43c-.35-.23-.58-.65-.92-.91s-.56-.65-.86-.27-.61,1.18-1,1.72c-.7,1-1,2.39-2.61,2.47-.26,0-.71.24-.59.58s.49.41.79.53c.6.26,1.23.46,1.84.69-1.44-.28-2.87-.56-4.31-.85-.07,0-.17-.24-.15-.26a3.93,3.93,0,0,1,.87-.74c.35-.17.66-.34.67-.75s-.17-.62-.58-.33c-.13.09-.24.22-.37.31-.29.21-.59.41-.89.59a5.9,5.9,0,0,1-.55.26s0-.08,0-.1a3,3,0,0,1,.52-.58c.53-.36,1.08-.67,1.62-1,2.18-.31,1.68-2.37,2.38-3.64" transform="translate(0 -48.68)"/><path class="cls-6" d="M382.5,82.11c-.92.17-1.19,1.08-1.79,1.61a8,8,0,0,0-.9,1.09c.38-.82.83-1.61,1.14-2.46a7.47,7.47,0,0,0,.25-3.18c0-.18.08-.48.2-.53.34-.13.71-.33,1.08,0s.1.37,0,.57c-.25.4,0,.75.12,1.11a2.26,2.26,0,0,1-.07,1.82" transform="translate(0 -48.68)"/><path class="cls-6" d="M371.91,79.22a3.48,3.48,0,0,0-2.39,2.08c-.19.57.42,1.41.64,2.14.11.37.17.77.25,1.15-1.39-2.35-2.78-.17-4.18,0,.53-.34,1.06-.71,1.61-1,.23-.13.28-.26.19-.48a7.17,7.17,0,0,1,2.46-3.57c.69-.65.9-.44,1.42-.28" transform="translate(0 -48.68)"/><path class="cls-6" d="M379.73,85l-2,1.71a3.38,3.38,0,0,1,2-1.71" transform="translate(0 -48.68)"/><path class="cls-6" d="M377.35,87.2a3.84,3.84,0,0,1-1.72,1.33,3.28,3.28,0,0,1,1.72-1.33" transform="translate(0 -48.68)"/><path class="cls-6" d="M361.91,86.83l2.32-.82a3.39,3.39,0,0,1-2.32.82" transform="translate(0 -48.68)"/><path class="cls-6" d="M364.29,86l1.27-.67c-.28.49-.79.55-1.27.67" transform="translate(0 -48.68)"/><path class="cls-6" d="M375.57,88.62c0,.37-.25.28-.46.29l.46-.29" transform="translate(0 -48.68)"/><path class="cls-6" d="M361.3,87l.46-.21-.46.21" transform="translate(0 -48.68)"/><path class="cls-6" d="M377.57,86.9l-.22.3.22-.3" transform="translate(0 -48.68)"/><path class="cls-6" d="M365.64,85.26l.15-.15-.15.15" transform="translate(0 -48.68)"/><path class="cls-6" d="M365.86,85l.14-.15-.14.15" transform="translate(0 -48.68)"/><path class="cls-6" d="M366,84.81l.15-.15-.15.15" transform="translate(0 -48.68)"/><path class="cls-9" d="M384,89.62l.26.17c-.07.59.52.72.74,1.09a12.75,12.75,0,0,0,3.37,3.77.83.83,0,0,1,.23.5c.09.56-.34.21-.51.25-.67.18-1.36.3-2,.48-.12,0-.2.23-.3.35.12.05.25.15.36.14.77-.09,1.53-.2,2.3-.3h.24a1.92,1.92,0,0,1-.11.22,9.6,9.6,0,0,1-2.81,2.52c-2,1.35-2.8,4-5.56,4.48a8.71,8.71,0,0,0-3.07,1c-.67.4-1.54.47-2.06,1.16-.21.28-.34.15-.46-.07v-.13c-.66-.66-1.6-.57-2.39-.88a7.57,7.57,0,0,0-3.68-.73s-.07-.13-.11-.2l.6-.07c1.39,0,2.78.08,4.16.15a2.36,2.36,0,0,1,.82.21c.77.34,1.36.27,1.24-.72a1.71,1.71,0,0,1,.32-1.6l.4-2.44a18.16,18.16,0,0,0,2.7-1.92c.72-.73,1.92-1.33,1.86-2.48s.51-1.47,1.27-1.89a8,8,0,0,0,1.32-1c.08-.07-.09-.39,0-.53.28-.54.61-1,.91-1.57" transform="translate(0 -48.68)"/><path class="cls-5" d="M375.94,99l-.4,2.44c-1.5,1.32-3.52.79-5.2,1.48-.11,0-.27,0-.4-.05a3.09,3.09,0,0,1,.31-.15l4-1.36c.06,0,.09-.13.14-.19a.7.7,0,0,0-.26-.08c-1.75.18-3.08-1.07-4.69-1.37a4.69,4.69,0,0,1-1.86-.53s-.4.24-.42.39.26.13.41.19c.72.29,1.43.58,2.13.91.24.11.64.4.61.45-.15.34-.52.29-.83.31-1.31.07-2.64-.62-3.94.08H365a2.56,2.56,0,0,1,.45-2.2,2.35,2.35,0,0,1,2.53-.46,2.51,2.51,0,0,0,3-.46h.21l.45,0,.44-.08.39-.28.45-.45.64-.62.1-.2.36-.39.07-.08A2.65,2.65,0,0,0,375.2,95l1.26-.91,1-1.2,1.65-2,.22-.08h.61l-.06.29,0,.16.91.47c-.14,1.41-1.22,2.22-2.1,3.1-1.22,1.22-2.49,2.36-2.73,4.2" transform="translate(0 -48.68)"/><path class="cls-9" d="M414.79,66.75l.19-.16-.19.16" transform="translate(0 -48.68)"/><path class="cls-6" d="M371.46,69.89l.42,2.47c-.62-.48-.94-1.32-1.8-1.53l.06-.17c.91.54,1-.28,1.32-.78" transform="translate(0 -48.68)"/><path class="cls-5" d="M363,60.64l.07,0,.22,0A7.81,7.81,0,0,1,366.48,63L363,60.64" transform="translate(0 -48.68)"/><path class="cls-5" d="M367.94,64l.09,0-.09,0" transform="translate(0 -48.68)"/><path class="cls-9" d="M377.36,65.28l.29-.1.25,0c0,.07-.08.13-.12.19a15.09,15.09,0,0,1-2.83,2.48c-.07.06-.2,0-.3.07a2.17,2.17,0,0,1,.06-.29c.46-1.26,1.76-1.57,2.65-2.34" transform="translate(0 -48.68)"/><path class="cls-5" d="M382.05,55.71a.72.72,0,0,0,.65.55c.47,1-.44,1.76-.61,2.65l-.07-.08v-.21c0-.05,0-.11,0-.16l0-.3a2.48,2.48,0,0,0-.12-2.07c0-.08.07-.26.11-.39" transform="translate(0 -48.68)"/><path class="cls-5" d="M383.7,57.86a.61.61,0,0,1-.57.75s-.16-.12-.15-.13c.2-.25.4-.5.61-.75l.12.13" transform="translate(0 -48.68)"/><path class="cls-9" d="M383.18,56.1v0h0v0h0" transform="translate(0 -48.68)"/><path class="cls-11" d="M398,57.36l-.08.59c-1.3,1.81-1.29,1.81-3.36-.72a4.37,4.37,0,0,0-.78-.61h.26l1.25-.15c.36.43.85.12,1.27.21h.32l.43-.06c.2.27,1,0,.68.74" transform="translate(0 -48.68)"/><path class="cls-9" d="M374.07,96.3l-.07.08-.36.39-.1.21a.64.64,0,0,0-.64.62l-.45.45-.39.28-.44.08-.45,0h-.21c-.73.07-1.45.15-2.18.19a6.14,6.14,0,0,1-.93-.09,3.78,3.78,0,0,1,1-.54c.64-.15,1.3-.17,2-.27a.45.45,0,0,0,.27-.26.47.47,0,0,0,0-.37.83.83,0,0,0-.34-.28c-.79-.39-2.47-.55-.36-1.62,1.08-.55,0-1.27,0-1.91a6.33,6.33,0,0,0-.07-.9l.15-.08,1.71-.45a9.5,9.5,0,0,0,3.52-1.33h.07a7.48,7.48,0,0,0,4.06-2.36c1.79-2,3.44-4.16,5.18-6.22.24-.29.52-.91.93-.65s0,.78-.09,1.19c0,.09,0,.18,0,.27.13,1.26.07,2.41-1.21,3.16A10.8,10.8,0,0,0,383,87.22a.24.24,0,0,1,0,.06c-1.33,1.08-2.89,1.91-3.74,3.5l-.22.08a3.07,3.07,0,0,0-1.65,2h0a1.85,1.85,0,0,0-1,1.2L375.2,95c-.72.15-.77.87-1.13,1.33" transform="translate(0 -48.68)"/><path class="cls-9" d="M369.37,92.87a3.06,3.06,0,0,1-1.85,1.67c-.09,0-.5-.3-.51-.47-.07-1.45,1.11-1.64,2.11-2,.17-.06.25.13.25.79" transform="translate(0 -48.68)"/><path class="cls-9" d="M368.85,97.79a2.7,2.7,0,0,1-1.38-1.15.48.48,0,0,1,.33-.65c.71-.26-.27.34.21.45s.77.63,1.11,1c.17.19.09.34-.26.35" transform="translate(0 -48.68)"/><path class="cls-9" d="M364.3,91.61c-.06,0-.11,0-.12,0a.45.45,0,0,1-.07-.11s.07,0,.09,0a.6.6,0,0,1,.11.12" transform="translate(0 -48.68)"/><path class="cls-9" d="M368.38,95.56s.07.09.06.1a.57.57,0,0,1-.1.09s-.06-.06-.06-.07a.72.72,0,0,1,.1-.12" transform="translate(0 -48.68)"/><path class="cls-10" d="M362.21,90.18l-.16-.08.16.08" transform="translate(0 -48.68)"/><path class="cls-6" d="M403.62,59.07c-.15,0-.43,0-.44-.05-.11-.67-.82-.82-1.11-1.33a6.75,6.75,0,0,0,.87-.12c1.41-.38,2.79-.87,4.28-.33a3.74,3.74,0,0,1,2.31,4.37c-.16.44-1-.05-1.5-.14a4.26,4.26,0,0,0,0-.52,2.32,2.32,0,0,0-1.72-2.4,3,3,0,0,0-2.71.52" transform="translate(0 -48.68)"/><path class="cls-5" d="M403.62,59.07a3,3,0,0,1,2.71-.52A2.32,2.32,0,0,1,408,61a4.26,4.26,0,0,1,0,.52c-1.93,0-3.1-1.3-4.4-2.4" transform="translate(0 -48.68)"/><path class="cls-6" d="M401,57.06l.15.14-.15-.14" transform="translate(0 -48.68)"/><path class="cls-6" d="M400.7,56.84l.15.14Z" transform="translate(0 -48.68)"/><path class="cls-5" d="M393.64,54.47a1.23,1.23,0,0,1,1,.78c.29.53-.29.74-.51,1s-.56.19-.82.12c-.51-.14-1.22-.53-1.49-.17s.36.95.56,1.45c.12.3.2.61.3.91-.44,0-.33-.43-.47-.65-.45-.69-.84-1.43-1.28-2.13-.19-.31.15-.22.19-.24.87-.41,1.75-.79,2.47-1.11" transform="translate(0 -48.68)"/><path class="cls-6" d="M382,58.47c0,.05,0,.11,0,.16l-.17-.08.17-.08" transform="translate(0 -48.68)"/><path class="cls-6" d="M365.19,101.52h0" transform="translate(0 -48.68)"/><path class="cls-11" d="M396.91,56.67h-.32q.16-.3.32,0" transform="translate(0 -48.68)"/><path class="cls-9" d="M391.82,77.65c-.62-.23-1.24-.43-1.84-.69-.29-.12-.7-.29-.79-.53s.33-.56.59-.58c1.59-.08,1.91-1.49,2.61-2.47.38-.54.59-1.21,1-1.72s.62.09.86.27.57.67.92.91a5.15,5.15,0,0,0,1.14.43,4.12,4.12,0,0,1-.45-.79c-.41-1.31.54-2,1.37-2.64a1.11,1.11,0,0,0,.39-.72c.34-1.08.95-2.23-.85-2.71-.46-.12,0-.39.16-.62a3.61,3.61,0,0,1,1.46-1.42l2.37-.3c-.43.14.06.54-.29.84a6.72,6.72,0,0,0-1.68,2c-.63,1.22-.33,2.62-.4,3.94a.27.27,0,0,0,.11.18s.14,0,.15-.06c.15-.7,1-.68,1.31-1.28.6-1,1.58-1.82,1.87-3,.34-1.45.81-1.53,1.91-.49a17.29,17.29,0,0,0,3.15,1.92l.2.37c-.46,1.2.5,1.72,1.15,2.39l.23.38a3.54,3.54,0,0,1-.93.43c-1.34.19-2.77-.42-4,.46-.82.57-1.9.68-2.58,1.5l-.3,1-.37,2.61v.14l-.2.54c0,.07,0,.14,0,.21l-.07.17a3.6,3.6,0,0,1-1.21,2.6c-.69-.11-.54.76-1,.88l.36-.88h0l.14-.07h0l.15-.15h0l.11-.07,0,0,.1-.1.23-.35a2.22,2.22,0,0,0-.44.11q-.67.33-1.32.69a3.31,3.31,0,0,0-.42.33l.34.26.61.52c.19.17.46.31.56.52.2.4,1.17.39.86.7a4.73,4.73,0,0,0-.84,1.46c-.52,1-.09,2.43-1.17,3.27-.17-.47-.65-.9-.2-1.46l-.54-.09a4.7,4.7,0,0,1-1.09.84c-.65.25-.46.52-.31,1,.23.75.21,1.57.37,2.34s-.47,1.41.11,2.07c-.06.19.19.49-.2.57-.63-.35-.9-1.35-2-1-.43.14-.74-.2-1-.67-.4-.74-.21-1.62-.81-2.32A2.12,2.12,0,0,1,391,87c.46-1,0-1.94.16-2.9.15-1.19-.1-2.41.71-3.5s2-1.37,3.08-1.93l1-.5-1.11-.69-.37-.3c0-.22-.08-.32-.3-.29l-.29-.24L392.8,75.4c0,.39.06.78.07,1.16s0,.57,0,.86c-.21.69-.67.28-1,.23m6.23-1.28,1.39,2.52.15.25c0-.08.09-.18.06-.24-.69-1.56.15-3.71-1.88-4.76-.38-.2-.6-1.06-1.11-.62s.14,1,.34,1.52,1.22.52,1,1.34m5.13-4.62c-.15-.08-.22-.14-.28-.13s-.12.08-.18.13.09.14.12.14a1.31,1.31,0,0,0,.33-.13m-4.07,8.07a.08.08,0,0,0,0,0h0a.08.08,0,0,0,0,0h0" transform="translate(0 -48.68)"/><path class="cls-6" d="M400.93,73.62c.68-.82,1.76-.93,2.58-1.5,1.27-.89,2.7-.28,4-.46a3.5,3.5,0,0,0,.93-.43c.17,2.55,1.43,4.78,2.19,7.15,0,.07.09.11.14.17a.93.93,0,0,0,0-.25c0-.24-.08-.47-.13-.71.49.18,1.05.33,1.17.92.29,1.41-.58,2.58-.87,3.88a4.69,4.69,0,0,1-1.64,2.23s.13.27.2.42a2.65,2.65,0,0,0-2.84.36,2.45,2.45,0,0,1-1,.72A6.92,6.92,0,0,0,403,87.64c-1,.67-.59,2.19-1.55,3a4.37,4.37,0,0,0-.71,1.08c.43.11.53-.36.84-.48a.83.83,0,0,1-.45.86c-.39.15-.81.28-1.15-.19-1-1.33-2-2.64-2.94-4,1.08-.84.65-2.22,1.17-3.27a4.73,4.73,0,0,1,.84-1.47c.31-.31-.65-.3-.86-.7-.11-.21-.37-.35-.56-.52l.09-.23c.49-.13.34-1,1-.88a2.12,2.12,0,0,0-.22.19c-.28.32-.58.84-.33,1.08s.16-.35.41-.44.65-.28,1-.43a5.71,5.71,0,0,1-.34.81c-.16.28-.18.35.17.51,1.29.56,1.51-.6,1.9-1.24,1-1.71.23-3.74.78-5.56,1,1.13,1.21,2.67,1.84,4,.21.45,3.77,3.91,4.32,3.8.17,0,.43-.6.35-.74a25.7,25.7,0,0,0-2.19-3.26c-1.24-1.47-2.63-2.82-4-4.22l-.36-.35v.49l-1.86,1.72.37-2.61a16.23,16.23,0,0,0,2-.73c.32-.16.5-.59.75-.9-.4-.23-.62.18-.94.25-.52.12-1,.27-1.55.41m.5,11.81c.21-1-.39-1.6-1.23-2a.59.59,0,0,0-.54.11c-.17.17,0,.28.19.38s.38.24.36.34c-.18,1.15.54,2.51-.78,3.4-.12.08-.17.28-.25.42l.4-.28.34-.21a1.48,1.48,0,0,1-.17.42c-.54.63-.14,1.48-.5,2.2-.14.27.62,1,1,1.51a1,1,0,0,0,.37-.22c1-1-.1-2.41.58-3.63a4.34,4.34,0,0,0,.24-2.42m8.07-2.05.14.19c.08-.06.19-.1.22-.17.24-.51.48-1,.69-1.56.13-.32.22-.66.33-1-.35.27-.58,0-.84-.17a6.55,6.55,0,0,0-.31.92c-.1.57-.16,1.15-.24,1.79m-7.86-8.58c-.31,0-.6.09-.54.38s.28.34.43.51c.1-.25.21-.5.29-.75,0,0-.14-.11-.18-.14M400.46,92h0s0,0,0,0h0v0" transform="translate(0 -48.68)"/><path class="cls-6" d="M394.81,77.5l1.11.69-1,.5c-1.08.56-2.28.85-3.08,1.93s-.56,2.31-.71,3.5c-.12,1,.3,1.92-.16,2.9a2.12,2.12,0,0,0,.47,2.2c.6.71.41,1.59.81,2.32.26.47.57.81,1,.67,1.05-.35,1.32.65,2,1-3.3,1.09-5.66-1.11-8.29-2.37a6.28,6.28,0,0,1,1.11-.21c.69,0,1.67.35.9-1a14.28,14.28,0,0,1-.74-1.86c-.09-.21-.19-.42-.29-.63a7,7,0,0,0-.52.65c-.42.66-.76,1.4-1.65,1.57.42-.68.8-1.39,1.28-2,1.07-1.38,0-2.8.17-4.16.15-1.54.2-3.31,1.24-4.51.85-1,.87.72,1.48.86.13,0,.28.21.36.18s.18-.23.24-.36c.51-1,1.5-.75,2.32-.86a2.36,2.36,0,0,0,2-1" transform="translate(0 -48.68)"/><path class="cls-9" d="M394.74,111.29h-.14l-.38-.21h0l-.16-.14h-.22l-.16-.07h-.14c.26-.4.42-1,.78-1.16,1.54-.89,3.4-.94,4.95-1.87.68-.41.9-1.54,2-1.3.53.11,1.06.2,1.6.3l.21,0,.31.13c2.11.61.71,1.74.35,2.64a13.05,13.05,0,0,1-1.1,1.83c-.7-.1-.12,1.2-1,.92a23.88,23.88,0,0,0-5.22-.71h-.14l-.17-.12h-.14a1.57,1.57,0,0,0-1.19-.23" transform="translate(0 -48.68)"/><path class="cls-6" d="M374.58,105.4c.12.23.25.35.46.07.52-.69,1.39-.76,2.06-1.16a8.71,8.71,0,0,1,3.07-1c2.76-.46,3.61-3.13,5.56-4.48a9.61,9.61,0,0,0,2.8-2.52,1.93,1.93,0,0,0,.11-.22h-.24c-.77.1-1.53.22-2.3.3-.11,0-.24-.09-.36-.14.1-.12.18-.31.3-.35.67-.18,1.36-.3,2-.48.17,0,.6.3.51-.25a.83.83,0,0,0-.23-.5A12.75,12.75,0,0,1,385,90.88c-.22-.37-.81-.5-.74-1.09,1.57,1.73,3.26,3.38,4.66,5.24.82,1.09.19,2-1,2.69a4.1,4.1,0,0,0-2.3,3c-.24,1.34-1.55,2.51-2.33,3.76-.65,1-.77-.63-1.32.1-1.83,2.46-4.66,1.37-7.09,1.68-.44.06-.17.25-.16.39a1.94,1.94,0,0,0,.11.41c-.06,0-.15,0-.16,0a2.09,2.09,0,0,1-.16-.47,1.35,1.35,0,0,1,.14-1.2" transform="translate(0 -48.68)"/><path class="cls-6" d="M397.2,99.14c.76.68,1.52,1.36,2.27,2,0,0,0,.29,0,.29-.19,0-.45.07-.56,0a1.89,1.89,0,0,0-2.4-.36s0,.05-.06.08a7.62,7.62,0,0,0,1.05.42c.53.13,1.08.18,1.62.27-.4.41-.78.84-1.2,1.23a21,21,0,0,1-5.9,4.35,5.64,5.64,0,0,1-.86.29c-.27.07-.56.09-.84.13a5.4,5.4,0,0,1,.47-.61,15.21,15.21,0,0,0,3.57-5.78c.42-1.15,1.49-1.31,2.33-1.85a4,4,0,0,0,.52-.49Z" transform="translate(0 -48.68)"/><path class="cls-9" d="M401.59,91.22c-.31.11-.41.58-.84.47a4.42,4.42,0,0,1,.71-1.08c1-.79.58-2.3,1.55-3a6.91,6.91,0,0,1,2.72-1.53,2.43,2.43,0,0,0,1-.72,2.65,2.65,0,0,1,2.84-.36l.23.14-.09.44-.09.23a10.56,10.56,0,0,0-2.74,3.3l-.67.53c-1-.07-1.94-.21-2.91-.19a1.36,1.36,0,0,0-1.2.78c-.4.2-.43.6-.53,1" transform="translate(0 -48.68)"/><path class="cls-6" d="M406.9,68.09a17.32,17.32,0,0,1-3.15-1.92c-1.1-1-1.57-1-1.91.49-.29,1.21-1.27,2-1.87,3-.36.6-1.17.58-1.31,1.28,0,0-.13.08-.15.06a.27.27,0,0,1-.11-.18c.07-1.32-.24-2.72.4-3.94a6.73,6.73,0,0,1,1.68-2c.36-.3-.14-.7.29-.84,1.14-.34,1.77.51,2.51,1.09l2.89,2.23,0,.14.09-.12.67.68" transform="translate(0 -48.68)"/><path class="cls-6" d="M375.94,99c.24-1.84,1.51-3,2.73-4.2.88-.88,2-1.69,2.1-3.1l1.88-1.78s0-.09,0-.13a.69.69,0,0,0-.18,0l-2,.69c1-.93,2-1.84,3.5-.87-.31.52-.64,1-.91,1.57-.07.14.1.45,0,.53a8,8,0,0,1-1.32,1c-.76.42-1.33.77-1.27,1.89s-1.14,1.75-1.86,2.48a18.17,18.17,0,0,1-2.7,1.93m6.85-8.38s0-.09-.05-.09a.26.26,0,0,0-.16.07l-1.52,1.91s0,.11,0,.17.15,0,.2,0a4.15,4.15,0,0,0,1.55-2" transform="translate(0 -48.68)"/><path class="cls-6" d="M402.87,106.82c-.53-.1-1.07-.18-1.6-.3-1.1-.24-1.32.89-2,1.3-1.55.93-3.41,1-4.95,1.87-.36.21-.53.77-.78,1.16-.07.07-.17.21-.22.19-.45-.13-.89-.29-1.34-.44a2.87,2.87,0,0,0,.41-.26c1.71-1.57,4.09-1.73,6-2.83,1.7-1,2.35-2.84,3.81-4l1-.77c0,.34,0,.68,0,1a2.82,2.82,0,0,0,.94,2.26,3.1,3.1,0,0,1,.31.46,4.7,4.7,0,0,0-.63.06c-.31.07-.8-.53-.91.25" transform="translate(0 -48.68)"/><path class="cls-6" d="M385.8,82.43c.09-.41.46-1,.09-1.19s-.69.37-.93.65c-1.74,2.06-3.4,4.2-5.18,6.22a7.47,7.47,0,0,1-4.06,2.36,7.28,7.28,0,0,0,2-1c1.11-1.1,2.07-2.35,3.07-3.56,1.7-2.06,3.31-4.21,5.13-6.17.39-.42.4-.86.67-1.24s.6-.58.89-.46c.46.18.24.67.07.95-.62,1-.64,2.29-1.46,3.2-.08.09-.17.17-.25.25" transform="translate(0 -48.68)"/><path class="cls-9" d="M385.71,89.36c.89-.17,1.23-.91,1.65-1.57a7,7,0,0,1,.52-.65c.1.21.21.41.29.63a14.28,14.28,0,0,0,.74,1.86c.78,1.35-.2,1-.9,1a6.28,6.28,0,0,0-1.11.21,8.07,8.07,0,0,1-3-2.52,9.48,9.48,0,0,0,2-2.61l.15-.15c.62.1-.06.49.15.68v.21a4.86,4.86,0,0,0-1,2.82,1.22,1.22,0,0,0,.13.43l.38-.34" transform="translate(0 -48.68)"/><path class="cls-6" d="M397.2,99.13c-.93.81-1.64-.34-2.54-.29a10.32,10.32,0,0,0-3,.19,1.81,1.81,0,0,1-.63,0,4.19,4.19,0,0,1,.07-.47,6.31,6.31,0,0,0,.31-2.5s.14-.12.16-.11A25.78,25.78,0,0,0,397.15,99s0,.09.05.13Z" transform="translate(0 -48.68)"/><path class="cls-6" d="M408.92,92.65c-.73-.34-1.09.6-1.79.55-.23,0-.49.38-.72,0a1.36,1.36,0,0,1,0-1.35,2.19,2.19,0,0,1,1.55-1c.66-.2,1.09-.94,1.91-.77.15,0,.34-.09.51-.15-.06.15-.12.29-.17.44-.23.62-.45,1.25-.67,1.87-.11.32-.37.36-.67.41" transform="translate(0 -48.68)"/><path class="cls-6" d="M406.63,96.58a.63.63,0,0,1-.78-.47c-.1-.39-.27-.93-.09-1.17a1.57,1.57,0,0,1,1.09-.23c.5,1.31,1.28.3,1.93.27a.31.31,0,0,1,.24.11.27.27,0,0,1,0,.26c-.74.59-1.42,1.29-2.35,1.23" transform="translate(0 -48.68)"/><path class="cls-6" d="M395.39,92.65c-.58-.66,0-1.38-.11-2.07s-.15-1.59-.37-2.34c-.15-.5-.33-.77.31-1a4.72,4.72,0,0,0,1.09-.84l-.92,6.27" transform="translate(0 -48.68)"/><path class="cls-6" d="M402.95,96.5c-.1-.62.46-1.24,1.21-1.56.28-.11.55.54.49,1a2,2,0,0,1-1.25,1.76c-.3.09-.4-.47-.45-1.16" transform="translate(0 -48.68)"/><path class="cls-6" d="M383,87.22a10.79,10.79,0,0,1,1.54-1.35c1.28-.76,1.34-1.91,1.21-3.16a1.64,1.64,0,0,1-.24,2.74c-.88.52-1.68,1.17-2.52,1.77" transform="translate(0 -48.68)"/><path class="cls-9" d="M380.49,90.48l2-.69a.71.71,0,0,1,.18,0s0,.11,0,.13l-1.88,1.78-.91-.47.33-.52.3-.23" transform="translate(0 -48.68)"/><path class="cls-6" d="M396.38,111.65a23.81,23.81,0,0,1,5.22.71c.92.28.34-1,1-.92-.34,1.61-1.48,1.24-2.55,1l-3.72-.81" transform="translate(0 -48.68)"/><path class="cls-6" d="M380.19,90.71l-.33.52,0-.16.06-.29h-.61c.85-1.59,2.41-2.42,3.74-3.5l-2.83,3c-.12.13-.32.28,0,.42" transform="translate(0 -48.68)"/><path class="cls-6" d="M402.12,90.26a1.36,1.36,0,0,1,1.2-.78c1,0,1.94.12,2.91.19a13,13,0,0,1-3.4.47,2.64,2.64,0,0,0-.7.12" transform="translate(0 -48.68)"/><path class="cls-6" d="M417.24,89.9c.74-.14,1.07,0,.95.33a1.17,1.17,0,0,1-.83.62c-.26,0-.54-.36-.82-.56l.7-.39" transform="translate(0 -48.68)"/><path class="cls-6" d="M375.64,90.49a9.5,9.5,0,0,1-3.52,1.33l-1.71.45,4-1.41c.4-.14.81-.25,1.21-.37" transform="translate(0 -48.68)"/><path class="cls-6" d="M406.9,89.14a10.56,10.56,0,0,1,2.74-3.3,14.72,14.72,0,0,1-2.74,3.3" transform="translate(0 -48.68)"/><path class="cls-6" d="M385.94,85.71a9.47,9.47,0,0,1-2,2.61c-.64-.57.17-.68.35-.9a22.47,22.47,0,0,1,1.64-1.71" transform="translate(0 -48.68)"/><path class="cls-6" d="M392.87,77.42c0-.29,0-.57,0-.86s0-.78-.07-1.16l1,1.27-1,.75" transform="translate(0 -48.68)"/><path class="cls-6" d="M385.71,89.36l-.38.34a1.22,1.22,0,0,1-.13-.43,4.86,4.86,0,0,1,1-2.82l-.77,2.63c0,.14-.06.28-.1.42Z" transform="translate(0 -48.68)"/><path class="cls-6" d="M408.19,98l-.58-.2c.39-.55,1.05-.49,1.6-.69,0,0,.15.14.14.18-.19.57-.78.45-1.16.71" transform="translate(0 -48.68)"/><path class="cls-6" d="M408.25,70.85c-.65-.67-1.61-1.19-1.15-2.39l1.15,2.39" transform="translate(0 -48.68)"/><path class="cls-6" d="M409.73,85.61l.09-.44,1.52.55s0,.07.06.11-.21.11-.3.09c-.46-.09-.92-.2-1.37-.31" transform="translate(0 -48.68)"/><path class="cls-6" d="M400.14,100.91l-.11.45c0-.61-.37-1-.73-1.36a.74.74,0,0,1,.15-.17,1.11,1.11,0,0,1,.69,1.09" transform="translate(0 -48.68)"/><path class="cls-6" d="M386.24,86.24c-.21-.19.47-.58-.15-.68l.43-.36s.08.08.08.1c-.11.31-.23.62-.35.93" transform="translate(0 -48.68)"/><path class="cls-6" d="M394.74,111.29a1.57,1.57,0,0,1,1.19.23l-1.19-.23" transform="translate(0 -48.68)"/><path class="cls-6" d="M394.22,111.07l.38.21-.38-.21" transform="translate(0 -48.68)"/><path class="cls-6" d="M394.13,76.91c.22,0,.32.08.3.29l-.3-.29" transform="translate(0 -48.68)"/><path class="cls-6" d="M403.39,107l-.31-.13.31.13" transform="translate(0 -48.68)"/><path class="cls-6" d="M393.69,110.86l.16.07-.16-.07" transform="translate(0 -48.68)"/><path class="cls-6" d="M394.06,110.93l.16.14-.16-.14" transform="translate(0 -48.68)"/><path class="cls-6" d="M396.07,111.53l.17.12-.17-.12" transform="translate(0 -48.68)"/><path class="cls-9" d="M406.24,67.42l-.09.12,0-.14h.07" transform="translate(0 -48.68)"/><path class="cls-6" d="M377.43,92.87a3.07,3.07,0,0,1,1.65-2l-1.65,2" transform="translate(0 -48.68)"/><path class="cls-6" d="M374.07,96.3c.36-.46.41-1.18,1.13-1.33a2.64,2.64,0,0,1-1.13,1.33" transform="translate(0 -48.68)"/><path class="cls-6" d="M376.46,94.06a1.85,1.85,0,0,1,1-1.2l-1,1.2" transform="translate(0 -48.68)"/><path class="cls-6" d="M372.89,97.58a.64.64,0,0,1,.64-.62l-.64.62" transform="translate(0 -48.68)"/><path class="cls-6" d="M373.63,96.76l.36-.39-.36.39" transform="translate(0 -48.68)"/><path class="cls-6" d="M371.16,98.4l.45,0-.45,0" transform="translate(0 -48.68)"/><path class="cls-6" d="M372,98.31l.39-.28-.39.28" transform="translate(0 -48.68)"/><path class="cls-9" d="M379.9,90.78l-.06.29.06-.29" transform="translate(0 -48.68)"/><path class="cls-5" d="M400.26,77.2l1.86-1.71c0,.1,0,.2,0,.29-.55,1.82.27,3.85-.78,5.56-.39.64-.61,1.8-1.9,1.24-.36-.15-.34-.23-.17-.51a5.79,5.79,0,0,0,.34-.81c-.32.14-.64.31-1,.43s-.07.76-.41.44.05-.76.33-1.08a2.07,2.07,0,0,1,.22-.19,3.6,3.6,0,0,0,1.21-2.6l.07-.17c0-.07,0-.14,0-.21l.2-.54V77.2" transform="translate(0 -48.68)"/><path class="cls-6" d="M398.06,76.37c.17-.82-.82-.77-1-1.34s-.91-1-.34-1.52.73.43,1.11.62c2,1.06,1.19,3.21,1.88,4.76,0,.06,0,.16-.06.24l-.15-.25-1.39-2.52" transform="translate(0 -48.68)"/><path class="cls-5" d="M400.93,73.62c.52-.14,1-.28,1.55-.41.32-.08.54-.49.94-.25-.24.31-.43.74-.75.9a16.26,16.26,0,0,1-2,.73l.3-1" transform="translate(0 -48.68)"/><path class="cls-6" d="M398.54,80.52l0,0-.11.07h0l-.15.15h0l-.14.07h0l-1.06.6-.34-.26a3.35,3.35,0,0,1,.42-.33q.65-.36,1.32-.69a2.24,2.24,0,0,1,.44-.11l-.23.35Z" transform="translate(0 -48.68)"/><path class="cls-5" d="M397,81.46l1.06-.6-.36.88-.09.23-.61-.52" transform="translate(0 -48.68)"/><path class="cls-6" d="M403.19,71.75a1.31,1.31,0,0,1-.33.13s-.08-.09-.12-.14.11-.12.18-.13.12.06.28.13" transform="translate(0 -48.68)"/><path class="cls-6" d="M400.25,77.34l-.2.54.2-.54" transform="translate(0 -48.68)"/><path class="cls-6" d="M400,78.09l-.07.17.07-.17" transform="translate(0 -48.68)"/><path class="cls-5" d="M398.25,80.78l.15-.15-.15.15" transform="translate(0 -48.68)"/><path class="cls-5" d="M398.54,80.52l.1-.1Z" transform="translate(0 -48.68)"/><path class="cls-5" d="M398.1,80.86l.14-.07-.14.07" transform="translate(0 -48.68)"/><path class="cls-6" d="M399.12,79.82h0a.08.08,0,0,1,0,0h0a.08.08,0,0,1,0,0" transform="translate(0 -48.68)"/><path class="cls-5" d="M398.4,80.63l.11-.07-.11.07" transform="translate(0 -48.68)"/><path class="cls-9" d="M402.12,75.78c0-.1,0-.2,0-.29V75l.36.35c1.33,1.4,2.71,2.75,4,4.22a25.52,25.52,0,0,1,2.19,3.26c.09.14-.18.71-.35.74-.54.11-4.1-3.36-4.32-3.8-.63-1.32-.8-2.86-1.83-4" transform="translate(0 -48.68)"/><path class="cls-5" d="M401.44,85.43a4.35,4.35,0,0,1-.24,2.43c-.68,1.22.38,2.58-.58,3.63a1,1,0,0,1-.37.22c-.37-.51-1.13-1.24-1-1.51.37-.73,0-1.57.5-2.2a1.46,1.46,0,0,0,.17-.42l-.35.21-.4.28c.08-.14.13-.34.25-.42,1.32-.89.6-2.25.78-3.4,0-.09-.22-.25-.36-.34s-.36-.2-.19-.37a.58.58,0,0,1,.54-.11c.84.43,1.44,1,1.23,2" transform="translate(0 -48.68)"/><path class="cls-5" d="M409.51,83.37c.08-.64.13-1.22.24-1.79a6.54,6.54,0,0,1,.31-.92c.26.14.49.45.84.17-.11.33-.2.67-.33,1-.21.53-.45,1-.69,1.56,0,.08-.15.12-.22.17l-.14-.19" transform="translate(0 -48.68)"/><path class="cls-9" d="M401.65,74.8s.19.11.17.14c-.08.26-.19.5-.29.75-.15-.17-.39-.32-.43-.51s.23-.35.54-.38" transform="translate(0 -48.68)"/><path class="cls-5" d="M400.46,92v0h0s0,0,0,0h0" transform="translate(0 -48.68)"/><path class="cls-5" d="M382.79,90.61a4.15,4.15,0,0,1-1.55,2s-.13,0-.2,0,0-.13,0-.17l1.52-1.91a.26.26,0,0,1,.16-.07s0,.07.05.09" transform="translate(0 -48.68)"/><g class="cls-12"><path class="cls-5" d="M395.77,270.49c0,8.53-8.81,12.25-16.91,12.25s-14.68-6.92-14.68-15.45,6.57-15.45,14.68-15.45,16.91,10.11,16.91,18.64" transform="translate(0 -48.68)"/><path class="cls-4" d="M366.36,256.61l1.31.33-1,2c-1.24.5-1.08,1.2-.29,2l.29,2.73c-5.89,4.66-1.64,6.45,2.36,8.32l-.14.86.77-.24.65,0c-.79,3.28,1.22,4.36,3.88,4.92-.63.45-1.82,1-1.77,1.35a2,2,0,0,0,2.13,1.95h0l-.28,3.94-3,.41c.77.32,1.57.59,2.3,1a2.65,2.65,0,0,1,.81.91c0,.06-.23.47-.32.46-.39-.05-.76-.28-1.15-.31-2.43-.15-2.49-3.82-5.22-3.49h-2l-3-.27c-2.09-4.11-4.2-8.22-6.27-12.34-.12-.24,0-.59,0-.89a15.88,15.88,0,0,1,1.77,1c.9.66,1.74,1.39,2.6,2.09l.33.33.13.38.16-.35c3,.94,1.08-1.6,1.68-2.35,2.05-1.22.09-2-.33-2.92-2.45,1.24.68,3.92-1.36,5.26l-.3,0-.33-.33-1.34-2.58c.85-.32,1.9-.54,1.37-1.83-1-2.35-1.49-4.69-.36-7.14l1-.25,1,1.67-.65-.34-.11-.39-.12.07.23.32.66,1c2.94-.57,1.48-3,1.94-4.6h0s.12-.06.12-.08a1.51,1.51,0,0,0-.1-.24l2-2.29Zm.09,20.76c-.68-.77-1.26-1.7-1.47-1.63-1.64.61-2.24,2.08-2.5,3.68,0,.28.44.64.68,1l3.29-3m3-1.49c-1.17-1-2.46-2.09-3.78-3.16,0,0-.53.38-.53.39,1.14,1.74,2.31,3.45,3.48,5.17l.83-2.4" transform="translate(0 -48.68)"/><path class="cls-5" d="M369,271.93c-4-1.87-8.24-3.66-2.36-8.32l.33-.14,1-.55.9-.13c2.79-.14,5.64.2,8.26-1.14l.07-.07.86-.7,2.94-2.35c1.52,1.78-.87,2.59-1,4a35.36,35.36,0,0,0-5.52,1c-2.11.74-5.46-.6-5.93,3.2.33.32.61.85,1,.93,4.59,1,8.09,7.7,13.83,2.69q0,.63,0,1.26c0,.23,0,.47,0,.7-1,2-3.4,3.24-3.37,5.86.65,4.49-5.19,3.21-5.83,6.56l.28-3.94.07-.11-.06.13a2,2,0,0,1-2.12-1.95c0-.37,1.15-.89,1.77-1.35,1.89-.08,5.07.64,2.77-2.9-1.27-2-3.54-3.33-5.52-4.75-1.78-1.28-3.44-3-5.9-2.9,1.54,1.54,3.09,3.06,4.62,4.61a11.73,11.73,0,0,1,.79,1l-.64,0-.65,0-.63-.62" transform="translate(0 -48.68)"/><path class="cls-6" d="M396.19,275.57c-.18,1.29.37,2.94-1.63,3.34-1-.18-2-.11-2.35,1-.09.31.45.82.7,1.23a7.82,7.82,0,0,1-4,4.85l-.68.3c.05-2.63-2.13-5.45.64-7.87,0,.49.06,1,.06,1.46,0,1.08,1.24,2.15,1.48,1.76a9.06,9.06,0,0,0,1.28-4.37c0-1.35-.72-2.7-1.12-4.06-.11.83-.2,1.66-.35,2.48,0,.21-.24.39-.37.58-.2-.54-.62-1.11-.55-1.61.32-2.28,1.38-4.74-2-5.69l-1.3-3.91,2.49,1.94c-.53-1.09-1.07-2.17-1.57-3.28a7,7,0,0,1-.31-1.25l.05-.05c3.66,1.25,5.58,3.94,6.27,7.63l-.11,1.49a11.69,11.69,0,0,1,1.34-.71,4.42,4.42,0,0,1,1.61-.38c.19,0,.59.84.51.93-1.23,1.29,2.43,2.26.22,3.55l-4.22-.2,3.91.81" transform="translate(0 -48.68)"/><path class="cls-6" d="M369.62,253.66c2.72-2.81,6.29-2.42,9.6-2.14a55.51,55.51,0,0,1,9.38,2.06c1.45.39,1.92,1.46.92,2.8s-1.39-.25-2-.47c-4.93-1.65-9.75-4-15.18-2.24h-2.69" transform="translate(0 -48.68)"/><path class="cls-7" d="M386.61,262.52a7,7,0,0,0,.31,1.25c.49,1.11,1,2.19,1.57,3.28L386,265.11q0-.47,0-.94c-2.32-1.27,2.86-4.4-1.29-5.22,2.6.56,5.35-1.51,7.87.45a6.69,6.69,0,0,1-.9,1c-.83.62-2.38-1.61-2.58.27-.17,1.6,2,1.09,3,1.79l1.42,1-.34,2.92c-.85,1.19,1.81,2.6-.24,3.71-.69-3.69-2.61-6.37-6.27-7.63l-.16,0Z" transform="translate(0 -48.68)"/><path class="cls-4" d="M380.1,262.5c.12-1.38,2.5-2.19,1-4l-1.41-.84-1.53,3.19-.86.7c-.73-2.4,0-4.57,1-6.71,1,2.62,4.31,2,5.7,4-3.64,1.21,0,2.41,0,3.62l-2.59.66-1.34-.68" transform="translate(0 -48.68)"/><path class="cls-6" d="M360.46,261.75c-1.13,2.44-.61,4.79.36,7.14.53,1.28-.52,1.51-1.37,1.83-1-3.14-1.72-6.24,1-9" transform="translate(0 -48.68)"/><path class="cls-7" d="M377.22,261.65c-2.62,1.35-5.47,1-8.26,1.14,1.15-3.33,3.87-.8,5.75-1.48.7-.25,1.66.21,2.51.34" transform="translate(0 -48.68)"/><path class="cls-6" d="M384,262.51c0-1.21-3.64-2.41,0-3.62l.63.06c4.15.82-1,3.95,1.29,5.22L384,262.51" transform="translate(0 -48.68)"/><path class="cls-5" d="M368,287.31l-1.69-.93-1-.63.37-2h2c-.94,1.3,4.27,2,.36,3.6" transform="translate(0 -48.68)"/><path class="cls-4" d="M393.51,263.46l-1.42-1c-1-.7-3.21-.2-3-1.79.2-1.88,1.75.35,2.58-.27a6.74,6.74,0,0,0,.9-1l.59.21.72,3.88-.33,0" transform="translate(0 -48.68)"/><path class="cls-6" d="M364.39,259.21c-.46,1.61,1,4-1.94,4.6q0-.33,0-.65l-1-1.67c.25-1.72,2-1.54,3-2.28" transform="translate(0 -48.68)"/><path class="cls-6" d="M365.7,283.71l-.37,2a3.31,3.31,0,0,1-2.61-2.32l3,.27" transform="translate(0 -48.68)"/><path class="cls-7" d="M393.84,263.48l-.72-3.88c2.74.88,1.47,3.12,1.64,4.87l-.93-1" transform="translate(0 -48.68)"/><path class="cls-5" d="M369.62,253.66h2.69L370,256h-.37q0-1.16,0-2.32" transform="translate(0 -48.68)"/><path class="cls-6" d="M393.84,263.48l.93,1c.53,1.52-.09,2.08-1.59,1.91l.34-2.92.33,0" transform="translate(0 -48.68)"/><path class="cls-7" d="M392.91,281.18c-.25-.42-.8-.92-.7-1.23.34-1.15,1.33-1.21,2.35-1l-1.65,2.27" transform="translate(0 -48.68)"/><path class="cls-5" d="M366.67,258.9l1-2,.32-.33.7,0,.31,0-.08.62-1.32,1.64-.34.31-.6-.26" transform="translate(0 -48.68)"/><path class="cls-7" d="M396.19,275.57l-3.91-.81,4.22.2-.31.61" transform="translate(0 -48.68)"/><path class="cls-6" d="M366.67,258.9l.6.26,0,.34-.19.2h0l-.75,1.19c-.79-.79-1-1.49.29-2" transform="translate(0 -48.68)"/><path class="cls-7" d="M368.92,257.21l.08-.62.61-.61H370c.11.81.16,1.56-1.05,1.23" transform="translate(0 -48.68)"/><path class="cls-7" d="M370,259.69l-.37.31a1.38,1.38,0,0,1-.19-.36c0-.06.14-.22.16-.21a2.29,2.29,0,0,1,.4.26" transform="translate(0 -48.68)"/><path class="cls-7" d="M368.06,262.92l-1,.55,1-.55" transform="translate(0 -48.68)"/><path class="cls-7" d="M368.69,256.55l-.7,0,.65-.65,0,0Z" transform="translate(0 -48.68)"/><path class="cls-7" d="M366.37,256.62l.1-.39.12.07-.23.32Z" transform="translate(0 -48.68)"/><path class="cls-7" d="M367.32,259.5l0-.34.34-.31-.29.65" transform="translate(0 -48.68)"/><path class="cls-7" d="M368.64,255.95l.13-.4.12.08-.23.34,0,0" transform="translate(0 -48.68)"/><path class="cls-6" d="M364.41,258.9a1.51,1.51,0,0,1,.1.24s-.08.05-.12.08a1.4,1.4,0,0,1,0-.32" transform="translate(0 -48.68)"/><polyline class="cls-5" points="367.13 211.01 367.13 211.02 367.13 211.01"/><path class="cls-6" d="M368,287.31c3.92-1.6-1.3-2.29-.36-3.6,2.73-.33,2.79,3.34,5.22,3.49.39,0,.76.25,1.15.31.09,0,.37-.4.32-.46a2.64,2.64,0,0,0-.81-.91c-.73-.39-1.53-.66-2.3-1l3-.41c.64-3.34,6.47-2.07,5.83-6.56a3.79,3.79,0,0,0,5.25.33c-.32,3.81-7.8,10.07-12.07,10.13a6.86,6.86,0,0,0-1.45.34c.47.21.93.61,1.4.61,5,.05,10.25,2,14.7-2,.64.34-13.8,4.89-19.86-.32" transform="translate(0 -48.68)"/><path class="cls-6" d="M370.31,272.6l.64,0a11.85,11.85,0,0,0-.79-1c-1.53-1.54-3.08-3.07-4.62-4.61,2.46-.05,4.12,1.62,5.9,2.9,2,1.42,4.25,2.79,5.52,4.75,2.3,3.54-.88,2.81-2.77,2.9-2.66-.56-4.67-1.63-3.88-4.92" transform="translate(0 -48.68)"/><path class="cls-6" d="M366.45,277.37l-3.29,3c-.24-.32-.72-.69-.68-1,.26-1.6.87-3.06,2.5-3.68.21-.08.79.86,1.47,1.63" transform="translate(0 -48.68)"/><path class="cls-6" d="M369.44,275.88l-.83,2.4c-1.17-1.72-2.34-3.44-3.48-5.17,0,0,.48-.42.53-.39,1.32,1.07,2.61,2.17,3.78,3.16" transform="translate(0 -48.68)"/><path class="cls-6" d="M361.43,273.64c2-1.34-1.09-4,1.36-5.26l.33,2.92c-.6.75,1.28,3.29-1.68,2.35Z" transform="translate(0 -48.68)"/><path class="cls-13" d="M363.12,271.3l-.33-2.92c.42.94,2.38,1.7.33,2.92" transform="translate(0 -48.68)"/><path class="cls-6" d="M369,271.93l.63.62-.77.23Z" transform="translate(0 -48.68)"/><path class="cls-13" d="M362.43,263.16q0,.33,0,.65l-.66-1h0l.65.34" transform="translate(0 -48.68)"/><path class="cls-13" d="M361.43,273.64l-.16.35-.13-.38h0l.3,0h0" transform="translate(0 -48.68)"/><path class="cls-13" d="M361.79,262.82l-.23-.32.12-.07.11.39Z" transform="translate(0 -48.68)"/><path class="cls-13" d="M361.14,273.61l-.33-.33h0l.33.33Z" transform="translate(0 -48.68)"/><path class="cls-4" d="M385.33,278.52a3.79,3.79,0,0,1-5.25-.33c0-2.62,2.33-3.86,3.37-5.86q0-.35,0-.7,0-.63,0-1.26l.89-1.34h.31l.56.84.42-.87h1.63c3.39,1,2.32,3.42,2,5.69-.07.5.35,1.07.55,1.61.13-.19.34-.37.37-.58.14-.82.24-1.65.35-2.47.4,1.35,1.14,2.71,1.12,4.06a9.05,9.05,0,0,1-1.28,4.37c-.23.38-1.47-.68-1.48-1.76,0-.49,0-1-.06-1.46,0-.09,0-.18.05-.27l.54-.69-.5-.08-3.64,1.09m1.54-4.93-.45-.75c-.55,1.29-1.11,2.58-1.62,3.89-.06.15.24.43.37.65a3.52,3.52,0,0,0,1.7-3.79" transform="translate(0 -48.68)"/><path class="cls-6" d="M384.36,269l-.89,1.34c-5.74,5-9.24-1.7-13.83-2.69-.38-.08-.66-.61-1-.93h0A21,21,0,0,0,384.36,269" transform="translate(0 -48.68)"/><path class="cls-6" d="M380.1,262.5l1.34.68c-.5.71,1.17,1.63-.17,2.19a2.42,2.42,0,0,1-1.61,0c-3.92-1.41-7.43.18-11,1.39h0c.47-3.8,3.82-2.46,5.93-3.2a35.38,35.38,0,0,1,5.52-1" transform="translate(0 -48.68)"/><path class="cls-6" d="M378.15,260.88l1.53-3.19,1.41.84-2.94,2.35" transform="translate(0 -48.68)"/><path class="cls-6" d="M383.45,271.63c0,.23,0,.47,0,.7v-.7" transform="translate(0 -48.68)"/><path class="cls-7" d="M374.54,280.81l.06-.13-.07.11Z" transform="translate(0 -48.68)"/><path class="cls-5" d="M385.33,278.52l3.64-1.09,0,.76c0,.09,0,.18-.05.27-2.78,2.41-.59,5.23-.64,7.87l-.33,1.3c-4.45,4-9.71,2-14.7,2-.47,0-.93-.4-1.4-.61a6.92,6.92,0,0,1,1.45-.34c4.27-.06,11.75-6.32,12.07-10.13M385,287l.44.59.27-.27L385,287l.1-1.58c-1.07.26-.76-2.81-2.22-1-.54.66-.12,2.09-.14,3.17Z" transform="translate(0 -48.68)"/><path class="cls-5" d="M368.65,266.75c3.57-1.21,7.08-2.81,11-1.39a2.42,2.42,0,0,0,1.61,0c1.34-.56-.33-1.48.17-2.19l2.59-.66,1.93,1.66,0,.94,1.3,3.91h-1.63l-1.34-1.43.35,1.45h-.31a21,21,0,0,1-15.71-2.27" transform="translate(0 -48.68)"/><path class="cls-6" d="M386.61,262.52l-.11-.1.16,0-.05.05" transform="translate(0 -48.68)"/><path class="cls-6" d="M386.87,273.59a3.52,3.52,0,0,1-1.7,3.79c-.13-.22-.42-.5-.37-.65.5-1.31,1.07-2.6,1.62-3.89l.45.75" transform="translate(0 -48.68)"/><path class="cls-6" d="M384.68,269l-.35-1.45,1.34,1.43-.42.87-.56-.84" transform="translate(0 -48.68)"/><path class="cls-6" d="M388.92,278.19l0-.76.5.08-.54.69" transform="translate(0 -48.68)"/><path class="cls-6" d="M385,287l-2.25.55c0-1.08-.4-2.52.14-3.17,1.45-1.78,1.15,1.29,2.22,1L385,287Z" transform="translate(0 -48.68)"/><path class="cls-6" d="M385,287l.7.33-.27.27L385,287Z" transform="translate(0 -48.68)"/></g></g></g></g></svg>