<svg version="1.1" xmlns="http://www.w3.org/2000/svg" xmlns:xlink="http://www.w3.org/1999/xlink" viewBox="0 0 73 73" xml:space="preserve">
  <path style="fill: #66AF68;" d="M71.9,0.5c0.9,0.6,1.3,1.6,1.1,2.6L62.5,65.7c-0.1,0.8-0.6,1.5-1.3,1.8c-0.4,0.2-0.8,0.3-1.3,0.3 c-0.3,0-0.7-0.1-1-0.2l-21.5-8.8L25.4,72.2c-0.5,0.6-1.2,0.9-1.9,0.9c-0.3,0-0.6,0-0.9-0.2c-0.5-0.2-0.9-0.5-1.2-1 c-0.3-0.4-0.5-1-0.4-1.5V52L1.6,44.2c-1-0.3-1.6-1.2-1.6-2.2c-0.1-1,0.4-2,1.3-2.4L69.1,0.4C69.9-0.2,71.1-0.1,71.9,0.5z M57.9,61.6 l9-53.9L8.5,41.3l13.7,5.6l35.2-26L37.9,53.4L57.9,61.6z"/>
</svg>
