<svg xmlns="http://www.w3.org/2000/svg" viewBox="0 0 221.87 198.23"><defs><style>.cls-1{fill:#cbe4cc;}.cls-2{fill:#66af68;}.cls-3{fill:#335faf;}.cls-4{fill:#efefef;}.cls-5{fill:#e3e3e3;}.cls-6{fill:#fafafa;}.cls-7{fill:#d3d3d3;}.cls-8{fill:#bababa;}</style></defs><title>graphic-airplane</title><g id="Layer_2" data-name="Layer 2"><g id="Layer_1-2" data-name="Layer 1"><path class="cls-1" d="M190.58,111.33c1.4-4.67,2.81-9.33,4.19-14,1.63-5.54,3.22-11.09,4.84-16.64q2.78-9.56,5.57-19.11c1.64-5.62,3.3-11.24,4.94-16.87q3.61-12.39,7.2-24.78c.7-2.4,1.44-4.79,2.14-7.19.08-.27.44-.63,0-.88s-.66.06-.9.26c-1,.82-1.94,1.65-2.84,2.54a56.51,56.51,0,0,1-5,4.54,18.29,18.29,0,0,0-1.2,1.39c-3.07,3-6.26,5.79-9.47,8.59-.82.71-1.54,1.56-2.35,2.31-2.34,2.19-4.73,4.31-7,6.53-3.64,3.5-7.22,7.06-10.71,10.71-3.82,4-7.52,8.09-11.22,12.2-2.3,2.55-4.65,5.05-6.9,7.62-3.16,3.6-6.42,7.12-9.56,10.74-1.53,1.76-3.15,3.45-4.7,5.2-2.63,3-5.35,5.89-8,8.81-.3.32-.57.73-1.09.73,0,.09,0,.17,0,.26.88,3.57,1.72,7.15,2.65,10.71q4.16,16,8.37,32.06,1.29,4.92,2.59,9.84a2.84,2.84,0,0,0,.9-.36c2.76-2.5,5.48-5.06,8.25-7.54a29.69,29.69,0,0,1,2.84-2.85,52.52,52.52,0,0,0,5.69-5c3.78-3.39,7.47-6.9,11.05-10.5,3.11-3.12,6.89-5.56,9.46-9.23.05-.08.22-.08.34-.11"/><path class="cls-2" d="M152.77,191.6a1.09,1.09,0,0,1,1.6-.23c.87.54,1.73,1.11,2.61,1.63,2.4,1.41,4.65,3.06,7.15,4.31a19,19,0,0,0-1-3.86c-.89-3-1.73-6-2.69-9-2.1-6.58-4.25-13.14-6.4-19.7s-3.43-13.2-5-19.84c-1-4.38-1.91-8.78-2.9-13.17-1.09-4.78-2.22-9.55-3.36-14.32-1.06-4.44-2.1-8.89-3.22-13.32-.6-2.38-1.37-4.71-2-7.08-.28-1-.46-2.13.84-2.73,0-.09,0-.17,0-.26l-1-1.23-1,1.24c1.31.4.64,1.15.27,1.77-.57,1-1.69,1.51-2,2.67.4.17.45.51.51.9.46,2.86,1.08,5.7,1.41,8.57s.72,5.74.06,8.62a3,3,0,0,1-.61,1.19c-1,1.32-2,2.69-3.14,3.92-.48.51-6,10.67-8.75,14.15-1.11,1.42-2.21,2.84-3.29,4.28-.36.49-.54,1,.36,1.11.57.06.64.26.3.69-.2.26-.37.54-.57.8-1.61,2.11-3.23,4.22-4.84,6.34-.33.43-.69.94,0,1.36s.32.94,0,1.38l-2.63,3.4c-.33.43-.49,1,0,1.29.77.51.41.9,0,1.38-.89,1.12-1.78,2.25-2.62,3.41-.2.28-.75.77.15,1,.29.06.78-.16.79.31,0,.24-.35.51-.57.75a6.18,6.18,0,0,1-.55.48c.67.44,1.32.92,2,1.33q4.42,2.61,8.65,5.54c2.86,1.4,5.36,3.41,8.13,5l10,6.31c.72.46,1.08.83,1.13,1.25"/><path class="cls-2" d="M219.7,2.9c.73-.93,2-1.47,2.16-2.9a2.88,2.88,0,0,0-1.37.52c-7.37,3.63-14.72,7.3-22.1,10.91-7.74,3.79-15.51,7.52-23.26,11.3q-7.53,3.66-15,7.37c-.4.2-.77.46-1.15.69-.17,1.1-1.28.86-1.9,1.33-2.53,1.88-4.88,4-7.49,5.77-2.36,1.62-4.71,3.27-7.1,4.84-2.63,1.74-5.49,3.2-7.88,5.23A140.73,140.73,0,0,1,118.33,59.4c-3.79,2.4-7.12,5.38-10.8,7.9-3.08,2.1-6,4.37-9.23,6.31a80.07,80.07,0,0,0-7.3,5c-1.33,1-2.52,2.23-3.84,3.26-2.8,2.19-5.88,4-8.76,6.07-3.48,2.51-7.17,4.73-10.77,7.07-.39.25-.77.48-.82,1,2.8-.52,5.61-1,8.41-1.58,4.75-.93,9.48-2,14.26-2.77,4.24-.66,8.4-1.67,12.61-2.42,5.27-.94,10.5-2.07,15.76-3a6.12,6.12,0,0,1,2.71-.14,13.35,13.35,0,0,0-2.36,1.81c.59,0,1.19,0,1.27.78a2.9,2.9,0,0,0,1.95-2.52c-.17-.3-.83-.52-.22-1,.94-.68,1.64-1.6,2.55-2.32,2.28-1.81,4.47-3.72,6.69-5.59,2.91-2.46,5.81-4.93,8.72-7.39s5.77-4.84,8.65-7.26,5.65-4.61,8.33-7.08c1.9-1.75,4.25-2.9,6-4.76a1.64,1.64,0,0,1,1.4-.57c0,.6-.72.79-.66,1.35a1.92,1.92,0,0,0,.56-.21c3.54-2.92,6.82-6.12,10.3-9.11,3.29-2.83,6.6-5.63,9.9-8.46l.24-.25.26-.24c.61-.55,1.2-1.11,1.82-1.64,3.11-2.65,6.24-5.26,9.33-7.93,3.46-3,6.87-6,10.33-9s6.67-5.77,10.07-8.58a21.29,21.29,0,0,1,4-3.17"/><path class="cls-1" d="M4.79,110.84c4.22,1.77,8.43,3.57,12.65,5.32,4.85,2,9.71,4,14.57,5.94l25.36,10.33,5.23,2.12c2-1.76,4.06-3.54,6.11-5.29A68.73,68.73,0,0,0,75,123.82a94.27,94.27,0,0,1,9.54-8.48c4-3.38,8.38-6.41,12.48-9.72,5.06-4.09,10-8.32,15-12.5.45-.38,1.16-.54,1.2-1.3a3,3,0,0,0-.9.35,5.48,5.48,0,0,1-3.77,1.15,54,54,0,0,0-7.94.33c-3.14.49-6.32.63-9.46,1.28-2.48.51-5.08.68-7.59,1.17-3.43.67-6.88,1.29-10.32,1.78-4,.57-7.8,1.67-11.77,2.21-4.46.61-8.81,1.83-13.28,2.47-4.79.68-9.5,1.91-14.27,2.78-3.06.56-6.16,1-9.2,1.73-3.48.86-7.1,1.2-10.65,1.79-1.21.2-2.4.49-3.6.75-1.9.41-4,.15-5.71,1.23"/><path class="cls-1" d="M66.8,96c0-.52.43-.75.82-1,3.61-2.34,7.29-4.56,10.77-7.07,2.89-2.08,6-3.88,8.77-6.07,1.32-1,2.51-2.23,3.84-3.26a79.86,79.86,0,0,1,7.3-5c3.19-1.95,6.16-4.21,9.23-6.31,3.68-2.52,7-5.49,10.8-7.9A140.9,140.9,0,0,0,134.6,48c2.38-2,5.24-3.49,7.88-5.23,2.39-1.58,4.74-3.22,7.1-4.84,2.61-1.79,5-3.89,7.49-5.77.62-.46,1.73-.22,1.9-1.32a8.93,8.93,0,0,0-.92.34q-9,4.44-18,8.89-11.46,5.63-22.92,11.22Q106,56.63,95,62C90,64.45,85,66.85,79.94,69.32,72.34,73,64.78,76.82,57.18,80.56q-10,4.92-20.05,9.78C31.75,93,26.36,95.55,21,98.18c-3.5,1.71-7,3.49-10.45,5.21-3,1.46-5.94,2.9-8.91,4.34-.37.18-.76.35-.79.85l2.4-.47c7.16-1.38,14.32-2.78,21.5-4.12a44.61,44.61,0,0,1,6-1.06l1.23-.24h.47c.61-.39,1.36-.21,2-.48l.7,0a17,17,0,0,1,3.75-.73l.48,0c.19-.28.48-.23.75-.23l.73,0a.53.53,0,0,1,.51-.23l.48,0a.57.57,0,0,1,.51-.23h.72c.1-.07.19-.18.3-.2q7.55-1.49,15.11-3C61.25,97,64,96.5,66.8,96"/><path class="cls-2" d="M164.9,197.56c.64.07.67-.38.79-.83,1.12-3.92,2.27-7.82,3.42-11.73,0-.11.14-.19.21-.29q1.35-4.72,2.7-9.44,3.23-11.21,6.48-22.42c1.86-6.37,3.75-12.73,5.62-19.09q3.21-11,6.4-21.94a2.47,2.47,0,0,0,0-.49c-.12,0-.29,0-.34.11-2.57,3.67-6.35,6.1-9.46,9.22-3.58,3.6-7.27,7.11-11.05,10.5a52.6,52.6,0,0,1-5.69,5A29.58,29.58,0,0,0,161.2,139c-2.78,2.48-5.49,5-8.25,7.54a2.85,2.85,0,0,1-.9.36,2.48,2.48,0,0,0,0,.49c1.21,4.55,2.45,9.09,3.63,13.64q3.72,14.38,7.38,28.77a66.25,66.25,0,0,1,1.81,7.75"/><path class="cls-3" d="M65.62,142.45c1.07,2.83,1.9,5.73,2.69,8.65.82,1.4.87,3.08,1.66,4.48a52.92,52.92,0,0,1,4.11-4.29,27.53,27.53,0,0,0,4.49-4.3c1.25-1.56,3.05-2.66,4.54-4.07,2.9-2.76,5.72-5.59,8.57-8.4,2.27-2.24,4.46-4.55,6.65-6.87,4.4-4.65,8.64-9.44,13-14.17q5.1-5.59,10-11.35A10.62,10.62,0,0,0,124,96.55c.12-.91-.06-2,.88-2.75a5.41,5.41,0,0,1-.48-1.74,38.44,38.44,0,0,1-2-5.42,1.13,1.13,0,0,0-1-.52,2.9,2.9,0,0,1-1.95,2.52l-.26.46c0,.16,0,.33,0,.49.52,3.37-1,6-3.22,8.25s-4.58,4.75-6.76,7.19c-2.41,2.7-5.13,5.06-7.66,7.62a38.09,38.09,0,0,1-11.13,8.26c-.94.43-3.65.43-4-.32-.56-1.15-1.33-1.12-2.3-.86l-.73.26a.49.49,0,0,1-.47.25,1.1,1.1,0,0,1-1,1,.49.49,0,0,1-.46.26,16,16,0,0,1-5,4.42l-.22,0a5.75,5.75,0,0,1-2.75,2.45.49.49,0,0,1-.47.26,1.52,1.52,0,0,1-1.26,1.22l-.22,0a1.1,1.1,0,0,1-1,1,.78.78,0,0,1-.72.5,1.09,1.09,0,0,1-1,1,.78.78,0,0,1-.72.51,4.26,4.26,0,0,1-2.25,2,4.29,4.29,0,0,1-2,1.49l1.77,6.16"/><path d="M219.7,2.9a21.29,21.29,0,0,0-4,3.17c-3.4,2.8-6.73,5.69-10.07,8.58s-6.86,6.05-10.33,9c-3.09,2.67-6.22,5.29-9.33,7.93-.62.53-1.22,1.1-1.82,1.64l-.26.24-.24.25a3.88,3.88,0,0,1-1.49,2.32c-2.26,2.21-4.14,4.76-6.28,7.09-2.57,2.8-4.84,5.87-7.35,8.73-3,3.42-6,6.87-8.84,10.38-1.92,2.34-4,4.52-5.79,7a24.71,24.71,0,0,1-3.16,4,52,52,0,0,0-4.2,4.95c-2.49,3-4.9,6-7.14,9.16a22.16,22.16,0,0,1-2,2.72c-1.41,1.44-2.32,3.24-3.7,4.71A24,24,0,0,0,131.09,98c-.33.5-.59,1,.23,1.24,1.9-1.56,3.2-3.73,5.16-5.23l1-1.24c1.69-1.9,3.36-3.81,5.08-5.68q8.75-9.54,17.53-19.06l10.83-11.81,19.33-21.09q6.5-7.09,13-14.19c3.71-4.07,7.33-8.22,11.16-12.18,1.53-1.59,2.94-3.31,4.58-4.8.32-.29.75-.55.75-1.08"/><path class="cls-2" d="M39.36,101.43l-.48,0a4.15,4.15,0,0,1-3.75.73l-.7,0c-.46,1-1.22.8-2,.48H32c-.52.83-.74.87-1.23.24a44.52,44.52,0,0,0-6,1.06c-7.17,1.33-14.33,2.74-21.5,4.12l-2.4.47-.83.1a19.75,19.75,0,0,0,4.79,2.16c1.76-1.08,3.81-.82,5.71-1.23,1.2-.26,2.39-.54,3.6-.75,3.55-.59,7.16-.93,10.65-1.79,3-.75,6.14-1.17,9.2-1.73,4.77-.87,9.48-2.1,14.27-2.78,4.48-.64,8.83-1.86,13.29-2.47,4-.54,7.8-1.64,11.77-2.21,3.44-.5,6.89-1.12,10.32-1.78,2.51-.49,5.11-.65,7.59-1.17,3.14-.65,6.32-.78,9.46-1.28a54.19,54.19,0,0,1,7.94-.33,5.48,5.48,0,0,0,3.77-1.15,3,3,0,0,1,.9-.35l2-1.49.25-.73c-3.73-.12-7.33.92-11,1.16-2.2.14-4.36.75-6.53.91-3.1.23-6.15.78-9.17,1.3-4.23.73-8.48,1.45-12.7,2.28-3.7.72-7.46,1.18-11.18,1.77a5.9,5.9,0,0,0-.93.3,5.29,5.29,0,0,1-1.86.59c-2.6-.22-5,.74-7.54,1-2.79.35-5.58,1.18-8.39,1.63-1,.16-2,.69-3.08.11h-.73c0,.34-.13.62-.51.23l-.48,0c0,.35-.13.6-.51.23l-.73,0c-.1.56-.36.63-.75.23"/><path class="cls-4" d="M115.22,90.33l-2,1.49c0,.76-.75.92-1.2,1.3-5,4.18-9.94,8.4-15,12.5-4.1,3.31-8.43,6.35-12.48,9.72A94.2,94.2,0,0,0,75,123.82a68.66,68.66,0,0,1-6.33,5.44c-2,1.75-4.07,3.52-6.11,5.29a2.26,2.26,0,0,1,1,1,.5.5,0,0,1,.24.52,1.53,1.53,0,0,0,0,.23,4.29,4.29,0,0,0,2-1.49c.34-1.13,1.33-1.5,2.24-2a.78.78,0,0,0,.72-.51,1,1,0,0,1,1-1,.78.78,0,0,0,.72-.5,1,1,0,0,1,1-1l.22,0A1.39,1.39,0,0,1,73,128.64a.49.49,0,0,0,.47-.26,5.58,5.58,0,0,1,2.74-2.45l.22,0c.46-1.38,1.83-1.9,2.79-2.78.65-.59,1.15-1.53,2.18-1.64a.5.5,0,0,0,.46-.26,1,1,0,0,1,1-1,.49.49,0,0,0,.47-.26,1.42,1.42,0,0,1,1.23-1.25l.49-.26a1,1,0,0,1,1-1h.24A2,2,0,0,1,87.8,116l.49-.26a1,1,0,0,1,1-1l.49-.26c.45-1.36,1.77-1.9,2.72-2.74,3.5-3.09,7.14-6,10.68-9.05,3.92-3.36,7.75-6.82,11.7-10.13.83-.69,1.44-1.71,2.57-2a.79.79,0,0,1,.73-.5,1,1,0,0,1,1-1l.26-.46c-.08-.81-.68-.79-1.27-.78l-.73.51a1,1,0,0,1-1,1l-.47.26a.69.69,0,0,1-.74.74"/><path class="cls-5" d="M63.83,136.06a.51.51,0,0,0-.25-.52.56.56,0,0,0,.25.52"/><path class="cls-3" d="M164.9,197.56a66.25,66.25,0,0,0-1.81-7.75q-3.67-14.39-7.38-28.77c-1.18-4.55-2.42-9.09-3.62-13.64a2.48,2.48,0,0,1,0-.49q-1.29-4.92-2.59-9.85-4.19-16-8.37-32.06c-.92-3.56-1.77-7.14-2.65-10.71-1.3.6-1.11,1.69-.84,2.73.63,2.37,1.4,4.7,2,7.08,1.12,4.43,2.16,8.87,3.22,13.32,1.13,4.77,2.27,9.54,3.36,14.32,1,4.38,1.89,8.79,2.91,13.16,1.54,6.64,2.84,13.34,5,19.84s4.3,13.12,6.4,19.7c1,3,1.79,6,2.69,9a19,19,0,0,1,1,3.86c.2.26.35.67.77.25"/><path d="M77.92,175.56l-.1.06.11,0a4.94,4.94,0,0,1,.13-1q2.64-7.8,5.31-15.58l3.39-10.12c-.06-.52.28-.83.58-1.16,1.27-1.4,2.52-2.82,3.79-4.22q11.71-12.83,23.43-25.65,6.24-6.82,12.53-13.59a1.91,1.91,0,0,0,.59-1.05c-1.11-3.09-2-6.24-2.84-9.42-.94.7-.77,1.84-.88,2.75a10.61,10.61,0,0,1-2.68,5.58q-4.91,5.75-10,11.35c-4.31,4.73-8.55,9.52-13,14.17-2.19,2.32-4.38,4.63-6.65,6.87-2.85,2.81-5.67,5.64-8.57,8.4-1.48,1.42-3.29,2.51-4.54,4.07a27.58,27.58,0,0,1-4.49,4.3A52.77,52.77,0,0,0,70,155.59l.85,3.41a78.38,78.38,0,0,1,3,9.88c.29,0,.38.25.46.5.49,1.6,1,3.21,1.52,4.79A1.71,1.71,0,0,1,75.4,176"/><path class="cls-1" d="M104.37,159.93l6.39,3.82a6.26,6.26,0,0,0,.55-.48c.22-.24.58-.51.57-.75,0-.46-.5-.25-.79-.31-.9-.19-.35-.68-.15-1,.84-1.16,1.73-2.29,2.62-3.4.39-.49.75-.87,0-1.38-.5-.33-.35-.86,0-1.29l2.63-3.4c.34-.45.83-.87,0-1.38s-.31-.92,0-1.36q2.41-3.18,4.84-6.34c.2-.26.37-.54.57-.8.34-.43.27-.64-.3-.69-.9-.09-.73-.62-.36-1.11,1.08-1.44,2.18-2.86,3.29-4.28,2.72-3.48,5.46-6.94,8.15-10.44.4-.51.8-1.08.27-1.88a1.52,1.52,0,0,1,.33-1.83c1.16-1.22,2.11-2.6,3.14-3.92a3,3,0,0,0,.61-1.19c.66-2.88.27-5.76-.06-8.62s-.94-5.71-1.41-8.57c-.06-.39-.11-.73-.51-.9-1.21,1.19-2.39,2.46-2.11,4.31a2.47,2.47,0,0,1-.5,2.15c-1.47,1.8-2.9,3.64-4.33,5.46-1.59,2-3.21,4-4.74,6.09s-3.09,3.81-4.49,5.84c-1.29,1.88-2.93,3.51-4.23,5.39s-3.14,3.46-4.26,5.52c-.22.41-.74.77-.45,1.32s.91-.13,1.33.22a4.7,4.7,0,0,1-1,1.69c-1.24,1.73-2.69,3.31-3.94,5-2.81,3.87-6,7.49-8.76,11.36-.39.54-1.17.85-1.07,1.71.71.8,1.89,1,2.47,2a24.28,24.28,0,0,1,5.69,3.39"/><path class="cls-6" d="M96.2,154.56c-.1-.86.67-1.16,1.07-1.7,2.8-3.88,5.94-7.49,8.76-11.36,1.24-1.71,2.69-3.29,3.94-5a4.71,4.71,0,0,0,1-1.69c-.42-.35-1,.37-1.33-.22s.23-.91.45-1.32c1.12-2.07,2.93-3.6,4.26-5.52s2.94-3.51,4.23-5.39c1.4-2,3-3.86,4.49-5.84s3.15-4.07,4.74-6.09c1.44-1.83,2.87-3.66,4.33-5.46a2.47,2.47,0,0,0,.5-2.15c-.28-1.85.9-3.11,2.11-4.3.31-1.16,1.44-1.71,2-2.67.37-.63,1-1.37-.27-1.77-2,1.51-3.26,3.67-5.16,5.23a22.14,22.14,0,0,1-3.64,3.95,1.91,1.91,0,0,1-.59,1.05q-6.27,6.79-12.53,13.59-11.73,12.81-23.43,25.65c-1.27,1.4-2.52,2.81-3.79,4.21-.31.34-.64.65-.58,1.17a28,28,0,0,1,4,2.45l5.43,3.21"/><path class="cls-3" d="M127.68,103.22a22.14,22.14,0,0,0,3.64-3.95c-.82-.28-.55-.74-.23-1.24a23.86,23.86,0,0,1,2.61-3.18c1.37-1.48,2.28-3.27,3.7-4.71a22.27,22.27,0,0,0,2-2.72c2.24-3.17,4.65-6.21,7.14-9.16a52,52,0,0,1,4.2-4.95,24.71,24.71,0,0,0,3.16-4c1.75-2.49,3.87-4.66,5.79-7,2.89-3.51,5.85-7,8.84-10.38,2.51-2.86,4.77-5.92,7.35-8.73,2.13-2.33,4-4.87,6.28-7.09a3.86,3.86,0,0,0,1.49-2.32c-3.29,2.83-6.6,5.63-9.9,8.46-3.48,3-6.77,6.19-10.3,9.11a1.86,1.86,0,0,1-.56.21L156.49,57a.45.45,0,0,1-.5.49,33.81,33.81,0,0,0-4,3.46,1.82,1.82,0,0,1-1.73,1.48,1.63,1.63,0,0,0-.74.74,1.27,1.27,0,0,1-.14.46c-1.56,1.84-3.12,3.68-4.71,5.49-1.14,1.29-2.41,2.47-3.47,3.82-2.45,3.12-5.16,6-7.68,9-2,2.41-4.07,4.77-6.15,7.11-.94,1.06-1.64,2.38-3,3a5.43,5.43,0,0,0,.48,1.74c.83,3.17,1.73,6.33,2.84,9.42"/><path d="M116,89.58l.47-.26a1.07,1.07,0,0,1,1-1l.73-.51A13.35,13.35,0,0,1,120.55,86a6.13,6.13,0,0,0-2.71.14c-5.26,1-10.5,2.09-15.76,3C97.86,90,93.7,91,89.47,91.63c-4.78.75-9.5,1.85-14.26,2.77-2.8.55-5.61,1.05-8.41,1.58s-5.55,1-8.31,1.55q-7.56,1.46-15.11,3c-.11,0-.2.13-.3.2,1,.58,2.09,0,3.07-.11,2.82-.45,5.6-1.29,8.39-1.63,2.51-.31,4.95-1.27,7.54-1a5.31,5.31,0,0,0,1.86-.59,5.85,5.85,0,0,1,.93-.3c3.73-.59,7.48-1,11.18-1.77,4.22-.82,8.47-1.54,12.7-2.28,3-.52,6.08-1.07,9.17-1.3,2.17-.16,4.33-.77,6.53-.91,3.69-.24,7.3-1.28,11-1.16H116"/><path class="cls-4" d="M156.49,57l6.42-5.44c-.06-.56.63-.74.66-1.35a1.63,1.63,0,0,0-1.4.57c-1.8,1.86-4.15,3-6,4.76-2.68,2.47-5.54,4.73-8.33,7.08s-5.77,4.84-8.65,7.27-5.81,4.93-8.72,7.39c-2.22,1.88-4.41,3.79-6.69,5.59-.91.72-1.61,1.64-2.55,2.32-.61.44.06.66.22,1a1.13,1.13,0,0,1,1,.52c1.87-1.66,3.71-3.34,5.6-5,3.32-2.86,6.68-5.66,10-8.54,3.15-2.75,6.21-5.59,9.37-8.32a6,6,0,0,1,2.23-1.66,1.64,1.64,0,0,1,.74-.74c.48-.6.89-1.3,1.73-1.48a33.76,33.76,0,0,1,4-3.46.45.45,0,0,1,.5-.49"/><path class="cls-7" d="M183.91,33.51l.26-.24-.26.24"/><path class="cls-8" d="M35.13,102.18a4.14,4.14,0,0,0,3.75-.73,17,17,0,0,0-3.75.73"/><path class="cls-8" d="M32.44,102.68c.78.31,1.54.54,2-.48-.64.27-1.39.09-2,.48"/><path class="cls-8" d="M39.36,101.43c.4.4.65.33.75-.23-.28,0-.56,0-.75.23"/><path class="cls-8" d="M41.83,100.94c.38.38.46.11.51-.23a.58.58,0,0,0-.51.23"/><path class="cls-8" d="M40.84,101.19c.37.38.46.12.51-.23a.53.53,0,0,0-.51.23"/><path class="cls-2" d="M89.77,114.53l-.49.26a1,1,0,0,1-1,1l-.49.26a1.94,1.94,0,0,1-1.49,1.47h-.24a1,1,0,0,1-1,1l-.49.26c0,.43-.37.64-.49,1,1-.26,1.74-.29,2.3.86.36.75,3.07.75,4,.32a38.08,38.08,0,0,0,11.13-8.26c2.53-2.56,5.25-4.92,7.66-7.62,2.18-2.44,4.45-4.85,6.76-7.19s3.74-4.88,3.22-8.25c-.35.13-.56.54-1,.49a.79.79,0,0,0-.74.5c0,.52-.41.79-.73,1.09q-2.41,2.19-4.84,4.35-3.7,3.27-7.43,6.5c-1.82,1.58-3.65,3.14-5.58,4.6s-3.56,3.14-5.43,4.6c-1.21.95-2.17,2.23-3.65,2.82"/><path class="cls-2" d="M149.56,63.15a6,6,0,0,0-2.23,1.66c-3.17,2.73-6.23,5.57-9.37,8.32-3.3,2.88-6.66,5.68-10,8.54-1.89,1.63-3.73,3.31-5.6,5a38.39,38.39,0,0,0,2,5.42c1.41-.58,2.11-1.91,3.05-3,2.08-2.34,4.15-4.7,6.15-7.11,2.52-3,5.24-5.93,7.68-9,1.06-1.35,2.33-2.53,3.46-3.82,1.59-1.81,3.15-3.65,4.71-5.49.1-.11.09-.31.14-.46"/><path class="cls-5" d="M81.42,121.48c-1,.11-1.54,1-2.19,1.64-1,.88-2.33,1.4-2.79,2.78a15.93,15.93,0,0,0,5-4.42"/><path class="cls-5" d="M76.22,125.92a5.58,5.58,0,0,0-2.75,2.45,5.74,5.74,0,0,0,2.75-2.45"/><path class="cls-5" d="M68.06,132.84c-.92.47-1.91.84-2.25,2a4.26,4.26,0,0,0,2.25-2"/><path class="cls-5" d="M73,128.64a1.39,1.39,0,0,0-1.26,1.22A1.52,1.52,0,0,0,73,128.64"/><path class="cls-5" d="M84.1,119.73c.13-.35.53-.56.49-1A1.41,1.41,0,0,0,83.36,120l.74-.26"/><path class="cls-5" d="M69.79,131.35a1,1,0,0,0-1,1,1.09,1.09,0,0,0,1-1"/><path class="cls-5" d="M71.52,129.87a1,1,0,0,0-1,1,1.1,1.1,0,0,0,1-1"/><path class="cls-5" d="M82.89,120.24a1,1,0,0,0-1,1,1.1,1.1,0,0,0,1-1"/><path class="cls-5" d="M118.18,90.07c.43.05.65-.36,1-.48,0-.16,0-.33,0-.49a1,1,0,0,0-1,1"/><path class="cls-5" d="M116,89.58h-.49l-.25.73a.69.69,0,0,0,.74-.74"/><path class="cls-5" d="M89.77,114.53c1.48-.59,2.44-1.88,3.65-2.82,1.87-1.46,3.54-3.17,5.43-4.6s3.76-3,5.58-4.6q3.73-3.23,7.43-6.5,2.44-2.15,4.84-4.35c.32-.29.73-.56.73-1.09-1.13.31-1.74,1.33-2.57,2-4,3.31-7.79,6.77-11.7,10.13-3.54,3-7.18,6-10.68,9.05-1,.84-2.27,1.38-2.72,2.74"/><path class="cls-5" d="M86.31,117.49A1.94,1.94,0,0,0,87.8,116a2,2,0,0,0-1.49,1.47"/><path class="cls-5" d="M85.08,118.48a1,1,0,0,0,1-1,1,1,0,0,0-1,1"/><path class="cls-5" d="M88.29,115.76a1,1,0,0,0,1-1,1,1,0,0,0-1,1"/><path class="cls-5" d="M117.45,88.36a1.07,1.07,0,0,0-1,1,1,1,0,0,0,1-1"/><path class="cls-2" d="M96.2,154.56l-5.43-3.21a1.71,1.71,0,0,1-.22.56c-1.57,1.71-3.1,3.48-4.77,5.09-.75.72-1.33,1.7-2.42,2q-2.66,7.79-5.31,15.58a5,5,0,0,0-.13,1h0l5.91-5.3,3.72-3.36a.8.8,0,0,1,.71-.5l0,0c1-1.72,2.78-2.74,4.17-4.1,2-2,4.14-3.83,6.22-5.73-.58-1-1.76-1.18-2.47-2"/><path d="M98.67,156.54c-2.08,1.91-4.21,3.76-6.22,5.73-1.39,1.36-3.13,2.38-4.17,4.1,1.36-.1,2.42-1,3.54-1.53a68.93,68.93,0,0,1,9.35-3.65c1.07-.37,2.45-.07,3.2-1.26a24.27,24.27,0,0,0-5.69-3.39"/><path class="cls-3" d="M83.37,159c1.09-.33,1.67-1.31,2.42-2,1.67-1.61,3.2-3.37,4.77-5.09a1.71,1.71,0,0,0,.22-.56,28.1,28.1,0,0,0-4-2.45L83.37,159"/><path class="cls-8" d="M88.25,166.4a.8.8,0,0,0-.71.5c.35,0,.74.06.71-.5"/><path class="cls-7" d="M77.93,175.57l-.11,0,.1-.06Z"/><path class="cls-5" d="M152,60.93c-.84.19-1.24.88-1.73,1.48A1.82,1.82,0,0,0,152,60.93"/><path class="cls-5" d="M156.49,57a.45.45,0,0,0-.5.49.45.45,0,0,0,.5-.49"/><path class="cls-2" d="M162.85,198l-54.91-35.5,29.47-57.11,26.5,91c.51,1.3.08,2.34-1.05,1.63"/></g></g></svg>