<svg version="1.1" xmlns="http://www.w3.org/2000/svg" xmlns:xlink="http://www.w3.org/1999/xlink" viewBox="0 0 30 23.6" xml:space="preserve">
	<path d="M11.8,2.1C10.2,2.1,8.5,2.4,7,3C5.6,3.5,4.4,4.3,3.5,5.4c-0.8,0.9-1.3,2-1.3,3.2 c0,1,0.3,1.9,0.9,2.6c0.7,0.9,1.5,1.7,2.5,2.2l1.6,0.9l-0.6,1.4c0.4-0.2,0.7-0.4,1-0.7l0.7-0.5l0.9,0.2c0.8,0.2,1.7,0.2,2.6,0.2 c1.6,0,3.3-0.3,4.8-0.9c1.4-0.5,2.6-1.3,3.5-2.4c0.8-0.9,1.3-2,1.3-3.2c0-1.2-0.5-2.3-1.3-3.2c-1-1.1-2.2-1.9-3.5-2.4 C15,2.4,13.4,2.1,11.8,2.1z M11.8,0c2,0,4,0.4,5.9,1.1c1.7,0.7,3.2,1.7,4.3,3.1c2.1,2.5,2.1,6.1,0,8.6c-1.1,1.4-2.6,2.5-4.3,3.1 c-1.9,0.8-3.9,1.2-5.9,1.1c-1,0-2-0.1-2.9-0.3c-1.4,1-3,1.7-4.7,2.1c-0.5,0.1-1,0.2-1.4,0.3h0c-0.1,0-0.2,0-0.3-0.1 c-0.1-0.1-0.2-0.2-0.2-0.4c0,0,0-0.1,0-0.1c0,0,0-0.1,0-0.1c0,0,0-0.1,0-0.1l0-0.1c0,0,0-0.1,0.1-0.1c0,0,0-0.1,0.1-0.1 c0,0,0,0,0.1-0.1s0.1-0.1,0.1-0.1c0.1-0.1,0.2-0.2,0.4-0.4s0.3-0.4,0.4-0.5c0.1-0.1,0.2-0.3,0.4-0.5C3.9,16.5,4,16.2,4.1,16 c0.1-0.2,0.2-0.5,0.3-0.7c-1.3-0.7-2.4-1.7-3.3-3C0.4,11.2,0,9.9,0,8.6C0,7,0.6,5.5,1.6,4.3c1.1-1.4,2.6-2.5,4.3-3.1 C7.7,0.4,9.8,0,11.8,0L11.8,0z M25.5,19.6c0.1,0.3,0.2,0.5,0.3,0.7c0.1,0.2,0.3,0.4,0.4,0.6c0.2,0.2,0.3,0.4,0.4,0.5 c0.1,0.1,0.2,0.3,0.4,0.5c0.2,0.2,0.3,0.4,0.4,0.4c0,0,0,0,0.1,0.1c0,0,0.1,0.1,0.1,0.1c0,0,0,0.1,0.1,0.1c0,0,0,0.1,0.1,0.1l0,0.1 c0,0,0,0.1,0,0.1c0,0,0,0.1,0,0.1c0,0,0,0.1,0,0.1c0,0.1-0.1,0.3-0.2,0.4c-0.1,0.1-0.2,0.1-0.4,0.1c-2.2-0.3-4.3-1.1-6.1-2.4 c-1,0.2-2,0.3-2.9,0.3c-2.8,0.1-5.5-0.7-7.9-2.2c0.6,0,1.1,0.1,1.5,0.1c1.8,0,3.5-0.2,5.2-0.8c1.6-0.5,3.1-1.2,4.4-2.2 c1.3-0.9,2.4-2.1,3.2-3.5c1.2-2.1,1.4-4.5,0.7-6.8c1.4,0.7,2.5,1.7,3.4,3c1.6,2.3,1.7,5.3,0.1,7.6C28,17.8,26.8,18.8,25.5,19.6z"/>
</svg>
