<svg xmlns="http://www.w3.org/2000/svg" viewBox="0 0 263.74 162.63"><defs><style>.cls-1{fill:#c8c9c8;}.cls-2{fill:#f9e38d;}.cls-3{fill:#e6e7e8;}.cls-4{fill:#8a3d58;}.cls-5{fill:#faecb3;}</style></defs><title>graphic-dice</title><g id="Layer_2" data-name="Layer 2"><g id="Layer_1-2" data-name="Layer 1"><path class="cls-1" d="M58.54,76a6.25,6.25,0,0,1,2.29-.86,2.23,2.23,0,0,0,1.45-.44c5.2-2.57,10.47-5,15.58-7.76,5.26-2.84,10.53-3.87,16.26-1.58a6,6,0,0,1,2.41,1.45c3.72,4.13,6.68,8.81,9.78,13.39C111.25,87.53,116,95,120.72,102.4c1.27,2,2.19,4.51,5,5.07-1.06,4-3.89,6.61-7.37,8.51-7.25,4-14.82,7.27-22.28,10.78s-15,7.4-22.73,10.63c-3.91,1.63-10.9.12-13.82-3.26C51.7,125.13,44,116,36.18,107c-2.19-2.53-4.2-5.22-6.29-7.84a6.65,6.65,0,0,1-1.28-2.58c.7,0,.81-.54.94-1a11.66,11.66,0,0,1,6-7.23c1.48-.85,3.32-1.14,4.38-2.67A19.72,19.72,0,0,1,44.95,83c.86,0,1.71-.06,2-1.14,2.45-.77,4.43-2.55,6.94-3.19.77,0,1.43-.18,1.6-1.08l.37,0c.58.05,1.12.05,1.18-.74l.78-.39C58.37,77,58.47,76.52,58.54,76Zm35.1,3.08c0-3.54-3.28-6.05-7.66-5.83-3.6.18-6.65,2.85-6.8,6-.14,2.93,2.54,5.5,6.24,6l.19,0C89.64,85.64,93.62,82.6,93.64,79.11ZM48.41,92.38c-3.78-.05-7,2.35-7.25,5.37-.22,2.85,2.42,5.39,6.24,6l.19,0c3.87.56,7.75-1.94,8.11-5.23.33-3-2.79-5.86-6.71-6.18C48.8,92.37,48.61,92.38,48.41,92.38Zm57.48,20.92a7.81,7.81,0,0,0,5.57-2.26,4.53,4.53,0,0,0-1.12-7.68,8.11,8.11,0,0,0-9.12,1.51c-2.51,2.58-1.92,6.07,1.31,7.68A6.91,6.91,0,0,0,105.89,113.3Zm-35.24,6.85a7.27,7.27,0,0,0-5.85,2.47,4.06,4.06,0,0,0,.37,6c3,2.78,8.82,2.22,11.2-1.07A3.8,3.8,0,0,0,76.6,123C75.25,120.79,73.08,120.18,70.65,120.15Z"/><path class="cls-2" d="M157.11,70.22c-1.95-2.75-1.27-5.92-1-8.83.31-3.14.35-6.3.51-9.43.29-5.4.82-10.78,1-16.19A28.18,28.18,0,0,1,159.64,26a15,15,0,0,1,3.1-4.63c5.94-6.37,11.82-12.8,18-18.91a2.9,2.9,0,0,1,3.15-.86c1.14.4,1.18,1.57,1.17,2.63,0,1.92,0,3.85.13,5.77.56-1.93,0-3.93.57-5.88.87-3,3.39-4.72,6.41-3.93,7.74,2,15.2,4.87,22.74,7.5,4.19,1.47,8.4,2.91,12.52,4.6a12,12,0,0,1,7.75,11c.45,6.93.78,13.87,1.23,20.8.29,4.5.24,9,.55,13.5a11.78,11.78,0,0,1-3.31,8.8,5.67,5.67,0,0,0-3.91-3.19c-5-1.52-9.95-3.12-15-4.58-6.43-1.87-12.84-3.81-19.17-6-3.9-1.33-7.85-2.44-10.18-6.35-.81-1.35-1.72-1.13-2.29.35-.93,2.41-1.79,4.86-3.87,6.59-3.71,3.09-7.33,6.28-11.17,9.21C164.58,65.16,161.56,68.72,157.11,70.22Zm44.67-27.45a7.31,7.31,0,0,0-5.73-6.7,3.62,3.62,0,0,0-4.26,4.17A7.47,7.47,0,0,0,197,46.35,3.58,3.58,0,0,0,201.78,42.77ZM224.27,45a3.07,3.07,0,0,0-3.14,2.82,7,7,0,0,0,5.5,7.38,3.12,3.12,0,0,0,3.73-2.56C231.1,49.4,227.59,45,224.27,45ZM209.7,25.87a3.06,3.06,0,0,0-3.21,2.93c-.35,3.17,3,6.95,6.15,7a3,3,0,0,0,3.23-2.67C216.43,29.77,213.09,25.84,209.7,25.87Zm-14.25-19c-2.34,0-3.73,1.71-3.28,4.12a7.43,7.43,0,0,0,5.37,5.51,3.24,3.24,0,0,0,4.14-3.12C201.79,10.34,198.54,6.94,195.45,6.89Zm33.71,15.83A7.15,7.15,0,0,0,224,16.44a3,3,0,0,0-3.85,3.25,7.27,7.27,0,0,0,5.19,6.08A2.93,2.93,0,0,0,229.16,22.72ZM180.72,12.09c-.26-.6.1-1.74-1-2.09-1-.3-1.55.47-2.06,1.13a12.12,12.12,0,0,0-2.46,7c0,.82,0,1.84.89,2.19s1.65-.51,2.18-1.2A12.91,12.91,0,0,0,180.72,12.09Zm-8.66,22.21c-.14-.83.24-2.14-1.05-2.48-1.11-.3-1.69.77-2.2,1.57A11.59,11.59,0,0,0,166.9,40c0,.77.09,1.66,1,1.95s1.45-.39,1.91-1A11.83,11.83,0,0,0,172.06,34.31ZM163.8,55.73c-.08-1.19.23-2.59-1.12-2.91-1.18-.28-1.73,1-2.22,1.83A10.81,10.81,0,0,0,159,61.33c.07.6.22,1.2.83,1.43s1.24-.21,1.65-.72A11.27,11.27,0,0,0,163.8,55.73Z"/><path class="cls-3" d="M220.17,159.63c-5.09.8-10.25-.12-15.38.52a67.79,67.79,0,0,1-9.5.11c-5.12-.09-10.23.32-15.36,0-8.07-.45-16.14-.68-24.2-1.23-6.12-.41-12.2-.66-18.3.37a56.26,56.26,0,0,1-6,.38c-5.34.32-10.73,0-16,.54-5.06.5-10.13.23-15.21.85-4.46.55-9,.89-13.56,1.14-7.89.44-15.76.08-23.64.23-4.44.09-8.88-.05-13.32,0-7.91.15-15.7-1-23.54-1.75-4.82-.48-9.51-1.51-14.24-2.26a44.43,44.43,0,0,1-10.75-3C.59,155.34.08,155,0,154.38s.66-.88,1.14-1.11a16.75,16.75,0,0,1,5.65-1.1c5.81-.62,11.63-1.2,17.46-1.51,3-.16,6,.1,8.93-.09,11-.7,21.93-.52,32.89-.85,19.44-.58,38.87,0,58.3-.36,4-.07,8-.14,11.93.16a118.49,118.49,0,0,0,15.67.17c5-.28,10.07-.24,15.1-.25q29-.09,58.07,0c6.78,0,13.57,0,20.33.45,5.6.37,11.21.08,16.79.7.57.06,1.3-.07,1.45.65s-.65.77-1.14,1c-6.95,3.53-14.47,4.88-22.1,5.7-6.45.69-12.91,1.2-19.37,1.79A5.32,5.32,0,0,1,220.17,159.63ZM73,156.39c4.5-.23,10.1,0,15.72-.28,6.62-.38,13.26-.39,19.88-.84s13.24-.57,19.83-1.21c.52-.05,1.32.26,1.38-.62s-.62-.83-1.21-1c-3.29-.79-6.7-.64-10-.63-25.27,0-50.54-.55-75.8.23-4.7.15-9.41.36-14.11.57-3,.13-6.2-.23-9.14,1-.51.22-1,.35-1,1s.61.58,1.05.56c2.52-.11,5,.24,7.52.37,4.64.25,9.27,0,13.93.32,6,.43,12.12,0,18.19.42C63.52,156.61,67.74,156.39,73,156.39Z"/><path class="cls-1" d="M157.11,70.22c4.46-1.5,7.47-5.07,11.06-7.8,3.83-2.93,7.46-6.12,11.17-9.21,2.08-1.73,2.94-4.18,3.87-6.59.57-1.48,1.48-1.7,2.29-.35,2.33,3.91,6.28,5,10.18,6.35,6.34,2.16,12.75,4.1,19.17,6,5,1.46,10,3.06,15,4.58a5.67,5.67,0,0,1,3.91,3.19c-1.62,2.59-4.4,3.71-6.83,5.2-6,3.66-12.11,7.16-18.18,10.7a16,16,0,0,1-11.8,1.59c-10.95-2.42-21.74-5.46-32.56-8.37C161.28,74.64,158.41,73.49,157.11,70.22Zm31.81-8.56a8.92,8.92,0,0,0,4.3-1c1.75-1,1.83-2.46.06-3.37a9.44,9.44,0,0,0-9.1,0c-1.65.87-1.57,2.29.08,3.25A9.06,9.06,0,0,0,188.92,61.66Zm14.84,4.22a9.58,9.58,0,0,0,4.75-1.26c1.36-.91,1.34-2,0-2.91-2.16-1.48-7.37-1.42-9.49.11-1.39,1-1.34,2.11.19,3A9.85,9.85,0,0,0,203.76,65.89Zm14.17,3.95a8.44,8.44,0,0,0,5-1.17c1.41-.92,1.43-2.09,0-2.81a9.71,9.71,0,0,0-9.26.24c-1.52.81-1.38,2.1.18,2.92A7.94,7.94,0,0,0,217.93,69.84Zm-45.77,3.94a8.3,8.3,0,0,0,4-.65c1.59-.82,1.72-2.06.17-2.88a9.49,9.49,0,0,0-8.23-.35,1.66,1.66,0,0,0-1.22,1.37c-.06.85.56,1.27,1.19,1.61A8.1,8.1,0,0,0,172.16,73.77Zm13.71,3.77a8.49,8.49,0,0,0,4.55-.9c1.29-.74,1.36-1.86.09-2.52a9.11,9.11,0,0,0-8.56-.17c-1.36.66-1.36,1.66-.09,2.49A8,8,0,0,0,185.87,77.54Zm14.08,3.54a7.83,7.83,0,0,0,4.12-.86c1.28-.71,1.32-1.85,0-2.49a9.29,9.29,0,0,0-8.39,0c-1.34.64-1.31,1.73,0,2.48A7.86,7.86,0,0,0,199.95,81.08Z"/><path class="cls-2" d="M125.71,107.47c-2.8-.56-3.72-3.08-5-5.07C116,95,111.25,87.53,106.31,80.23c-3.1-4.59-6.06-9.26-9.78-13.39a6,6,0,0,0-2.41-1.45c-5.73-2.29-11-1.26-16.26,1.58-5.1,2.75-10.37,5.19-15.58,7.76a2.23,2.23,0,0,1-1.45.44c.14-.79.86-.91,1.41-1.19,8.23-4.17,16.56-8.15,24.41-13a46,46,0,0,0,5.11-3.69,3,3,0,0,0,.82-2.84c-.76-5.79-1.48-11.58-2.21-17.37-.26-2.1-.53-4.2-.76-6.3,0-.42-.16-1,.39-1.19s.82.2,1.17.47c1.74,1.35,2.62,3.35,3.77,5.12,2.56,3.94,5.16,7.88,7.44,12,3.13,5.61,6.83,10.85,10,16.43,1.88,3.3,4,6.46,5.56,9.93,2.09,4.56,3,9.45,4.08,14.27,1.37,5.88,2.66,11.79,4,17.69C126.14,106.14,126.34,106.88,125.71,107.47ZM103.45,68.2a28.56,28.56,0,0,0-5.64-10.84c-.2-.23-.49-.51-.82-.24s-.21.7-.13,1.07a26.5,26.5,0,0,0,3.75,8.42c.52.84.77,1.86,1.81,2.4C103.29,69.44,103.44,69.18,103.45,68.2Zm-8-21.27c0,3.07,2.77,8.75,5.73,11.79C102.11,56.51,98.44,48.83,95.49,46.93ZM121.24,98c.55-3.12-2.92-10.38-5.81-12.05A25.38,25.38,0,0,0,121.24,98ZM99.89,48.82A19,19,0,0,0,94.31,38,19.11,19.11,0,0,0,99.89,48.82Zm19,37.5a18.65,18.65,0,0,0-5.33-10.9A19.42,19.42,0,0,0,118.92,86.31Zm-7.36-20.69a18.93,18.93,0,0,0,5.15,10.28A18.58,18.58,0,0,0,111.56,65.63Z"/><path class="cls-4" d="M73.82,62.17c-2.64,0-3.48-1.21-2.45-3a12.44,12.44,0,0,1,9.46-6.33c2.1-.3,3.12,1.21,2.08,3A12.81,12.81,0,0,1,73.82,62.17Z"/><path class="cls-4" d="M38.69,60.12c-1.6,0-2.26-.81-1.48-2.19a12.22,12.22,0,0,1,8.73-6.14c1.53-.29,2.18.67,1.66,2.11C46.67,56.42,41.44,60.08,38.69,60.12Z"/><path class="cls-5" d="M39.9,85.66c-1.06,1.54-2.9,1.83-4.38,2.67a11.66,11.66,0,0,0-6,7.23c-.13.49-.23,1-.94,1-1.46-1.88-2-4.16-2.61-6.37-.35-1.21-.16-1.92,1.53-1.27,2.61,1,5-.23,7.35-1.32,1.28-.6,2.53-1.27,3.81-1.89C39.07,85.58,39.46,85.16,39.9,85.66Z"/><path class="cls-5" d="M46.9,81.86c-.24,1.08-1.09,1.12-2,1.14A2.37,2.37,0,0,1,46.9,81.86Z"/><path class="cls-5" d="M55.44,77.59c-.17.9-.83,1.07-1.6,1.08C54.05,77.83,54.73,77.68,55.44,77.59Z"/><path class="cls-5" d="M57,76.81c-.05.79-.6.79-1.18.74A1.19,1.19,0,0,1,57,76.81Z"/><path class="cls-5" d="M58.54,76c-.08.49-.17,1-.77.39A.76.76,0,0,1,58.54,76Z"/><path class="cls-4" d="M93.64,79.11c0,3.5-4,6.54-8,6.13l-.19,0c-3.7-.48-6.39-3-6.24-6,.15-3.11,3.2-5.78,6.8-6C90.36,73.05,93.66,75.57,93.64,79.11Z"/><path class="cls-4" d="M48.41,92.38c.19,0,.39,0,.58,0,3.91.32,7,3.2,6.71,6.18-.36,3.29-4.23,5.79-8.11,5.23l-.19,0c-3.82-.61-6.46-3.15-6.24-6C41.4,94.74,44.64,92.33,48.41,92.38Z"/><path class="cls-4" d="M105.89,113.3a6.89,6.89,0,0,1-3.36-.76c-3.23-1.61-3.82-5.1-1.31-7.68a8.11,8.11,0,0,1,9.12-1.51,4.53,4.53,0,0,1,1.12,7.68A7.81,7.81,0,0,1,105.89,113.3Z"/><path class="cls-4" d="M70.65,120.15c2.43,0,4.6.63,6,2.87a3.8,3.8,0,0,1-.24,4.51c-2.38,3.3-8.24,3.86-11.2,1.07a4.06,4.06,0,0,1-.37-6A7.27,7.27,0,0,1,70.65,120.15Z"/><path class="cls-4" d="M201.78,42.77A3.58,3.58,0,0,1,197,46.35a7.47,7.47,0,0,1-5.26-6.11A3.62,3.62,0,0,1,196,36.07,7.31,7.31,0,0,1,201.78,42.77Z"/><path class="cls-4" d="M224.27,45c3.32,0,6.83,4.39,6.08,7.64a3.12,3.12,0,0,1-3.73,2.56,7,7,0,0,1-5.5-7.38A3.07,3.07,0,0,1,224.27,45Z"/><path class="cls-4" d="M209.7,25.87c3.39,0,6.73,3.9,6.17,7.25a3,3,0,0,1-3.23,2.67c-3.17,0-6.5-3.81-6.15-7A3.06,3.06,0,0,1,209.7,25.87Z"/><path class="cls-4" d="M195.45,6.89c3.08.05,6.34,3.45,6.23,6.51a3.24,3.24,0,0,1-4.14,3.12A7.43,7.43,0,0,1,192.17,11C191.72,8.6,193.11,6.85,195.45,6.89Z"/><path class="cls-4" d="M229.16,22.72a2.93,2.93,0,0,1-3.83,3.06,7.27,7.27,0,0,1-5.19-6.08A3,3,0,0,1,224,16.44,7.15,7.15,0,0,1,229.16,22.72Z"/><path class="cls-4" d="M180.72,12.09a12.91,12.91,0,0,1-2.47,7c-.54.69-1.14,1.61-2.18,1.2s-.92-1.37-.89-2.19a12.12,12.12,0,0,1,2.46-7c.51-.66,1.09-1.43,2.06-1.13C180.82,10.35,180.45,11.49,180.72,12.09Z"/><path class="cls-4" d="M172.06,34.31a11.83,11.83,0,0,1-2.29,6.62c-.47.62-1,1.3-1.91,1s-.94-1.18-1-1.95a11.59,11.59,0,0,1,1.91-6.59c.51-.8,1.08-1.86,2.2-1.57C172.3,32.17,171.92,33.48,172.06,34.31Z"/><path class="cls-4" d="M163.8,55.73A11.27,11.27,0,0,1,161.49,62c-.4.51-.92,1-1.65.72s-.75-.83-.83-1.43a10.81,10.81,0,0,1,1.45-6.68c.49-.88,1-2.11,2.22-1.83C164,53.13,163.72,54.53,163.8,55.73Z"/><path class="cls-4" d="M73,156.39c-5.31,0-9.53.23-13.72-.05-6.07-.4-12.15,0-18.19-.42-4.65-.33-9.29-.08-13.93-.32-2.51-.13-5-.49-7.52-.37-.44,0-1,.06-1.05-.56s.47-.77,1-1c2.94-1.26,6.12-.9,9.14-1,4.7-.2,9.4-.42,14.11-.57,25.27-.78,50.54-.22,75.8-.23,3.29,0,6.7-.15,10,.63.59.14,1.26.22,1.21,1s-.86.57-1.38.62c-6.6.65-13.23.77-19.83,1.21s-13.27.47-19.88.84C83.15,156.43,77.55,156.16,73,156.39Z"/><path class="cls-4" d="M188.91,61.66a9.05,9.05,0,0,1-4.66-1.07c-1.65-1-1.73-2.38-.08-3.25a9.44,9.44,0,0,1,9.1,0c1.77.91,1.69,2.41-.06,3.37A8.91,8.91,0,0,1,188.91,61.66Z"/><path class="cls-4" d="M203.76,65.89a9.85,9.85,0,0,1-4.56-1.06c-1.53-.9-1.58-2-.19-3,2.12-1.53,7.33-1.58,9.49-.11,1.34.92,1.37,2,0,2.91A9.58,9.58,0,0,1,203.76,65.89Z"/><path class="cls-4" d="M217.93,69.83a7.92,7.92,0,0,1-4.12-.82c-1.57-.83-1.7-2.11-.18-2.92a9.71,9.71,0,0,1,9.26-.24c1.47.72,1.45,1.89,0,2.81A8.42,8.42,0,0,1,217.93,69.83Z"/><path class="cls-4" d="M172.16,73.77a8.1,8.1,0,0,1-4.11-.89c-.63-.34-1.26-.76-1.19-1.61a1.66,1.66,0,0,1,1.22-1.37,9.49,9.49,0,0,1,8.23.35c1.54.82,1.41,2.05-.17,2.88A8.3,8.3,0,0,1,172.16,73.77Z"/><path class="cls-4" d="M185.87,77.54a8,8,0,0,1-4-1.09c-1.26-.83-1.26-1.83.09-2.49a9.11,9.11,0,0,1,8.56.17c1.28.67,1.2,1.78-.09,2.52A8.49,8.49,0,0,1,185.87,77.54Z"/><path class="cls-4" d="M199.95,81.08a7.86,7.86,0,0,1-4.3-.9c-1.29-.75-1.31-1.83,0-2.48a9.29,9.29,0,0,1,8.39,0c1.31.64,1.27,1.78,0,2.49A7.83,7.83,0,0,1,199.95,81.08Z"/><path class="cls-4" d="M103.45,68.2c0,1-.17,1.24-1,.8-1-.53-1.29-1.56-1.81-2.4a26.5,26.5,0,0,1-3.75-8.42c-.08-.38-.22-.79.13-1.07s.62,0,.82.24A28.56,28.56,0,0,1,103.45,68.2Z"/><path class="cls-4" d="M95.49,46.93c3,1.9,6.62,9.58,5.73,11.79C98.26,55.68,95.46,50,95.49,46.93Z"/><path class="cls-4" d="M121.24,98A25.38,25.38,0,0,1,115.43,86C118.32,87.64,121.8,94.91,121.24,98Z"/><path class="cls-4" d="M99.89,48.82A19.11,19.11,0,0,1,94.31,38,19,19,0,0,1,99.89,48.82Z"/><path class="cls-4" d="M118.92,86.31a19.42,19.42,0,0,1-5.33-10.9A18.65,18.65,0,0,1,118.92,86.31Z"/><path class="cls-4" d="M111.56,65.63a18.58,18.58,0,0,1,5.15,10.28A18.93,18.93,0,0,1,111.56,65.63Z"/></g></g></svg>