<?xml version="1.0" encoding="utf-8"?>
<!-- Generator: Adobe Illustrator 20.0.0, SVG Export Plug-In . SVG Version: 6.00 Build 0)  -->
<svg version="1.1" xmlns="http://www.w3.org/2000/svg" xmlns:xlink="http://www.w3.org/1999/xlink" viewBox="0 0 256 194" xml:space="preserve">
<style type="text/css">
	.st0{fill:#E3E3E3;}
	.st1{opacity:0.1;fill:#231F20;enable-background:new    ;}
	.st2{fill:#D54B3D;}
	.st3{fill:#D72B27;}
	.st4{fill:url(#SVGID_1_);}
</style>
<g>
	<path class="st0" d="M238.8,193.6H16.2c-8.6,0-15.9-7-15.9-15.9V16.8c0-8.6,7-15.9,15.9-15.9h222.7c8.6,0,15.9,7,15.9,15.9v160.9
		C254.7,186.6,247.7,193.6,238.8,193.6L238.8,193.6z"/>
	<path class="st1" d="M32.1,193.6l95.2-76.6l0.7-4.1L29.8,42.3l-0.2,147.9L32.1,193.6z"/>
	<path class="st2" d="M16.2,193.6c-8.9,0-15.9-7-15.9-15.9V16.6c0-8.9,7-10.5,15.9-10.5S32.1,8,32.1,16.6v177H16.2L16.2,193.6z"/>
	<path class="st3" d="M16.2,8.4c11.4,0,13.6,3.4,13.6,8.2v174.7H16.2c-7.5,0-13.6-6.1-13.6-13.6V16.6C2.5,11.6,4.8,8.4,16.2,8.4
		L16.2,8.4z M16.2,6.1C7.3,6.1,0.2,8,0.2,16.6v161.1c0,8.9,7,15.9,15.9,15.9h15.9v-177C32.1,7.7,25,6.1,16.2,6.1L16.2,6.1L16.2,6.1z
		"/>
	<path class="st2" d="M238.8,193.6h-15.9V16.1c0-8.9,7-10,15.9-10s15.9,1.1,15.9,10v161.8C254.7,186.6,247.7,193.6,238.8,193.6
		L238.8,193.6z"/>
	<path class="st3" d="M238.8,8.4c10.2,0,13.6,2,13.6,7.7v161.8c0,7.5-6.1,13.6-13.6,13.6h-13.6V16.1C225.2,10.2,228.6,8.4,238.8,8.4
		L238.8,8.4z M238.8,6.1c-8.9,0-15.9,1.1-15.9,10v177.7h15.9c8.9,0,15.9-7,15.9-15.9V16.1C254.7,7.3,247.7,6.1,238.8,6.1L238.8,6.1
		L238.8,6.1z"/>
	
		<linearGradient id="SVGID_1_" gradientUnits="userSpaceOnUse" x1="27.8894" y1="197.4886" x2="28.8894" y2="197.4886" gradientTransform="matrix(253.1598 0 0 -174.8345 -7058.895 34634)">
		<stop  offset="0" style="stop-color:#000000;stop-opacity:0.1"/>
		<stop  offset="1" style="stop-color:#000000;stop-opacity:0.2"/>
	</linearGradient>
	<path class="st4" d="M170.7,193.6L1.6,23.2l8.9,3.6l117.7,84.8l126.6-92.8l0,159.2c0,8.6-7,15.7-15.9,15.7H170.7z"/>
	<path class="st2" d="M127.3,117L7.1,29.8C0,24.5-2,14.5,3.2,7.5s15.5-8.6,22.7-3.4l101.6,73.8L229.7,3.2c7-5.2,17-3.6,22.3,3.6
		c5.2,7,3.6,17-3.6,22.3L127.3,117L127.3,117z"/>
	<path class="st3" d="M238.8,2.3L238.8,2.3c4.3,0,8.4,2,11.1,5.7c4.3,6.1,3,14.5-3,19.1l-119.7,87.3L8.4,27.9
		C2.3,23.4,0.7,14.8,5,8.9c2.5-3.4,6.8-5.7,11.4-5.7c3,0,5.9,0.9,8.2,2.7l101.3,73.6l1.4,0.9l1.4-0.9l102-74.8
		C233.2,3.2,235.9,2.3,238.8,2.3L238.8,2.3z M238.8,0c-3.2,0-6.6,0.9-9.3,3L127.3,77.7L25.7,3.9c-2.7-2-6.1-3-9.5-3
		c-5,0-10,2.3-13.2,6.6c-5,7-3,17,4.1,22.3l120.2,87.5l120.9-88.2c7-5.2,8.6-15,3.6-22.3C248.6,2.3,243.8,0,238.8,0L238.8,0L238.8,0
		z"/>
</g>
</svg>
