<svg version="1.1" xmlns="http://www.w3.org/2000/svg" xmlns:xlink="http://www.w3.org/1999/xlink" viewBox="0 0 77.2 89.9" xml:space="preserve">
	<path style="fill: #66AF68;" d="M57.6,4.3c-1-0.6-2.2-0.2-2.7,0.7l-4,6.9c-0.6,1-0.2,2.2,0.7,2.7c1,0.6,2.2,0.2,2.7-0.7 c0,0,0,0,0,0l4-6.9C58.9,6,58.6,4.8,57.6,4.3z M27.3,0.3c-1-0.5-2.2-0.2-2.7,0.8c-0.3,0.5-0.3,1-0.2,1.5l2.1,7.7 c0.3,1.1,1.4,1.7,2.4,1.4s1.7-1.4,1.4-2.4c0,0,0,0,0,0l-2.1-7.7C28.1,1,27.7,0.5,27.3,0.3L27.3,0.3z M76.3,28.5 c-0.5-0.3-1-0.3-1.5-0.2L67,30.4c-1.1,0.3-1.7,1.4-1.4,2.5c0.3,1,1.4,1.6,2.4,1.4l7.7-2.1c1.1-0.3,1.7-1.4,1.4-2.5 C77,29.2,76.7,28.8,76.3,28.5L76.3,28.5z M49.6,18.1C38.2,11.5,22,14,14.7,26.6c-4.6,8-4.4,14.8-3.9,20.5s1.3,10.1-1.4,14.7l-6,10.4 c-1.6,2.9-0.7,6.5,2.2,8.2l0.9,0.5c-1.6,2.9-0.6,6.5,2.3,8.2c2.9,1.6,6.5,0.7,8.1-2.2l0.9,0.5c2.9,1.6,6.5,0.7,8.2-2.2l6-10.4 c2.7-4.6,6.8-6.2,12-8.6c5.2-2.4,11.2-5.7,15.8-13.6C67,40,61.1,24.7,49.6,18.1L49.6,18.1z M47.6,21.6c9.7,5.6,14.7,18.5,8.6,29.1 c-4.1,7.1-9,9.7-14,12c-4.5,2.1-9.3,3.9-12.7,8.6L13.7,62c2.3-5.2,1.5-10.4,1-15.3c-0.5-5.5-0.7-11,3.4-18.1 C24.3,18.1,38,16,47.6,21.6L47.6,21.6z M3,18.9c-1-0.5-2.2-0.2-2.7,0.8c-0.5,1-0.2,2.2,0.7,2.7l6.9,4c1,0.5,2.2,0.2,2.7-0.8 c0.5-1,0.2-2.2-0.7-2.7L3,18.9z M65.3,54.9c-1-0.5-2.2-0.2-2.7,0.8c-0.5,1-0.2,2.2,0.7,2.7l6.9,4c1,0.6,2.2,0.2,2.7-0.7 c0.6-1,0.2-2.2-0.7-2.7c0,0,0,0,0,0L65.3,54.9z M11.8,65.6l15.6,9l-2,3.5L9.8,69L11.8,65.6L11.8,65.6z M7.8,72.5l15.6,9l-1,1.7 c-0.5,1-1.7,1.3-2.7,0.8c0,0,0,0,0,0L7.6,77c-1-0.5-1.3-1.7-0.8-2.7c0,0,0,0,0,0C6.8,74.2,7.8,72.5,7.8,72.5z M9.9,82.9l3.5,2 c-0.5,1-1.8,1.3-2.7,0.8C9.7,85.1,9.3,83.9,9.9,82.9C9.9,82.9,9.9,82.9,9.9,82.9z"/>
</svg>
