<svg version="1.1" xmlns="http://www.w3.org/2000/svg" xmlns:xlink="http://www.w3.org/1999/xlink" viewBox="0 0 256 180" xml:space="preserve">
	<path style="fill: #00A1E0;" d="M106.6,19.7c8.2-8.6,19.7-13.9,32.4-13.9c16.9,0,31.6,9.4,39.5,23.4c6.8-3,14.4-4.7,22.3-4.7 c30.4,0,55.1,24.9,55.1,55.6c0,30.7-24.7,55.6-55.1,55.6c-3.7,0-7.3-0.4-10.9-1.1c-6.9,12.3-20.1,20.6-35.2,20.6 c-6.3,0-12.3-1.5-17.6-4.1c-7,16.5-23.3,28-42.3,28c-19.8,0-36.7-12.5-43.2-30.1c-2.8,0.6-5.8,0.9-8.8,0.9 c-23.6,0-42.7-19.3-42.7-43.1c0-16,8.6-29.9,21.3-37.4c-2.6-6-4.1-12.7-4.1-19.7c0-27.4,22.2-49.6,49.7-49.6 C83.2,0.1,97.5,7.8,106.6,19.7"/>
	<path style="fill: #ffffff;" d="M37.2,93c-0.2,0.4,0.1,0.5,0.1,0.6c0.5,0.3,1,0.6,1.5,0.9c2.6,1.4,5.1,1.8,7.6,1.8c5.2,0,8.5-2.8,8.5-7.3v-0.1 c0-4.2-3.7-5.7-7.1-6.8l-0.4-0.1c-2.6-0.8-4.8-1.6-4.8-3.3v-0.1c0-1.5,1.3-2.5,3.3-2.5c2.3,0,4.9,0.8,6.7,1.7c0,0,0.5,0.3,0.7-0.2 c0.1-0.3,1-2.6,1.1-2.9c0.1-0.3-0.1-0.5-0.3-0.6c-2-1.2-4.7-2-7.5-2l-0.5,0c-4.8,0-8.2,2.9-8.2,7.1v0.1c0,4.4,3.7,5.8,7.2,6.8 l0.6,0.2c2.5,0.8,4.7,1.4,4.7,3.2v0.1c0,1.6-1.4,2.8-3.7,2.8c-0.9,0-3.7,0-6.8-1.9c-0.4-0.2-0.6-0.4-0.9-0.5 c-0.1-0.1-0.5-0.3-0.7,0.2L37.2,93L37.2,93z"/>
	<path style="fill: #ffffff;" d="M114,93c-0.2,0.4,0.1,0.5,0.1,0.6c0.5,0.3,1,0.6,1.5,0.9c2.6,1.4,5.1,1.8,7.6,1.8c5.2,0,8.5-2.8,8.5-7.3v-0.1 c0-4.2-3.7-5.7-7.1-6.8l-0.4-0.1c-2.6-0.8-4.8-1.6-4.8-3.3v-0.1c0-1.5,1.3-2.5,3.3-2.5c2.3,0,4.9,0.8,6.7,1.7c0,0,0.5,0.3,0.7-0.2 c0.1-0.3,1-2.6,1.1-2.9c0.1-0.3-0.1-0.5-0.3-0.6c-2-1.2-4.7-2-7.5-2l-0.5,0c-4.8,0-8.2,2.9-8.2,7.1v0.1c0,4.4,3.7,5.8,7.2,6.8 l0.6,0.2c2.5,0.8,4.7,1.4,4.7,3.2v0.1c0,1.6-1.4,2.8-3.7,2.8c-0.9,0-3.7,0-6.8-1.9c-0.4-0.2-0.6-0.4-0.9-0.5 c-0.1-0.1-0.5-0.2-0.7,0.2L114,93L114,93z"/>
	<path style="fill: #ffffff;" d="M166.4,84.2c0,2.5-0.5,4.5-1.4,6c-0.9,1.4-2.3,2.1-4.3,2.1c-1.9,0-3.3-0.7-4.2-2.1c-0.9-1.4-1.4-3.4-1.4-6 c0-2.5,0.5-4.5,1.4-5.9c0.9-1.4,2.3-2.1,4.2-2.1c1.9,0,3.3,0.7,4.3,2.1C165.9,79.6,166.4,81.6,166.4,84.2 M170.8,79.5 c-0.4-1.5-1.1-2.7-2-3.8c-0.9-1.1-2-1.9-3.4-2.6c-1.3-0.6-2.9-0.9-4.7-0.9c-1.8,0-3.4,0.3-4.7,0.9c-1.3,0.6-2.5,1.5-3.4,2.6 c-0.9,1.1-1.6,2.4-2,3.8c-0.4,1.4-0.6,3-0.6,4.7s0.2,3.3,0.6,4.7c0.4,1.4,1.1,2.7,2,3.8c0.9,1.1,2,1.9,3.4,2.5 c1.3,0.6,2.9,0.9,4.7,0.9c1.8,0,3.4-0.3,4.7-0.9c1.3-0.6,2.5-1.5,3.4-2.5c0.9-1.1,1.6-2.3,2-3.8c0.4-1.4,0.6-3,0.6-4.7 C171.4,82.5,171.2,80.9,170.8,79.5"/>
	<path style="fill: #ffffff;" d="M206.7,91.5c-0.1-0.4-0.6-0.3-0.6-0.3c-0.6,0.2-1.3,0.5-2,0.6c-0.7,0.1-1.5,0.2-2.4,0.2c-2.1,0-3.8-0.6-5-1.9 c-1.2-1.2-1.9-3.3-1.9-6c0-2.5,0.6-4.3,1.7-5.8c1.1-1.4,2.7-2.1,4.9-2.1c1.8,0,3.2,0.2,4.6,0.7c0,0,0.3,0.1,0.5-0.3 c0.4-1.1,0.7-1.8,1.1-3c0.1-0.3-0.2-0.5-0.3-0.5c-0.6-0.2-1.9-0.6-2.9-0.7c-0.9-0.1-2.1-0.2-3.3-0.2c-1.8,0-3.5,0.3-4.9,0.9 c-1.4,0.6-2.6,1.5-3.5,2.6c-0.9,1.1-1.7,2.4-2.1,3.8c-0.5,1.4-0.7,3-0.7,4.7c0,3.6,1,6.6,2.9,8.7c1.9,2.2,4.8,3.3,8.6,3.3 c2.2,0,4.5-0.5,6.2-1.1c0,0,0.3-0.2,0.2-0.5L206.7,91.5L206.7,91.5z"/>
	<path style="fill: #ffffff;" d="M214.4,81.7c0.2-1.4,0.6-2.6,1.2-3.5c0.9-1.4,2.3-2.1,4.2-2.1s3.2,0.8,4.2,2.1c0.6,0.9,0.9,2.1,1,3.5H214.4 L214.4,81.7z M229.1,78.6c-0.4-1.4-1.3-2.8-1.9-3.5c-1-1-1.9-1.7-2.8-2.1c-1.2-0.5-2.7-0.9-4.2-0.9c-1.9,0-3.5,0.3-4.9,1 c-1.4,0.6-2.5,1.5-3.4,2.6c-0.9,1.1-1.6,2.4-2,3.8c-0.4,1.5-0.7,3.1-0.7,4.7c0,1.7,0.2,3.3,0.7,4.7c0.5,1.4,1.2,2.7,2.1,3.8 c1,1.1,2.2,1.9,3.7,2.5c1.5,0.6,3.3,0.9,5.4,0.9c4.3,0,6.5-1,7.5-1.5c0.2-0.1,0.3-0.3,0.1-0.7l-1-2.7c-0.1-0.4-0.6-0.3-0.6-0.3 c-1.1,0.4-2.6,1.1-6.1,1.1c-2.3,0-4-0.7-5.1-1.7c-1.1-1.1-1.6-2.7-1.7-4.9l14.8,0c0,0,0.4,0,0.4-0.4C229.6,84.9,230.1,82,229.1,78.6 L229.1,78.6z"/>
	<path style="fill: #ffffff;" d="M95.7,81.7c0.2-1.4,0.6-2.6,1.2-3.5c0.9-1.4,2.3-2.1,4.2-2.1s3.2,0.8,4.2,2.1c0.6,0.9,0.9,2.1,1,3.5H95.7 L95.7,81.7z M110.4,78.6c-0.4-1.4-1.3-2.8-1.9-3.5c-1-1-1.9-1.7-2.8-2.1c-1.2-0.5-2.7-0.9-4.2-0.9c-1.8,0-3.5,0.3-4.9,1 c-1.4,0.6-2.5,1.5-3.4,2.6c-0.9,1.1-1.6,2.4-2,3.8c-0.4,1.5-0.7,3.1-0.7,4.7c0,1.7,0.2,3.3,0.7,4.7c0.5,1.4,1.2,2.7,2.1,3.8 c1,1.1,2.2,1.9,3.7,2.5c1.5,0.6,3.3,0.9,5.4,0.9c4.3,0,6.5-1,7.5-1.5c0.2-0.1,0.3-0.3,0.1-0.7l-1-2.7c-0.1-0.4-0.6-0.3-0.6-0.3 c-1.1,0.4-2.6,1.1-6.1,1.1c-2.3,0-4-0.7-5.1-1.7c-1.1-1.1-1.6-2.7-1.7-4.9l14.8,0c0,0,0.4,0,0.4-0.4C110.9,84.9,111.4,82,110.4,78.6 L110.4,78.6z"/>
	<path style="fill: #ffffff;" d="M63.6,91.4c-0.6-0.5-0.7-0.6-0.9-0.9c-0.3-0.5-0.4-1.1-0.4-1.9c0-1.3,0.4-2.2,1.3-2.9c0,0,1.3-1.1,4.3-1.1 c2.1,0,4,0.3,4,0.3v6.7h0c0,0-1.9,0.4-4,0.5C65,92.5,63.6,91.4,63.6,91.4 M69.5,81c-0.6,0-1.4-0.1-2.3-0.1c-1.3,0-2.5,0.2-3.7,0.5 c-1.2,0.3-2.2,0.8-3.1,1.4c-0.9,0.6-1.6,1.5-2.1,2.4c-0.5,1-0.8,2.1-0.8,3.4c0,1.3,0.2,2.5,0.7,3.4c0.5,0.9,1.1,1.7,1.9,2.3 c0.8,0.6,1.8,1,3,1.3c1.2,0.3,2.5,0.4,3.9,0.4c1.5,0,3-0.1,4.5-0.4c1.5-0.2,3.2-0.6,3.7-0.7c0.5-0.1,1-0.3,1-0.3 c0.4-0.1,0.3-0.5,0.3-0.5l0-13.6c0-3-0.8-5.2-2.4-6.5c-1.6-1.4-3.8-2.1-6.8-2.1c-1.1,0-2.9,0.2-4,0.4c0,0-3.2,0.6-4.6,1.7 c0,0-0.3,0.2-0.1,0.6l1,2.8c0.1,0.4,0.5,0.2,0.5,0.2s0.1,0,0.2-0.1c2.9-1.6,6.5-1.5,6.5-1.5c1.6,0,2.8,0.3,3.7,1 c0.8,0.6,1.2,1.6,1.2,3.5v0.6C70.7,81.1,69.5,81,69.5,81"/>
	<path style="fill: #ffffff;" d="M189.1,73.4c0.1-0.3-0.1-0.5-0.2-0.5c-0.3-0.1-1.5-0.4-2.5-0.4c-1.9-0.1-2.9,0.2-3.8,0.6 c-0.9,0.4-1.9,1.1-2.5,1.8v-1.8c0-0.3-0.2-0.5-0.4-0.5h-3.8c-0.2,0-0.4,0.2-0.4,0.5v22.1c0,0.2,0.2,0.5,0.5,0.5h3.9 c0.2,0,0.4-0.2,0.4-0.5v-11c0-1.5,0.2-3,0.5-3.9c0.3-0.9,0.8-1.7,1.3-2.2c0.5-0.5,1.2-0.9,1.8-1.1c0.7-0.2,1.4-0.3,2-0.3 c0.8,0,1.6,0.2,1.6,0.2c0.3,0,0.4-0.1,0.5-0.4C188.2,75.8,189,73.8,189.1,73.4"/>
	<path style="fill: #ffffff;" d="M152.5,63.1c-0.5-0.1-0.9-0.2-1.5-0.3c-0.6-0.1-1.2-0.2-2-0.2c-2.7,0-4.8,0.8-6.3,2.3c-1.5,1.5-2.5,3.7-3,6.7 l-0.2,1h-3.4c0,0-0.4,0-0.5,0.4l-0.6,3.1c0,0.3,0.1,0.5,0.5,0.5h3.3l-3.3,18.6c-0.3,1.5-0.6,2.7-0.9,3.7c-0.3,0.9-0.6,1.6-1,2.1 c-0.4,0.5-0.7,0.8-1.4,1c-0.5,0.2-1.1,0.3-1.7,0.3c-0.4,0-0.8-0.1-1.2-0.1c-0.3-0.1-0.5-0.1-0.8-0.3c0,0-0.4-0.1-0.5,0.2 c-0.1,0.3-1,2.7-1.1,3c-0.1,0.3,0,0.5,0.2,0.6c0.4,0.2,0.8,0.3,1.4,0.4c0.8,0.2,1.5,0.2,2.2,0.2c1.4,0,2.6-0.2,3.6-0.6 c1-0.4,1.9-1,2.7-1.9c0.9-1,1.4-2,1.9-3.3c0.5-1.3,1-3,1.3-5l3.3-18.9h4.9c0,0,0.4,0,0.5-0.4l0.6-3.1c0-0.3-0.1-0.5-0.5-0.5h-4.7 c0-0.1,0.2-1.8,0.8-3.3c0.2-0.7,0.7-1.2,1-1.6c0.4-0.4,0.8-0.6,1.2-0.8c0.5-0.2,1-0.2,1.6-0.2c0.4,0,0.9,0.1,1.2,0.1 c0.5,0.1,0.6,0.1,0.8,0.2c0.5,0.1,0.6,0,0.6-0.2l1.1-3.1C152.9,63.3,152.6,63.2,152.5,63.1"/>
	<path style="fill: #ffffff;" d="M86.3,95.2c0,0.2-0.2,0.4-0.4,0.4H82c-0.2,0-0.4-0.2-0.4-0.4V63.6c0-0.2,0.2-0.4,0.4-0.4h3.9 c0.2,0,0.4,0.2,0.4,0.4V95.2L86.3,95.2z"/>
</svg>
