<svg xmlns="http://www.w3.org/2000/svg" viewBox="0 0 497.75 266.9"><defs><style>.cls-1,.cls-7,.cls-8{fill:none;}.cls-2{fill:#a16479;}.cls-3{fill:#808184;}.cls-4{fill:#f7da68;}.cls-5{fill:#8a3d58;}.cls-6{fill:#f7f7f7;}.cls-7,.cls-8{stroke:#a6a8ab;stroke-linecap:round;stroke-miterlimit:10;}.cls-8{stroke-width:2px;}</style></defs><title>graphic-smartcustomers</title><g id="Layer_2" data-name="Layer 2"><g id="Layer_1-2" data-name="Layer 1"><rect class="cls-1" x="115.55" y="118.44" width="43.58" height="37.17"/><rect class="cls-1" x="175.8" y="67.17" width="39.73" height="40.38"/><path class="cls-2" d="M131,136h0a.85.85,0,0,1-.22.88l-2,2,.48,2.81h0a.86.86,0,0,1-.84,1,.86.86,0,0,1-.4-.1l-2.51-1.33L123,142.56a.85.85,0,0,1-1.24-.9l.48-2.81-2-2a.85.85,0,0,1,.47-1.45l2.82-.41,1.26-2.56h0a.85.85,0,0,1,1.53,0l1.26,2.56,2.82.41h0A.85.85,0,0,1,131,136Zm19.79,1.56h0a2.16,2.16,0,0,1-2.16,2.16H136.84a2.16,2.16,0,1,1,0-4.32h11.83A2.16,2.16,0,0,1,150.83,137.55Zm-20-39.84-2,2,.48,2.81h0a.86.86,0,0,1-1.24.9l-2.51-1.33L123,103.41a.85.85,0,0,1-1.24-.9l.48-2.81-2-2a.85.85,0,0,1,.47-1.45l2.82-.41,1.26-2.56h0a.85.85,0,0,1,1.53,0l1.26,2.56,2.82.41h0a.85.85,0,0,1,.47,1.45Zm3.85.68h0a2.16,2.16,0,0,1,2.16-2.16h11.83a2.16,2.16,0,0,1,0,4.32H136.84A2.16,2.16,0,0,1,134.68,98.39Zm15.24,21.94h-13a2.36,2.36,0,1,1,0-4.72h13a2.36,2.36,0,1,1,0,4.72Zm-19.54-3.12-2.24,2.17.52,3.07h0a.94.94,0,0,1-1.33,1L124.57,122l-2.76,1.46a.93.93,0,0,1-1.35-1l.52-3.07-2.21-2.2a.93.93,0,0,1,.52-1.59l3.06-.46,1.38-2.8a.93.93,0,0,1,1.68,0l1.38,2.8,3.09.45h0a.93.93,0,0,1,.52,1.59Zm27-9.35h-44a2.21,2.21,0,0,0-2.21,2.21V125.4a2.21,2.21,0,0,0,2.21,2.2h44a2.21,2.21,0,0,0,2.21-2.21V110.08A2.21,2.21,0,0,0,157.38,107.88Z"/><path class="cls-3" d="M65.17,105.85l.09-.1H65l.06.07S65.14,105.91,65.17,105.85Z"/><path class="cls-3" d="M92.92,71.78h0A9,9,0,0,1,93,74,9.72,9.72,0,0,1,92.85,75l-.16.79-.61,3-1.24,6-1.3,6-.67,3-.35,1.49v.19l-.07.26-.15.52c-.11.34-.25.66-.39,1h0a8.8,8.8,0,0,1-8.47,5.1,4.78,4.78,0,0,1-1-.13c-.33-.07-.7-.15-.93-.21l-1.12-.33-.74,4-.13.68a6.64,6.64,0,0,1-.22.93,3.59,3.59,0,0,1-2.17,2.18,3.64,3.64,0,0,1-3.07-.29,3.75,3.75,0,0,1-1.15-1.09l-.4-.58-5.74-8.41-3.91-.78c-2.78-.56-5.55-1.2-8.27-1.85L48.52,96l-1-.28L47,95.54l-.66-.18A8.3,8.3,0,0,1,42,92.13,5.61,5.61,0,0,1,41,87.5c.33-1.16,1-1.68,1.59-1.65s1,.65,1.35,1.35h0a10.3,10.3,0,0,0,1.39,2.28,4.26,4.26,0,0,0,1.33,1,4.07,4.07,0,0,0,.78.28l.4.08.66.11q2.71.46,5.41,1,5.36,1.05,10.75,2.22a2.77,2.77,0,0,1,1.76,1.21q2.52,3.9,5,7.85l.17-.93.71-3.65a2.65,2.65,0,0,1,3.1-2.09h.07l2.06.41,1,.21h0a5,5,0,0,0,.66.09,3.88,3.88,0,0,0,3.95-2.49,1.65,1.65,0,0,0,.1-.3,3.54,3.54,0,0,0,.11-.39l.24-1,.48-2,3.94-16.34.13-.52.08-.39h0a4.35,4.35,0,0,0,.1-.75,4.88,4.88,0,0,0-.16-1.49,5.54,5.54,0,0,0-1.59-2.69A6.09,6.09,0,0,0,85.29,68l-.38-.18-.45-.18-.86-.47q-1.76-.78-3.35-1.67C79,64.76,78.19,64,79,63.47h0a4.14,4.14,0,0,1,2.37-.35l3,.67.75.17.37.08h.18l.26.06a8.88,8.88,0,0,1,2,.76A9.33,9.33,0,0,1,92.92,71.78Z"/><path class="cls-4" d="M40.06,59.12h0a12.31,12.31,0,0,0-3.17.17c-1.64.4-3.23,1-4.84,1.55-3.29-1-6.12.57-9.19.86-.14,0-.24.54-.24.93h0a2.45,2.45,0,0,0,.65,1.62,4.18,4.18,0,0,0,3.35,1.62c2.56-.12,5.18,0,7.58-1h.93A15,15,0,0,0,41,63.37c.52-.28.85-1,.54-2.26S40.65,59.14,40.06,59.12Z"/><path class="cls-4" d="M48.2,50.61a2.15,2.15,0,0,0-1.91-1.85,25.8,25.8,0,0,0-4.63.46c-2.4.55-4.76,1.33-7.12,2-4.63-.68-8.88,1.15-13.32,1.72-.19,0-.4.57-.42.93a1.86,1.86,0,0,0,.78,1.59,6.4,6.4,0,0,0,4.63,1.34c3.7-.36,7.46-.5,11-1.72A11.23,11.23,0,0,0,38.61,55a31.46,31.46,0,0,0,8.52-2.05A1.85,1.85,0,0,0,48.2,50.61Z"/><path class="cls-4" d="M24.47,48.21c3.7-.36,7.46-.5,11-1.72a11.23,11.23,0,0,0,1.39-.13,31.64,31.64,0,0,0,8.52-2.05,1.85,1.85,0,0,0,1-2.35,2.15,2.15,0,0,0-1.91-1.85h0a25.76,25.76,0,0,0-4.63.46c-2.4.55-4.76,1.33-7.12,2-4.63-.68-8.88,1.15-13.32,1.72-.19,0-.4.57-.42.93h0a1.86,1.86,0,0,0,.78,1.59A6.38,6.38,0,0,0,24.47,48.21Z"/><path class="cls-4" d="M0,44.88H0a11.62,11.62,0,0,1,.08-2.55,11,11,0,0,1,5.55-8.06A11.28,11.28,0,0,1,8,33.34c.93-.23,1.45-.3,2.14-.45l4-.78A253.42,253.42,0,0,1,47,27.58c3-.21,5,0,3.68,1a15.22,15.22,0,0,1-4.42,1.76q-11.9,2.36-23.89,4.9L10.45,37.75l-.73.16-.5.14h0a6.5,6.5,0,0,0-.93.4,6,6,0,0,0-1.64,1.23,5.92,5.92,0,0,0-1.59,3.7,6.2,6.2,0,0,0,0,1l.08.52.15.73.63,3,1.22,6L9.53,66.55l1.15,5.93a6.39,6.39,0,0,0,2.14,3.64,6.53,6.53,0,0,0,4,1.53h.55l.55-.06,1.45-.24,3-.51h.17a2,2,0,0,1,2.29,1.63l.93,5.74.66,3.06.17.77a.19.19,0,0,0,0,.11h0a.28.28,0,0,0,.13.08h.17l.19-.3,1.68-2.64,6.74-10.55h0a2,2,0,0,1,1.28-.93h0l15.55-3.41,3.88-.84,1.94-.41,1.17-.26.24-.06.17,0,.35-.09h0a6.48,6.48,0,0,0,4.52-7c0-.45-.24-1.32-.38-2l-.43-2.16-1.7-8.69-1.65-8.7-.81-4.34-.4-2.15h0A6.84,6.84,0,0,0,58.77,32,9,9,0,0,0,54,27.62c-1.64-.68-2.93-.87-3.28-1.43-.18-.29,0-.61.55-.93h0a5.63,5.63,0,0,1,2.78-.6,9.24,9.24,0,0,1,4.32,1.15,10.46,10.46,0,0,1,4,3.94,11.12,11.12,0,0,1,1,2.47l.17.64.12.51.28,1,.93,4.11,1.85,8.22,1.8,8.24L69.53,59l.22,1c.07.41.16.93.21,1.35h0A11.63,11.63,0,0,1,63.58,72.9a11.35,11.35,0,0,1-2.63.93l-2.12.44-4.13.84L39,78.25l-5.29,7.83L31,90.36l-.17.27a6,6,0,0,1-.39.52h0a4.76,4.76,0,0,1-8.09-1.48,5.41,5.41,0,0,1-.18-.66l-.06-.3L22,88.09l-.27-1.24-.53-2.48-.49-2.31-1.39.29c-.29.06-.81.15-1.23.2s-.93.06-1.33.09h0a12,12,0,0,1-2.65-.31,11.47,11.47,0,0,1-7.88-6.62c-.16-.41-.32-.83-.44-1.26l-.15-.64-.08-.32,0-.25-.4-2-.79-4-1.57-8-1.57-8-.78-4-.22-1A9.9,9.9,0,0,0,0,44.88Z"/><path class="cls-3" d="M46.78,163.74a5.38,5.38,0,0,1,1.31.15l.16,0,.1.05.22.06.45.12,1.79.46a2.5,2.5,0,0,1,1.18.84h0c.31.52-.32.71-1.21.75-.73,0-1.49,0-2.27,0l-.59,0-.29,0h-.26a3.69,3.69,0,0,0-1,.13,3.36,3.36,0,0,0-1.6,1,3,3,0,0,0-.5.76,2.63,2.63,0,0,0-.15.43h0l-.06.23L44,169l-2.37,9.9-.3,1.24-.15.62a2.14,2.14,0,0,0-.05.24,1,1,0,0,0,0,.19,2.35,2.35,0,0,0,1.44,2.43,3,3,0,0,0,.38.13h0l.62.17,1.23.34,0,0a1.61,1.61,0,0,1,1.1,2l-.62,2.17-.16.55q2.42-1.45,4.85-2.87a1.68,1.68,0,0,1,1.28-.17q3.23.85,6.41,1.76,1.6.46,3.19,1l.38.12.24.07a2.46,2.46,0,0,0,.5.06,2.58,2.58,0,0,0,1-.2,6.24,6.24,0,0,0,1.38-.85h0c.38-.28.78-.5,1.1-.36s.54.61.4,1.33a3.4,3.4,0,0,1-1.77,2.24,5,5,0,0,1-3.25.54l-.4-.08-.32-.07-.62-.12-1.25-.29c-1.65-.4-3.32-.82-5-1.28L51,189.14l-5.41,3-.38.2a2.27,2.27,0,0,1-.92.27,2.21,2.21,0,0,1-1.74-.69,2.17,2.17,0,0,1-.57-1.78,4,4,0,0,1,.13-.56l.12-.41.7-2.36-.69-.13-.56-.14a2.89,2.89,0,0,1-.58-.21,5.33,5.33,0,0,1-3.16-5.08h0c0-.22,0-.43.06-.65l.06-.32,0-.16.05-.1.22-.9.46-1.79.95-3.59,1-3.58.5-1.79.13-.47a5.89,5.89,0,0,1,.21-.62,5.45,5.45,0,0,1,.65-1.15h0A5.65,5.65,0,0,1,46.78,163.74Z"/><path class="cls-4" d="M69.74,173.45c-.35.55-.31,1-.11,1.18a7.62,7.62,0,0,0,2.56,1.67h0l.45.15a11.23,11.23,0,0,0,3.49,1.72,2.13,2.13,0,0,0,1.88-.23,1.25,1.25,0,0,0,.58-.68h0c.06-.19.1-.46,0-.49-1.43-.64-2.55-1.85-4.29-1.92-.69-.52-1.36-1.08-2.08-1.54a6.26,6.26,0,0,0-1.5-.6h0C70.47,172.63,70.1,172.9,69.74,173.45Z"/><path class="cls-4" d="M68.37,168.58A16,16,0,0,0,72.14,171a5.72,5.72,0,0,0,.65.29,24.35,24.35,0,0,0,5,2.63,3.26,3.26,0,0,0,2.45.11.94.94,0,0,0,.63-.64c0-.17,0-.48-.05-.52-2-1-3.8-2.58-6.14-3-1-.72-2-1.48-3.1-2.14a13.13,13.13,0,0,0-2.15-1,1.1,1.1,0,0,0-1.22.58A.94.94,0,0,0,68.37,168.58Z"/><path class="cls-4" d="M82.55,170.11a1,1,0,0,0,.64-.64h0c0-.17,0-.48-.05-.52-2-1-3.8-2.58-6.14-3-1-.72-2-1.48-3.1-2.14a13.11,13.11,0,0,0-2.15-1h0a1.1,1.1,0,0,0-1.22.58.94.94,0,0,0,.09,1.29,16.1,16.1,0,0,0,3.77,2.38,5.72,5.72,0,0,0,.65.29,24.36,24.36,0,0,0,5,2.63A3.25,3.25,0,0,0,82.55,170.11Z"/><path class="cls-4" d="M92.1,173l-.27.45-1,1.81-2.07,3.62-2.07,3.62-1,1.81-.52.9-.06.11-.09.14-.18.28c-.13.18-.27.36-.42.53a5.84,5.84,0,0,1-4.88,1.9,6.1,6.1,0,0,1-1.33-.28h0c-.19-.08-.44-.17-.63-.26l-.56-.3-.62-.37-.61,1-.66,1.11-.33.55-.16.28-.08.14a2.75,2.75,0,0,1-.19.29,2.42,2.42,0,0,1-4.14-.61h0a3,3,0,0,1-.1-.31l0-.16-.61-2.51-1.27-4.64-7-4.07L59.24,177l-.95-.56a5.78,5.78,0,0,1-1.12-.87,5.92,5.92,0,0,1-1.2-6.58h0c.09-.2.22-.43.32-.62l.27-.46L57.69,166l2.21-3.68,2.23-3.66,1.12-1.83.3-.43.14-.23.19-.28a5.66,5.66,0,0,1,.9-1,5.32,5.32,0,0,1,2.58-1.25,4.7,4.7,0,0,1,2.27.15,2.87,2.87,0,0,1,1.24.74h0c.22.24.25.42.12.54s-.91.09-1.81.15a4.58,4.58,0,0,0-3,1.34,3.48,3.48,0,0,0-.52.69h0l-.55,1-1.1,2-2.21,3.92-2.24,3.91L59,169c-.18.31-.41.69-.51.9a3.3,3.3,0,0,0,1,4.13h0l.15.1.08.05.11.07.52.31.87.52,1.73,1,6.94,4.18h0a1,1,0,0,1,.46.65h0l1.53,6.18.38,1.55,0,.18h0l.08,0,.08,0h0a.1.1,0,0,0,0-.05l.21-.34.82-1.36,1.38-2.62a1,1,0,0,1,1.37-.41l.08,0,1.36.73.66.35.26.12.27.09a3.33,3.33,0,0,0,2.19-.08A3.25,3.25,0,0,0,82.75,184l1.52-2.67,3.09-5.37,1.56-2.68.79-1.34.19-.33.12-.24a3.15,3.15,0,0,0,.17-.49,3,3,0,0,0-.16-2,3.05,3.05,0,0,0-.59-.86,3.31,3.31,0,0,0-.38-.34h0l-.22-.15-.33-.2-5.34-3.16q-5.37-3.17-10.72-6.26a7.75,7.75,0,0,1-1.84-1.57c-.46-.69.53-.47,1.94.12a129,129,0,0,1,15.1,7.55l1.81,1c.31.19.55.3,1,.57a5.74,5.74,0,0,1,1,.83,5.6,5.6,0,0,1,1.36,4.79,5.92,5.92,0,0,1-.38,1.24h0A5,5,0,0,0,92.1,173Z"/><g id="GCRNtS.tif"><path class="cls-3" d="M436.75,0a46.77,46.77,0,0,1,7.8.63c6.52,1.1,10.5,6.68,10.51,13.67q.06,47.21,0,94.42,0,68.39,0,136.77a10.67,10.67,0,0,1-.68,4.52c-.78,1.69.06,1.79,1.35,1.87,6.92.42,13.85.52,20.78.37,3.38-.08,6.76-.08,10.15-.29,3.66-.23,7.35.62,11,.3v7.87c-1.8,1-3.3,2.5-5.44,2.8-1.23-1.1-2.67-.5-3.93-.3a46.92,46.92,0,0,1-7.56.72l-146.48,0q-140,0-279.94,0c-4,0-8.12.79-12.13-.38-.19-.05-.49.28-.74.44a12.38,12.38,0,0,1-7.18-4.18v-6.94c3.35-.09,3.41,0,2.88,3.28a8.26,8.26,0,0,0-.06,1.15c-.06,3.15.41,3.58,3.53,3.31a19.43,19.43,0,0,1-.24-6.27c.08-1.35,1.33-1.86,2.54-1.82,7.22.27,33.37.62,36.08-.31-1.37-3.42-1.13-7-1.13-10.62q0-112.7,0-225.41c0-5.4,1.73-9.91,6.17-13.18,2.67-2,5.85-2.34,9-2.34M452.3,252.16a44.63,44.63,0,0,0,1.6-11.44q0-111.91,0-223.81c0-1.23,0-2.47-.1-3.7-.59-7.12-5.27-11.56-12.41-11.77-1.16,0-2.31,0-3.47,0H146.74l-53.23,0c-2.71,0-5.41.07-7.87,1.44-5.09,2.84-6.41,7.55-6.41,12.92q0,113.18,0,226.36a49.42,49.42,0,0,0,.62,7.6c.24,1.56.91,2.57,2.63,2.54-.21,1.9-1.4,1.11-2.36.83-3.53-1-4.14-.62-4.61,2.86-.13,1,.12,2-.1,2.9-.32,1.29.36,1.19,1.18,1.25,3.45.28,16.59-.09,16.6,0H426c8.33,0,16.66,0,25,0,1.45,0,2.18-.18,1-1.7-.58-.74-1.35-1.51-.36-2.61.43-.47-.27-.75-.64-1-.53-.32-1.11-.59-1-1.39.68-.47,1.49-.08,2.2-.29S452.68,252.54,452.3,252.16Z"/><path class="cls-5" d="M41.52,263.38c.25-.15.55-.49.74-.44,4,1.17,8.1.38,12.13.38q140,.09,279.94,0l146.48,0a46.92,46.92,0,0,0,7.56-.72c1.27-.21,2.71-.8,3.93.3a38.33,38.33,0,0,1-8,2.37,113.11,113.11,0,0,1-20,1.31l-190.17,0c-37.63,0-75.27.29-112.9-.08s-75.37,1.69-113-1.3Z"/><path class="cls-5" d="M82.46,252.26c-1.72,0-2.39-1-2.63-2.54a49.42,49.42,0,0,1-.62-7.6q0-113.18,0-226.36c0-5.37,1.31-10.08,6.41-12.92,2.46-1.37,5.16-1.44,7.87-1.44l53.23,0H437.91c1.16,0,2.31,0,3.47,0,7.14.21,11.83,4.64,12.41,11.77.1,1.23.1,2.47.1,3.7q0,111.91,0,223.81a44.62,44.62,0,0,1-1.6,11.44c-1,0-2,0-3,0l-148.09-.05c-.84,0-1.68.1-2.53.15q-32.4-.55-64.8,0c-.77,0-1.53-.14-2.3-.14q-28.32,0-56.64,0l-86,.09H82.46Z"/><path class="cls-3" d="M298.67,252.29c-.6,3.55-2.29,5-5.67,5H240.36c-4,0-5.44-1.14-6.48-5Q266.28,251.79,298.67,252.29Z"/></g><rect class="cls-6" x="90.29" y="17.14" width="351.5" height="219.41"/><path class="cls-3" d="M130.88,146.74l-2,2,.48,2.81h0a.86.86,0,0,1-1.24.9l-2.51-1.33L123,152.44a.85.85,0,0,1-1.24-.9l.48-2.81-2-2a.85.85,0,0,1,.47-1.45l2.82-.41,1.26-2.56h0a.85.85,0,0,1,1.53,0l1.26,2.56,2.82.41h0a.85.85,0,0,1,.47,1.45Z"/><path class="cls-3" d="M134.73,147.42h0a2.16,2.16,0,0,1,2.16-2.16h11.83a2.16,2.16,0,0,1,0,4.32H136.89A2.16,2.16,0,0,1,134.73,147.42Z"/><path class="cls-3" d="M130.88,129.52l-2,2,.48,2.81h0a.86.86,0,0,1-1.24.9l-2.51-1.33L123,135.22a.85.85,0,0,1-1.24-.9l.48-2.81-2-2a.85.85,0,0,1,.47-1.45l2.82-.41,1.26-2.56h0a.85.85,0,0,1,1.53,0l1.26,2.56,2.82.41h0a.85.85,0,0,1,.47,1.45Z"/><path class="cls-3" d="M134.73,130.2h0a2.16,2.16,0,0,1,2.16-2.16h11.83a2.16,2.16,0,0,1,0,4.32H136.89A2.16,2.16,0,0,1,134.73,130.2Z"/><path class="cls-3" d="M130.88,210.05l-2,2,.48,2.81h0a.86.86,0,0,1-1.24.9l-2.51-1.33L123,215.75a.85.85,0,0,1-1.24-.9l.48-2.81-2-2a.85.85,0,0,1,.47-1.45l2.82-.41,1.26-2.56h0a.85.85,0,0,1,1.53,0l1.26,2.56,2.82.41h0a.85.85,0,0,1,.47,1.45Z"/><path class="cls-3" d="M134.73,210.74h0a2.16,2.16,0,0,1,2.16-2.16h11.83a2.16,2.16,0,0,1,0,4.32H136.89A2.16,2.16,0,0,1,134.73,210.74Z"/><path class="cls-3" d="M130.88,192.83l-2,2,.48,2.81h0a.86.86,0,0,1-1.24.9l-2.51-1.33L123,198.53a.85.85,0,0,1-1.24-.9l.48-2.81-2-2a.85.85,0,0,1,.47-1.45l2.82-.41,1.26-2.56h0a.85.85,0,0,1,1.53,0l1.26,2.56,2.82.41h0a.85.85,0,0,1,.47,1.45Z"/><path class="cls-3" d="M134.73,193.52h0a2.16,2.16,0,0,1,2.16-2.16h11.83a2.16,2.16,0,0,1,0,4.32H136.89A2.16,2.16,0,0,1,134.73,193.52Z"/><path class="cls-3" d="M130.88,112.3l-2,2,.48,2.81h0a.86.86,0,0,1-1.24.9l-2.51-1.33L123,118a.85.85,0,0,1-1.24-.9l.48-2.81-2-2a.85.85,0,0,1,.47-1.45l2.82-.41,1.26-2.56h0a.85.85,0,0,1,1.53,0l1.26,2.56,2.82.41h0a.85.85,0,0,1,.47,1.45Z"/><path class="cls-3" d="M134.73,113h0a2.16,2.16,0,0,1,2.16-2.16h11.83a2.16,2.16,0,0,1,0,4.32H136.89A2.16,2.16,0,0,1,134.73,113Z"/><path class="cls-3" d="M130.88,95.08l-2,2,.48,2.81h0a.86.86,0,0,1-1.24.9l-2.51-1.33L123,100.78a.85.85,0,0,1-1.24-.9l.48-2.81-2-2a.85.85,0,0,1,.47-1.45l2.82-.41,1.26-2.56h0a.85.85,0,0,1,1.53,0l1.26,2.56,2.82.41h0a.85.85,0,0,1,.47,1.45Z"/><path class="cls-3" d="M134.73,95.77h0a2.16,2.16,0,0,1,2.16-2.16h11.83a2.16,2.16,0,0,1,0,4.32H136.89A2.16,2.16,0,0,1,134.73,95.77Z"/><path class="cls-3" d="M130.88,77.86l-2,2,.48,2.81h0a.86.86,0,0,1-1.24.9l-2.51-1.33L123,83.56a.85.85,0,0,1-1.24-.9l.48-2.81-2-2a.85.85,0,0,1,.47-1.45l2.82-.41,1.26-2.56h0a.85.85,0,0,1,1.53,0L127.59,76l2.82.41h0a.85.85,0,0,1,.47,1.45Z"/><path class="cls-3" d="M134.73,78.55h0a2.16,2.16,0,0,1,2.16-2.16h11.83a2.16,2.16,0,0,1,0,4.32H136.89A2.16,2.16,0,0,1,134.73,78.55Z"/><path class="cls-4" d="M150.74,171.35h-13a2.36,2.36,0,1,1,0-4.72h13a2.36,2.36,0,1,1,0,4.72Zm-19.54-3.12L129,170.41l.52,3.07h0a.94.94,0,0,1-1.33,1L125.38,173l-2.76,1.46a.93.93,0,0,1-1.35-1l.52-3.07-2.21-2.2a.93.93,0,0,1,.52-1.59l3.06-.46,1.38-2.8a.93.93,0,0,1,1.68,0l1.38,2.8,3.09.45h0a.93.93,0,0,1,.52,1.59Zm27-9.35h-44A2.21,2.21,0,0,0,112,161.1v15.32a2.21,2.21,0,0,0,2.21,2.2h44a2.21,2.21,0,0,0,2.21-2.21V161.09A2.21,2.21,0,0,0,158.19,158.89Z"/><path class="cls-3" d="M122.3,46.89a2.09,2.09,0,1,1,1.48.61A2.07,2.07,0,0,1,122.3,46.89Zm5.31,1.86L126,47.13a2.79,2.79,0,1,0-.5.5l1.62,1.62a.35.35,0,1,0,.5-.5Z"/><line class="cls-7" x1="119.98" y1="53.44" x2="359.13" y2="53.44"/><path class="cls-4" d="M211,97.23l-2,2,.48,2.81h0a.86.86,0,0,1-1.24.9l-2.51-1.33-2.53,1.33a.85.85,0,0,1-1.24-.9l.48-2.81-2-2a.85.85,0,0,1,.47-1.45l2.82-.41,1.26-2.56h0a.85.85,0,0,1,1.53,0l1.26,2.56,2.82.41h0a.85.85,0,0,1,.47,1.45Z"/><path class="cls-4" d="M214.88,97.91h0A2.16,2.16,0,0,1,217,95.75h98.83a2.16,2.16,0,0,1,0,4.32H217A2.16,2.16,0,0,1,214.88,97.91Z"/><line class="cls-8" x1="215.53" y1="110.27" x2="269.27" y2="110.27"/><line class="cls-8" x1="214.88" y1="130.09" x2="309.59" y2="130.09"/><line class="cls-8" x1="214.88" y1="137.16" x2="321.21" y2="137.16"/><line class="cls-8" x1="214.88" y1="144.24" x2="315.34" y2="144.24"/><line class="cls-8" x1="214.88" y1="151.32" x2="304.95" y2="151.32"/><line class="cls-8" x1="214.88" y1="158.4" x2="315.34" y2="158.4"/><line class="cls-8" x1="214.88" y1="165.47" x2="286.65" y2="165.47"/><path class="cls-5" d="M306.41,173l5,3.67a.48.48,0,0,1,0,.78l-5,3.67v-1.48a.48.48,0,0,0-.48-.48,13.27,13.27,0,0,0-6.53,1.59.48.48,0,0,1-.66-.66c1.7-2.85,4.89-4.37,7.32-5a.48.48,0,0,0,.35-.46Z"/></g></g></svg>