<svg version="1.1" xmlns="http://www.w3.org/2000/svg" xmlns:xlink="http://www.w3.org/1999/xlink" viewBox="0 0 175 40.2" xml:space="preserve">
<path style="fill: #14577E;" d="M28,8c-0.1,0-9.3,3.8-3.6,10.1c4.8,5.2,7.2,7.4,5.8,14.3c-0.7,3-2.6,5.7-5.2,7.4c9.2-3.9,13.5-14.5,9.6-23.7 C33.3,12.7,31,9.9,28,8z M56.9,16.6c-0.5-0.6-1.1-1-1.7-1.2c-0.7-0.2-1.4-0.4-2.1-0.4c-0.4,0-0.8,0.1-1.2,0.1 c-0.4,0.1-0.8,0.2-1.1,0.4c-0.3,0.2-0.6,0.4-0.9,0.8c-0.2,0.3-0.4,0.7-0.3,1.2c0,0.7,0.3,1.3,0.8,1.7c0.6,0.4,1.3,0.8,2,1 c0.8,0.3,1.7,0.5,2.6,0.8c0.9,0.3,1.8,0.6,2.6,1.1c0.8,0.5,1.5,1.2,2,2c0.6,1,0.9,2.1,0.8,3.3c0,1.2-0.2,2.4-0.7,3.4 c-0.5,1-1.2,1.8-2,2.4c-0.9,0.7-1.9,1.2-2.9,1.4c-2.6,0.7-5.3,0.6-7.8-0.2c-1.4-0.5-2.6-1.3-3.7-2.3l3.7-4.1c0.5,0.7,1.2,1.3,2,1.7 c1.2,0.6,2.5,0.7,3.8,0.4c0.4-0.1,0.8-0.2,1.2-0.5c0.3-0.2,0.6-0.5,0.8-0.8c0.2-0.3,0.3-0.7,0.3-1.1c0-0.7-0.3-1.3-0.8-1.7 c-0.6-0.5-1.3-0.8-2.1-1c-0.8-0.3-1.7-0.6-2.7-0.9c-0.9-0.3-1.8-0.7-2.7-1.2c-0.8-0.5-1.5-1.2-2.1-1.9c-0.6-1-0.9-2.1-0.8-3.2 c0-1.2,0.2-2.3,0.8-3.4c0.5-0.9,1.2-1.8,2-2.4c0.9-0.7,1.8-1.2,2.9-1.4c1.1-0.3,2.2-0.5,3.4-0.5c1.3,0,2.6,0.2,3.9,0.6 c1.3,0.4,2.4,1,3.4,1.9L56.9,16.6z M73.1,32.5L73.1,32.5c-0.6,0.8-1.4,1.5-2.3,1.9c-0.9,0.4-1.9,0.6-2.9,0.6c-0.7,0-1.5-0.1-2.2-0.3 c-0.7-0.2-1.3-0.5-1.9-1c-0.5-0.4-1-1-1.3-1.6c-0.3-0.7-0.5-1.4-0.5-2.2c0-0.8,0.1-1.6,0.5-2.4c0.3-0.6,0.8-1.2,1.4-1.6 c0.6-0.4,1.3-0.8,2-1c0.8-0.2,1.6-0.4,2.3-0.5c0.8-0.1,1.6-0.2,2.4-0.2c0.8,0,1.6,0,2.3,0c0-0.8-0.3-1.6-1-2.1 c-0.6-0.5-1.4-0.8-2.3-0.8c-0.8,0-1.6,0.2-2.3,0.5c-0.7,0.4-1.3,0.8-1.8,1.4l-2.7-2.8c0.9-0.9,2.1-1.5,3.3-1.9 c1.2-0.4,2.6-0.7,3.9-0.6c1.2,0,2.5,0.1,3.6,0.5c0.9,0.3,1.7,0.9,2.3,1.6c0.6,0.8,1,1.7,1.2,2.6c0.2,1.2,0.3,2.4,0.3,3.6v8.3h-4.6 V32.5z M71.9,27.4c-0.4,0-0.9,0-1.4,0.1c-0.6,0-1.1,0.1-1.7,0.3c-0.5,0.1-0.9,0.4-1.3,0.7c-0.4,0.3-0.6,0.8-0.6,1.3 c0,0.6,0.3,1.1,0.8,1.3c0.5,0.3,1.1,0.4,1.6,0.4c0.5,0,1-0.1,1.4-0.2c0.4-0.1,0.8-0.3,1.2-0.6c0.4-0.2,0.6-0.6,0.9-0.9 c0.2-0.4,0.3-0.9,0.3-1.3v-1.1H71.9z M80.1,9.2h5v25.3h-5V9.2z M103.3,31.7c-0.8,1-1.9,1.9-3.1,2.4c-1.2,0.6-2.5,0.8-3.8,0.8 c-1.2,0-2.4-0.2-3.5-0.6c-1.1-0.4-2-1-2.9-1.7c-0.8-0.8-1.5-1.7-1.9-2.7c-0.9-2.3-0.9-4.8,0-7c0.5-1,1.1-1.9,1.9-2.7 c0.8-0.8,1.8-1.3,2.9-1.7c1.1-0.4,2.3-0.6,3.5-0.6c1.1,0,2.2,0.2,3.2,0.6c0.9,0.4,1.7,1,2.4,1.7c0.7,0.8,1.2,1.7,1.5,2.7 c0.4,1.1,0.6,2.3,0.6,3.5v1.6H92.5c0.2,0.9,0.6,1.7,1.3,2.3c0.7,0.6,1.6,0.9,2.5,0.8c0.7,0,1.5-0.2,2.1-0.6c0.6-0.4,1.1-0.9,1.5-1.4 L103.3,31.7z M99.1,24.5c0-0.8-0.3-1.6-0.8-2.2c-0.6-0.6-1.4-0.9-2.3-0.9c-0.5,0-1,0.1-1.5,0.3c-0.4,0.2-0.8,0.4-1.1,0.7 c-0.6,0.6-0.9,1.3-1,2.1L99.1,24.5z M115.5,23c-0.7-0.9-1.8-1.4-2.9-1.4c-0.4,0-0.9,0.1-1.2,0.3c-0.4,0.2-0.6,0.6-0.6,1 c0,0.4,0.2,0.8,0.6,0.9c0.5,0.2,1,0.4,1.6,0.5l2,0.5c0.7,0.2,1.4,0.4,2,0.8c0.6,0.3,1.2,0.8,1.6,1.4c0.4,0.7,0.7,1.6,0.6,2.5 c0,0.9-0.2,1.8-0.7,2.6c-0.5,0.7-1.1,1.2-1.8,1.7c-0.7,0.4-1.6,0.7-2.4,0.9c-0.9,0.2-1.8,0.3-2.6,0.3c-1.2,0-2.3-0.2-3.4-0.5 c-1.1-0.3-2.2-0.9-3-1.7l3-3.4c0.4,0.5,1,1,1.6,1.3c0.6,0.3,1.3,0.5,2,0.5c0.5,0,1.1-0.1,1.6-0.3c0.4-0.1,0.7-0.5,0.7-0.9 c0-0.4-0.2-0.8-0.6-1c-0.5-0.2-1-0.4-1.6-0.5l-2-0.5c-0.7-0.2-1.4-0.4-2-0.8c-0.6-0.3-1.2-0.8-1.6-1.4c-0.4-0.7-0.7-1.6-0.6-2.5 c0-0.9,0.2-1.7,0.6-2.5c0.4-0.7,0.9-1.3,1.5-1.7c0.7-0.5,1.4-0.8,2.2-1c0.8-0.2,1.7-0.3,2.5-0.3c1.1,0,2.2,0.2,3.2,0.5 c1.1,0.3,2,0.9,2.8,1.7L115.5,23z"/>
<path style="fill: #1F85C0;" d="M19.7,23.6L19.7,23.6c-4.8-3.5-8.3-9.5-5.4-14.3l0,0c1.3-1.6,3-2.9,4.8-4c0.2-0.1,0.4-0.2,0.6-0.3h-0.1 c8.9-5,21.9-4.8,21.9-4.8s-22.9-2.6-35.1,9C4,11.3,2.1,14,1.1,17v0l0,0c-3,8.3,0.5,17.6,8.3,21.9c4.4,2.6,10.1,1.2,12.7-3.2 C24.4,31.6,23.4,26.4,19.7,23.6L19.7,23.6z M122.2,10.8h2.8v21.1h10.9v2.6h-13.7V10.8z M136.7,26.7c0-1.2,0.2-2.3,0.6-3.4 c0.8-2,2.4-3.5,4.4-4.3c2.2-0.8,4.5-0.8,6.7,0c2,0.8,3.6,2.3,4.4,4.3c0.8,2.2,0.8,4.5,0,6.7c-0.8,2-2.4,3.5-4.4,4.3 c-2.2,0.8-4.5,0.8-6.7,0c-2-0.8-3.6-2.3-4.4-4.3C136.9,29,136.7,27.8,136.7,26.7z M139.5,26.7c0,0.8,0.1,1.6,0.4,2.3 c0.5,1.4,1.5,2.5,2.9,3.1c1.5,0.6,3.1,0.6,4.6,0c1.3-0.6,2.4-1.7,2.9-3.1c0.5-1.5,0.5-3.1,0-4.6c-0.5-1.4-1.5-2.5-2.9-3.1 c-1.5-0.6-3.1-0.6-4.6,0c-1.3,0.6-2.4,1.7-2.9,3.1C139.6,25.1,139.5,25.9,139.5,26.7L139.5,26.7z M158,21.1h-3.4v-2.2h3.4v-3.5 c0-0.9,0.1-1.8,0.3-2.6c0.1-0.7,0.5-1.5,0.9-2.1c0.5-0.6,1.1-1.1,1.7-1.4c0.8-0.3,1.7-0.5,2.6-0.5c0.4,0,0.7,0,1.1,0.1 c0.3,0.1,0.6,0.2,0.9,0.3l-0.4,2.3c-0.6-0.2-1.2-0.3-1.8-0.3c-0.6,0-1.1,0.1-1.6,0.3c-0.4,0.2-0.7,0.6-0.9,1c-0.2,0.5-0.3,1-0.3,1.5 c0,0.6-0.1,1.2-0.1,1.9v3h3.8V21h-3.8v13.5h-2.6L158,21.1L158,21.1z M174.9,21.1h-4.6v7.9c0,0.5,0,1,0,1.4c0,0.4,0.1,0.8,0.3,1.1 c0.2,0.3,0.4,0.6,0.7,0.8c0.4,0.2,0.9,0.3,1.3,0.3c0.4,0,0.8-0.1,1.2-0.1c0.4-0.1,0.8-0.2,1.1-0.4l0.1,2.4c-0.5,0.2-1,0.3-1.5,0.4 c-0.5,0.1-1,0.1-1.6,0.1c-0.8,0-1.5-0.1-2.3-0.4c-0.5-0.2-1-0.6-1.3-1c-0.3-0.5-0.5-1.1-0.6-1.7c-0.1-0.7-0.2-1.5-0.1-2.2v-8.6h-3.4 v-2.2h3.5v-4.5h2.6v4.5h4.6L174.9,21.1L174.9,21.1z"/>
</svg>
